<svg width="23" height="25" viewBox="0 0 23 25" fill="none" xmlns="http://www.w3.org/2000/svg">
<path d="M2.2057 20.1291H20.917C22.1114 20.1291 22.8553 19.4801 22.8553 18.5023C22.8553 17.2692 21.7127 16.2061 20.6711 15.1906C19.8513 14.3925 19.6551 12.7137 19.5065 11.1846C19.3422 6.87027 18.0836 3.83136 15.0424 2.73378C14.5612 1.18597 13.293 0.00213623 11.5565 0.00213623C9.83179 0.00213623 8.55398 1.18597 8.08242 2.73378C5.04116 3.83136 3.78046 6.87027 3.61828 11.1846C3.46969 12.7137 3.2714 14.3925 2.45367 15.1906C1.4025 16.2061 0.269531 17.2692 0.269531 18.5023C0.269531 19.4801 1.00172 20.1291 2.2057 20.1291ZM11.5565 24.9548C13.6289 24.9548 15.141 23.4722 15.2913 21.7683H7.83351C7.98164 23.4722 9.49593 24.9548 11.5565 24.9548Z" fill="#8F99BA"/>
</svg>
