<svg width="17" height="24" viewBox="0 0 17 24" fill="none" xmlns="http://www.w3.org/2000/svg">
<path d="M3.00953 23.4796H13.9832C15.7628 23.4796 16.6959 22.5252 16.6959 20.604V12.3041C16.6959 10.3893 15.7628 9.44446 13.9832 9.44446H3.00953C1.22781 9.44446 0.296875 10.3893 0.296875 12.3041V20.604C0.296875 22.5252 1.22781 23.4796 3.00953 23.4796ZM2.43835 10.4291H4.63279L4.6349 6.47656C4.6349 3.73436 6.39507 2.22944 8.49156 2.22944C10.5838 2.22944 12.3696 3.73436 12.3696 6.47656L12.3653 10.4291H14.5523L14.5544 6.6943C14.5544 2.37031 11.6927 0.130859 8.49156 0.130859C5.30008 0.130859 2.44046 2.37031 2.44046 6.6943L2.43835 10.4291Z" fill="#8F99BA"/>
</svg>
