<svg width="158" height="158" viewBox="0 0 158 158" fill="none" xmlns="http://www.w3.org/2000/svg">
<circle cx="78.9796" cy="78.9796" r="78.9796" fill="#F1F3F9"/>
<path d="M32.5237 126.669V120.334H72.6442V116.111H21.9657C21.4056 116.111 20.8686 115.889 20.4725 115.493C20.0765 115.097 19.8541 114.559 19.8541 113.999V35.87H116.988V71.7673H121.211V46.428H129.658V67.5441H133.881V33.7584C133.881 32.0783 133.213 30.467 132.025 29.279C130.837 28.091 129.226 27.4235 127.546 27.4235H121.211V21.0887C121.211 19.4086 120.544 17.7973 119.356 16.6093C118.168 15.4213 116.556 14.7539 114.876 14.7539H21.9657C20.2856 14.7539 18.6743 15.4213 17.4863 16.6093C16.2983 17.7973 15.6309 19.4086 15.6309 21.0887V113.999C15.6309 115.68 16.2983 117.291 17.4863 118.479C18.6743 119.667 20.2856 120.334 21.9657 120.334H28.3005V126.669C28.3005 128.349 28.9679 129.96 30.1559 131.148C31.3439 132.336 32.9552 133.004 34.6353 133.004H87.4255V128.781H34.6353C34.0753 128.781 33.5382 128.558 33.1422 128.162C32.7462 127.766 32.5237 127.229 32.5237 126.669ZM127.546 31.6468C128.106 31.6468 128.643 31.8692 129.039 32.2652C129.435 32.6612 129.658 33.1983 129.658 33.7584V42.2048H121.211V31.6468H127.546ZM21.9657 18.9771H114.876C115.436 18.9771 115.974 19.1996 116.37 19.5956C116.766 19.9916 116.988 20.5287 116.988 21.0887V31.6468H19.8541V21.0887C19.8541 20.5287 20.0765 19.9916 20.4725 19.5956C20.8686 19.1996 21.4056 18.9771 21.9657 18.9771ZM129.658 126.669C129.658 127.229 129.435 127.766 129.039 128.162C128.643 128.558 128.106 128.781 127.546 128.781H114.876V133.004H127.546C129.226 133.004 130.837 132.336 132.025 131.148C133.213 129.96 133.881 128.349 133.881 126.669V118.223H129.658V126.669Z" fill="#CCD2E6"/>
<path d="M28.3008 23.2004H32.524V27.4237H28.3008V23.2004ZM36.7472 23.2004H40.9704V27.4237H36.7472V23.2004ZM45.1936 23.2004H49.4169V27.4237H45.1936V23.2004ZM55.7517 69.6558C56.3117 69.6558 56.8488 69.4333 57.2448 69.0373C57.6408 68.6413 57.8633 68.1042 57.8633 67.5442V46.4281C57.8633 45.8681 57.6408 45.331 57.2448 44.935C56.8488 44.539 56.3117 44.3165 55.7517 44.3165H30.4124C29.8524 44.3165 29.3153 44.539 28.9193 44.935C28.5233 45.331 28.3008 45.8681 28.3008 46.4281V67.5442C28.3008 68.1042 28.5233 68.6413 28.9193 69.0373C29.3153 69.4333 29.8524 69.6558 30.4124 69.6558H55.7517ZM32.524 48.5397H53.6401V65.4326H32.524V48.5397ZM66.3097 44.3165H70.5329V48.5397H66.3097V44.3165ZM74.7561 44.3165H78.9794V48.5397H74.7561V44.3165ZM83.2026 44.3165H100.095V48.5397H83.2026V44.3165ZM66.3097 52.7629H100.095V56.9861H66.3097V52.7629ZM66.3097 61.2094H100.095V65.4326H66.3097V61.2094ZM66.3097 69.6558H100.095V73.879H66.3097V69.6558ZM28.3008 78.1022H66.3097V82.3254H28.3008V78.1022ZM28.3008 86.5486H66.3097V90.7719H28.3008V86.5486ZM28.3008 94.9951H66.3097V99.2183H28.3008V94.9951ZM28.3008 103.441H66.3097V107.665H28.3008V103.441ZM103.907 117.093L119.881 114.791C120.856 115.817 122.148 116.485 123.548 116.686C124.949 116.888 126.376 116.613 127.601 115.904C129.056 115.063 130.117 113.679 130.553 112.056C130.988 110.433 130.762 108.703 129.924 107.247L124.645 98.1034C126.101 97.2633 127.164 95.8792 127.599 94.2556C128.035 92.632 127.808 90.9019 126.968 89.4458C126.128 87.9897 124.744 86.9269 123.12 86.4913C121.496 86.0557 119.766 86.283 118.31 87.123L113.031 77.9797C112.248 76.6583 111.012 75.6663 109.552 75.1885C108.092 74.7107 106.508 74.7795 105.095 75.3823C103.683 75.985 102.537 77.0806 101.872 78.465C101.206 79.8495 101.067 81.4285 101.479 82.9082L88.4161 99.5055L77.7947 105.629C76.3401 106.47 75.2786 107.855 74.8431 109.478C74.4077 111.101 74.6338 112.83 75.472 114.287L79.6952 121.601C80.1108 122.323 80.6645 122.955 81.3247 123.462C81.9848 123.969 82.7385 124.341 83.5425 124.557C84.3466 124.773 85.1853 124.828 86.0107 124.719C86.836 124.611 87.6319 124.34 88.3528 123.924L95.7434 136.725C96.159 137.446 96.7127 138.078 97.3729 138.585C98.033 139.093 98.7867 139.465 99.5908 139.68C100.395 139.896 101.234 139.951 102.059 139.843C102.884 139.734 103.68 139.464 104.401 139.047L108.058 136.936C108.78 136.52 109.412 135.966 109.919 135.306C110.426 134.646 110.798 133.893 111.014 133.088C111.23 132.284 111.285 131.446 111.176 130.62C111.068 129.795 110.797 128.999 110.381 128.278L103.907 117.093ZM123.302 91.5637C123.582 92.0484 123.658 92.6246 123.514 93.1655C123.369 93.7064 123.016 94.1678 122.531 94.4482L120.42 90.7909C120.904 90.5115 121.48 90.436 122.021 90.5809C122.561 90.7258 123.022 91.0793 123.302 91.5637ZM106.485 79.3312C106.97 79.051 107.546 78.9748 108.087 79.1193C108.628 79.2639 109.089 79.6173 109.37 80.1019L126.262 109.362C126.411 109.603 126.51 109.871 126.553 110.15C126.597 110.429 126.583 110.714 126.515 110.989C126.446 111.263 126.322 111.52 126.152 111.746C125.982 111.971 125.768 112.16 125.523 112.302C125.278 112.443 125.008 112.534 124.727 112.569C124.447 112.604 124.162 112.582 123.89 112.505C123.618 112.428 123.364 112.297 123.144 112.119C122.924 111.942 122.741 111.723 122.607 111.474L105.714 82.2135C105.435 81.729 105.359 81.1533 105.504 80.6129C105.648 80.0725 106.001 79.6115 106.485 79.3312ZM103.615 87.0259L117.389 110.887L99.3796 113.48L92.3627 101.33L103.615 87.0259ZM89.0454 104.029L95.3802 115.009L91.7229 117.12L85.3881 106.14L89.0454 104.029ZM83.344 119.507L79.1208 112.192C78.8408 111.707 78.7649 111.131 78.9099 110.59C79.0548 110.049 79.4087 109.588 79.8937 109.308L81.7223 108.252L88.0571 119.232L86.2285 120.288C85.7434 120.564 85.1689 120.637 84.6304 120.49C84.0918 120.344 83.6332 119.99 83.3546 119.507H83.344ZM105.938 133.287L102.281 135.399C101.796 135.679 101.22 135.754 100.679 135.61C100.138 135.465 99.6765 135.111 99.3965 134.626L92.0059 121.825L98.9742 117.813L99.3965 117.752L106.705 130.411C106.983 130.894 107.058 131.468 106.915 132.006C106.772 132.545 106.422 133.006 105.94 133.287H105.938ZM129.559 85.514L136.873 81.2907L138.985 84.948L131.67 89.1713L129.559 85.514ZM122.55 80.5411L124.871 71.8835L128.951 72.9795L126.628 81.6349L122.55 80.5411ZM132.496 97.7592L133.59 93.6795L142.245 96.0002L141.151 100.08L132.496 97.7592Z" fill="#CCD2E6"/>
</svg>
