<svg width="25" height="25" viewBox="0 0 25 25" fill="none" xmlns="http://www.w3.org/2000/svg">
<circle cx="12.2788" cy="12.1479" r="12.0171" fill="#8F99BA"/>
<path d="M9.99469 18.6866C9.47739 18.6866 9.08789 18.3172 9.08789 17.7957C9.08789 17.3136 9.47739 16.9241 9.99469 16.9241H11.3332V12.2239H10.1927C9.68299 12.2239 9.28379 11.862 9.28379 11.3426C9.28379 10.8605 9.68299 10.471 10.1927 10.471H12.3401C12.9722 10.471 13.3106 10.9234 13.3106 11.5948V16.9241H14.5626C15.0799 16.9241 15.4694 17.3136 15.4694 17.7957C15.4694 18.3172 15.0799 18.6866 14.5626 18.6866H9.99469ZM11.9116 8.72703C11.0609 8.72703 10.3645 8.02858 10.3645 7.1703C10.3645 6.30148 11.0609 5.60938 11.9116 5.60938C12.772 5.60938 13.4587 6.30148 13.4587 7.1703C13.4587 8.02858 12.772 8.72703 11.9116 8.72703Z" fill="white"/>
</svg>
