<svg width="27" height="27" viewBox="0 0 27 27" fill="none" xmlns="http://www.w3.org/2000/svg">
<path d="M7.33219 26.263C7.81664 26.263 8.19023 26.0307 8.77476 25.4898L13.079 21.5952H20.7668C24.2948 21.5952 26.2711 19.5784 26.2711 16.1005V7.01211C26.2711 3.53422 24.2948 1.50781 20.7668 1.50781H5.81859C2.29266 1.50781 0.316406 3.52461 0.316406 7.01211V16.1005C0.316406 19.588 2.34117 21.5952 5.74477 21.5952H6.2175V24.9906C6.2175 25.7614 6.62625 26.263 7.33219 26.263Z" fill="#8F99BA"/>
<path d="M13.036 13.9809C12.2787 13.9809 11.8693 13.6212 11.8693 12.9272C11.8693 12.8866 11.8693 12.8365 11.8693 12.7959C11.8693 11.685 12.5065 11.0669 13.3641 10.4597C14.401 9.7404 14.9091 9.36516 14.9091 8.59336C14.9091 7.77633 14.2512 7.19953 13.2678 7.19953C12.5447 7.19953 11.9689 7.54734 11.5479 8.20617L11.3644 8.46117C11.1206 8.77406 10.8206 8.96906 10.3767 8.96906C9.87164 8.96906 9.4043 8.60016 9.4043 8.0168C9.4043 7.78899 9.45539 7.57923 9.52453 7.37907C9.91289 6.23415 11.3229 5.29102 13.4194 5.29102C15.5895 5.29102 17.4225 6.43969 17.4225 8.47008C17.4225 9.89368 16.6378 10.5905 15.4343 11.3744C14.6433 11.8894 14.209 12.3124 14.1731 12.9457C14.1689 12.9809 14.1668 13.0395 14.1647 13.0863C14.1331 13.5879 13.7044 13.9809 13.036 13.9809ZM13.0092 17.7115C12.2335 17.7115 11.5777 17.1459 11.5777 16.3732C11.5777 15.6122 12.2239 15.0349 13.0092 15.0349C13.8042 15.0349 14.4441 15.6047 14.4441 16.3732C14.4441 17.1555 13.7946 17.7115 13.0092 17.7115Z" fill="white"/>
</svg>
