<svg width="27" height="25" viewBox="0 0 27 25" fill="none" xmlns="http://www.w3.org/2000/svg">
<path d="M22.7121 8.04197C22.4151 7.71257 21.9337 7.71257 21.6367 8.04197C21.3397 8.37138 21.3397 8.90545 21.6367 9.23485L23.7132 11.5382L14.149 11.5382C13.6785 11.5382 13.2971 11.9061 13.2971 12.3599C13.2971 12.8137 13.6785 13.1816 14.149 13.1816L23.7132 13.1816L21.6367 15.4849C21.3397 15.8143 21.3397 16.3483 21.6367 16.6777C21.9336 17.0071 22.4151 17.0071 22.7121 16.6777L26.0605 12.9637C26.2095 12.7983 26.2838 12.5814 26.2832 12.3647C26.2832 12.3631 26.2832 12.3615 26.2832 12.3599L26.2832 12.3562C26.2841 12.1391 26.2098 11.9217 26.0605 11.756L22.7121 8.04197Z" fill="#8F99BA"/>
<path fill-rule="evenodd" clip-rule="evenodd" d="M4.32617 0.130859C2.11703 0.130859 0.326172 1.92172 0.326172 4.13086V20.5889C0.326172 22.798 2.11703 24.5889 4.32617 24.5889H15.48C17.6892 24.5889 19.48 22.798 19.48 20.5889V13.5578H19.4804L19.4805 11.1602H19.48V4.13086C19.48 1.92172 17.6892 0.130859 15.48 0.130859H4.32617ZM19.48 11.1602H11.5609C11.1713 11.1602 10.4614 11.4537 10.4614 12.359C10.4614 13.2643 11.1713 13.5578 11.5609 13.5578L19.48 13.5578V11.1602Z" fill="#8F99BA"/>
</svg>
