<svg width="21" height="28" viewBox="0 0 21 28" fill="none" xmlns="http://www.w3.org/2000/svg">
<path d="M5.86815 4.13555C5.53874 4.43252 5.53874 4.914 5.86815 5.21097C6.19755 5.50794 6.73162 5.50794 7.06102 5.21097L9.36435 3.13443L9.36435 12.6987C9.36435 13.1691 9.73224 13.5505 10.186 13.5505C10.6398 13.5505 11.0077 13.1691 11.0077 12.6987L11.0077 3.13447L13.311 5.21098C13.6404 5.50795 14.1745 5.50795 14.5039 5.21098C14.8333 4.91401 14.8333 4.43253 14.5039 4.13556L10.7899 0.787192C10.6245 0.63812 10.4076 0.563879 10.1909 0.564467C10.1893 0.564458 10.1876 0.564453 10.186 0.564453L10.1824 0.564461C9.96529 0.563589 9.74786 0.637829 9.5822 0.787182L5.86815 4.13555Z" fill="#8F99BA"/>
<path fill-rule="evenodd" clip-rule="evenodd" d="M0.296875 23.6953C0.296875 25.9045 2.08774 27.6953 4.29687 27.6953L16.0772 27.6953C18.2863 27.6953 20.0772 25.9044 20.0772 23.6953L20.0771 12.5414C20.0771 10.3323 18.2863 8.54143 16.0771 8.54143L11.3859 8.54143L11.3859 8.54105L8.98828 8.54102L8.98828 8.54143L4.29687 8.54144C2.08774 8.54144 0.296874 10.3323 0.296874 12.5414L0.296875 23.6953ZM8.98828 8.54143L8.98828 16.4606C8.98828 16.8502 9.28178 17.5601 10.1871 17.5601C11.0924 17.5601 11.3859 16.8502 11.3859 16.4606L11.3859 8.54143L8.98828 8.54143Z" fill="#8F99BA"/>
</svg>
