<svg width="23" height="24" viewBox="0 0 23 24" fill="none" xmlns="http://www.w3.org/2000/svg">
<path d="M6.38077 16.9937C9.83922 20.4564 14.0263 23.116 17.4466 23.116C18.9815 23.116 20.3289 22.5824 21.4101 21.3894C22.0417 20.6874 22.42 19.8789 22.42 19.0735C22.42 18.4517 22.1805 17.8534 21.5938 17.4275L17.9877 14.8665C17.4201 14.4746 16.9525 14.2871 16.5243 14.2871C15.9822 14.2871 15.4954 14.5982 14.9479 15.1339L14.1032 15.9711C13.9743 16.1 13.806 16.1586 13.6537 16.1586C13.4737 16.1586 13.2916 16.0883 13.1723 16.0234C12.4352 15.624 11.1719 14.5386 9.99905 13.3754C8.83585 12.2122 7.75046 10.9489 7.36069 10.2118C7.29577 10.0829 7.22546 9.9104 7.22546 9.73251C7.22546 9.57805 7.27445 9.41938 7.40336 9.29047L8.25014 8.42657C8.77633 7.87907 9.09694 7.40188 9.09694 6.85016C9.09694 6.42196 8.89983 5.95438 8.49835 5.38673L5.96617 1.81907C5.53491 1.22282 4.92274 0.966187 4.2625 0.966187C3.47219 0.966187 2.67321 1.31353 1.97547 1.9836C0.811328 3.0861 0.296875 4.45274 0.296875 5.96634C0.296875 9.38657 2.91812 13.5449 6.38077 16.9937Z" fill="#8F99BA"/>
</svg>
