<svg width="24" height="27" viewBox="0 0 24 27" fill="none" xmlns="http://www.w3.org/2000/svg">
<path d="M6.29991 26.3026H17.4065C19.0009 26.3026 19.9284 25.4497 19.9954 23.8721L20.7391 6.92186H22.3724C22.9499 6.92186 23.4095 6.46319 23.4095 5.88569C23.4095 5.31242 22.9499 4.86336 22.3724 4.86336H1.33397C0.766091 4.86336 0.296875 5.31242 0.296875 5.88569C0.296875 6.4728 0.766091 6.92186 1.33397 6.92186H2.97695L3.72062 23.8721C3.78554 25.4497 4.71507 26.3026 6.29991 26.3026ZM8.10203 22.7317C7.63797 22.7317 7.31335 22.4305 7.30163 21.9643L6.94046 9.48733C6.92874 9.02866 7.24492 8.71577 7.74413 8.71577C8.20703 8.71577 8.54124 9.01905 8.55295 9.47561L8.90242 21.958C8.91413 22.4188 8.59585 22.7317 8.10203 22.7317ZM11.8591 22.7317C11.3716 22.7317 11.0299 22.423 11.0299 21.9664V9.48311C11.0299 9.02655 11.3716 8.71577 11.8591 8.71577C12.3445 8.71577 12.6766 9.02655 12.6766 9.48311V21.9664C12.6766 22.423 12.3445 22.7317 11.8591 22.7317ZM15.6044 22.7317C15.1106 22.7317 14.7923 22.4188 14.804 21.958L15.1535 9.48522C15.1673 9.01905 15.4994 8.71577 15.9623 8.71577C16.4519 8.71577 16.7777 9.02866 16.7659 9.48733L16.4069 21.9643C16.3931 22.4305 16.0685 22.7317 15.6044 22.7317ZM6.40843 5.27843H8.82273V3.21289C8.82273 2.6839 9.19069 2.33187 9.77499 2.33187H13.9218C14.5061 2.33187 14.8741 2.6839 14.8741 3.21289V5.27843H17.2788V3.10414C17.2788 1.24391 16.0764 0.130859 14.0664 0.130859H9.62078C7.61077 0.130859 6.40843 1.24391 6.40843 3.10414V5.27843Z" fill="#8F99BA"/>
</svg>
