<svg width="14" height="12" viewBox="0 0 14 12" fill="none" xmlns="http://www.w3.org/2000/svg">
<path d="M6.95428 0.157072C6.9924 0.0885615 7.09094 0.0885616 7.12905 0.157072L9.13271 3.75853C9.14783 3.7857 9.17472 3.8043 9.20549 3.80884L13.5319 4.44765C13.615 4.45992 13.6469 4.56301 13.5852 4.62002L10.5036 7.46749C10.4788 7.49043 10.4673 7.52436 10.4729 7.55768L11.1487 11.536C11.1622 11.6155 11.0809 11.6775 11.0078 11.6434L7.08395 9.81235C7.05715 9.79984 7.02618 9.79984 6.99938 9.81235L3.07549 11.6434C3.00242 11.6775 2.92111 11.6155 2.93462 11.536L3.61041 7.55768C3.61607 7.52436 3.60452 7.49043 3.57969 7.46749L0.498148 4.62002C0.436443 4.56301 0.468293 4.45992 0.551407 4.44765L4.87785 3.80884C4.90861 3.8043 4.93551 3.7857 4.95062 3.75853L6.95428 0.157072Z" fill="#17A300"/>
</svg>
