<svg width="27" height="23" viewBox="0 0 27 23" fill="none" xmlns="http://www.w3.org/2000/svg">
<path d="M5.803 8.14839C11.0959 8.14839 13.9033 3.73042 18.7628 3.73042C19.8965 3.73042 20.8886 3.98401 22.0586 4.65315C22.611 4.95971 23.1557 4.7701 23.4482 4.35526C23.7939 3.85745 23.7144 3.14027 23.0033 2.72191C21.6665 1.95386 20.2797 1.58215 18.7628 1.58215C13.3834 1.58215 10.5953 6.00222 5.803 6.00222C4.65972 6.00222 3.6676 5.74652 2.4976 5.07738C1.94307 4.76871 1.39628 4.96254 1.108 5.39121C0.783626 5.88902 0.853467 6.60198 1.55495 7.01073C2.88971 7.77667 4.27652 8.14839 5.803 8.14839ZM5.81471 14.4414C10.352 14.4414 13.1176 11.0762 16.9858 10.2824C17.4123 9.47495 17.8485 8.68886 18.2751 7.88355C13.1099 8.18027 10.49 12.2931 5.81471 12.2931C4.67143 12.2931 3.68143 12.0278 2.50931 11.3587C1.96439 11.05 1.408 11.2438 1.13144 11.6725C0.797454 12.1703 0.865186 12.8833 1.56667 13.292C2.90143 14.0579 4.29783 14.4414 5.81471 14.4414ZM5.803 20.7226C9.29777 20.7226 11.7397 18.7232 14.4348 17.4522C14.3488 16.7994 14.4831 15.8167 14.7278 15.0198C11.6486 16.2906 9.25324 18.5744 5.803 18.5744C4.65972 18.5744 3.6676 18.3187 2.4976 17.6399C1.94307 17.3312 1.39628 17.5251 1.108 17.9537C0.783626 18.4515 0.853467 19.1741 1.55495 19.5733C2.88971 20.3488 4.27652 20.7226 5.803 20.7226Z" fill="#8F99BA"/>
<path d="M21.1953 22.2973C24.0668 22.2973 26.3728 20.0477 26.3728 17.2369C26.3728 15.686 25.6006 14.1745 24.956 12.9675L22.3428 8.10635C22.051 7.55792 21.7425 7.31628 21.1953 7.31628C20.6384 7.31628 20.3278 7.56213 20.0361 8.10635L17.4462 12.9675C16.7996 14.1745 16.0273 15.686 16.0273 17.2369C16.0273 20.0477 18.3258 22.2973 21.1953 22.2973ZM21.1953 20.5141C19.31 20.5141 17.8104 19.069 17.8104 17.2369C17.8104 16.1062 18.3933 15.0129 19.0282 13.8058L21.0877 9.98228C21.1463 9.86509 21.256 9.86509 21.3242 9.98228L23.3527 13.8058C23.9972 15.0129 24.5876 16.1062 24.5876 17.2369C24.5876 19.069 23.0806 20.5141 21.1953 20.5141Z" fill="#8F99BA"/>
</svg>
