<svg width="26" height="14" viewBox="0 0 26 14" fill="none" xmlns="http://www.w3.org/2000/svg">
<path d="M25.2964 0.640414C26.2345 1.49426 26.2345 2.87862 25.2964 3.73246L14.7196 13.3596C13.7815 14.2135 12.2606 14.2135 11.3225 13.3596C10.3844 12.5058 10.3844 11.1214 11.3225 10.2676L21.8994 0.640416C22.8374 -0.213429 24.3584 -0.21343 25.2964 0.640414Z" fill="white"/>
<path d="M0.703556 0.640384C1.64163 -0.213461 3.16255 -0.213461 4.10063 0.640383L14.6775 10.2675C15.6156 11.1214 15.6156 12.5057 14.6775 13.3596C13.7394 14.2134 12.2185 14.2134 11.2804 13.3596L0.703557 3.73243C-0.234518 2.87859 -0.23452 1.49423 0.703556 0.640384Z" fill="white"/>
</svg>
