<svg width="8" height="14" viewBox="0 0 8 14" fill="none" xmlns="http://www.w3.org/2000/svg">
<path d="M0.365951 0.378838C0.853862 -0.12628 1.64492 -0.12628 2.13283 0.378837L7.63407 6.07407C8.12198 6.57919 8.12198 7.39815 7.63407 7.90326C7.14616 8.40838 6.35509 8.40838 5.86718 7.90326L0.365952 2.20803C-0.12196 1.70291 -0.121961 0.883955 0.365951 0.378838Z" fill="#17A300"/>
<path d="M0.365934 13.6212C-0.121978 13.116 -0.121978 12.2971 0.365933 11.792L5.86716 6.09674C6.35508 5.59162 7.14614 5.59162 7.63405 6.09674C8.12196 6.60185 8.12196 7.42081 7.63405 7.92593L2.13282 13.6212C1.64491 14.1263 0.853845 14.1263 0.365934 13.6212Z" fill="#17A300"/>
</svg>
