<svg width="14" height="15" viewBox="0 0 14 15" fill="none" xmlns="http://www.w3.org/2000/svg">
<path d="M6.93107 2.49996C7.89774 2.49996 8.68107 3.28329 8.68107 4.24996C8.68107 5.21663 7.89774 5.99996 6.93107 5.99996C5.9644 5.99996 5.18107 5.21663 5.18107 4.24996C5.18107 3.28329 5.9644 2.49996 6.93107 2.49996ZM6.93107 9.99996C9.40607 9.99996 12.0144 11.2166 12.0144 11.75V12.6666H1.84774V11.75C1.84774 11.2166 4.45607 9.99996 6.93107 9.99996ZM6.93107 0.916626C5.0894 0.916626 3.59774 2.40829 3.59774 4.24996C3.59774 6.09163 5.0894 7.58329 6.93107 7.58329C8.77274 7.58329 10.2644 6.09163 10.2644 4.24996C10.2644 2.40829 8.77274 0.916626 6.93107 0.916626ZM6.93107 8.41663C4.70607 8.41663 0.264404 9.53329 0.264404 11.75V14.25H13.5977V11.75C13.5977 9.53329 9.15607 8.41663 6.93107 8.41663Z" fill="#8F99BA"/>
</svg>
