<svg width="26" height="24" viewBox="0 0 26 24" fill="none" xmlns="http://www.w3.org/2000/svg">
<path d="M4.77221 23.7213C6.09565 23.7213 9.28464 22.3291 11.2422 20.9349C11.4508 20.7927 11.6148 20.7402 11.7888 20.7402C11.9263 20.7491 12.056 20.758 12.1778 20.758C20.0353 20.7522 25.5972 16.4493 25.5972 10.6287C25.5972 5.01812 19.9972 0.494385 13.0007 0.494385C6.00228 0.494385 0.402344 5.01812 0.402344 10.6287C0.402344 14.1266 2.50883 17.2529 6.07824 19.1773C6.27476 19.286 6.33112 19.4492 6.23036 19.6399C5.59357 20.6899 4.53086 21.8751 4.10364 22.431C3.62441 23.0358 3.90102 23.7213 4.77221 23.7213Z" fill="white"/>
</svg>
