<svg width="18" height="18" viewBox="0 0 18 18" fill="none" xmlns="http://www.w3.org/2000/svg">
<path d="M4.41478 9.6845C4.03626 9.6845 3.74748 9.39579 3.74748 9.01721C3.74748 8.64557 4.03626 8.35679 4.41478 8.35679H7.97914V3.53369C7.97914 3.16054 8.26793 2.87326 8.63957 2.87326C9.01271 2.87326 9.30686 3.16054 9.30686 3.53369V9.01721C9.30686 9.39579 9.01271 9.6845 8.63957 9.6845H4.41478ZM8.64643 17.2929C13.3835 17.2929 17.2944 13.3766 17.2944 8.64643C17.2944 3.90937 13.3766 0 8.63957 0C3.91088 0 0 3.90937 0 8.64643C0 13.3766 3.91774 17.2929 8.64643 17.2929Z" fill="#8F99BA"/>
</svg>
