<svg width="25" height="28" viewBox="0 0 25 28" fill="none" xmlns="http://www.w3.org/2000/svg">
<path d="M0 17.9756C0 21.9633 2.57179 25.2647 5.84905 25.2647H9.59787C11.1241 26.0477 12.9457 26.4942 14.9529 26.4942H16.5443C18.018 26.4942 19.2769 26.4059 20.1002 26.1982C21.7697 25.7904 22.8321 24.5972 22.8321 23.1152C22.8321 22.8434 22.7894 22.6024 22.7233 22.3615C23.5031 21.7418 23.9388 20.8547 23.9388 19.8835C23.9388 19.4306 23.8493 18.982 23.6915 18.6209C24.2189 18.0544 24.5097 17.2566 24.5097 16.4173C24.5097 15.8794 24.3829 15.3211 24.1624 14.8983C24.4788 14.4117 24.6621 13.7482 24.6621 13.0432C24.6621 11.2355 23.2704 9.82999 21.4669 9.82999H17.2338C17.0055 9.82999 16.8562 9.72335 16.8647 9.51546C16.9237 8.34522 18.7697 5.52803 18.7697 3.21639C18.7697 1.5078 17.5669 0.277344 15.9265 0.277344C14.7267 0.277344 13.9029 0.902186 13.1224 2.39069C11.7134 5.10967 9.99046 7.52327 7.45569 10.6355H5.42084C2.34914 10.6355 0 13.9039 0 17.9756ZM7.08279 17.8854C7.08279 15.4657 7.62514 13.924 9.15701 11.8606C10.8752 9.55975 13.2623 6.79459 14.9826 3.37108C15.3454 2.63795 15.5929 2.47154 15.9567 2.47154C16.3844 2.47154 16.6704 2.77764 16.6704 3.33029C16.6704 5.02132 14.7464 7.83124 14.7464 9.67998C14.7464 11.0555 15.8454 11.9292 17.3322 11.9292H21.4183C22.0711 11.9292 22.5628 12.4188 22.5628 13.0749C22.5628 13.5506 22.406 13.8546 22.0209 14.2557C21.7214 14.5423 21.6832 14.9644 21.9454 15.2609C22.2687 15.7345 22.4062 16.0289 22.4062 16.4215C22.4062 16.8835 22.1855 17.2856 21.7268 17.6281C21.3464 17.9119 21.2102 18.3567 21.4228 18.8117C21.6799 19.2778 21.8037 19.507 21.8037 19.8687C21.8037 20.4094 21.4549 20.8263 20.7295 21.2039C20.3683 21.4153 20.2739 21.795 20.4215 22.1466C20.6627 22.7485 20.6958 22.8476 20.6937 23.1047C20.6937 23.5868 20.3353 23.9782 19.574 24.1702C18.9082 24.3321 17.8312 24.4067 16.44 24.4046L15.0649 24.4024C10.2747 24.394 7.08279 21.694 7.08279 17.8854ZM2.06975 17.9756C2.06975 15.0914 3.55358 12.7875 5.2521 12.7179C5.54554 12.7158 5.84109 12.7137 6.13453 12.7095C5.33414 14.2756 4.9814 15.9099 4.9814 17.8819C4.9814 19.9585 5.70187 21.7929 7.00945 23.2296C6.58781 23.2296 6.16312 23.2275 5.73304 23.2254C3.75679 23.1537 2.06975 20.8158 2.06975 17.9756Z" fill="#8F99BA"/>
</svg>
