<svg width="21" height="21" viewBox="0 0 21 21" fill="none" xmlns="http://www.w3.org/2000/svg">
<path fill-rule="evenodd" clip-rule="evenodd" d="M7.69181 11.1543C7.56651 11.1275 7.44238 11.0955 7.31941 11.0586C7.19249 11.02 7.05621 11.0257 6.933 11.0749L5.69556 11.5705L5.98158 11.0691C6.12358 10.8199 6.06346 10.5044 5.83974 10.3249C5.10576 9.75463 4.6724 8.88039 4.663 7.95097C4.663 6.13801 6.53083 4.663 8.82477 4.663C11.1187 4.663 12.9871 6.13742 12.9871 7.95039C12.9871 8.27276 13.2484 8.53409 13.5708 8.53409C13.8932 8.53409 14.1545 8.27276 14.1545 7.95039C14.1545 5.49419 11.7637 3.49561 8.82477 3.49561C5.88585 3.49561 3.49561 5.49419 3.49561 7.95097C3.50057 9.05916 3.94646 10.1198 4.7348 10.8986L3.85166 12.4443C3.72867 12.6599 3.75546 12.9297 3.91846 13.1168C4.08146 13.304 4.345 13.3676 4.57545 13.2755L7.18224 12.2324C7.27038 12.2557 7.35735 12.2768 7.44899 12.296C7.6544 12.3431 7.86926 12.2758 8.01112 12.12C8.15298 11.9642 8.19981 11.7439 8.13365 11.5438C8.06749 11.3438 7.89861 11.1949 7.69181 11.1543ZM16.738 15.1112C17.2371 14.5141 17.5086 13.7595 17.5043 12.9813C17.5043 10.849 15.4474 9.04717 13.0099 9.04717C10.5724 9.04717 8.5154 10.849 8.5154 12.9813C8.54045 14.3158 9.24066 15.5466 10.3751 16.25C11.5747 17.0321 13.0766 17.1914 14.4137 16.6784L16.3825 17.4583C16.5824 17.5447 16.8143 17.5076 16.9773 17.3631C17.1037 17.2942 17.1953 17.1754 17.2298 17.0356C17.2644 16.8959 17.2386 16.7481 17.1588 16.6282L16.738 15.1112ZM15.5273 15.1106C15.4721 14.9086 15.5294 14.6926 15.6773 14.5444V14.5427C16.1039 14.1356 16.3443 13.571 16.3421 12.9813C16.3421 11.5075 14.7883 10.2146 13.0151 10.2146C11.2418 10.2146 9.68798 11.5075 9.68798 12.9813C9.71417 13.9204 10.2142 14.7823 11.0165 15.2711C11.9581 15.884 13.1463 15.9772 14.1719 15.5186C14.3117 15.456 14.4705 15.4511 14.6138 15.5052L15.7532 15.9325L15.5273 15.1106Z" fill="#8F99BA"/>
<mask id="mask0_740_2586" style="mask-type:luminance" maskUnits="userSpaceOnUse" x="3" y="3" width="15" height="15">
<path fill-rule="evenodd" clip-rule="evenodd" d="M7.69181 11.1543C7.56651 11.1275 7.44238 11.0955 7.31941 11.0586C7.19249 11.02 7.05621 11.0257 6.933 11.0749L5.69556 11.5705L5.98158 11.0691C6.12358 10.8199 6.06346 10.5044 5.83974 10.3249C5.10576 9.75463 4.6724 8.88039 4.663 7.95097C4.663 6.13801 6.53083 4.663 8.82477 4.663C11.1187 4.663 12.9871 6.13742 12.9871 7.95039C12.9871 8.27276 13.2484 8.53409 13.5708 8.53409C13.8932 8.53409 14.1545 8.27276 14.1545 7.95039C14.1545 5.49419 11.7637 3.49561 8.82477 3.49561C5.88585 3.49561 3.49561 5.49419 3.49561 7.95097C3.50057 9.05916 3.94646 10.1198 4.7348 10.8986L3.85166 12.4443C3.72867 12.6599 3.75546 12.9297 3.91846 13.1168C4.08146 13.304 4.345 13.3676 4.57545 13.2755L7.18224 12.2324C7.27038 12.2557 7.35735 12.2768 7.44899 12.296C7.6544 12.3431 7.86926 12.2758 8.01112 12.12C8.15298 11.9642 8.19981 11.7439 8.13365 11.5438C8.06749 11.3438 7.89861 11.1949 7.69181 11.1543ZM16.738 15.1112C17.2371 14.5141 17.5086 13.7595 17.5043 12.9813C17.5043 10.849 15.4474 9.04717 13.0099 9.04717C10.5724 9.04717 8.5154 10.849 8.5154 12.9813C8.54045 14.3158 9.24066 15.5466 10.3751 16.25C11.5747 17.0321 13.0766 17.1914 14.4137 16.6784L16.3825 17.4583C16.5824 17.5447 16.8143 17.5076 16.9773 17.3631C17.1037 17.2942 17.1953 17.1754 17.2298 17.0356C17.2644 16.8959 17.2386 16.7481 17.1588 16.6282L16.738 15.1112ZM15.5273 15.1106C15.4721 14.9086 15.5294 14.6926 15.6773 14.5444V14.5427C16.1039 14.1356 16.3443 13.571 16.3421 12.9813C16.3421 11.5075 14.7883 10.2146 13.0151 10.2146C11.2418 10.2146 9.68798 11.5075 9.68798 12.9813C9.71417 13.9204 10.2142 14.7823 11.0165 15.2711C11.9581 15.884 13.1463 15.9772 14.1719 15.5186C14.3117 15.456 14.4705 15.4511 14.6138 15.5052L15.7532 15.9325L15.5273 15.1106Z" fill="white"/>
</mask>
<g mask="url(#mask0_740_2586)">
</g>
</svg>
