<svg width="14" height="24" viewBox="0 0 14 24" fill="none" xmlns="http://www.w3.org/2000/svg">
<path d="M3.73369 23.7186C4.58097 23.7186 5.1164 23.2453 5.09847 22.4288L4.90737 11.4088C4.90737 11.0367 5.03487 10.7964 5.35499 10.6462C6.67087 10.0716 7.27495 9.45465 7.17044 7.6588L6.88955 1.70394C6.87162 1.2453 6.61371 0.972687 6.19751 0.972687C5.7928 0.972687 5.54455 1.26648 5.54455 1.72513L5.63113 7.52986C5.63113 7.86782 5.39591 8.09805 5.08238 8.09805C4.73605 8.09805 4.49761 7.86782 4.49761 7.54781L4.42574 1.55704C4.42574 1.10809 4.14169 0.84375 3.73369 0.84375C3.32066 0.84375 3.04806 1.10809 3.04806 1.55704L2.94676 7.54781C2.94676 7.86782 2.71978 8.09805 2.39151 8.09805C2.07473 8.09805 1.84271 7.86782 1.84271 7.52986L1.93251 1.72513C1.93251 1.26648 1.68109 0.972687 1.27632 0.972687C0.856819 0.972687 0.584219 1.25175 0.566259 1.70394L0.303359 7.6588C0.228302 9.45465 0.802954 10.0716 2.12717 10.6462C2.43892 10.7964 2.56965 11.0367 2.56965 11.4088L2.37534 22.4288C2.35738 23.2485 2.89613 23.7186 3.73369 23.7186ZM10.6148 15.3573L10.404 22.3847C10.3681 23.2485 10.9247 23.7186 11.7508 23.7186C12.6243 23.7186 13.1386 23.2747 13.1386 22.4763V1.59152C13.1386 1.09013 12.7841 0.84375 12.43 0.84375C12.0414 0.84375 11.7933 1.05602 11.4797 1.51C9.89077 3.71631 8.80996 7.97917 8.80996 11.8484V12.5146C8.80996 13.2233 9.06005 13.6951 9.59195 14.0608L10.1134 14.4189C10.4694 14.6638 10.6213 14.9267 10.6148 15.3573Z" fill="#8F99BA"/>
</svg>
