<svg width="36" height="36" viewBox="0 0 36 36" fill="none" xmlns="http://www.w3.org/2000/svg">
<path fill-rule="evenodd" clip-rule="evenodd" d="M18.1267 7.34801H11.848C11.0528 7.34739 10.3083 7.73824 9.85729 8.39308C9.40625 9.04792 9.30647 9.88283 9.5905 10.6255C8.62088 11.2393 8.2171 12.4506 8.62454 13.5234C7.65492 14.1372 7.25114 15.3485 7.65858 16.4213C6.75084 16.9962 6.33216 18.1018 6.63134 19.1338C6.93051 20.1658 7.87557 20.876 8.95007 20.8763H15.1448C15.2173 20.8762 15.2859 20.9088 15.3316 20.9651C15.3774 21.0213 15.3953 21.0951 15.3805 21.1661C15.0335 22.5842 14.821 24.0318 14.7458 25.4897C14.7035 26.3545 14.986 27.2038 15.5379 27.8708C16.0107 28.409 16.6908 28.7197 17.4071 28.7247C17.969 28.7451 18.5155 28.5384 18.9234 28.1514C19.3314 27.7644 19.5664 27.2295 19.5756 26.6672C19.5362 23.1018 22.2958 20.1299 25.8544 19.9055H28.7523C29.2858 19.9055 29.7182 19.473 29.7182 18.9395V10.2459C29.7182 9.71241 29.2858 9.27993 28.7523 9.27993C24.4248 9.27993 23.0212 8.67814 21.7848 8.14589C20.6459 7.59383 19.3921 7.32035 18.1267 7.34801ZM27.5512 11.1954C27.6818 11.1986 27.7859 11.3053 27.7859 11.436V17.7331C27.7859 17.8664 27.6778 17.9745 27.5444 17.9745H25.854C21.2393 18.225 17.6298 22.0468 17.6433 26.6682C17.6433 26.8034 17.2531 26.8942 16.9826 26.59C16.7562 26.2702 16.6482 25.8815 16.6774 25.4907C16.826 23.6867 17.1386 21.9 17.6114 20.1528C17.6878 19.8631 17.6255 19.5543 17.4426 19.3169C17.2597 19.0795 16.977 18.9405 16.6774 18.9405H8.94966C8.68291 18.9405 8.46667 18.7243 8.46667 18.4575C8.46667 18.1908 8.68291 17.9745 8.94966 17.9745H9.91562C10.4491 17.9745 10.8816 17.5421 10.8816 17.0086C10.8816 16.4751 10.4491 16.0426 9.91562 16.0426C9.64887 16.0426 9.43264 15.8264 9.43264 15.5596C9.43264 15.2929 9.64887 15.0767 9.91562 15.0767H10.8816C11.4151 15.0767 11.8475 14.6442 11.8475 14.1107C11.8475 13.5772 11.4151 13.1447 10.8816 13.1447C10.6148 13.1447 10.3986 12.9285 10.3986 12.6618C10.3986 12.395 10.6148 12.1788 10.8816 12.1788H11.8475C12.381 12.1788 12.8135 11.7463 12.8135 11.2128C12.8135 10.6793 12.381 10.2469 11.8475 10.2469C11.5808 10.2469 11.3646 10.0306 11.3646 9.76387C11.3646 9.49713 11.5808 9.28089 11.8475 9.28089H18.1263C19.1302 9.25385 20.1254 9.47411 21.0242 9.92229C23.0798 10.8213 25.3084 11.256 27.5512 11.1954Z" fill="#8F99BA"/>
<mask id="mask0_107_3247" style="mask-type:luminance" maskUnits="userSpaceOnUse" x="6" y="7" width="24" height="22">
<path fill-rule="evenodd" clip-rule="evenodd" d="M18.1267 7.34801H11.848C11.0528 7.34739 10.3083 7.73824 9.85729 8.39308C9.40625 9.04792 9.30647 9.88283 9.5905 10.6255C8.62088 11.2393 8.2171 12.4506 8.62454 13.5234C7.65492 14.1372 7.25114 15.3485 7.65858 16.4213C6.75084 16.9962 6.33216 18.1018 6.63134 19.1338C6.93051 20.1658 7.87557 20.876 8.95007 20.8763H15.1448C15.2173 20.8762 15.2859 20.9088 15.3316 20.9651C15.3774 21.0213 15.3953 21.0951 15.3805 21.1661C15.0335 22.5842 14.821 24.0318 14.7458 25.4897C14.7035 26.3545 14.986 27.2038 15.5379 27.8708C16.0107 28.409 16.6908 28.7197 17.4071 28.7247C17.969 28.7451 18.5155 28.5384 18.9234 28.1514C19.3314 27.7644 19.5664 27.2295 19.5756 26.6672C19.5362 23.1018 22.2958 20.1299 25.8544 19.9055H28.7523C29.2858 19.9055 29.7182 19.473 29.7182 18.9395V10.2459C29.7182 9.71241 29.2858 9.27993 28.7523 9.27993C24.4248 9.27993 23.0212 8.67814 21.7848 8.14589C20.6459 7.59383 19.3921 7.32035 18.1267 7.34801ZM27.5512 11.1954C27.6818 11.1986 27.7859 11.3053 27.7859 11.436V17.7331C27.7859 17.8664 27.6778 17.9745 27.5444 17.9745H25.854C21.2393 18.225 17.6298 22.0468 17.6433 26.6682C17.6433 26.8034 17.2531 26.8942 16.9826 26.59C16.7562 26.2702 16.6482 25.8815 16.6774 25.4907C16.826 23.6867 17.1386 21.9 17.6114 20.1528C17.6878 19.8631 17.6255 19.5543 17.4426 19.3169C17.2597 19.0795 16.977 18.9405 16.6774 18.9405H8.94966C8.68291 18.9405 8.46667 18.7243 8.46667 18.4575C8.46667 18.1908 8.68291 17.9745 8.94966 17.9745H9.91562C10.4491 17.9745 10.8816 17.5421 10.8816 17.0086C10.8816 16.4751 10.4491 16.0426 9.91562 16.0426C9.64887 16.0426 9.43264 15.8264 9.43264 15.5596C9.43264 15.2929 9.64887 15.0767 9.91562 15.0767H10.8816C11.4151 15.0767 11.8475 14.6442 11.8475 14.1107C11.8475 13.5772 11.4151 13.1447 10.8816 13.1447C10.6148 13.1447 10.3986 12.9285 10.3986 12.6618C10.3986 12.395 10.6148 12.1788 10.8816 12.1788H11.8475C12.381 12.1788 12.8135 11.7463 12.8135 11.2128C12.8135 10.6793 12.381 10.2469 11.8475 10.2469C11.5808 10.2469 11.3646 10.0306 11.3646 9.76387C11.3646 9.49713 11.5808 9.28089 11.8475 9.28089H18.1263C19.1302 9.25385 20.1254 9.47411 21.0242 9.92229C23.0798 10.8213 25.3084 11.256 27.5512 11.1954Z" fill="white"/>
</mask>
<g mask="url(#mask0_107_3247)">
</g>
</svg>
