<svg width="26" height="26" viewBox="0 0 26 26" fill="none" xmlns="http://www.w3.org/2000/svg">
<path d="M12.6595 25.8831C13.1499 25.8831 13.5177 25.5268 13.6057 25.0204C14.7456 16.4213 15.9551 15.1149 24.4347 14.1699C24.957 14.1136 25.3219 13.7271 25.3219 13.2206C25.3219 12.7331 24.9627 12.3494 24.4375 12.2846C15.9608 11.3053 14.7856 10.036 13.6057 1.42386C13.512 0.917504 13.1471 0.574219 12.6595 0.574219C12.1719 0.574219 11.8041 0.917504 11.7291 1.42386C10.5864 10.036 9.36675 11.3424 0.897312 12.2846C0.362042 12.3409 0 12.7274 0 13.2206C0 13.7242 0.35918 14.1079 0.894464 14.1699C9.34803 15.2982 10.4942 16.4213 11.7291 25.0204C11.807 25.5268 12.1748 25.8831 12.6595 25.8831Z" fill="#8F99BA"/>
</svg>
