<svg width="16" height="12" viewBox="0 0 16 12" fill="none" xmlns="http://www.w3.org/2000/svg">
<path d="M8 3.9C8.54249 3.9 9.06276 4.12125 9.44636 4.51508C9.82995 4.9089 10.0455 5.44305 10.0455 6C10.0455 6.55695 9.82995 7.0911 9.44636 7.48492C9.06276 7.87875 8.54249 8.1 8 8.1C7.45751 8.1 6.93724 7.87875 6.55365 7.48492C6.17005 7.0911 5.95455 6.55695 5.95455 6C5.95455 5.44305 6.17005 4.9089 6.55365 4.51508C6.93724 4.12125 7.45751 3.9 8 3.9V3.9ZM8 0.75C11.4091 0.75 14.3205 2.927 15.5 6C14.3205 9.073 11.4091 11.25 8 11.25C4.59091 11.25 1.67955 9.073 0.5 6C1.67955 2.927 4.59091 0.75 8 0.75ZM1.98636 6C3.11136 8.352 5.43636 9.85 8 9.85C10.5636 9.85 12.8886 8.352 14.0136 6C12.8886 3.648 10.5636 2.15 8 2.15C5.43636 2.15 3.11136 3.648 1.98636 6Z" fill="#8F99BA"/>
</svg>
