<svg width="13" height="18" viewBox="0 0 13 18" fill="none" xmlns="http://www.w3.org/2000/svg">
<path fill-rule="evenodd" clip-rule="evenodd" d="M6.50089 17.4983C6.80215 17.4982 7.08262 17.3615 7.245 17.1356C8.97539 14.7256 13 8.84578 13 6.28867C13 3.09262 10.0899 0.501709 6.5 0.501709C2.91015 0.501709 0 3.09262 0 6.28867C0 8.84578 4.02461 14.7264 5.75588 17.1356C5.91761 17.3625 6.19901 17.4995 6.50089 17.4983ZM6.50085 3.2571C4.79256 3.2571 3.40772 4.49002 3.40772 6.01092C3.40772 7.53181 4.79256 8.76474 6.50085 8.76474C8.20915 8.76474 9.59399 7.53181 9.59399 6.01092C9.59399 4.49002 8.20915 3.2571 6.50085 3.2571Z" fill="#8F99BA"/>
<path fill-rule="evenodd" clip-rule="evenodd" d="M6.50089 17.4983C6.80215 17.4982 7.08262 17.3615 7.245 17.1356C8.97539 14.7256 13 8.84578 13 6.28867C13 3.09262 10.0899 0.501709 6.5 0.501709C2.91015 0.501709 0 3.09262 0 6.28867C0 8.84578 4.02461 14.7264 5.75588 17.1356C5.91761 17.3625 6.19901 17.4995 6.50089 17.4983ZM6.50085 3.2571C4.79256 3.2571 3.40772 4.49002 3.40772 6.01092C3.40772 7.53181 4.79256 8.76474 6.50085 8.76474C8.20915 8.76474 9.59399 7.53181 9.59399 6.01092C9.59399 4.49002 8.20915 3.2571 6.50085 3.2571Z" fill="#8F99BA"/>
</svg>
