<svg width="22" height="28" viewBox="0 0 22 28" fill="none" xmlns="http://www.w3.org/2000/svg">
<path d="M10.3467 28C14.6705 28 17.4743 25.4262 19.3383 20.6752L21.7648 14.4471C22.3818 12.8656 21.7032 11.5712 20.6764 11.0309C19.7005 10.5225 18.4083 10.7198 17.6517 12.0604L16.7192 13.8304C16.6861 13.878 16.6648 13.911 16.622 13.911C16.5653 13.911 16.5226 13.8655 16.5418 13.7973L18.0251 4.81022C18.3069 3.14721 17.5348 1.9597 16.1397 1.67625C14.6577 1.3928 13.511 2.15375 13.1792 3.88044L12.8774 5.72403L13.1411 5.8027V2.72015C13.1411 1.11184 12.1246 0 10.6748 0C9.17064 0 8.18302 1.14705 8.18302 2.80307V4.34521L8.59315 4.21534L8.44366 3.27707C8.07537 1.83383 6.94555 1.21773 5.737 1.44798C4.27226 1.71795 3.52813 3.01459 3.75188 4.60118L3.98151 6.49622L4.62151 6.3244C4.19445 4.95882 3.19132 4.49481 2.08148 4.6936C0.546459 4.96481 -0.1845 6.15107 0.0397244 7.8488L1.55195 18.9423C2.30712 24.5513 5.11768 28 10.3467 28ZM10.2816 25.9037C6.07285 25.9037 4.10091 23.3139 3.43646 18.7267L1.78227 7.59207C1.7181 7.13179 1.96301 6.76242 2.38115 6.68401C2.76825 6.61807 3.10741 6.8818 3.20683 7.30561L4.89815 14.1512C5.03259 14.7089 5.46341 14.9209 5.88271 14.828C6.32458 14.7454 6.63929 14.3303 6.57324 13.8158L5.4526 4.28727C5.40018 3.79402 5.60984 3.43715 6.04089 3.35873C6.47196 3.28256 6.81534 3.56451 6.88163 4.01455L8.20534 13.4916C8.2735 13.9856 8.68834 14.2703 9.1483 14.2034C9.68112 14.1138 9.9272 13.7553 9.9272 13.2294V2.7741C9.9272 2.30358 10.2321 1.97168 10.6748 1.97168C11.0984 1.97168 11.4033 2.30358 11.4033 2.7741V13.3306C11.4033 13.8315 11.7864 14.2192 12.2503 14.2192C12.7134 14.2192 13.0609 13.9152 13.1463 13.4255L14.8594 4.27203C14.9547 3.73784 15.3098 3.51281 15.7161 3.59349C16.128 3.66391 16.3686 4.03102 16.2948 4.52202L14.533 16.3671C14.3738 17.4398 14.9473 17.8693 15.498 17.903C15.9846 17.9345 16.3862 17.694 16.7386 17.025L18.7923 13.0543C19.0179 12.5953 19.4243 12.4759 19.7506 12.6226C20.1078 12.7589 20.3024 13.1635 20.1046 13.6647L17.5915 20.0191C15.9363 24.159 13.6789 25.9037 10.2816 25.9037Z" fill="#32BD1B"/>
</svg>
