<svg width="23" height="21" viewBox="0 0 23 21" fill="none" xmlns="http://www.w3.org/2000/svg">
<path d="M0.646484 7.24516C0.646484 11.7379 4.52903 16.174 10.5855 19.9596C10.9085 20.1587 11.3095 20.3627 11.5877 20.3627C11.8638 20.3627 12.2668 20.1587 12.5987 19.9596C18.6463 16.174 22.5288 11.7379 22.5288 7.24516C22.5288 3.37705 19.7778 0.693359 16.2351 0.693359C14.1767 0.693359 12.5617 1.61302 11.5877 2.9985C10.6315 1.62165 8.9967 0.693359 6.94018 0.693359C3.39753 0.693359 0.646484 3.37705 0.646484 7.24516ZM2.82712 7.23571C2.82712 4.56736 4.63365 2.7762 7.05694 2.7762C9.01338 2.7762 10.1169 3.92698 10.7965 4.93119C11.0948 5.35558 11.3023 5.49207 11.5877 5.49207C11.873 5.49207 12.0569 5.34506 12.3749 4.93119C13.1086 3.94234 14.1708 2.7762 16.1184 2.7762C18.5416 2.7762 20.3463 4.56736 20.3463 7.23571C20.3463 10.9581 16.3506 15.0687 11.7956 18.0109C11.699 18.0769 11.631 18.1238 11.5877 18.1238C11.5443 18.1238 11.4763 18.0769 11.3886 18.0109C6.82276 15.0687 2.82712 10.9581 2.82712 7.23571Z" fill="#3E3E51"/>
</svg>
