<svg width="24" height="23" viewBox="0 0 24 23" fill="none" xmlns="http://www.w3.org/2000/svg">
<path d="M0 8.30012C0 13.3071 4.20047 18.251 10.7529 22.4698C11.1023 22.6917 11.5362 22.9191 11.8371 22.9191C12.1359 22.9191 12.5719 22.6917 12.9309 22.4698C19.4737 18.251 23.6742 13.3071 23.6742 8.30012C23.6742 3.98927 20.6979 0.998413 16.8651 0.998413C14.6381 0.998413 12.8909 2.02334 11.8371 3.5674C10.8026 2.03295 9.03398 0.998413 6.80906 0.998413C2.97632 0.998413 0 3.98927 0 8.30012ZM2.3592 8.28958C2.3592 5.31582 4.31366 3.31965 6.93538 3.31965C9.05202 3.31965 10.2459 4.60215 10.9812 5.72129C11.3039 6.19426 11.5284 6.34637 11.8371 6.34637C12.1458 6.34637 12.3448 6.18254 12.6888 5.72129C13.4826 4.61926 14.6318 3.31965 16.7388 3.31965C19.3605 3.31965 21.3129 5.31582 21.3129 8.28958C21.3129 12.4381 16.9901 17.0192 12.0621 20.2981C11.9576 20.3717 11.884 20.4239 11.8371 20.4239C11.7902 20.4239 11.7166 20.3717 11.6217 20.2981C6.68202 17.0192 2.3592 12.4381 2.3592 8.28958Z" fill="#32BD1B"/>
</svg>
