<svg width="20" height="18" viewBox="0 0 20 18" fill="none" xmlns="http://www.w3.org/2000/svg">
<path d="M10.0939 15.2839C11.5962 13.9642 12.7074 12.9668 13.4272 12.2916C14.1471 11.6164 14.9296 10.8184 15.7746 9.8977C16.6197 8.97698 17.1987 8.16368 17.5117 7.4578C17.856 6.75192 18.0282 6.06138 18.0282 5.38619C18.0282 4.40409 17.6839 3.59079 16.9953 2.94629C16.338 2.30179 15.5086 1.97954 14.507 1.97954C13.7246 1.97954 12.989 2.19437 12.3005 2.62404C11.9327 2.86447 11.6286 3.14334 11.3882 3.46065C11.0474 3.91053 10.5644 4.28133 10 4.28133C9.4356 4.28133 8.95261 3.90957 8.60564 3.46442C8.3571 3.14555 8.03942 2.86542 7.65258 2.62404C6.99531 2.19437 6.27543 1.97954 5.49296 1.97954C4.49139 1.97954 3.64632 2.30179 2.95775 2.94629C2.30047 3.59079 1.97183 4.40409 1.97183 5.38619C1.97183 6.06138 2.12833 6.75192 2.44131 7.4578C2.7856 8.16368 3.38028 8.97698 4.22535 9.8977C5.07042 10.8184 5.8529 11.6164 6.57277 12.2916C7.29264 12.9668 8.40376 13.9642 9.9061 15.2839C9.95826 15.335 10.0417 15.335 10.0939 15.2839ZM14.507 0C16.072 0 17.3709 0.521739 18.4038 1.56522C19.4679 2.6087 20 3.88235 20 5.38619C20 6.27622 19.8279 7.1509 19.4836 8.01023C19.1393 8.83887 18.4977 9.77494 17.5587 10.8184C16.651 11.8619 15.8216 12.7366 15.0704 13.4425C14.3192 14.1483 13.1142 15.2379 11.4554 16.711L11.3022 16.8467C10.5555 17.508 9.43573 17.5181 8.67728 16.8703L8.5446 16.757C6.38498 14.8542 4.82003 13.4271 3.84977 12.4757C2.9108 11.5243 2.03443 10.4041 1.22066 9.11509C0.406886 7.82609 0 6.58312 0 5.38619C0 3.88235 0.516432 2.6087 1.5493 1.56522C2.61346 0.521739 3.92801 0 5.49296 0C6.49021 0 7.39301 0.208394 8.20136 0.625182C9.28814 1.18554 10.7119 1.18554 11.7986 0.625182C12.607 0.208394 13.5098 0 14.507 0Z" fill="#FD404D"/>
</svg>
