<svg width="17" height="17" viewBox="0 0 17 17" fill="none" xmlns="http://www.w3.org/2000/svg">
<path d="M11.6325 2.41817C11.7172 0.0106552 15.1993 0.0100577 15.2844 2.41813C15.2844 2.90066 15.092 3.36344 14.7496 3.70464C14.58 3.87359 14.3787 4.00761 14.1572 4.09904C13.9357 4.19048 13.6982 4.23754 13.4584 4.23754C12.9742 4.23755 12.5097 4.04586 12.1673 3.70467C11.8248 3.36347 11.6325 2.9007 11.6325 2.41817ZM12.0737 10.4014L11.0257 9.36879C10.9711 9.3152 10.9368 9.24432 10.9289 9.16832C10.9209 9.09232 10.9398 9.01593 10.9822 8.95227C11.4257 8.28542 12.07 7.32499 12.5179 6.65562C12.9653 6.06309 12.988 5.35277 12.2479 4.66846C11.7671 4.42165 10.9611 3.80465 10.4045 3.83834L7.63221 3.79494C7.25348 3.79013 6.88747 3.93104 6.61037 4.18833L4.76121 5.91515C4.65397 6.01495 4.56809 6.13532 4.50872 6.26903C4.44936 6.40274 4.41773 6.54703 4.41575 6.69323C4.41638 6.90839 4.48046 7.11862 4.60001 7.2978C4.71957 7.47697 4.88934 7.61718 5.08822 7.701C5.28709 7.78483 5.50631 7.80856 5.71861 7.76926C5.93092 7.72997 6.12695 7.62936 6.28235 7.47996L7.4232 6.34323C7.47708 6.28968 7.54155 6.24788 7.61251 6.22049C7.68348 6.19311 7.75938 6.18073 7.83541 6.18415L8.64245 6.22465C7.42054 7.94576 6.36163 9.06611 8.48857 10.7485C8.77786 11.0095 9.38862 11.5469 9.68169 11.813C9.76025 11.8828 9.82311 11.9683 9.86614 12.064C9.90916 12.1597 9.93139 12.2634 9.93134 12.3683V15.1075C9.93451 15.4338 10.0671 15.7455 10.3002 15.9747C10.5332 16.2039 10.8478 16.3318 11.1753 16.3307C11.5027 16.3295 11.8164 16.1993 12.0478 15.9685C12.2792 15.7377 12.4096 15.4251 12.4104 15.0988L12.3814 11.1274C12.3807 10.9922 12.3532 10.8584 12.3004 10.7338C12.2476 10.6092 12.1705 10.4962 12.0737 10.4014ZM6.88033 9.76509L5.9456 10.9134C5.91244 10.9537 5.87082 10.9862 5.82367 11.0087C5.77652 11.0312 5.72499 11.0431 5.67272 11.0435H3.42294C3.10712 11.0457 2.80496 11.1721 2.58238 11.3954C2.35981 11.6187 2.23489 11.9206 2.23489 12.2353C2.2349 12.55 2.35982 12.8519 2.5824 13.0752C2.80497 13.2984 3.10714 13.4249 3.42296 13.427H6.69165C6.83558 13.4271 6.97757 13.394 7.1065 13.3302C7.23544 13.2665 7.34781 13.1739 7.43481 13.0596C7.67226 12.7472 8.55824 11.5874 8.55824 11.5874C8.51187 11.5428 8.15727 11.2346 8.12281 11.1998C7.60953 10.8165 7.18565 10.3271 6.88033 9.76509ZM15.6734 7.41057H14.2654C14.169 7.4108 14.0762 7.37343 14.0071 7.30644C13.8194 7.1249 13.4417 6.75535 13.2552 6.57174C13.2228 6.6549 12.1424 8.26361 11.9286 8.57915L12.3118 8.96095C12.6222 9.22978 13.0168 9.74476 13.4816 9.7043L15.6734 9.70431C15.9765 9.7011 16.2661 9.57885 16.4793 9.36412C16.6926 9.14939 16.8122 8.85951 16.8122 8.55744C16.8122 8.25537 16.6926 7.96549 16.4793 7.75076C16.2661 7.53603 15.9765 7.41378 15.6734 7.41057ZM1.56501 1.32612H1.94317C1.98137 1.32624 2.01922 1.31885 2.05455 1.30437C2.08988 1.28988 2.12199 1.2686 2.14904 1.24173C2.1761 1.21485 2.19756 1.18293 2.21221 1.14777C2.22686 1.11262 2.2344 1.07493 2.2344 1.03686C2.2344 0.998801 2.22686 0.961112 2.21221 0.925958C2.19756 0.890804 2.1761 0.858876 2.14904 0.832004C2.12199 0.805132 2.08988 0.783845 2.05455 0.769363C2.01922 0.754881 1.98137 0.747489 1.94317 0.747611H1.56501C1.48891 0.748961 1.41639 0.78003 1.36306 0.834128C1.30972 0.888227 1.27984 0.96103 1.27984 1.03686C1.27984 1.1127 1.30972 1.1855 1.36306 1.2396C1.41639 1.2937 1.48891 1.32477 1.56501 1.32612ZM3.3561 1.39024H5.5391C5.61537 1.38915 5.68815 1.35819 5.7417 1.30407C5.79524 1.24994 5.82526 1.17699 5.82526 1.10099C5.82526 1.02498 5.79523 0.952033 5.74168 0.897909C5.68813 0.843785 5.61535 0.812836 5.53908 0.811751H3.3561C3.27983 0.812838 3.20705 0.84379 3.1535 0.897915C3.09995 0.952041 3.06993 1.02499 3.06993 1.10099C3.06993 1.177 3.09995 1.24995 3.1535 1.30407C3.20705 1.3582 3.27983 1.38915 3.3561 1.39024ZM4.06949 2.47437C3.99339 2.47572 3.92087 2.50679 3.86754 2.56089C3.8142 2.61499 3.78432 2.68779 3.78432 2.76362C3.78432 2.83946 3.8142 2.91226 3.86754 2.96636C3.92087 3.02046 3.99339 3.05153 4.06949 3.05288H4.44752C4.48572 3.053 4.52357 3.04561 4.5589 3.03113C4.59423 3.01664 4.62634 2.99536 4.65339 2.96848C4.68045 2.94161 4.70192 2.90969 4.71656 2.87453C4.73121 2.83938 4.73875 2.80169 4.73875 2.76362C4.73875 2.72556 4.73121 2.68787 4.71656 2.65272C4.70192 2.61756 4.68045 2.58563 4.65339 2.55876C4.62634 2.53189 4.59423 2.5106 4.5589 2.49612C4.52357 2.48164 4.48572 2.47425 4.44752 2.47437H4.06949ZM0.473566 3.11698H2.65644C2.73269 3.11586 2.80544 3.08489 2.85897 3.03077C2.9125 2.97665 2.9425 2.90371 2.9425 2.82772C2.94249 2.75174 2.91249 2.6788 2.85896 2.62468C2.80543 2.57056 2.73267 2.5396 2.65642 2.53849H0.473566C0.397313 2.5396 0.324562 2.57056 0.271034 2.62469C0.217506 2.67881 0.1875 2.75174 0.1875 2.82773C0.1875 2.90372 0.217506 2.97665 0.271034 3.03078C0.324562 3.0849 0.397313 3.11586 0.473566 3.11698ZM0.851743 15.6123H0.473566C0.398664 15.6155 0.327866 15.6473 0.27597 15.7012C0.224074 15.7551 0.195097 15.8269 0.195097 15.9016C0.195097 15.9763 0.224074 16.0481 0.27597 16.102C0.327866 16.1559 0.398664 16.1877 0.473566 16.1908H0.851743C0.927995 16.1897 1.00075 16.1588 1.05427 16.1046C1.1078 16.0505 1.13781 15.9776 1.13781 15.9016C1.13781 15.8256 1.1078 15.7527 1.05427 15.6985C1.00075 15.6444 0.927995 15.6135 0.851743 15.6123ZM4.44753 15.5482H2.26467C2.18857 15.5496 2.11605 15.5806 2.06271 15.6347C2.00938 15.6888 1.97949 15.7616 1.97949 15.8375C1.97949 15.9133 2.00938 15.9861 2.06271 16.0402C2.11605 16.0943 2.18857 16.1254 2.26467 16.1267H4.44754C4.52362 16.1254 4.59612 16.0943 4.64944 16.0402C4.70276 15.9861 4.73263 15.9133 4.73263 15.8375C4.73263 15.7616 4.70275 15.6889 4.64943 15.6348C4.59611 15.5807 4.52361 15.5496 4.44753 15.5482V15.5482ZM5.5391 13.8856H5.16094C5.08565 13.8881 5.01428 13.9197 4.96191 13.9737C4.90954 14.0276 4.88027 14.0998 4.88027 14.1748C4.88027 14.2499 4.90954 14.322 4.96191 14.376C5.01428 14.43 5.08565 14.4616 5.16094 14.4641H5.5391C5.61534 14.463 5.68806 14.432 5.74157 14.3779C5.79507 14.3237 5.82507 14.2508 5.82507 14.1748C5.82507 14.0989 5.79507 14.026 5.74157 13.9718C5.68806 13.9177 5.61534 13.8867 5.5391 13.8856V13.8856ZM4.03831 14.1107C4.03832 14.0727 4.03082 14.0351 4.01623 14C4.00165 13.9649 3.98027 13.933 3.95331 13.9062C3.92635 13.8793 3.89434 13.858 3.85912 13.8435C3.82389 13.8289 3.78614 13.8215 3.74801 13.8215H1.56501C1.48802 13.8215 1.41418 13.8519 1.35974 13.9062C1.3053 13.9604 1.27472 14.034 1.27472 14.1107C1.27472 14.1874 1.3053 14.261 1.35974 14.3152C1.41418 14.3695 1.48802 14.4 1.56501 14.4H3.74801C3.78614 14.4 3.82389 14.3925 3.85911 14.378C3.89434 14.3634 3.92634 14.3421 3.9533 14.3153C3.98026 14.2884 4.00164 14.2565 4.01623 14.2214C4.03081 14.1863 4.03832 14.1487 4.03831 14.1107V14.1107Z" fill="#8F99BA"/>
</svg>
