<svg width="4" height="12" viewBox="0 0 4 12" fill="none" xmlns="http://www.w3.org/2000/svg">
<path d="M3.024 3.79169V11.9997H1.04V3.79169H3.024ZM3.296 1.39969C3.296 1.57036 3.26133 1.73036 3.192 1.87969C3.12267 2.02903 3.02933 2.15969 2.912 2.27169C2.8 2.38369 2.66667 2.47436 2.512 2.54369C2.35733 2.60769 2.192 2.63969 2.016 2.63969C1.84533 2.63969 1.68267 2.60769 1.528 2.54369C1.37867 2.47436 1.248 2.38369 1.136 2.27169C1.024 2.15969 0.933333 2.02903 0.864 1.87969C0.8 1.73036 0.768 1.57036 0.768 1.39969C0.768 1.22369 0.8 1.05836 0.864 0.903694C0.933333 0.749028 1.024 0.615695 1.136 0.503695C1.248 0.391694 1.37867 0.303694 1.528 0.239695C1.68267 0.170361 1.84533 0.135695 2.016 0.135695C2.192 0.135695 2.35733 0.170361 2.512 0.239695C2.66667 0.303694 2.8 0.391694 2.912 0.503695C3.02933 0.615695 3.12267 0.749028 3.192 0.903694C3.26133 1.05836 3.296 1.22369 3.296 1.39969Z" fill="#17A300"/>
</svg>
