<svg width="15" height="12" viewBox="0 0 15 12" fill="none" xmlns="http://www.w3.org/2000/svg">
<path d="M11.5564 7.91173C7.94433 7.91173 5.69883 6.02766 5.69883 2.99619C5.69883 2.13675 5.86154 1.36649 6.11199 0.947093C6.22871 0.756919 6.26136 0.642486 6.26136 0.502214C6.26136 0.253408 6.01989 0 5.67298 0C5.58918 0 5.43668 0.0240665 5.22663 0.0953229C2.67189 0.993935 0.898438 3.29975 0.898438 5.79103C0.898438 9.38214 3.91042 12 8.05153 12C11.0007 12 13.4349 10.6339 14.5479 8.41287C14.6429 8.23508 14.6651 8.08196 14.6651 7.99055C14.6651 7.69986 14.4038 7.50814 14.1317 7.50814C13.9922 7.50814 13.8678 7.52465 13.6703 7.59793C13.1487 7.7883 12.3445 7.91173 11.5564 7.91173ZM2.20634 5.75715C2.20634 4.07872 3.18096 2.45586 4.76151 1.53259C4.57812 2.01534 4.48085 2.54541 4.48085 3.12974C4.48085 6.76337 7.05531 8.94814 11.3351 8.94814C11.9267 8.94814 12.4279 8.889 12.9068 8.74665C11.9145 10.0722 10.0794 10.8696 8.08503 10.8696C4.68694 10.8696 2.20634 8.71846 2.20634 5.75715Z" fill="#3E3E51"/>
</svg>
