<svg width="36" height="35" viewBox="0 0 36 35" fill="none" xmlns="http://www.w3.org/2000/svg">
<path fill-rule="evenodd" clip-rule="evenodd" d="M24.4171 7.50139C26.4073 7.82676 28.1252 9.07683 29.0469 10.8704C30.2717 13.2819 29.7912 16.2092 27.8597 18.1026L18.8193 27.4125C18.6374 27.5996 18.3876 27.7051 18.1267 27.7051C17.8658 27.7051 17.616 27.5996 17.4341 27.4125L8.38015 18.0852C6.45845 16.1927 5.98542 13.2728 7.21134 10.8704C8.11832 9.06747 9.83945 7.81286 11.8335 7.50115C13.839 7.16256 15.8846 7.81255 17.3269 9.24664L18.1267 9.97498L18.9555 9.22056C20.4005 7.81391 22.427 7.17602 24.4171 7.50139ZM18.4718 24.9938L26.4893 16.7396C27.8294 15.4361 28.1675 13.4131 27.3239 11.7446C26.694 10.4941 25.4994 9.62431 24.1159 9.40895C22.7185 9.17337 21.2934 9.6266 20.2888 10.6261L18.7809 12.0006C18.4122 12.3365 17.8484 12.3365 17.4797 12.0006L16.0018 10.6483C14.9931 9.6336 13.5547 9.17155 12.1438 9.40895C10.7586 9.62316 9.56201 10.493 8.93097 11.7446C8.08786 13.4055 8.419 15.4213 9.74914 16.7251L17.7792 24.9938C17.8701 25.0873 17.995 25.1401 18.1255 25.1401C18.2559 25.1401 18.3808 25.0873 18.4718 24.9938Z" fill="#8F99BA"/>
<mask id="mask0_107_3242" style="mask-type:luminance" maskUnits="userSpaceOnUse" x="6" y="7" width="24" height="21">
<path fill-rule="evenodd" clip-rule="evenodd" d="M24.4171 7.50139C26.4073 7.82676 28.1252 9.07683 29.0469 10.8704C30.2717 13.2819 29.7912 16.2092 27.8597 18.1026L18.8193 27.4125C18.6374 27.5996 18.3876 27.7051 18.1267 27.7051C17.8658 27.7051 17.616 27.5996 17.4341 27.4125L8.38015 18.0852C6.45845 16.1927 5.98542 13.2728 7.21134 10.8704C8.11832 9.06747 9.83945 7.81286 11.8335 7.50115C13.839 7.16256 15.8846 7.81255 17.3269 9.24664L18.1267 9.97498L18.9555 9.22056C20.4005 7.81391 22.427 7.17602 24.4171 7.50139ZM18.4718 24.9938L26.4893 16.7396C27.8294 15.4361 28.1675 13.4131 27.3239 11.7446C26.694 10.4941 25.4994 9.62431 24.1159 9.40895C22.7185 9.17337 21.2934 9.6266 20.2888 10.6261L18.7809 12.0006C18.4122 12.3365 17.8484 12.3365 17.4797 12.0006L16.0018 10.6483C14.9931 9.6336 13.5547 9.17155 12.1438 9.40895C10.7586 9.62316 9.56201 10.493 8.93097 11.7446C8.08786 13.4055 8.419 15.4213 9.74914 16.7251L17.7792 24.9938C17.8701 25.0873 17.995 25.1401 18.1255 25.1401C18.2559 25.1401 18.3808 25.0873 18.4718 24.9938Z" fill="white"/>
</mask>
<g mask="url(#mask0_107_3242)">
</g>
</svg>
