<svg width="27" height="27" viewBox="0 0 27 27" fill="none" xmlns="http://www.w3.org/2000/svg">
<path fill-rule="evenodd" clip-rule="evenodd" d="M18.3872 5.68559C19.9334 5.93837 21.2681 6.90957 21.9842 8.30303C22.9357 10.1766 22.5624 12.4508 21.0618 13.9218L14.0382 21.1548C13.8969 21.3001 13.7028 21.3821 13.5001 21.3821C13.2974 21.3821 13.1033 21.3001 12.962 21.1548L5.92789 13.9083C4.4349 12.438 4.0674 10.1695 5.01983 8.30303C5.72448 6.90229 7.06164 5.92757 8.61082 5.6854C10.1689 5.42234 11.7582 5.92733 12.8787 7.04149L13.5001 7.60735L14.144 7.02123C15.2666 5.92838 16.8411 5.4328 18.3872 5.68559ZM13.7681 19.2757L19.997 12.8629C21.0382 11.8502 21.3008 10.2784 20.6454 8.98222C20.1561 8.01065 19.228 7.33491 18.1531 7.16759C17.0674 6.98456 15.9602 7.33669 15.1797 8.11318L14.0082 9.1811C13.7218 9.44207 13.2838 9.44207 12.9973 9.1811L11.8491 8.13044C11.0654 7.34213 9.94793 6.98315 8.85176 7.16759C7.77557 7.33402 6.84596 8.00984 6.3557 8.98222C5.70067 10.2726 5.95794 11.8387 6.99134 12.8516L13.23 19.2757C13.3006 19.3483 13.3977 19.3893 13.499 19.3893C13.6004 19.3893 13.6974 19.3483 13.7681 19.2757Z" fill="white"/>
<mask id="mask0_113_2777" style="mask-type:luminance" maskUnits="userSpaceOnUse" x="4" y="5" width="19" height="17">
<path fill-rule="evenodd" clip-rule="evenodd" d="M18.3872 5.68559C19.9334 5.93837 21.2681 6.90957 21.9842 8.30303C22.9357 10.1766 22.5624 12.4508 21.0618 13.9218L14.0382 21.1548C13.8969 21.3001 13.7028 21.3821 13.5001 21.3821C13.2974 21.3821 13.1033 21.3001 12.962 21.1548L5.92789 13.9083C4.4349 12.438 4.0674 10.1695 5.01983 8.30303C5.72448 6.90229 7.06164 5.92757 8.61082 5.6854C10.1689 5.42234 11.7582 5.92733 12.8787 7.04149L13.5001 7.60735L14.144 7.02123C15.2666 5.92838 16.8411 5.4328 18.3872 5.68559ZM13.7681 19.2757L19.997 12.8629C21.0382 11.8502 21.3008 10.2784 20.6454 8.98222C20.1561 8.01065 19.228 7.33491 18.1531 7.16759C17.0674 6.98456 15.9602 7.33669 15.1797 8.11318L14.0082 9.1811C13.7218 9.44207 13.2838 9.44207 12.9973 9.1811L11.8491 8.13044C11.0654 7.34213 9.94793 6.98315 8.85176 7.16759C7.77557 7.33402 6.84596 8.00984 6.3557 8.98222C5.70067 10.2726 5.95794 11.8387 6.99134 12.8516L13.23 19.2757C13.3006 19.3483 13.3977 19.3893 13.499 19.3893C13.6004 19.3893 13.6974 19.3483 13.7681 19.2757Z" fill="white"/>
</mask>
<g mask="url(#mask0_113_2777)">
</g>
</svg>
