<svg width="17" height="23" viewBox="0 0 17 23" fill="none" xmlns="http://www.w3.org/2000/svg">
<path fill-rule="evenodd" clip-rule="evenodd" d="M8.50116 23C8.89512 22.9999 9.26189 22.8149 9.47424 22.5092C11.7371 19.2479 17 11.2913 17 7.83099C17 3.50605 13.1944 0 8.5 0C3.80558 0 0 3.50605 0 7.83099C0 11.2913 5.26295 19.249 7.52692 22.5092C7.73841 22.8163 8.10639 23.0016 8.50116 23ZM8.50112 3.72863C6.2672 3.72863 4.45625 5.39704 4.45625 7.45513C4.45625 9.51322 6.2672 11.1816 8.50112 11.1816C10.735 11.1816 12.546 9.51322 12.546 7.45513C12.546 5.39704 10.735 3.72863 8.50112 3.72863Z" fill="#8F99BA"/>
<path fill-rule="evenodd" clip-rule="evenodd" d="M8.50116 23C8.89512 22.9999 9.26189 22.8149 9.47424 22.5092C11.7371 19.2479 17 11.2913 17 7.83099C17 3.50605 13.1944 0 8.5 0C3.80558 0 0 3.50605 0 7.83099C0 11.2913 5.26295 19.249 7.52692 22.5092C7.73841 22.8163 8.10639 23.0016 8.50116 23ZM8.50112 3.72863C6.2672 3.72863 4.45625 5.39704 4.45625 7.45513C4.45625 9.51322 6.2672 11.1816 8.50112 11.1816C10.735 11.1816 12.546 9.51322 12.546 7.45513C12.546 5.39704 10.735 3.72863 8.50112 3.72863Z" fill="#8F99BA"/>
</svg>
