<svg width="36" height="35" viewBox="0 0 36 35" fill="none" xmlns="http://www.w3.org/2000/svg">
<path fill-rule="evenodd" clip-rule="evenodd" d="M13.229 18.538C13.0216 18.4936 12.8162 18.4408 12.6127 18.3796C12.4026 18.3157 12.1771 18.3252 11.9732 18.4066L9.92538 19.2267L10.3987 18.397C10.6337 17.9845 10.5342 17.4625 10.164 17.1654C8.94931 16.2217 8.23215 14.7749 8.21659 13.2368C8.21659 10.2365 11.3077 7.79554 15.1039 7.79554C18.9001 7.79554 21.9922 10.2356 21.9922 13.2358C21.9922 13.7693 22.4247 14.2018 22.9581 14.2018C23.4916 14.2018 23.9241 13.7693 23.9241 13.2358C23.9241 9.17107 19.9675 5.86362 15.1039 5.86362C10.2403 5.86362 6.28467 9.17107 6.28467 13.2368C6.29289 15.0707 7.03078 16.826 8.33541 18.1149L6.8739 20.6728C6.67037 21.0296 6.71471 21.476 6.98445 21.7858C7.25419 22.0956 7.69033 22.2009 8.0717 22.0483L12.3857 20.3221C12.5315 20.3608 12.6755 20.3955 12.8271 20.4274C13.1671 20.5054 13.5226 20.394 13.7574 20.1361C13.9922 19.8782 14.0697 19.5138 13.9602 19.1827C13.8507 18.8515 13.5712 18.6051 13.229 18.538ZM28.1997 25.086C29.0256 24.0978 29.475 22.8491 29.468 21.5612C29.468 18.0326 26.0639 15.0506 22.0301 15.0506C17.9962 15.0506 14.5922 18.0326 14.5922 21.5612C14.6336 23.7698 15.7924 25.8065 17.6697 26.9706C19.655 28.2649 22.1406 28.5285 24.3532 27.6796L27.6114 28.9701C27.9422 29.1132 28.326 29.0518 28.5957 28.8127C28.8049 28.6987 28.9566 28.502 29.0137 28.2708C29.0708 28.0395 29.0282 27.7948 28.8961 27.5965L28.1997 25.086ZM26.196 25.0855C26.1047 24.7512 26.1994 24.3937 26.4442 24.1485V24.1456C27.1502 23.4719 27.548 22.5375 27.5444 21.5617C27.5444 19.1226 24.973 16.983 22.0385 16.983C19.1039 16.983 16.5325 19.1226 16.5325 21.5617C16.5758 23.1158 17.4034 24.5421 18.731 25.3511C20.2893 26.3653 22.2557 26.5195 23.953 25.7607C24.1842 25.657 24.4471 25.649 24.6842 25.7385L26.5698 26.4456L26.196 25.0855Z" fill="#8F99BA"/>
<mask id="mask0_107_3243" style="mask-type:luminance" maskUnits="userSpaceOnUse" x="6" y="5" width="24" height="25">
<path fill-rule="evenodd" clip-rule="evenodd" d="M13.229 18.538C13.0216 18.4936 12.8162 18.4408 12.6127 18.3796C12.4026 18.3157 12.1771 18.3252 11.9732 18.4066L9.92538 19.2267L10.3987 18.397C10.6337 17.9845 10.5342 17.4625 10.164 17.1654C8.94931 16.2217 8.23215 14.7749 8.21659 13.2368C8.21659 10.2365 11.3077 7.79554 15.1039 7.79554C18.9001 7.79554 21.9922 10.2356 21.9922 13.2358C21.9922 13.7693 22.4247 14.2018 22.9581 14.2018C23.4916 14.2018 23.9241 13.7693 23.9241 13.2358C23.9241 9.17107 19.9675 5.86362 15.1039 5.86362C10.2403 5.86362 6.28467 9.17107 6.28467 13.2368C6.29289 15.0707 7.03078 16.826 8.33541 18.1149L6.8739 20.6728C6.67037 21.0296 6.71471 21.476 6.98445 21.7858C7.25419 22.0956 7.69033 22.2009 8.0717 22.0483L12.3857 20.3221C12.5315 20.3608 12.6755 20.3955 12.8271 20.4274C13.1671 20.5054 13.5226 20.394 13.7574 20.1361C13.9922 19.8782 14.0697 19.5138 13.9602 19.1827C13.8507 18.8515 13.5712 18.6051 13.229 18.538ZM28.1997 25.086C29.0256 24.0978 29.475 22.8491 29.468 21.5612C29.468 18.0326 26.0639 15.0506 22.0301 15.0506C17.9962 15.0506 14.5922 18.0326 14.5922 21.5612C14.6336 23.7698 15.7924 25.8065 17.6697 26.9706C19.655 28.2649 22.1406 28.5285 24.3532 27.6796L27.6114 28.9701C27.9422 29.1132 28.326 29.0518 28.5957 28.8127C28.8049 28.6987 28.9566 28.502 29.0137 28.2708C29.0708 28.0395 29.0282 27.7948 28.8961 27.5965L28.1997 25.086ZM26.196 25.0855C26.1047 24.7512 26.1994 24.3937 26.4442 24.1485V24.1456C27.1502 23.4719 27.548 22.5375 27.5444 21.5617C27.5444 19.1226 24.973 16.983 22.0385 16.983C19.1039 16.983 16.5325 19.1226 16.5325 21.5617C16.5758 23.1158 17.4034 24.5421 18.731 25.3511C20.2893 26.3653 22.2557 26.5195 23.953 25.7607C24.1842 25.657 24.4471 25.649 24.6842 25.7385L26.5698 26.4456L26.196 25.0855Z" fill="white"/>
</mask>
<g mask="url(#mask0_107_3243)">
</g>
</svg>
