<svg width="26" height="27" viewBox="0 0 26 27" fill="none" xmlns="http://www.w3.org/2000/svg">
<path d="M7.92911 7.73483C7.5302 7.33587 6.84963 7.48174 6.65088 8.01167L0.0510202 25.6112C-0.182785 26.2347 0.427785 26.8469 1.05241 26.6126C1.93635 26.2811 17.9427 20.2788 18.6519 20.0128C19.1794 19.815 19.3298 19.1355 18.9288 18.7346L7.92911 7.73483ZM7.68322 9.68891L10.8795 12.8852C11.1006 15.5432 12.0853 18.0985 13.691 20.2117L10.3637 21.4595C7.87497 18.8706 6.60489 15.2512 6.94317 11.6624L7.68322 9.68891ZM5.58618 23.251C4.81891 22.3796 4.18075 21.4084 3.68343 20.355L5.56176 15.3461C6.02828 17.9081 7.17895 20.1999 8.79288 22.0485L5.58618 23.251ZM2.95811 22.2893C3.28354 22.8271 3.64496 23.3415 4.04049 23.8307L2.10839 24.5552L2.95811 22.2893ZM15.2198 19.6384C14.0533 18.2192 13.216 16.5499 12.7668 14.7725L16.9747 18.9804L15.2198 19.6384Z" fill="#3E3E51"/>
<path d="M18.0724 14.641C18.3762 14.9448 18.8686 14.9448 19.1724 14.641C22.0985 11.7149 24.9478 12.6195 24.9763 12.629C25.3838 12.7648 25.8243 12.5446 25.9601 12.1371C26.096 11.7296 25.8757 11.289 25.4682 11.1532C25.3148 11.1021 21.6709 9.94258 18.0724 13.5411C17.7686 13.8448 17.7686 14.3373 18.0724 14.641Z" fill="#3E3E51"/>
<path d="M12.0227 8.59071C12.3264 8.89446 12.819 8.89452 13.1227 8.59071C16.7212 4.99226 15.5617 1.34834 15.5106 1.19496C15.3747 0.787444 14.9342 0.56712 14.5267 0.703027C14.1192 0.838882 13.899 1.27937 14.0348 1.68689C14.0443 1.71535 14.9489 4.56463 12.0227 7.4908C11.719 7.79451 11.719 8.28701 12.0227 8.59071Z" fill="#3E3E51"/>
<path d="M14.7727 10.2409C14.4689 10.5446 14.4689 11.0371 14.7727 11.3408C15.0737 11.6419 15.5627 11.6458 15.868 11.3455C16.2698 11.1453 17.517 11.8962 18.2101 11.2033C18.8958 10.5176 18.1673 9.29581 18.3493 8.86761C18.778 8.68519 19.9994 9.41404 20.685 8.72844C21.3708 8.04273 20.6423 6.82092 20.8243 6.39266C21.2537 6.21019 22.4743 6.93914 23.16 6.25349C23.8458 5.56778 23.1173 4.34597 23.2992 3.91772C23.7261 3.73618 24.9498 4.46347 25.635 3.77849C26.3278 3.08558 25.5783 1.83618 25.7771 1.43644C26.0763 1.13238 26.0746 0.643349 25.7724 0.341098C25.4687 0.0373424 24.9762 0.0373424 24.6725 0.341098C24.0594 0.954157 24.1794 1.81964 24.2948 2.4384C23.6761 2.32292 22.8106 2.20299 22.1976 2.81599C21.5845 3.42905 21.7045 4.29453 21.8199 4.91329C21.2012 4.79787 20.3356 4.67783 19.7226 5.29094C19.1096 5.904 19.2296 6.76948 19.345 7.38824C18.7262 7.27276 17.8608 7.15278 17.2477 7.76583C16.6347 8.37889 16.7546 9.24437 16.8701 9.86314C16.2513 9.74776 15.3857 9.62783 14.7727 10.2409Z" fill="#3E3E51"/>
</svg>
