<svg width="24" height="23" viewBox="0 0 24 23" fill="none" xmlns="http://www.w3.org/2000/svg">
<path d="M7.0214 16.3703C10.4798 19.833 14.6669 22.4926 18.0872 22.4926C19.6221 22.4926 20.9695 21.959 22.0507 20.766C22.6823 20.064 23.0606 19.2555 23.0606 18.4501C23.0606 17.8283 22.8211 17.23 22.2344 16.8041L18.6283 14.2431C18.0607 13.8512 17.5931 13.6637 17.1649 13.6637C16.6228 13.6637 16.136 13.9748 15.5885 14.5105L14.7438 15.3477C14.6149 15.4766 14.4466 15.5352 14.2943 15.5352C14.1143 15.5352 13.9322 15.4649 13.8129 15.4C13.0758 15.0006 11.8125 13.9152 10.6397 12.752C9.47648 11.5888 8.39109 10.3255 8.00132 9.58836C7.9364 9.45949 7.86609 9.28699 7.86609 9.1091C7.86609 8.95464 7.91507 8.79597 8.04398 8.66706L8.89077 7.80316C9.41695 7.25566 9.73757 6.77847 9.73757 6.22675C9.73757 5.79855 9.54046 5.33097 9.13898 4.76332L6.60679 1.19566C6.17554 0.59941 5.56336 0.342773 4.90312 0.342773C4.11281 0.342773 3.31383 0.69012 2.61609 1.36019C1.45195 2.46269 0.9375 3.82933 0.9375 5.34293C0.9375 8.76316 3.55875 12.9215 7.0214 16.3703Z" fill="white"/>
</svg>
