<svg width="207" height="21" viewBox="0 0 207 21" fill="none" xmlns="http://www.w3.org/2000/svg">
<rect x="81" y="0.756836" width="30" height="18.895" rx="6" fill="#32BD1B"/>
<path d="M91.047 12.0328V8.35084C91.047 8.05684 91.068 7.73484 91.11 7.38484L87.722 12.0328H91.047ZM93.749 12.0328V12.9008C93.749 12.9848 93.721 13.0572 93.665 13.1178C93.6137 13.1785 93.5343 13.2088 93.427 13.2088H92.356V15.7568H91.047V13.2088H86.686C86.5787 13.2088 86.4853 13.1785 86.406 13.1178C86.3313 13.0525 86.2823 12.9732 86.259 12.8798L86.105 12.1098L90.942 5.66984H92.356V12.0328H93.749ZM95.7101 15.7498C95.5748 15.7498 95.4511 15.7265 95.3391 15.6798C95.2271 15.6285 95.1291 15.5608 95.0451 15.4768C94.9658 15.3882 94.9028 15.2855 94.8561 15.1688C94.8141 15.0522 94.7931 14.9238 94.7931 14.7838C94.7931 14.6625 94.8141 14.5482 94.8561 14.4408C94.9028 14.3335 94.9658 14.2402 95.0451 14.1608C95.1291 14.0815 95.2271 14.0208 95.3391 13.9788C95.4558 13.9322 95.5818 13.9088 95.7171 13.9088C95.8758 13.9088 96.0158 13.9392 96.1371 13.9998C96.2584 14.0558 96.3588 14.1352 96.4381 14.2378C96.5221 14.3358 96.5828 14.4525 96.6201 14.5878C96.6621 14.7185 96.6831 14.8585 96.6831 15.0078C96.6831 15.2225 96.6504 15.4488 96.5851 15.6868C96.5244 15.9248 96.4311 16.1605 96.3051 16.3938C96.1838 16.6318 96.0321 16.8628 95.8501 17.0868C95.6728 17.3108 95.4698 17.5162 95.2411 17.7028L94.9821 17.4648C94.9448 17.4275 94.9168 17.3925 94.8981 17.3598C94.8841 17.3272 94.8771 17.2852 94.8771 17.2338C94.8771 17.1545 94.9168 17.0798 94.9961 17.0098C95.0428 16.9585 95.1034 16.8908 95.1781 16.8068C95.2528 16.7228 95.3274 16.6272 95.4021 16.5198C95.4768 16.4125 95.5444 16.2935 95.6051 16.1628C95.6704 16.0322 95.7171 15.8945 95.7451 15.7498H95.7101ZM104.236 14.3358C104.399 14.3358 104.527 14.3848 104.621 14.4828C104.714 14.5762 104.761 14.6975 104.761 14.8468V15.7568H97.9427V15.2458C97.9427 15.1432 97.9637 15.0358 98.0057 14.9238C98.0477 14.8118 98.1153 14.7092 98.2087 14.6158L101.345 11.4728C101.611 11.2068 101.846 10.9525 102.052 10.7098C102.262 10.4672 102.439 10.2245 102.584 9.98184C102.733 9.73917 102.845 9.49417 102.92 9.24684C102.999 8.99484 103.039 8.73117 103.039 8.45584C103.039 8.18984 102.997 7.9565 102.913 7.75584C102.833 7.5505 102.721 7.3825 102.577 7.25184C102.437 7.1165 102.266 7.01617 102.066 6.95084C101.87 6.88084 101.653 6.84584 101.415 6.84584C101.186 6.84584 100.974 6.8785 100.778 6.94384C100.586 7.00917 100.414 7.10017 100.26 7.21684C100.11 7.3335 99.9843 7.4735 99.8817 7.63684C99.7837 7.7955 99.7113 7.9705 99.6647 8.16184C99.5947 8.35317 99.5037 8.4815 99.3917 8.54684C99.2843 8.61217 99.1257 8.62617 98.9157 8.58884L98.1247 8.44884C98.1947 7.97284 98.3253 7.55517 98.5167 7.19584C98.7127 6.8365 98.9577 6.53784 99.2517 6.29984C99.5457 6.05717 99.8817 5.87517 100.26 5.75384C100.642 5.62784 101.055 5.56484 101.499 5.56484C101.947 5.56484 102.357 5.6325 102.731 5.76784C103.109 5.8985 103.433 6.0875 103.704 6.33484C103.979 6.5775 104.194 6.87384 104.348 7.22384C104.502 7.57384 104.579 7.96817 104.579 8.40684C104.579 8.78017 104.523 9.1255 104.411 9.44284C104.303 9.76017 104.156 10.0635 103.97 10.3528C103.783 10.6422 103.564 10.9245 103.312 11.1998C103.064 11.4705 102.803 11.7458 102.528 12.0258L100.092 14.5178C100.292 14.4618 100.493 14.4175 100.694 14.3848C100.899 14.3522 101.093 14.3358 101.275 14.3358H104.236Z" fill="white"/>
<line x1="123.5" y1="0.756836" x2="123.5" y2="20.6463" stroke="#E1E5F2"/>
<path d="M141.154 14.08V15.123H135.722V14.08H137.85V7.49305C137.85 7.28305 137.857 7.06605 137.871 6.84205L136.163 8.29105C136.098 8.34238 136.032 8.37505 135.967 8.38905C135.902 8.40305 135.839 8.40538 135.778 8.39605C135.722 8.38671 135.671 8.36805 135.624 8.34005C135.582 8.30738 135.547 8.27471 135.519 8.24205L135.092 7.64705L138.102 5.05005H139.215V14.08H141.154ZM149.275 14.08V15.123H143.843V14.08H145.971V7.49305C145.971 7.28305 145.978 7.06605 145.992 6.84205L144.284 8.29105C144.219 8.34238 144.153 8.37505 144.088 8.38905C144.023 8.40305 143.96 8.40538 143.899 8.39605C143.843 8.38671 143.792 8.36805 143.745 8.34005C143.703 8.30738 143.668 8.27471 143.64 8.24205L143.213 7.64705L146.223 5.05005H147.336V14.08H149.275ZM157.773 7.89905C158.296 7.89905 158.767 7.98538 159.187 8.15805C159.612 8.32605 159.971 8.57105 160.265 8.89305C160.564 9.21038 160.793 9.59538 160.951 10.048C161.11 10.496 161.189 11 161.189 11.56C161.189 12.12 161.11 12.6264 160.951 13.079C160.793 13.5317 160.564 13.9167 160.265 14.234C159.971 14.5514 159.612 14.7964 159.187 14.969C158.767 15.137 158.296 15.221 157.773 15.221C157.246 15.221 156.77 15.137 156.345 14.969C155.925 14.7964 155.566 14.5514 155.267 14.234C154.969 13.9167 154.738 13.5317 154.574 13.079C154.416 12.6264 154.336 12.12 154.336 11.56C154.336 11 154.416 10.496 154.574 10.048C154.738 9.59538 154.969 9.21038 155.267 8.89305C155.566 8.57105 155.925 8.32605 156.345 8.15805C156.77 7.98538 157.246 7.89905 157.773 7.89905ZM157.773 14.157C158.445 14.157 158.947 13.9307 159.278 13.478C159.61 13.0254 159.775 12.3884 159.775 11.567C159.775 10.7457 159.61 10.1087 159.278 9.65605C158.947 9.19871 158.445 8.97005 157.773 8.97005C157.092 8.97005 156.583 9.19871 156.247 9.65605C155.916 10.1087 155.75 10.7457 155.75 11.567C155.75 12.3884 155.916 13.0254 156.247 13.478C156.583 13.9307 157.092 14.157 157.773 14.157ZM168.41 9.04705H165.729V15.123H164.357V9.04705H161.676V8.01105H168.41V9.04705ZM169.101 8.75305C169.367 8.50105 169.694 8.29571 170.081 8.13705C170.468 7.97838 170.933 7.89905 171.474 7.89905C171.908 7.89905 172.291 7.95271 172.622 8.06005C172.953 8.16271 173.231 8.30271 173.455 8.48005C173.684 8.65271 173.854 8.85105 173.966 9.07505C174.083 9.29905 174.141 9.53238 174.141 9.77505C174.141 9.91505 174.118 10.062 174.071 10.216C174.029 10.3654 173.959 10.51 173.861 10.65C173.763 10.79 173.632 10.9207 173.469 11.042C173.31 11.1587 173.112 11.2567 172.874 11.336C173.313 11.4714 173.66 11.686 173.917 11.98C174.174 12.274 174.302 12.6404 174.302 13.079C174.302 13.4104 174.225 13.709 174.071 13.975C173.922 14.241 173.719 14.4674 173.462 14.654C173.205 14.836 172.909 14.976 172.573 15.074C172.237 15.172 171.887 15.221 171.523 15.221C171.299 15.221 171.068 15.2 170.83 15.158C170.597 15.116 170.366 15.0507 170.137 14.962C169.908 14.8734 169.691 14.759 169.486 14.619C169.281 14.479 169.096 14.3087 168.933 14.108L169.325 13.604C169.386 13.52 169.472 13.478 169.584 13.478C169.673 13.478 169.764 13.5154 169.857 13.59C169.955 13.66 170.072 13.737 170.207 13.821C170.347 13.905 170.513 13.9844 170.704 14.059C170.9 14.129 171.143 14.164 171.432 14.164C171.679 14.164 171.899 14.1337 172.09 14.073C172.286 14.0124 172.449 13.9284 172.58 13.821C172.715 13.7137 172.818 13.5877 172.888 13.443C172.958 13.2984 172.993 13.1397 172.993 12.967C172.993 12.631 172.855 12.3627 172.58 12.162C172.305 11.9614 171.88 11.861 171.306 11.861H170.501V10.951H171.306C171.81 10.951 172.202 10.8577 172.482 10.671C172.762 10.4797 172.902 10.2347 172.902 9.93605C172.902 9.80538 172.872 9.68171 172.811 9.56505C172.75 9.44371 172.657 9.33871 172.531 9.25005C172.41 9.15671 172.256 9.08438 172.069 9.03305C171.887 8.98171 171.675 8.95605 171.432 8.95605C171.161 8.95605 170.933 8.98405 170.746 9.04005C170.559 9.09138 170.401 9.14971 170.27 9.21505C170.139 9.28038 170.03 9.34105 169.941 9.39705C169.857 9.44838 169.785 9.47405 169.724 9.47405C169.659 9.47405 169.603 9.46238 169.556 9.43905C169.514 9.41105 169.467 9.35738 169.416 9.27805L169.101 8.75305ZM178.61 14.122C179.077 14.122 179.427 14.01 179.66 13.786C179.893 13.5574 180.01 13.268 180.01 12.918C180.01 12.7594 179.984 12.61 179.933 12.47C179.882 12.3254 179.8 12.2017 179.688 12.099C179.576 11.9917 179.429 11.9077 179.247 11.847C179.07 11.7817 178.85 11.749 178.589 11.749H177.14V14.122H178.61ZM178.589 10.755C179.079 10.755 179.492 10.8157 179.828 10.937C180.169 11.0537 180.442 11.2124 180.647 11.413C180.852 11.609 180.999 11.8377 181.088 12.099C181.181 12.3557 181.228 12.624 181.228 12.904C181.228 13.226 181.17 13.5247 181.053 13.8C180.941 14.0707 180.773 14.304 180.549 14.5C180.325 14.696 180.05 14.85 179.723 14.962C179.401 15.0694 179.03 15.123 178.61 15.123H175.838V8.01105H177.14V10.755H178.589ZM184.091 8.01105V15.123H182.726V8.01105H184.091ZM188.782 14.164C189.22 14.164 189.568 14.0614 189.825 13.856C190.081 13.646 190.21 13.3637 190.21 13.009C190.21 12.855 190.186 12.7127 190.14 12.582C190.093 12.4467 190.014 12.33 189.902 12.232C189.79 12.134 189.643 12.0594 189.461 12.008C189.279 11.952 189.055 11.924 188.789 11.924H187.312V14.164H188.782ZM187.312 8.92105V11.056H188.621C188.817 11.056 188.996 11.028 189.16 10.972C189.328 10.916 189.47 10.839 189.587 10.741C189.708 10.6384 189.801 10.517 189.867 10.377C189.937 10.2324 189.972 10.076 189.972 9.90805C189.972 9.78205 189.948 9.66071 189.902 9.54405C189.86 9.42738 189.785 9.32238 189.678 9.22905C189.575 9.13571 189.437 9.06105 189.265 9.00505C189.092 8.94905 188.877 8.92105 188.621 8.92105H187.312ZM188.663 8.01105C189.101 8.01105 189.479 8.05538 189.797 8.14405C190.114 8.22805 190.375 8.34705 190.581 8.50105C190.786 8.65505 190.935 8.83471 191.029 9.04005C191.127 9.24538 191.176 9.46705 191.176 9.70505C191.176 9.85905 191.155 10.02 191.113 10.188C191.071 10.356 190.998 10.517 190.896 10.671C190.793 10.8204 190.653 10.958 190.476 11.084C190.303 11.21 190.081 11.308 189.811 11.378C190.333 11.4714 190.739 11.658 191.029 11.938C191.323 12.218 191.47 12.589 191.47 13.051C191.47 13.401 191.397 13.7067 191.253 13.968C191.113 14.2247 190.921 14.4394 190.679 14.612C190.436 14.7847 190.151 14.913 189.825 14.997C189.498 15.081 189.153 15.123 188.789 15.123H186.01V8.01105H188.663ZM196.013 7.89905C196.536 7.89905 197.007 7.98538 197.427 8.15805C197.852 8.32605 198.211 8.57105 198.505 8.89305C198.804 9.21038 199.033 9.59538 199.191 10.048C199.35 10.496 199.429 11 199.429 11.56C199.429 12.12 199.35 12.6264 199.191 13.079C199.033 13.5317 198.804 13.9167 198.505 14.234C198.211 14.5514 197.852 14.7964 197.427 14.969C197.007 15.137 196.536 15.221 196.013 15.221C195.486 15.221 195.01 15.137 194.585 14.969C194.165 14.7964 193.806 14.5514 193.507 14.234C193.209 13.9167 192.978 13.5317 192.814 13.079C192.656 12.6264 192.576 12.12 192.576 11.56C192.576 11 192.656 10.496 192.814 10.048C192.978 9.59538 193.209 9.21038 193.507 8.89305C193.806 8.57105 194.165 8.32605 194.585 8.15805C195.01 7.98538 195.486 7.89905 196.013 7.89905ZM196.013 14.157C196.685 14.157 197.187 13.9307 197.518 13.478C197.85 13.0254 198.015 12.3884 198.015 11.567C198.015 10.7457 197.85 10.1087 197.518 9.65605C197.187 9.19871 196.685 8.97005 196.013 8.97005C195.332 8.97005 194.823 9.19871 194.487 9.65605C194.156 10.1087 193.99 10.7457 193.99 11.567C193.99 12.3884 194.156 13.0254 194.487 13.478C194.823 13.9307 195.332 14.157 196.013 14.157ZM203.725 14.164C204.164 14.164 204.511 14.0614 204.768 13.856C205.025 13.646 205.153 13.3637 205.153 13.009C205.153 12.855 205.13 12.7127 205.083 12.582C205.036 12.4467 204.957 12.33 204.845 12.232C204.733 12.134 204.586 12.0594 204.404 12.008C204.222 11.952 203.998 11.924 203.732 11.924H202.255V14.164H203.725ZM202.255 8.92105V11.056H203.564C203.76 11.056 203.94 11.028 204.103 10.972C204.271 10.916 204.413 10.839 204.53 10.741C204.651 10.6384 204.745 10.517 204.81 10.377C204.88 10.2324 204.915 10.076 204.915 9.90805C204.915 9.78205 204.892 9.66071 204.845 9.54405C204.803 9.42738 204.728 9.32238 204.621 9.22905C204.518 9.13571 204.381 9.06105 204.208 9.00505C204.035 8.94905 203.821 8.92105 203.564 8.92105H202.255ZM203.606 8.01105C204.045 8.01105 204.423 8.05538 204.74 8.14405C205.057 8.22805 205.319 8.34705 205.524 8.50105C205.729 8.65505 205.879 8.83471 205.972 9.04005C206.07 9.24538 206.119 9.46705 206.119 9.70505C206.119 9.85905 206.098 10.02 206.056 10.188C206.014 10.356 205.942 10.517 205.839 10.671C205.736 10.8204 205.596 10.958 205.419 11.084C205.246 11.21 205.025 11.308 204.754 11.378C205.277 11.4714 205.683 11.658 205.972 11.938C206.266 12.218 206.413 12.589 206.413 13.051C206.413 13.401 206.341 13.7067 206.196 13.968C206.056 14.2247 205.865 14.4394 205.622 14.612C205.379 14.7847 205.095 14.913 204.768 14.997C204.441 15.081 204.096 15.123 203.732 15.123H200.953V8.01105H203.606Z" fill="#32BD1B"/>
<path d="M6.95428 3.86117C6.9924 3.79266 7.09094 3.79266 7.12905 3.86117L9.13271 7.46263C9.14783 7.48981 9.17472 7.5084 9.20549 7.51294L13.5319 8.15175C13.615 8.16402 13.6469 8.26711 13.5852 8.32412L10.5036 11.1716C10.4788 11.1945 10.4673 11.2285 10.4729 11.2618L11.1487 15.2401C11.1622 15.3196 11.0809 15.3816 11.0078 15.3475L7.08395 13.5164C7.05715 13.5039 7.02618 13.5039 6.99938 13.5164L3.07549 15.3475C3.00242 15.3816 2.92111 15.3196 2.93462 15.2401L3.61041 11.2618C3.61607 11.2285 3.60452 11.1945 3.57969 11.1716L0.498148 8.32412C0.436443 8.26711 0.468293 8.16402 0.551407 8.15175L4.87785 7.51294C4.90861 7.5084 4.93551 7.48981 4.95062 7.46263L6.95428 3.86117Z" fill="#32BD1B"/>
<path d="M22.5672 3.91627C22.6044 3.8437 22.7081 3.8437 22.7453 3.91627L24.5855 7.51015C24.6 7.53852 24.6272 7.55826 24.6586 7.56331L28.6453 8.20289C28.7258 8.2158 28.7578 8.31443 28.7003 8.37219L25.851 11.2329C25.8285 11.2555 25.8181 11.2874 25.823 11.3189L26.4467 15.3081C26.4593 15.3886 26.3754 15.4496 26.3027 15.4127L22.7015 13.5869C22.673 13.5724 22.6395 13.5724 22.611 13.5869L19.0098 15.4127C18.9371 15.4496 18.8532 15.3886 18.8658 15.3081L19.4895 11.3189C19.4944 11.2874 19.484 11.2555 19.4615 11.2329L16.6122 8.37219C16.5547 8.31443 16.5867 8.2158 16.6672 8.20289L20.6539 7.56331C20.6853 7.55826 20.7125 7.53852 20.727 7.51015L22.5672 3.91627Z" fill="#32BD1B"/>
<path d="M37.5672 3.91627C37.6044 3.8437 37.7081 3.8437 37.7453 3.91627L39.5855 7.51015C39.6 7.53852 39.6272 7.55826 39.6586 7.56331L43.6453 8.20289C43.7258 8.2158 43.7578 8.31443 43.7003 8.37219L40.851 11.2329C40.8285 11.2555 40.8181 11.2874 40.823 11.3189L41.4467 15.3081C41.4593 15.3886 41.3754 15.4496 41.3027 15.4127L37.7015 13.5869C37.673 13.5724 37.6395 13.5724 37.611 13.5869L34.0098 15.4127C33.9371 15.4496 33.8532 15.3886 33.8658 15.3081L34.4895 11.3189C34.4944 11.2874 34.484 11.2555 34.4615 11.2329L31.6122 8.37219C31.5547 8.31443 31.5867 8.2158 31.6672 8.20289L35.6539 7.56331C35.6853 7.55826 35.7125 7.53852 35.727 7.51015L37.5672 3.91627Z" fill="#32BD1B"/>
<path d="M52.5672 3.91627C52.6044 3.8437 52.7081 3.8437 52.7453 3.91627L54.5855 7.51015C54.6 7.53852 54.6272 7.55826 54.6586 7.56331L58.6453 8.20289C58.7258 8.2158 58.7578 8.31443 58.7003 8.37219L55.851 11.2329C55.8285 11.2555 55.8181 11.2874 55.823 11.3189L56.4467 15.3081C56.4593 15.3886 56.3754 15.4496 56.3027 15.4127L52.7015 13.5869C52.673 13.5724 52.6395 13.5724 52.611 13.5869L49.0098 15.4127C48.9371 15.4496 48.8532 15.3886 48.8658 15.3081L49.4895 11.3189C49.4944 11.2874 49.484 11.2555 49.4615 11.2329L46.6122 8.37219C46.5547 8.31443 46.5867 8.2158 46.6672 8.20289L50.6539 7.56331C50.6853 7.55826 50.7125 7.53852 50.727 7.51015L52.5672 3.91627Z" fill="#32BD1B"/>
<path d="M67.5672 3.91627C67.6044 3.8437 67.7081 3.8437 67.7453 3.91627L69.5855 7.51015C69.6 7.53852 69.6272 7.55826 69.6586 7.56331L73.6453 8.20289C73.7258 8.2158 73.7578 8.31443 73.7003 8.37219L70.851 11.2329C70.8285 11.2555 70.8181 11.2874 70.823 11.3189L71.4467 15.3081C71.4593 15.3886 71.3754 15.4496 71.3027 15.4127L67.7015 13.5869C67.673 13.5724 67.6395 13.5724 67.611 13.5869L64.0098 15.4127C63.9371 15.4496 63.8532 15.3886 63.8658 15.3081L64.4895 11.3189C64.4944 11.2874 64.484 11.2555 64.4615 11.2329L61.6122 8.37219C61.5547 8.31443 61.5867 8.2158 61.6672 8.20289L65.6539 7.56331C65.6853 7.55826 65.7125 7.53852 65.727 7.51015L67.5672 3.91627Z" fill="#E6EBF3"/>
</svg>
