<svg width="32" height="21" viewBox="0 0 32 21" fill="none" xmlns="http://www.w3.org/2000/svg">
<path d="M1.95171 20.6121H2.67805C3.29468 20.6121 3.70789 20.2127 3.70789 19.5843V17.8922C3.83891 17.9294 4.24883 17.955 4.54695 17.955H27.4499C27.748 17.955 28.1579 17.9294 28.2889 17.8922V19.5843C28.2889 20.2127 28.7021 20.6121 29.3188 20.6121H30.0451C30.6692 20.6121 31.0749 20.2127 31.0749 19.5843V11.3925C31.0749 9.06987 29.8098 7.82066 27.4787 7.82066H4.51812C2.18914 7.82066 0.921875 9.06987 0.921875 11.3925V19.5843C0.921875 20.2127 1.32758 20.6121 1.95171 20.6121ZM3.56304 15.9783C3.30007 15.9783 3.14351 15.8004 3.14351 15.5044V11.2284C3.14351 10.3589 3.71678 9.79736 4.60132 9.79736H27.4051C28.28 9.79736 28.8533 10.3589 28.8533 11.2284V15.5044C28.8533 15.8004 28.6967 15.9783 28.4338 15.9783H3.56304ZM3.95609 8.20385H7.10352V5.66323C7.10352 4.53753 7.72554 3.92722 8.87257 3.92722H13.0745C14.2119 3.92722 14.8339 4.53753 14.8339 5.66323V8.20385H17.1629V5.66323C17.1629 4.53753 17.7849 3.92722 18.9224 3.92722H23.1242C24.2713 3.92722 24.8933 4.53753 24.8933 5.66323V8.20385H28.0407V3.72519C28.0407 1.50449 26.8489 0.355347 24.6699 0.355347H7.32688C5.1575 0.355347 3.95609 1.50449 3.95609 3.72519V8.20385Z" fill="#8F99BA"/>
</svg>
