<svg width="19" height="19" viewBox="0 0 19 19" fill="none" xmlns="http://www.w3.org/2000/svg">
<path d="M12.6326 3.42475C12.7173 1.00854 16.1994 1.00794 16.2845 3.42471C16.2845 3.90899 16.0921 4.37343 15.7497 4.71587C15.5801 4.88542 15.3788 5.01992 15.1573 5.11169C14.9358 5.20345 14.6983 5.25069 14.4586 5.25069C13.9743 5.25069 13.5098 5.05832 13.1674 4.71589C12.825 4.37346 12.6326 3.90902 12.6326 3.42475ZM13.0738 11.4368L12.0259 10.4005C11.9712 10.3467 11.937 10.2755 11.929 10.1993C11.9211 10.123 11.9399 10.0463 11.9823 9.98244C12.4258 9.31318 13.0702 8.34928 13.518 7.6775C13.9654 7.08283 13.9882 6.36994 13.2481 5.68316C12.7672 5.43546 11.9613 4.81624 11.4046 4.85005L8.63234 4.80649C8.2536 4.80166 7.88759 4.94308 7.61049 5.2013L5.76133 6.93435C5.65409 7.03451 5.56821 7.15532 5.50884 7.28952C5.44948 7.42371 5.41786 7.56852 5.41588 7.71524C5.4165 7.93118 5.48058 8.14217 5.60014 8.32199C5.71969 8.50181 5.88946 8.64253 6.08834 8.72665C6.28722 8.81078 6.50643 8.8346 6.71874 8.79516C6.93104 8.75572 7.12707 8.65476 7.28247 8.50482L8.42332 7.36398C8.4772 7.31024 8.54167 7.26829 8.61264 7.2408C8.6836 7.21332 8.75951 7.2009 8.83553 7.20433L9.64257 7.24497C8.42066 8.9723 7.36175 10.0967 9.48869 11.7852C9.77798 12.0471 10.3887 12.5864 10.6818 12.8535C10.7604 12.9235 10.8232 13.0094 10.8663 13.1054C10.9093 13.2015 10.9315 13.3056 10.9315 13.4108V16.1599C10.9346 16.4873 11.0672 16.8002 11.3003 17.0302C11.5333 17.2602 11.8479 17.3886 12.1754 17.3875C12.5028 17.3863 12.8165 17.2557 13.0479 17.024C13.2793 16.7924 13.4097 16.4786 13.4106 16.1511L13.3816 12.1655C13.3809 12.0297 13.3533 11.8954 13.3005 11.7704C13.2477 11.6453 13.1707 11.532 13.0738 11.4368ZM7.88045 10.7982L6.94573 11.9507C6.91256 11.9911 6.87094 12.0237 6.82379 12.0463C6.77664 12.0688 6.72511 12.0808 6.67284 12.0813H4.42307C4.10725 12.0834 3.80508 12.2103 3.5825 12.4344C3.35993 12.6585 3.23501 12.9615 3.23502 13.2773C3.23502 13.5931 3.35994 13.8961 3.58252 14.1202C3.8051 14.3443 4.10726 14.4712 4.42308 14.4733H7.69177C7.8357 14.4734 7.97769 14.4402 8.10663 14.3762C8.23556 14.3122 8.34793 14.2193 8.43494 14.1046C8.67238 13.7911 9.55836 12.627 9.55836 12.627C9.512 12.5823 9.15739 12.273 9.12293 12.238C8.60965 11.8534 8.18577 11.3622 7.88045 10.7982ZM16.6735 8.43517H15.2656C15.1691 8.4354 15.0764 8.3979 15.0072 8.33067C14.8195 8.14847 14.4419 7.77759 14.2553 7.59332C14.223 7.67678 13.1425 9.29129 12.9287 9.60797L13.3119 9.99115C13.6224 10.261 14.017 10.7778 14.4818 10.7372L16.6735 10.7372C16.9766 10.734 17.2662 10.6113 17.4795 10.3958C17.6927 10.1803 17.8123 9.88934 17.8123 9.58618C17.8123 9.28302 17.6927 8.9921 17.4795 8.77659C17.2662 8.56109 16.9766 8.4384 16.6735 8.43517ZM2.56513 2.32876H2.94329C2.98149 2.32888 3.01934 2.32146 3.05467 2.30693C3.09 2.29239 3.12211 2.27103 3.14917 2.24406C3.17622 2.21709 3.19769 2.18505 3.21233 2.14977C3.22698 2.11448 3.23452 2.07666 3.23452 2.03846C3.23452 2.00026 3.22698 1.96243 3.21233 1.92715C3.19769 1.89187 3.17622 1.85983 3.14917 1.83286C3.12211 1.80589 3.09 1.78453 3.05467 1.76999C3.01934 1.75546 2.98149 1.74804 2.94329 1.74816H2.56513C2.48904 1.74952 2.41652 1.7807 2.36318 1.83499C2.30984 1.88928 2.27996 1.96235 2.27996 2.03846C2.27996 2.11457 2.30984 2.18763 2.36318 2.24193C2.41652 2.29622 2.48904 2.3274 2.56513 2.32876ZM4.35622 2.39311H6.53922C6.61549 2.39201 6.68827 2.36095 6.74182 2.30663C6.79536 2.2523 6.82538 2.17909 6.82538 2.10281C6.82538 2.02653 6.79536 1.95332 6.7418 1.899C6.68825 1.84468 6.61548 1.81362 6.53921 1.81253H4.35622C4.27995 1.81362 4.20718 1.84469 4.15363 1.89901C4.10008 1.95333 4.07006 2.02654 4.07006 2.10282C4.07006 2.1791 4.10008 2.25231 4.15363 2.30663C4.20718 2.36095 4.27995 2.39202 4.35622 2.39311ZM5.06961 3.48115C4.99352 3.48251 4.92099 3.51369 4.86766 3.56798C4.81432 3.62228 4.78444 3.69534 4.78444 3.77145C4.78444 3.84756 4.81432 3.92063 4.86766 3.97492C4.92099 4.02921 4.99352 4.06039 5.06961 4.06175H5.44764C5.48584 4.06187 5.52369 4.05445 5.55902 4.03992C5.59435 4.02538 5.62646 4.00402 5.65352 3.97705C5.68057 3.95008 5.70204 3.91804 5.71669 3.88276C5.73133 3.84748 5.73887 3.80965 5.73887 3.77145C5.73887 3.73325 5.73133 3.69543 5.71669 3.66014C5.70204 3.62486 5.68057 3.59282 5.65352 3.56585C5.62646 3.53888 5.59435 3.51752 5.55902 3.50298C5.52369 3.48845 5.48584 3.48103 5.44764 3.48115H5.06961ZM1.47369 4.12608H3.65656C3.73281 4.12496 3.80556 4.09388 3.85909 4.03956C3.91262 3.98524 3.94262 3.91204 3.94262 3.83578C3.94262 3.75952 3.91261 3.68632 3.85908 3.63201C3.80555 3.57769 3.7328 3.54662 3.65654 3.5455H1.47369C1.39744 3.54662 1.32468 3.57769 1.27116 3.63201C1.21763 3.68633 1.18762 3.75953 1.18762 3.83579C1.18762 3.91205 1.21763 3.98525 1.27116 4.03957C1.32468 4.09389 1.39744 4.12496 1.47369 4.12608ZM1.85186 16.6666H1.47369C1.39879 16.6697 1.32799 16.7016 1.27609 16.7557C1.2242 16.8098 1.19522 16.8819 1.19522 16.9568C1.19522 17.0318 1.2242 17.1039 1.27609 17.158C1.32799 17.2121 1.39879 17.244 1.47369 17.2471H1.85186C1.92812 17.246 2.00087 17.2149 2.0544 17.1606C2.10792 17.1063 2.13793 17.0331 2.13793 16.9568C2.13793 16.8806 2.10792 16.8074 2.0544 16.7531C2.00087 16.6988 1.92812 16.6677 1.85186 16.6666ZM5.44765 16.6022H3.26479C3.18869 16.6036 3.11617 16.6347 3.06284 16.689C3.0095 16.7433 2.97962 16.8164 2.97962 16.8925C2.97962 16.9686 3.0095 17.0417 3.06284 17.096C3.11617 17.1503 3.18869 17.1814 3.26479 17.1828H5.44767C5.52375 17.1814 5.59625 17.1502 5.64956 17.0959C5.70288 17.0416 5.73275 16.9686 5.73275 16.8925C5.73275 16.8164 5.70287 16.7433 5.64955 16.6891C5.59623 16.6348 5.52373 16.6036 5.44765 16.6022V16.6022ZM6.53922 14.9336H6.16107C6.08577 14.9361 6.0144 14.9678 5.96203 15.022C5.90967 15.0761 5.88039 15.1485 5.88039 15.2239C5.88039 15.2992 5.90967 15.3716 5.96203 15.4258C6.0144 15.4799 6.08577 15.5116 6.16107 15.5142H6.53922C6.61546 15.513 6.68818 15.4819 6.74169 15.4276C6.7952 15.3733 6.82519 15.3001 6.82519 15.2239C6.82519 15.1476 6.7952 15.0744 6.74169 15.0201C6.68818 14.9658 6.61546 14.9347 6.53922 14.9336V14.9336ZM5.03843 15.1595C5.03844 15.1214 5.03094 15.0836 5.01636 15.0484C5.00177 15.0132 4.98039 14.9812 4.95343 14.9542C4.92647 14.9273 4.89446 14.9059 4.85924 14.8913C4.82401 14.8767 4.78626 14.8692 4.74814 14.8692H2.56513C2.48814 14.8692 2.4143 14.8998 2.35986 14.9542C2.30542 15.0087 2.27484 15.0825 2.27484 15.1595C2.27484 15.2365 2.30542 15.3103 2.35986 15.3648C2.4143 15.4192 2.48814 15.4498 2.56513 15.4498H4.74814C4.78626 15.4498 4.82401 15.4423 4.85924 15.4277C4.89446 15.4131 4.92646 15.3918 4.95342 15.3648C4.98038 15.3378 5.00176 15.3058 5.01635 15.2706C5.03094 15.2354 5.03844 15.1976 5.03843 15.1595V15.1595Z" fill="#8F99BA"/>
</svg>
