<svg width="24" height="24" viewBox="0 0 24 24" fill="none" xmlns="http://www.w3.org/2000/svg">
<path d="M22.6842 20.6772L22.6843 20.6771L22.6811 20.6739L17.7311 15.7273C17.4914 15.4877 17.1664 15.3532 16.8276 15.3532C16.5418 15.3532 16.2676 15.2397 16.0655 15.0377L16.035 15.0073C15.6011 14.5736 15.5761 13.875 15.911 13.3405C16.6966 12.0867 17.1534 10.6042 17.1534 9.02126C17.1534 6.86734 16.2972 4.80166 14.7732 3.27864C13.2491 1.75561 11.182 0.9 9.02672 0.9C6.8714 0.9 4.80435 1.75561 3.28029 3.27864C1.75622 4.80166 0.9 6.86734 0.9 9.02126C0.9 11.1752 1.75622 13.2408 3.28029 14.7639C4.80435 16.2869 6.8714 17.1425 9.02672 17.1425C10.6111 17.1425 12.0949 16.6858 13.3497 15.9004C13.8843 15.5658 14.5825 15.5908 15.0163 16.0243L15.0476 16.0555C15.2496 16.2574 15.363 16.5312 15.363 16.8168C15.363 17.1554 15.4976 17.4802 15.7372 17.7195L20.6874 22.6664L20.6879 22.6669C21.0121 22.9866 21.3821 23.1148 21.7357 23.0987C22.0871 23.0826 22.4152 22.9244 22.6607 22.6843C22.9063 22.4441 23.0731 22.1184 23.097 21.7623C23.1211 21.4043 23.0003 21.0233 22.6842 20.6772ZM3.56976 9.02126C3.56976 5.99145 5.99469 3.56808 9.02672 3.56808C12.0588 3.56808 14.4837 5.99145 14.4837 9.02126C14.4837 12.0511 12.0588 14.4744 9.02672 14.4744C5.99469 14.4744 3.56976 12.0511 3.56976 9.02126Z" fill="#8F99BA" stroke="#8F99BA" stroke-width="0.2"/>
</svg>
