<svg width="22" height="22" viewBox="0 0 22 22" fill="none" xmlns="http://www.w3.org/2000/svg">
<path d="M8.02672 0C10.1555 0 12.1972 0.845094 13.7025 2.34937C15.2078 3.85365 16.0534 5.89389 16.0534 8.02126C16.0534 9.58474 15.6023 11.0489 14.8263 12.2874C14.4713 12.8538 14.4915 13.6055 14.9644 14.078L14.9948 14.1084C15.2157 14.3292 15.5153 14.4532 15.8276 14.4532C16.1399 14.4532 16.4395 14.5772 16.6604 14.798L21.6104 19.7446C22.8061 21.0538 20.9799 22.8003 19.7581 21.5957L14.8078 16.6488C14.5871 16.4282 14.463 16.1289 14.463 15.8168C14.463 15.5047 14.339 15.2054 14.1183 14.9848L14.087 14.9536C13.6143 14.4812 12.8631 14.4611 12.2967 14.8156C11.0571 15.5914 9.59166 16.0425 8.02672 16.0425C5.8979 16.0425 3.85627 15.1974 2.35097 13.6931C0.84567 12.1889 0 10.1486 0 8.02126C0 5.89389 0.84567 3.85365 2.35097 2.34937C3.85627 0.845094 5.8979 0 8.02672 0ZM8.02672 2.46808C4.93952 2.46808 2.46976 4.93616 2.46976 8.02126C2.46976 11.1064 4.93952 13.5744 8.02672 13.5744C11.1139 13.5744 13.5837 11.1064 13.5837 8.02126C13.5837 4.93616 11.1139 2.46808 8.02672 2.46808Z" fill="#32BD1B"/>
</svg>
