<svg width="14" height="8" viewBox="0 0 14 8" fill="none" xmlns="http://www.w3.org/2000/svg">
<path d="M13.6212 0.365951C14.1263 0.853862 14.1263 1.64492 13.6212 2.13283L7.92593 7.63407C7.42081 8.12198 6.60185 8.12198 6.09674 7.63407C5.59162 7.14616 5.59162 6.35509 6.09674 5.86718L11.792 0.365952C12.2971 -0.121959 13.116 -0.12196 13.6212 0.365951Z" fill="#8F99BA"/>
<path d="M0.378838 0.365934C0.883955 -0.121978 1.70291 -0.121978 2.20803 0.365933L7.90326 5.86716C8.40838 6.35508 8.40838 7.14614 7.90326 7.63405C7.39815 8.12196 6.57919 8.12196 6.07407 7.63405L0.378839 2.13282C-0.126279 1.64491 -0.12628 0.853845 0.378838 0.365934Z" fill="#8F99BA"/>
</svg>
