<svg width="15" height="8" viewBox="0 0 15 8" fill="none" xmlns="http://www.w3.org/2000/svg">
<path d="M13.918 0.365951C14.4232 0.853862 14.4232 1.64492 13.918 2.13283L8.2228 7.63407C7.71769 8.12198 6.89873 8.12198 6.39361 7.63407C5.88849 7.14616 5.88849 6.35509 6.39361 5.86718L12.0888 0.365952C12.594 -0.121959 13.4129 -0.12196 13.918 0.365951Z" fill="#17A300"/>
<path d="M0.675713 0.365934C1.18083 -0.121978 1.99979 -0.121978 2.50491 0.365933L8.20014 5.86716C8.70525 6.35508 8.70526 7.14614 8.20014 7.63405C7.69502 8.12196 6.87606 8.12196 6.37095 7.63405L0.675714 2.13282C0.170596 1.64491 0.170595 0.853845 0.675713 0.365934Z" fill="#17A300"/>
</svg>
