<svg width="27" height="25" viewBox="0 0 27 25" fill="none" xmlns="http://www.w3.org/2000/svg">
<path d="M20.9764 22.0297C24.0315 18.9842 24.5298 15.1974 22.4541 10.8322L19.7921 5.20682C19.592 4.79262 19.3524 4.45302 19.0852 4.18582C18.1452 3.24576 16.7602 3.26311 15.8342 4.20082C15.2431 4.78022 15.0378 5.66312 15.4002 6.59212L16.0546 8.14752C16.0642 8.19012 16.0759 8.23282 16.0428 8.26582C15.9981 8.31062 15.9533 8.29892 15.9106 8.25622L9.52344 1.86904C8.47701 0.822558 7.13498 0.830998 6.1185 1.84748C5.79975 2.16412 5.61647 2.55436 5.57944 2.96592C4.58053 2.2867 3.48882 2.36287 2.63147 3.22021C1.80929 4.04242 1.73312 5.16712 2.36968 6.14472C1.98155 6.16582 1.61687 6.34912 1.33327 6.63062C0.38171 7.57252 0.40421 8.87102 1.37734 9.85582L2.1639 10.6307C1.75539 10.6421 1.35109 10.8341 1.02366 11.1615C0.0817095 12.1035 0.12226 13.4668 1.12187 14.4664L8.37132 21.7159C12.3704 25.715 17.289 25.7171 20.9764 22.0297ZM19.5397 20.6877C16.5667 23.6511 12.867 23.5721 9.54954 20.2471L2.59256 13.2997C2.27896 12.9861 2.25975 12.5638 2.57334 12.2502C2.87944 11.9462 3.31889 11.9462 3.6346 12.2598L7.8967 16.5315C8.25741 16.8826 8.78498 16.842 9.10724 16.5198C9.43914 16.1879 9.47754 15.6528 9.12644 15.3017L2.73295 8.89862C2.41935 8.58502 2.40014 8.16272 2.70412 7.85872C3.00811 7.55472 3.44967 7.55472 3.77499 7.86832L9.73604 13.8315C10.0871 14.1805 10.6243 14.1495 10.9466 13.8198C11.2784 13.4879 11.3169 12.9507 10.9658 12.5996L3.9524 5.58622C3.63881 5.27262 3.61959 4.83102 3.93318 4.52712C4.22756 4.22312 4.66912 4.24232 4.99233 4.55592L11.9129 11.4765C12.2448 11.8063 12.782 11.7946 13.1138 11.4627C13.4553 11.1233 13.4745 10.5861 13.1331 10.2446L7.26482 4.36672C6.95122 4.05322 6.93951 3.62333 7.24349 3.31934C7.55709 3.00575 7.98154 3.01325 8.30475 3.33645L16.5559 11.5876C17.0293 12.061 17.5941 12.0294 17.9879 11.6314C18.3104 11.3047 18.4625 10.8547 18.2155 10.2275L16.7422 6.36152C16.562 5.89232 16.7293 5.50092 17.0952 5.33662C17.4824 5.16062 17.8353 5.33452 18.0732 5.83372L20.7835 11.6298C22.5831 15.4735 21.9327 18.283 19.5397 20.6877ZM9.51294 0.915128C9.18884 1.21794 9.01514 1.60935 8.96637 2.00826L10.6137 3.53145C10.2917 3.17473 10.2779 2.70785 10.6041 2.38793C10.9208 2.07551 11.3759 2.09473 11.7085 2.42731L15.5115 6.22822L16.6991 4.72002L12.9083 0.936688C11.8597 -0.109792 10.5399 -0.090812 9.51294 0.915128ZM24.2115 21.1597C27.2687 18.1046 27.7669 14.3178 25.6988 9.95052L23.0272 4.31752C22.5235 3.23567 21.6516 2.60802 20.6063 2.61435C19.8488 2.61646 18.4489 3.12482 18.4489 4.78442C18.4489 4.90492 18.4489 5.02322 18.4681 5.15332L19.9986 5.68772C19.9346 5.54592 19.8941 5.39562 19.8941 5.21962C19.8941 4.87422 20.1788 4.53922 20.6363 4.53922C20.919 4.53922 21.2134 4.73662 21.3702 5.07152L24.0282 10.7481C25.8256 14.5822 25.187 17.413 22.7769 19.7963C21.7571 20.814 20.649 21.47 19.5057 21.7452L17.3898 23.7249C19.7839 24.0514 22.187 23.1821 24.2115 21.1597Z" fill="#8F99BA"/>
</svg>
