<svg width="26" height="25" viewBox="0 0 26 25" fill="none" xmlns="http://www.w3.org/2000/svg">
<path d="M6.24436 23.6792L6.24202 23.681C5.85591 23.9654 5.623 23.8642 5.58936 23.8418C5.56908 23.8284 5.5409 23.803 5.5229 23.7335C5.50331 23.6577 5.4887 23.4923 5.58326 23.2199L5.5833 23.2199L5.58644 23.2106L8.01356 15.9876L8.24922 15.2863L7.64755 14.8558L1.32882 10.3347L1.32858 10.3345C1.13466 10.1958 1.05444 10.0664 1.02304 9.98607C0.99203 9.90677 0.997876 9.8518 1.00866 9.81774C1.01955 9.78334 1.04615 9.73667 1.11335 9.69217C1.18095 9.64741 1.31181 9.59182 1.53253 9.59173C1.53272 9.59173 1.53291 9.59173 1.53309 9.59173L9.31499 9.60229L10.0429 9.60328L10.2675 8.9109L12.6066 1.70148L12.6066 1.70148L12.6079 1.69736C12.6728 1.49426 12.7639 1.39008 12.828 1.33969C12.8928 1.28877 12.9531 1.27344 13.0017 1.27344C13.0502 1.27344 13.1105 1.28877 13.1753 1.33969C13.2395 1.39008 13.3305 1.49425 13.3954 1.69736L13.3956 1.69798L15.7054 8.9074L15.9283 9.60328L16.659 9.60229L24.4464 9.59173C24.4466 9.59173 24.4467 9.59173 24.4469 9.59173C24.6722 9.59182 24.7997 9.648 24.8613 9.68919C24.9218 9.72955 24.9447 9.77098 24.9545 9.80331C24.9654 9.83949 25.0046 10.0647 24.6333 10.3395L18.3541 14.8518L17.757 15.2808L17.9885 15.9787L20.3864 23.2069L20.3863 23.2069L20.3905 23.2189C20.4872 23.4986 20.4723 23.6668 20.4527 23.7426C20.435 23.8115 20.4079 23.8343 20.3905 23.8458C20.3605 23.8656 20.1337 23.964 19.7627 23.6859L19.7627 23.6858L19.7537 23.6793L13.5899 19.1664L12.9992 18.7338L12.4084 19.1663L6.24436 23.6792Z" stroke="#8F99BA" stroke-width="2"/>
</svg>
