<svg width="28" height="27" viewBox="0 0 28 27" fill="none" xmlns="http://www.w3.org/2000/svg">
<path d="M0 12.6388C0 13.8142 0.738748 14.5625 1.92796 14.5625H25.8516C27.0387 14.5625 27.7912 13.8142 27.7912 12.6388V10.7603C27.7912 9.58487 27.0387 8.82057 25.8516 8.82057H1.92796C0.736638 8.82057 0 9.58487 0 10.7603V12.6388ZM2.46937 10.9454H25.3123C25.5427 10.9454 25.6802 11.0809 25.6802 11.3113V12.074C25.6802 12.3044 25.5427 12.4515 25.3123 12.4515H2.46937C2.23897 12.4515 2.11101 12.3044 2.11101 12.074V11.3113C2.11101 11.0809 2.23897 10.9454 2.46937 10.9454ZM7.64296 26.309H20.1483C22.9882 26.309 23.8476 24.6278 24.2076 22.8906L26.0836 13.9124L23.9948 13.5327L22.234 22.1062C21.9176 23.6083 21.4889 24.1745 19.8033 24.1745H7.98796C6.30233 24.1745 5.87366 23.6083 5.55725 22.1062L3.7964 13.5327L1.70766 13.9124L3.58359 22.8906C3.94359 24.6278 4.80094 26.309 7.64296 26.309ZM8.8971 23.0026C9.36444 22.9239 9.62202 22.5822 9.55499 22.1755L8.59288 16.2006C8.51624 15.7822 8.15859 15.5523 7.70718 15.6151C7.23984 15.7035 6.96843 16.0356 7.04507 16.4443L8.00929 22.4172C8.08593 22.8355 8.42976 23.0772 8.8971 23.0026ZM12.2604 22.926C12.716 22.9026 13.0205 22.5939 12.9949 22.1755L12.6305 16.2676C12.5974 15.8376 12.2749 15.5427 11.8076 15.5821C11.3541 15.6151 11.0496 15.9238 11.073 16.356L11.4375 22.2501C11.463 22.6801 11.8069 22.9611 12.2604 22.926ZM15.5426 22.926C15.9961 22.9611 16.3399 22.6801 16.3655 22.2501L16.7299 16.356C16.7534 15.9238 16.4489 15.6151 15.9954 15.5821C15.528 15.5427 15.2055 15.8376 15.1725 16.2676L14.808 22.1755C14.7825 22.5939 15.0891 22.9026 15.5426 22.926ZM18.8941 23.0026C19.3455 23.0772 19.7053 22.8355 19.7819 22.4172L20.7558 16.4443C20.8207 16.0356 20.5514 15.7035 20.0841 15.6151C19.6326 15.5523 19.2729 15.7822 19.1984 16.2006L18.2362 22.1755C18.1692 22.5822 18.4268 22.9239 18.8941 23.0026ZM3.79359 9.4044H6.46124L10.5185 2.3415C10.8708 1.71995 10.5982 1.14339 10.0908 0.873154C9.60562 0.61464 8.96507 0.670889 8.61492 1.26151L3.79359 9.4044ZM21.33 9.4044H23.9976L19.1763 1.26151C18.8379 0.684717 18.2016 0.626359 17.7026 0.868936C17.2027 1.14339 16.9205 1.71995 17.2727 2.3415L21.33 9.4044Z" fill="#8F99BA"/>
</svg>
