<svg width="31" height="18" viewBox="0 0 31 18" fill="none" xmlns="http://www.w3.org/2000/svg">
<path d="M2 9.00253C2 9.32065 2.16003 9.63366 2.46056 9.87235L9.62936 15.6406C9.90874 15.8691 10.3102 16 10.672 16C11.5153 16 12.0802 15.5228 12.0802 14.8542C12.0802 14.5039 11.9254 14.2492 11.6644 14.0378L8.71174 11.7036L6.38804 10.0685L9.44164 10.1794H21.5472L24.6008 10.0685L22.2771 11.7036L19.3356 14.0378C19.0746 14.2492 18.9198 14.5039 18.9198 14.8542C18.9198 15.5228 19.4847 16 20.328 16C20.6898 16 21.0913 15.8691 21.3706 15.6406L28.5394 9.87235C28.8399 9.63366 29 9.32065 29 9.00253C29 8.67732 28.8399 8.36031 28.5394 8.12562L21.3706 2.35938C21.0913 2.13088 20.6898 2 20.328 2C19.4847 2 18.9198 2.47717 18.9198 3.14579C18.9198 3.49607 19.0746 3.75074 19.3356 3.96214L22.2771 6.30343L24.6008 7.92751L21.5472 7.81859H9.44164L6.38804 7.92751L8.71174 6.30343L11.6644 3.96214C11.9254 3.75074 12.0802 3.49607 12.0802 3.14579C12.0802 2.47717 11.5153 2 10.672 2C10.3102 2 9.90874 2.13088 9.62936 2.35938L2.46056 8.12562C2.16003 8.36031 2 8.67732 2 9.00253Z" fill="#8F99BA"/>
</svg>
