<svg width="23" height="23" viewBox="0 0 23 23" fill="none" xmlns="http://www.w3.org/2000/svg">
<path d="M4.81687 22.2722H19.0022C21.5412 22.2722 22.8464 20.9669 22.8464 18.4664V4.20421C22.8464 1.70156 21.5412 0.398438 19.0022 0.398438H4.81687C2.2875 0.398438 0.972656 1.69195 0.972656 4.20421V18.4664C0.972656 20.9766 2.2875 22.2722 4.81687 22.2722ZM4.94999 19.9763C3.86038 19.9763 3.26858 19.4121 3.26858 18.2735V4.39499C3.26858 3.25639 3.86038 2.69436 4.94999 2.69436H18.8691C19.9491 2.69436 20.5505 3.25639 20.5505 4.39499V18.2735C20.5505 19.4121 19.9491 19.9763 18.8691 19.9763H4.94999Z" fill="#8F99BA"/>
<path d="M6.81383 8.11564C7.83875 8.12946 8.70172 7.26648 8.70172 6.20852C8.70172 5.16977 7.84086 4.32812 6.81383 4.32812C5.76336 4.32812 4.91211 5.16766 4.91211 6.20852C4.91211 7.26438 5.76336 8.09431 6.81383 8.11564ZM17.0263 8.11564C18.0533 8.12946 18.9066 7.26648 18.9066 6.20852C18.9066 5.16766 18.0575 4.32812 17.0263 4.32812C15.9779 4.32812 15.1191 5.16766 15.1191 6.20852C15.1191 7.26438 15.9779 8.09431 17.0263 8.11564ZM11.9173 13.2288C12.9444 13.2288 13.8052 12.3754 13.8052 11.3174C13.8052 10.2829 12.9423 9.44338 11.9173 9.44338C10.869 9.44338 10.0273 10.2808 10.0273 11.3174C10.0273 12.3775 10.8669 13.2288 11.9173 13.2288ZM6.81172 18.344C7.83875 18.344 8.69961 17.4906 8.69961 16.4423C8.69961 15.3981 7.83664 14.5544 6.81172 14.5544C5.76336 14.5544 4.92383 15.396 4.92383 16.4423C4.92383 17.4927 5.76336 18.344 6.81172 18.344ZM17.0263 18.344C18.0575 18.344 18.9066 17.4906 18.9066 16.4423C18.9066 15.396 18.0533 14.5544 17.0263 14.5544C15.98 14.5544 15.1405 15.396 15.1405 16.4423C15.1405 17.4906 15.98 18.344 17.0263 18.344Z" fill="#8F99BA"/>
</svg>
