<svg width="19" height="17" viewBox="0 0 19 17" fill="none" xmlns="http://www.w3.org/2000/svg">
<path d="M9.4121 0.251892C9.44994 0.182133 9.55006 0.182133 9.5879 0.251892L12.3297 5.30644C12.3446 5.33399 12.3716 5.35294 12.4026 5.35764L18.3327 6.25567C18.415 6.26814 18.4469 6.36986 18.3865 6.42713L14.1554 10.437C14.1313 10.4598 14.1202 10.4932 14.1256 10.5259L15.0526 16.123C15.0658 16.2028 14.9837 16.2645 14.9108 16.2295L9.54317 13.6606C9.51587 13.6475 9.48413 13.6475 9.45683 13.6606L4.08924 16.2295C4.01627 16.2645 3.9342 16.2028 3.94741 16.123L4.87442 10.5259C4.87984 10.4932 4.86865 10.4598 4.84455 10.437L0.613534 6.42713C0.553105 6.36986 0.585032 6.26814 0.667349 6.25567L6.5974 5.35764C6.62838 5.35294 6.65538 5.33399 6.67032 5.30644L9.4121 0.251892Z" fill="#32BD1B"/>
</svg>
