<svg width="24" height="24" viewBox="0 0 24 24" fill="none" xmlns="http://www.w3.org/2000/svg">
<path d="M11.4785 1.04588C11.5437 0.918802 11.7253 0.918802 11.7905 1.04588L15.0275 7.3581C15.053 7.40779 15.1006 7.44237 15.1558 7.4512L22.1679 8.57446C22.3091 8.59708 22.3653 8.77013 22.2643 8.87136L17.2529 13.8952C17.2134 13.9348 17.1952 13.9909 17.2038 14.0461L18.3008 21.052C18.3229 21.1932 18.1759 21.3001 18.0484 21.2355L11.7137 18.0286C11.6639 18.0034 11.6051 18.0034 11.5553 18.0286L5.22062 21.2355C5.09314 21.3001 4.94615 21.1932 4.96825 21.052L6.06521 14.0461C6.07386 13.9909 6.05563 13.9348 6.01613 13.8952L1.0047 8.87136C0.903714 8.77013 0.959891 8.59708 1.10109 8.57446L8.11328 7.4512C8.16842 7.44237 8.21606 7.40779 8.24154 7.3581L11.4785 1.04588Z" fill="#8F99BA"/>
</svg>
