<svg width="13" height="12" viewBox="0 0 13 12" fill="none" xmlns="http://www.w3.org/2000/svg">
<path d="M6.56761 0.212073C6.60476 0.139509 6.70847 0.139508 6.74563 0.212073L8.58584 3.80596C8.60036 3.83433 8.62754 3.85407 8.65901 3.85912L12.6457 4.49869C12.7261 4.51161 12.7582 4.61024 12.7007 4.668L9.85133 7.52872C9.82884 7.5513 9.81846 7.58324 9.82338 7.61473L10.4471 11.6039C10.4596 11.6844 10.3757 11.7454 10.303 11.7085L6.70184 9.88267C6.67341 9.86825 6.63982 9.86825 6.61139 9.88267L3.0102 11.7085C2.93749 11.7454 2.85359 11.6844 2.86618 11.6039L3.48985 7.61473C3.49477 7.58324 3.48439 7.5513 3.4619 7.52872L0.61257 4.668C0.555039 4.61024 0.587086 4.51161 0.667581 4.49869L4.65423 3.85912C4.68569 3.85407 4.71287 3.83433 4.7274 3.80596L6.56761 0.212073Z" fill="#E6EBF3"/>
</svg>
