<svg width="28" height="24" viewBox="0 0 28 24" fill="none" xmlns="http://www.w3.org/2000/svg">
<path d="M1.65137 8.60379C3.50454 8.02338 5.42438 7.72379 7.25181 7.72379C9.60354 7.72379 11.3478 8.1006 13.5848 8.1006C15.9383 8.1006 17.4515 6.49117 17.4515 4.37779C17.4515 2.22683 15.8035 0.667847 13.7521 0.667847C12.2734 0.667847 10.9494 1.5898 10.3765 2.83786C10.1381 3.31814 10.2339 3.86276 10.7237 4.12684C11.1911 4.37676 11.7648 4.22259 12.0675 3.65685C12.3436 3.04221 13.0016 2.56682 13.7521 2.56682C14.7693 2.56682 15.5525 3.27154 15.5525 4.37779C15.5525 5.48634 14.7858 6.21217 13.5848 6.21217C11.4716 6.21217 9.69002 5.83305 7.25181 5.83305C5.15876 5.83305 3.01912 6.1993 1.0787 6.79721C0.484911 6.96554 0.237309 7.48675 0.382216 7.98915C0.529439 8.50444 1.01667 8.78731 1.65137 8.60379ZM21.8321 14.7679C24.8816 14.7679 27.0537 12.8146 27.0537 10.0928C27.0537 7.41416 24.9939 5.45391 22.4149 5.45391C20.1226 5.45391 18.3541 7.0268 17.9711 9.12011C17.8545 9.70462 18.1482 10.1988 18.6578 10.3048C19.1896 10.4155 19.6847 10.1056 19.8295 9.45213C20.0668 8.19583 21.1446 7.34234 22.4149 7.34234C23.9363 7.34234 25.1547 8.47175 25.1547 10.0928C25.1547 11.7419 23.8475 12.8795 21.8321 12.8795C17.9186 12.8795 13.6452 10.6402 8.48829 10.6402C5.82796 10.6402 3.38306 11.0626 1.07638 11.8582C0.493148 12.0651 0.237309 12.5711 0.382216 13.0712C0.531756 13.5888 1.03649 13.8822 1.65601 13.6684C3.77454 12.882 5.96927 12.5416 8.48829 12.5416C13.5977 12.5416 17.4536 14.7679 21.8321 14.7679ZM13.5977 23.9635C15.6443 23.9635 17.2198 22.4385 17.2198 20.2898C17.2198 17.1832 14.0465 15.4474 8.26308 15.4474C5.87403 15.4474 3.28268 15.906 1.07638 16.6525C0.493148 16.8594 0.237309 17.3654 0.382216 17.8632C0.531756 18.3808 1.03649 18.6765 1.65601 18.4627C3.69527 17.736 5.96283 17.3464 8.26308 17.3464C12.8512 17.3464 15.3313 18.485 15.3313 20.2898C15.3313 21.396 14.5657 22.075 13.5977 22.075C12.6643 22.075 12.0791 21.4532 11.8803 20.4532C11.7522 19.9284 11.3213 19.5457 10.7332 19.6376C10.1217 19.7296 9.88307 20.288 10.0159 20.8666C10.3286 22.6068 11.6796 23.9635 13.5977 23.9635Z" fill="#8F99BA"/>
</svg>
