<svg width="14" height="14" viewBox="0 0 14 14" fill="none" xmlns="http://www.w3.org/2000/svg">
<path d="M3.32833 8.02567C3.04296 8.02567 2.82525 7.80879 2.82525 7.52441C2.82525 7.24524 3.04296 7.0283 3.32833 7.0283H6.01553V3.40522C6.01553 3.12491 6.23324 2.90911 6.51343 2.90911C6.79474 2.90911 7.0165 3.12491 7.0165 3.40522V7.52441C7.0165 7.80879 6.79474 8.02567 6.51343 8.02567H3.32833ZM6.5186 13.741C10.0899 13.741 13.0383 10.7992 13.0383 7.24588C13.0383 3.68743 10.0847 0.750732 6.51343 0.750732C2.94844 0.750732 0 3.68743 0 7.24588C0 10.7992 2.95361 13.741 6.5186 13.741Z" fill="#32BD1B"/>
</svg>
