<svg width="33" height="22" viewBox="0 0 33 22" fill="none" xmlns="http://www.w3.org/2000/svg">
<path d="M15.3514 21.763H29.1809C31.0901 21.763 32.0122 21.1626 32.0122 19.8606C32.0122 16.8248 28.2151 12.7487 22.2672 12.7487C16.3082 12.7487 12.511 16.8248 12.511 19.8606C12.511 21.1626 13.4332 21.763 15.3514 21.763ZM14.9827 19.8467C14.7203 19.8467 14.6143 19.767 14.6143 19.56C14.6143 17.8607 17.3638 14.6652 22.2672 14.6652C27.1616 14.6652 29.9091 17.8607 29.9091 19.56C29.9091 19.767 29.8121 19.8467 29.5517 19.8467H14.9827ZM22.2672 11.3239C24.9489 11.3239 27.1188 8.95648 27.1188 6.05482C27.1188 3.19845 24.9481 0.917969 22.2672 0.917969C19.6045 0.917969 17.4117 3.22773 17.4136 6.07301C17.4247 8.96557 19.5945 11.3239 22.2672 11.3239ZM22.2672 9.40739C20.7316 9.40739 19.4231 7.94439 19.4231 6.07101C19.4211 4.24884 20.7195 2.83441 22.2672 2.83441C23.824 2.83441 25.1094 4.22865 25.1094 6.05482C25.1094 7.92224 23.823 9.40739 22.2672 9.40739ZM3.31038 21.765H11.9296C11.3273 21.4137 10.9169 20.6204 10.9986 19.8839H3.18682C2.98095 19.8839 2.884 19.7952 2.884 19.6083C2.884 17.0513 5.87925 14.6098 9.40646 14.6098C10.6602 14.6098 11.9017 14.9205 12.8718 15.4629C13.2427 14.9314 13.6979 14.4733 14.2968 14.0795C12.8939 13.2046 11.1408 12.7326 9.40646 12.7326C4.72105 12.7326 0.921875 16.0865 0.921875 19.778C0.921875 21.0931 1.71605 21.765 3.31038 21.765ZM9.41555 11.5679C11.7424 11.5679 13.6389 9.49599 13.6389 6.94216C13.6389 4.45182 11.7506 2.43045 9.41555 2.43045C7.0967 2.43045 5.17914 4.48111 5.19023 6.96235C5.20332 9.50905 7.08871 11.5679 9.41555 11.5679ZM9.41555 9.67961C8.15419 9.67961 7.08049 8.4697 7.08049 6.96235C7.0785 5.49823 8.14908 4.32071 9.41555 4.32071C10.7073 4.32071 11.7597 5.48004 11.7597 6.94216C11.7597 8.4697 10.688 9.67961 9.41555 9.67961Z" fill="#8F99BA"/>
</svg>
