<svg width="69" height="60" viewBox="0 0 69 60" fill="none" xmlns="http://www.w3.org/2000/svg">
<path d="M47.7059 0C51.3374 0 54.6494 0.784415 57.0898 2.09177C59.7045 3.51534 61.3024 5.54901 61.3024 7.84415C61.3024 8.04751 61.3024 8.25088 61.2734 8.45425C61.2734 8.51235 61.3024 8.57045 61.3024 8.62856V16.6761L61.4767 16.4727C62.4645 15.4268 63.7138 14.3809 65.2826 13.335C65.3697 13.2769 65.486 13.2188 65.6022 13.1898C66.1542 13.0155 66.7643 13.335 66.9386 13.9161C67.2291 14.8748 67.4034 15.514 67.5487 16.0369C67.6939 16.6761 67.8392 17.199 68.1007 17.8963C68.275 18.303 68.1878 18.7969 67.8392 19.1165C66.5028 20.3948 65.0211 22.2832 63.7719 24.375C62.6679 26.2053 61.7382 28.1518 61.3024 29.8949V48.779C61.3024 51.1613 59.7045 53.224 57.1189 54.6766C56.5088 54.9962 55.8696 55.2867 55.1724 55.5482C55.2014 54.7347 55.1724 53.9793 55.1143 53.224C55.4629 53.0787 55.7534 52.9335 56.0439 52.7591C57.9614 51.7133 59.1235 50.3187 59.1235 48.779V29.7496C59.1235 29.6625 59.1235 29.5753 59.1525 29.4882C59.6464 27.4836 60.6923 25.2756 61.9125 23.2419C63.1037 21.2663 64.5272 19.407 65.8346 18.0415C65.6893 17.5186 65.5731 17.1119 65.4279 16.5889C65.3988 16.4146 65.3407 16.2112 65.2826 15.9788C64.411 16.647 63.6847 17.2862 63.0746 17.9544C62.2321 18.8841 61.622 19.8137 61.2153 20.8306C60.9828 21.3826 60.3437 21.644 59.7917 21.4116C59.3559 21.2373 59.1235 20.8306 59.1235 20.3948V12.173C58.5424 12.6959 57.8452 13.1607 57.0608 13.5965C54.6494 14.9039 51.3374 15.6883 47.7059 15.6883C45.6141 15.6883 43.6386 15.4268 41.8664 14.962V29.7787C41.8664 29.8659 41.8664 29.953 41.8373 30.0402H39.7165C39.7165 29.953 39.6874 29.8659 39.6874 29.7787V14.2357C39.2226 14.0323 38.7578 13.8289 38.351 13.5965C37.5666 13.1607 36.8694 12.6959 36.2883 12.173V30.0402H34.1094V7.84415V7.81509C34.1094 5.51995 35.7363 3.51534 38.351 2.09177C40.7624 0.784415 44.0743 0 47.7059 0ZM56.3926 15.0491C56.3926 14.4681 56.8864 13.9742 57.4675 13.9742C58.0776 13.9742 58.5715 14.4681 58.5715 15.0491V46.8906C58.5715 47.5007 58.0776 47.9655 57.4675 47.9655C56.8864 47.9655 56.3926 47.5007 56.3926 46.8906V15.0491ZM55.8406 31.609C55.8406 32.19 55.3467 32.6839 54.7656 32.6839C54.1555 32.6839 53.6616 32.19 53.6616 31.609V16.7342C53.6616 16.1241 54.1555 15.6592 54.7656 15.6592C55.3467 15.6592 55.8406 16.1241 55.8406 16.7342V31.609ZM45.4398 17.2571C45.4398 16.647 45.9337 16.1531 46.5147 16.1531C47.1248 16.1531 47.6187 16.647 47.6187 17.2571V27.2802C47.6187 27.8903 47.1248 28.3842 46.5147 28.3842C45.9337 28.3842 45.4398 27.8903 45.4398 27.2802V17.2571ZM48.9261 4.38691C49.6234 4.50312 50.2625 4.67743 50.7564 4.90985C50.7854 4.90985 50.8145 4.90985 50.8145 4.93891C51.8313 5.40374 52.4705 6.15911 52.4705 7.05973C52.4705 7.98941 51.8023 8.74477 50.7564 9.23866C49.9429 9.61634 48.868 9.81971 47.7059 9.81971C46.5438 9.81971 45.4689 9.61634 44.6554 9.23866C43.6095 8.74477 42.9413 7.98941 42.9413 7.05973C42.9413 6.13005 43.6095 5.37469 44.6554 4.90985C45.1783 4.67743 45.7884 4.50312 46.4857 4.38691C44.4811 4.50312 42.7089 4.90985 41.3725 5.4909C40.0651 6.0429 39.2516 6.74015 39.2516 7.40836C39.2516 8.10562 40.0651 8.77382 41.3725 9.35487C42.9704 10.0521 45.2074 10.4879 47.7059 10.4879C50.2044 10.4879 52.4414 10.0521 54.0393 9.35487C55.3467 8.77382 56.1892 8.10562 56.1892 7.40836C56.1892 6.74015 55.3467 6.0429 54.0393 5.4909C52.7029 4.90985 50.9307 4.50312 48.9261 4.38691ZM49.8558 6.88542C49.3328 6.62394 48.5775 6.47868 47.7059 6.47868C46.8634 6.47868 46.079 6.62394 45.556 6.88542C45.2945 7.00163 45.1202 7.05973 45.1202 7.05973C45.1202 7.05973 45.2945 7.14689 45.556 7.2631C46.079 7.49552 46.8634 7.64078 47.7059 7.64078C48.5775 7.64078 49.3328 7.49552 49.8558 7.2631C50.1172 7.14689 50.2916 7.05973 50.2916 7.05973C50.2916 7.05973 50.1463 7.00163 49.9139 6.91447L49.8558 6.88542ZM47.7059 2.17893C50.4949 2.17893 53.0225 2.67282 54.9109 3.48629C57.0317 4.41596 58.3681 5.81048 58.3681 7.40836C58.3681 9.03529 57.0317 10.4298 54.9109 11.3595C53.0225 12.1439 50.4949 12.6668 47.7059 12.6668C44.9169 12.6668 42.3893 12.1439 40.53 11.3595C38.3801 10.4298 37.0727 9.03529 37.0727 7.40836C37.0727 5.81048 38.3801 4.41596 40.53 3.48629C42.3893 2.67282 44.9169 2.17893 47.7059 2.17893ZM56.0439 4.00923C53.9231 2.87619 50.9888 2.17893 47.7059 2.17893C44.423 2.17893 41.4887 2.87619 39.3679 4.00923C37.4795 5.05512 36.2883 6.42058 36.2883 7.84415C36.2883 9.26771 37.4795 10.6332 39.3679 11.6791C41.4887 12.8121 44.423 13.5094 47.7059 13.5094C50.9888 13.5094 53.9231 12.8121 56.0439 11.6791C57.9614 10.6332 59.1235 9.26771 59.1235 7.84415C59.1235 6.42058 57.9614 5.05512 56.0439 4.00923Z" fill="#3E3E51"/>
<path d="M19.7576 53.8631H34.6906H19.7576ZM13.4242 59.4412L6.19018 56.0421L6.16113 56.013H6.13207L6.10302 55.984H6.07397V55.9549H6.04492L6.01586 55.9259H5.98681V55.8968H5.95776V55.8678H5.92871V55.8387H5.89965V55.8096L5.84155 55.7806V55.7515H5.8125L5.78344 55.7225V55.6934H5.75439V55.6644V55.6353H5.72534V55.6063L5.69629 55.5772V55.5482L5.66724 55.5191V55.4901L5.63818 55.461V55.432V55.4029L5.60913 55.3739V55.3448V55.3158V55.2867L5.58008 55.2577V55.2286V55.1995V55.1705V55.1414V55.1124V55.0833V55.0543V55.0252V54.9962V54.9671L5.69629 52.9916L5.78344 51.3937C5.78344 51.3646 5.8125 51.3356 5.8125 51.3065L6.16113 45.4379L6.19018 44.9441L8.36911 45.9609H9.82173C10.2866 46.5419 10.6933 47.2682 11.0419 48.0817C11.7973 49.9411 12.2621 52.3815 12.2621 55.0543C12.2621 55.3739 12.2331 55.7515 12.2331 56.1583C12.204 56.2454 12.204 56.3616 12.204 56.4779L13.0465 56.8555V56.7103C13.0756 56.1873 13.1046 55.6353 13.1046 55.0543C13.1046 51.7714 12.4074 48.8371 11.2743 46.7162C11.1291 46.4548 10.9548 46.1933 10.8095 45.9609H13.308C14.5282 48.3432 15.2836 51.568 15.2836 55.0543C15.2836 55.6644 15.2545 56.2745 15.2255 56.8846C15.1964 57.0589 15.1964 57.2332 15.1674 57.4075H54.0395C54.2138 54.1827 54.0104 51.4227 53.4003 49.2148C53.1098 48.2851 52.7612 47.4426 52.3544 46.6872C52.2092 46.4548 52.0639 46.2224 51.9186 45.9899C51.3085 45.1474 50.5241 44.4792 49.5944 44.0144C49.6235 43.1719 49.6235 42.3584 49.5944 41.603C51.0761 41.9517 52.4125 42.9685 53.4875 44.4502C54.1557 45.2927 54.7077 46.3095 55.1144 47.4426C55.2597 47.8493 55.4049 48.2851 55.5211 48.7499C56.1022 50.6093 56.4218 52.7882 56.4218 55.0543C56.4218 55.6644 56.3927 56.2745 56.3346 56.8846C56.3055 57.4366 56.2474 57.9886 56.1603 58.5696C56.1022 59.1216 55.6373 59.5865 55.0563 59.5865H13.9472H13.9181H13.8891H13.86H13.831H13.8019V59.5574H13.7729H13.7438H13.7147H13.6857H13.6566V59.5284H13.6276H13.5985H13.5695V59.4993H13.5404H13.5114H13.4823V59.4702H13.4533H13.4242V59.4412ZM34.6906 56.0421C34.1095 56.0421 33.6156 55.5482 33.6156 54.9671C33.6156 54.357 34.1095 53.8631 34.6906 53.8631H46.1082H51.7734C52.3544 53.8631 52.8483 54.357 52.8483 54.9671C52.8483 55.5482 52.3544 56.0421 51.7734 56.0421H34.6906ZM19.7576 53.6307C19.1475 53.6307 18.6537 53.1659 18.6537 52.5558C18.6537 51.9457 19.1475 51.4518 19.7576 51.4518H46.1082C46.6892 51.4518 47.1831 51.9457 47.1831 52.5558C47.1831 53.1659 46.6892 53.6307 46.1082 53.6307H25.8586H19.7576ZM8.02048 50.8417C8.36911 51.1903 8.68868 51.6552 8.9211 52.2362C9.24068 53.0206 9.41499 54.0084 9.41499 55.0543V55.1414L10.0541 55.461C10.0541 55.3448 10.0832 55.1995 10.0832 55.0543C10.0832 52.6429 9.67647 50.4931 9.03731 48.9242C8.77584 48.3141 8.51437 47.7912 8.22385 47.4135L8.02048 50.8417Z" fill="#3E3E51"/>
<path d="M7.46867 44.3339V44.1887C7.49772 43.6657 7.52677 43.1137 7.52677 42.5327C7.52677 39.2498 6.82951 36.3155 5.69647 34.1946C4.883 32.742 3.92427 31.6961 2.87839 31.2894L2.82028 32.2191C3.89522 32.7711 4.79585 33.9622 5.46405 35.5601C6.21941 37.4195 6.6552 39.8599 6.6552 42.5327C6.6552 42.8523 6.6552 43.2299 6.62615 43.6367C6.62615 43.7238 6.62615 43.84 6.62615 43.9562L7.46867 44.3339ZM8.36929 47.0648C8.16592 47.0648 7.99161 47.0067 7.84635 46.9196L5.02826 45.6122V45.5832L0.612301 43.5205C0.23462 43.3461 -0.0268512 42.9394 0.00220122 42.4746L0.23462 38.7849L0.583249 32.9163L0.757563 30.0111C0.757563 29.401 1.25145 28.9362 1.86155 28.9362H42.7673C45.1496 28.9362 47.2123 30.534 48.665 33.1197C50.0014 35.531 50.8439 38.8721 50.8439 42.5327C50.8439 43.1428 50.8148 43.7529 50.7567 44.363C50.7277 44.915 50.6696 45.467 50.5824 46.048C50.5243 46.6 50.0595 47.0648 49.4784 47.0648H8.36929ZM9.58949 44.8859H48.5197C48.5487 44.6535 48.5778 44.4211 48.6069 44.1887C48.6359 43.6657 48.665 43.1137 48.665 42.5327C48.665 40.6733 48.4325 38.9302 48.0258 37.3614H31.524C30.9139 37.3614 30.4201 36.8675 30.4201 36.2864C30.4201 35.6763 30.9139 35.1824 31.524 35.1824H47.2704C47.1252 34.8338 46.9509 34.4852 46.7766 34.1656C45.7016 32.2772 44.3071 31.1151 42.7673 31.1151H6.16131C6.68425 31.6961 7.17814 32.3934 7.58488 33.1778C7.81729 33.5845 8.04971 34.0494 8.22403 34.5142H23.7961C24.4062 34.5142 24.871 35.0081 24.871 35.5892C24.871 36.1993 24.4062 36.6931 23.7961 36.6931H8.97939C9.44423 38.4653 9.7057 40.4409 9.7057 42.5327C9.7057 43.1428 9.67665 43.7529 9.6476 44.363C9.61854 44.5373 9.61854 44.7116 9.58949 44.8859ZM2.4426 38.3201C2.79123 38.6687 3.11081 39.1335 3.34323 39.7146C3.6628 40.499 3.83712 41.4868 3.83712 42.5327V42.6198L4.47627 42.9394C4.47627 42.7941 4.47627 42.6779 4.47627 42.5327C4.47627 40.1213 4.09859 37.9715 3.45944 36.3736V36.4026C3.19796 35.7925 2.93649 35.2696 2.64597 34.8919L2.4426 38.3201ZM14.1798 42.4165C13.5697 42.4165 13.0758 41.9516 13.0758 41.3415C13.0758 40.7314 13.5697 40.2375 14.1798 40.2375H40.5012C41.1113 40.2375 41.6052 40.7314 41.6052 41.3415C41.6052 41.9516 41.1113 42.4165 40.5012 42.4165H14.1798Z" fill="#3E3E51"/>
</svg>
