<svg width="68" height="64" viewBox="0 0 68 64" fill="none" xmlns="http://www.w3.org/2000/svg">
<path d="M10.2865 26.8444L6.7131 19.3198C6.53879 18.9421 6.68405 18.5063 7.06173 18.332C7.41036 18.1868 7.84615 18.332 8.02046 18.6807L11.3615 25.7694L10.8095 17.9543C10.7804 17.5476 11.1 17.199 11.4777 17.1699C11.8844 17.1409 12.2331 17.4604 12.2621 17.8672L12.8432 26.1762L15.7774 18.3611C15.8937 17.9834 16.3294 17.78 16.7071 17.9253C17.0558 18.0706 17.2591 18.4773 17.1139 18.855L14.2086 26.6701L20.1063 20.7724C20.3677 20.4819 20.8326 20.4819 21.1231 20.7724C21.4136 21.0629 21.4136 21.4987 21.1231 21.7893L15.2255 27.7159L23.0405 24.7526C23.4182 24.6073 23.854 24.8107 23.9702 25.1884C24.1155 25.5661 23.9412 25.9728 23.5635 26.1181L15.7484 29.0524L24.0864 29.6043C24.4641 29.6334 24.7837 29.982 24.7546 30.3888C24.7256 30.7955 24.377 31.086 23.9702 31.057L15.6612 30.505L23.0115 34.4561C23.3601 34.6595 23.4763 35.0952 23.302 35.4439C23.0986 35.7925 22.6629 35.9378 22.3142 35.7344L14.964 31.7833L20.0191 38.4363C20.2515 38.7558 20.1934 39.1916 19.8738 39.4241C19.5543 39.6855 19.1185 39.6274 18.857 39.3078L13.8309 32.6548V32.6839L15.6612 40.7895C15.7484 41.1963 15.516 41.5739 15.1092 41.6611C14.7316 41.7482 14.3248 41.5158 14.2377 41.1091L13.8309 39.2497V62.4045C13.8309 63.218 13.1627 63.8571 12.3783 63.8571C11.5649 63.8571 10.9257 63.218 10.9257 62.4045V40.1504L10.7223 41.1381C10.6352 41.5449 10.2575 41.8064 9.85076 41.7192C9.47308 41.632 9.21161 41.2544 9.29876 40.8476L10.9257 33.0035V32.7711L6.0449 39.4241C5.81248 39.7436 5.37669 39.8308 5.05712 39.5693C4.73754 39.3369 4.65038 38.9011 4.8828 38.5815L9.82171 31.8414L2.52956 35.9378C2.18093 36.1121 1.74514 35.9959 1.54178 35.6472C1.36746 35.2986 1.48367 34.8628 1.8323 34.6595L9.0954 30.5631L0.786415 31.2894C0.379681 31.3184 0.0310528 31.0279 0.00200037 30.6212C-0.027052 30.2144 0.263472 29.8658 0.670205 29.8368L8.86298 29.1395L1.07694 26.4957C0.699258 26.3505 0.495891 25.9437 0.6121 25.5661C0.757362 25.1884 1.1641 24.985 1.54178 25.1012L8.97919 27.6578L2.9944 22.5737C2.67482 22.3122 2.64577 21.8474 2.90724 21.5278C3.16871 21.2373 3.6045 21.2082 3.92407 21.4697L10.2865 26.8444Z" fill="#3E3E51"/>
<path fill-rule="evenodd" clip-rule="evenodd" d="M35.0978 46.8906L37.3058 53.3692H51.0186L53.459 46.9487C53.2556 46.8325 53.0232 46.7453 52.8198 46.6291C51.6577 47.4426 50.4085 48.0817 49.1302 48.5465C47.5032 49.1276 45.8182 49.4181 44.2203 49.4181C42.5934 49.4181 40.9083 49.1276 39.2814 48.5465C38.0321 48.0817 36.7829 47.4426 35.6208 46.6291L35.0978 46.8906ZM57.6425 18.6807C64.1793 20.4819 66.242 23.9973 59.1532 26.9316C59.2113 27.0478 59.2694 27.164 59.2985 27.2802C59.8795 29.7206 59.7633 31.7252 59.037 33.3231C58.3688 34.8629 57.2067 35.9959 55.5798 36.7513C54.4177 39.3079 52.8198 41.2834 51.0476 42.6489C48.9268 44.2758 46.5445 45.0603 44.2203 45.0312C41.8671 45.0603 39.4848 44.2758 37.3639 42.6489C35.5917 41.2834 34.0229 39.3079 32.8318 36.7513C31.2048 35.9669 30.0427 34.8629 29.3745 33.3231C28.6482 31.7252 28.5611 29.7206 29.1131 27.2802C29.1712 27.1349 29.2293 26.9606 29.3164 26.8444C22.7506 23.9973 23.535 20.3367 30.74 18.4773L30.8562 19.0584H30.8853C30.9434 19.3779 31.1467 19.6975 31.4372 19.9299C34.8654 22.3413 39.5429 23.5615 44.2203 23.5615C48.8396 23.5615 53.488 22.3703 56.8871 19.988C57.2067 19.7847 57.4682 19.436 57.5553 19.0584L57.6425 18.6807ZM56.4514 27.8903C48.9268 30.1564 39.4557 30.1273 31.9892 27.8031C31.9602 27.8612 31.9602 27.9193 31.9602 27.9484C31.5244 29.7496 31.5825 31.1442 32.0183 32.161C32.4541 33.1197 33.2966 33.846 34.4877 34.3109C34.8364 34.4852 35.1269 34.7467 35.2431 35.0953H35.2722C36.2599 37.4195 37.6254 39.1917 39.1361 40.3538C40.734 41.574 42.4772 42.1841 44.1912 42.155H44.2203C45.9344 42.1841 47.7066 41.574 49.2754 40.3538C50.7861 39.1917 52.1516 37.4195 53.1684 35.0953C53.3137 34.7176 53.6333 34.4271 53.9819 34.3109C55.144 33.817 55.9865 33.1197 56.3932 32.161C56.8581 31.1442 56.8871 29.7496 56.4514 27.9484V27.8903ZM55.6088 44.7697C55.696 44.7988 55.7541 44.7988 55.8122 44.8278C55.8703 44.8569 55.8994 44.8859 55.9575 44.8859C56.4804 45.1765 57.0324 45.467 57.5844 45.7866C58.1364 46.0771 58.6884 46.3967 59.2113 46.7162C59.3275 46.8034 59.4437 46.8906 59.5309 46.9777C61.0707 47.9945 62.4943 49.1276 63.7145 50.4059C66.6487 53.5436 68.2176 57.5237 66.7359 62.7241C66.5906 63.3923 66.0096 63.8572 65.3123 63.8572H56.829H32.3379H23.0992C22.4601 63.8572 21.879 63.4504 21.7047 62.8113C20.194 57.5528 21.7628 53.5436 24.7261 50.4059C27.5152 47.4426 31.4953 45.3217 35.185 43.6367C35.6789 43.4333 36.2599 43.4624 36.6957 43.811C37.7997 44.6826 39.0199 45.3508 40.2692 45.8156C41.6056 46.2805 42.942 46.5129 44.2203 46.5129C45.4695 46.5129 46.835 46.2805 48.1424 45.8156C49.3916 45.3508 50.6118 44.7116 51.6868 43.8401C52.1225 43.4914 52.7036 43.4043 53.2265 43.6367C54.011 43.9853 54.8244 44.363 55.6088 44.7697ZM59.6181 50.6093L58.456 60.9519H64.1793C64.8765 57.3785 63.6854 54.6185 61.5936 52.3815C60.9835 51.7423 60.3153 51.1613 59.6181 50.6093ZM30.6238 60.9519L28.9097 50.5221C28.1543 51.1032 27.4571 51.7133 26.8179 52.3815C24.7552 54.6185 23.535 57.3785 24.2323 60.9519H30.6238ZM56.8871 48.779C56.6257 48.6046 56.3351 48.4303 56.0446 48.2851L53.4299 55.2286C53.2556 55.8387 52.6745 56.2745 52.0354 56.2745H36.2599C35.6498 56.2745 35.0978 55.8968 34.8945 55.2867L32.4831 48.256L32.3379 48.3432C32.0764 48.4884 31.8149 48.6337 31.5535 48.808L33.5581 60.9519H55.5217L56.8871 48.779ZM54.8244 17.8672L58.3688 1.80125C53.459 0.581048 48.6653 0 43.9298 0C39.2233 0 34.604 0.6101 30.0718 1.80125L33.5871 17.8672C36.4633 19.7266 40.3273 20.6562 44.2203 20.6562C48.0843 20.6562 51.9773 19.7266 54.8244 17.8672Z" fill="#3E3E51"/>
</svg>
