<svg width="25" height="27" viewBox="0 0 25 27" fill="none" xmlns="http://www.w3.org/2000/svg">
<path d="M0 17.7032C0 21.6909 2.57179 24.9923 5.84905 24.9923H9.59787C11.1241 25.7753 12.9457 26.2218 14.9529 26.2218H16.5443C18.018 26.2218 19.2769 26.1335 20.1002 25.9258C21.7697 25.518 22.8321 24.3248 22.8321 22.8428C22.8321 22.571 22.7894 22.33 22.7233 22.0891C23.5031 21.4694 23.9388 20.5823 23.9388 19.6111C23.9388 19.1582 23.8493 18.7096 23.6915 18.3485C24.2189 17.782 24.5097 16.9842 24.5097 16.1449C24.5097 15.607 24.3829 15.0487 24.1624 14.6259C24.4788 14.1393 24.6621 13.4758 24.6621 12.7708C24.6621 10.9631 23.2704 9.55753 21.4669 9.55753H17.2338C17.0055 9.55753 16.8562 9.45089 16.8647 9.243C16.9237 8.07276 18.7697 5.25557 18.7697 2.94393C18.7697 1.23534 17.5669 0.00488281 15.9265 0.00488281C14.7267 0.00488281 13.9029 0.629725 13.1224 2.11823C11.7134 4.83721 9.99046 7.25081 7.45569 10.3631H5.42084C2.34914 10.3631 0 13.6315 0 17.7032ZM7.08279 17.613C7.08279 15.1933 7.62514 13.6516 9.15701 11.5882C10.8752 9.28729 13.2623 6.52213 14.9826 3.09862C15.3454 2.36549 15.5929 2.19908 15.9567 2.19908C16.3844 2.19908 16.6704 2.50518 16.6704 3.05783C16.6704 4.74886 14.7464 7.55878 14.7464 9.40752C14.7464 10.7831 15.8454 11.6568 17.3322 11.6568H21.4183C22.0711 11.6568 22.5628 12.1464 22.5628 12.8025C22.5628 13.2782 22.406 13.5822 22.0209 13.9833C21.7214 14.2699 21.6832 14.692 21.9454 14.9885C22.2687 15.4621 22.4062 15.7565 22.4062 16.1491C22.4062 16.6111 22.1855 17.0132 21.7268 17.3557C21.3464 17.6395 21.2102 18.0843 21.4228 18.5393C21.6799 19.0054 21.8037 19.2346 21.8037 19.5963C21.8037 20.137 21.4549 20.5539 20.7295 20.9315C20.3683 21.1429 20.2739 21.5226 20.4215 21.8742C20.6627 22.4761 20.6958 22.5752 20.6937 22.8323C20.6937 23.3144 20.3353 23.7058 19.574 23.8978C18.9082 24.0597 17.8312 24.1343 16.44 24.1322L15.0649 24.13C10.2747 24.1216 7.08279 21.4216 7.08279 17.613ZM2.06975 17.7032C2.06975 14.819 3.55358 12.5151 5.2521 12.4455C5.54554 12.4434 5.84109 12.4413 6.13453 12.4371C5.33414 14.0032 4.9814 15.6375 4.9814 17.6095C4.9814 19.6861 5.70187 21.5205 7.00945 22.9572C6.58781 22.9572 6.16312 22.9551 5.73304 22.953C3.75679 22.8813 2.06975 20.5434 2.06975 17.7032Z" fill="#8F99BA"/>
</svg>
