<svg width="26" height="26" viewBox="0 0 26 26" fill="none" xmlns="http://www.w3.org/2000/svg">
<path d="M6.24436 24.107L6.24202 24.1087C5.85591 24.3931 5.623 24.2919 5.58936 24.2696C5.56908 24.2561 5.5409 24.2308 5.5229 24.1612C5.50331 24.0855 5.4887 23.9201 5.58326 23.6476L5.5833 23.6476L5.58644 23.6383L8.01356 16.4153L8.24922 15.7141L7.64755 15.2836L1.32882 10.7624L1.32858 10.7622C1.13466 10.6236 1.05444 10.4941 1.02304 10.4138C0.99203 10.3345 0.997876 10.2795 1.00866 10.2455C1.01955 10.2111 1.04615 10.1644 1.11335 10.1199C1.18095 10.0751 1.31181 10.0196 1.53253 10.0195C1.53272 10.0195 1.53291 10.0195 1.53309 10.0195L9.31499 10.03L10.0429 10.031L10.2675 9.33864L12.6066 2.12921L12.6066 2.12921L12.6079 2.12509C12.6728 1.92199 12.7639 1.81782 12.828 1.76742C12.8928 1.7165 12.9531 1.70117 13.0017 1.70117C13.0502 1.70117 13.1105 1.7165 13.1753 1.76742C13.2395 1.81782 13.3305 1.92199 13.3954 2.12509L13.3956 2.12571L15.7054 9.33513L15.9283 10.031L16.659 10.03L24.4464 10.0195C24.4466 10.0195 24.4467 10.0195 24.4469 10.0195C24.6722 10.0196 24.7997 10.0757 24.8613 10.1169C24.9218 10.1573 24.9447 10.1987 24.9545 10.231C24.9654 10.2672 25.0046 10.4924 24.6333 10.7672L18.3541 15.2795L17.757 15.7086L17.9885 16.4064L20.3864 23.6346L20.3863 23.6346L20.3905 23.6466C20.4872 23.9264 20.4723 24.0946 20.4527 24.1703C20.435 24.2393 20.4079 24.2621 20.3905 24.2736C20.3605 24.2933 20.1337 24.3917 19.7627 24.1136L19.7627 24.1136L19.7537 24.107L13.5899 19.5941L12.9992 19.1616L12.4084 19.5941L6.24436 24.107Z" stroke="#8F99BA" stroke-width="2"/>
</svg>
