<svg width="26" height="26" viewBox="0 0 26 26" fill="none" xmlns="http://www.w3.org/2000/svg">
<path d="M12.6595 25.3137C13.1499 25.3137 13.5177 24.9575 13.6057 24.4511C14.7456 15.852 15.9551 14.5455 24.4347 13.6005C24.957 13.5442 25.3219 13.1577 25.3219 12.6513C25.3219 12.1638 24.9627 11.7801 24.4375 11.7153C15.9608 10.7359 14.7856 9.46665 13.6057 0.854524C13.512 0.348168 13.1471 0.00488281 12.6595 0.00488281C12.1719 0.00488281 11.8041 0.348168 11.7291 0.854524C10.5864 9.46665 9.36675 10.7731 0.897312 11.7153C0.362042 11.7715 0 12.1581 0 12.6513C0 13.1549 0.35918 13.5385 0.894464 13.6005C9.34803 14.7289 10.4942 15.852 11.7291 24.4511C11.807 24.9575 12.1748 25.3137 12.6595 25.3137Z" fill="#8F99BA"/>
</svg>
