<svg width="27" height="23" viewBox="0 0 27 23" fill="none" xmlns="http://www.w3.org/2000/svg">
<path d="M5.803 8.14827C11.0959 8.14827 13.9033 3.7303 18.7628 3.7303C19.8965 3.7303 20.8886 3.98389 22.0586 4.65303C22.611 4.95959 23.1557 4.76998 23.4482 4.35514C23.7939 3.85733 23.7144 3.14015 23.0033 2.72179C21.6665 1.95374 20.2797 1.58203 18.7628 1.58203C13.3834 1.58203 10.5953 6.0021 5.803 6.0021C4.65972 6.0021 3.6676 5.7464 2.4976 5.07726C1.94307 4.76859 1.39628 4.96242 1.108 5.39109C0.783626 5.8889 0.853467 6.60186 1.55495 7.01061C2.88971 7.77655 4.27652 8.14827 5.803 8.14827ZM5.81471 14.4413C10.352 14.4413 13.1176 11.0761 16.9858 10.2823C17.4123 9.47483 17.8485 8.68874 18.2751 7.88343C13.1099 8.18015 10.49 12.293 5.81471 12.293C4.67143 12.293 3.68143 12.0277 2.50931 11.3586C1.96439 11.0499 1.408 11.2437 1.13144 11.6724C0.797454 12.1702 0.865186 12.8832 1.56667 13.2919C2.90143 14.0578 4.29783 14.4413 5.81471 14.4413ZM5.803 20.7225C9.29777 20.7225 11.7397 18.7231 14.4348 17.4521C14.3488 16.7993 14.4831 15.8166 14.7278 15.0197C11.6486 16.2905 9.25323 18.5743 5.803 18.5743C4.65972 18.5743 3.6676 18.3186 2.4976 17.6398C1.94307 17.3311 1.39628 17.525 1.108 17.9536C0.783626 18.4514 0.853467 19.174 1.55495 19.5732C2.88971 20.3487 4.27652 20.7225 5.803 20.7225Z" fill="#8F99BA"/>
<path d="M21.1963 22.2965C24.0678 22.2965 26.3738 20.0469 26.3738 17.2361C26.3738 15.6852 25.6016 14.1737 24.957 12.9667L22.3438 8.1055C22.052 7.55707 21.7435 7.31543 21.1963 7.31543C20.6394 7.31543 20.3288 7.56128 20.0371 8.1055L17.4472 12.9667C16.8006 14.1737 16.0283 15.6852 16.0283 17.2361C16.0283 20.0469 18.3268 22.2965 21.1963 22.2965ZM21.1963 20.5133C19.311 20.5133 17.8114 19.0682 17.8114 17.2361C17.8114 16.1054 18.3943 15.0121 19.0292 13.805L21.0887 9.98143C21.1473 9.86424 21.257 9.86424 21.3252 9.98143L23.3537 13.805C23.9982 15.0121 24.5886 16.1054 24.5886 17.2361C24.5886 19.0682 23.0816 20.5133 21.1963 20.5133Z" fill="#8F99BA"/>
</svg>
