<svg width="29" height="18" viewBox="0 0 29 18" fill="none" xmlns="http://www.w3.org/2000/svg">
<path d="M0 8.90111C0 9.30526 0.166278 9.70292 0.478545 10.0062L7.92731 17.3343C8.2176 17.6246 8.6347 17.7909 9.01066 17.7909C9.88686 17.7909 10.4739 17.1846 10.4739 16.3352C10.4739 15.8902 10.313 15.5667 10.0419 15.2981L6.97386 12.3327L4.55941 10.2553L7.73226 10.3962H20.3106L23.4835 10.2553L21.069 12.3327L18.0126 15.2981C17.7414 15.5667 17.5805 15.8902 17.5805 16.3352C17.5805 17.1846 18.1676 17.7909 19.0438 17.7909C19.4197 17.7909 19.8369 17.6246 20.1271 17.3343L27.5759 10.0062C27.8881 9.70292 28.0544 9.30526 28.0544 8.90111C28.0544 8.48796 27.8881 8.08522 27.5759 7.78706L20.1271 0.461444C19.8369 0.171161 19.4197 0.00488281 19.0438 0.00488281C18.1676 0.00488281 17.5805 0.611095 17.5805 1.46053C17.5805 1.90554 17.7414 2.22908 18.0126 2.49765L21.069 5.4721L23.4835 7.53538L20.3106 7.397H7.73226L4.55941 7.53538L6.97386 5.4721L10.0419 2.49765C10.313 2.22908 10.4739 1.90554 10.4739 1.46053C10.4739 0.611095 9.88686 0.00488281 9.01066 0.00488281C8.6347 0.00488281 8.2176 0.171161 7.92731 0.461444L0.478545 7.78706C0.166278 8.08522 0 8.48796 0 8.90111Z" fill="#8F99BA"/>
</svg>
