<svg width="33" height="22" viewBox="0 0 33 22" fill="none" xmlns="http://www.w3.org/2000/svg">
<path d="M15.3514 21.7679H29.1809C31.0901 21.7679 32.0122 21.1675 32.0122 19.8655C32.0122 16.8296 28.2151 12.7536 22.2672 12.7536C16.3082 12.7536 12.511 16.8296 12.511 19.8655C12.511 21.1675 13.4332 21.7679 15.3514 21.7679ZM14.9827 19.8515C14.7203 19.8515 14.6143 19.7718 14.6143 19.5648C14.6143 17.8656 17.3638 14.6701 22.2672 14.6701C27.1616 14.6701 29.9091 17.8656 29.9091 19.5648C29.9091 19.7718 29.8121 19.8515 29.5517 19.8515H14.9827ZM22.2672 11.3288C24.9489 11.3288 27.1188 8.96136 27.1188 6.0597C27.1188 3.20334 24.9481 0.922852 22.2672 0.922852C19.6045 0.922852 17.4117 3.23261 17.4136 6.07789C17.4247 8.97045 19.5945 11.3288 22.2672 11.3288ZM22.2672 9.41228C20.7316 9.41228 19.4231 7.94927 19.4231 6.07589C19.4211 4.25373 20.7195 2.83929 22.2672 2.83929C23.824 2.83929 25.1094 4.23354 25.1094 6.0597C25.1094 7.92712 23.823 9.41228 22.2672 9.41228ZM3.31038 21.7699H11.9296C11.3273 21.4186 10.9169 20.6253 10.9986 19.8887H3.18682C2.98095 19.8887 2.884 19.8 2.884 19.6132C2.884 17.0561 5.87925 14.6146 9.40646 14.6146C10.6602 14.6146 11.9017 14.9254 12.8718 15.4678C13.2427 14.9363 13.6979 14.4781 14.2968 14.0844C12.8939 13.2095 11.1408 12.7374 9.40646 12.7374C4.72105 12.7374 0.921875 16.0914 0.921875 19.7829C0.921875 21.098 1.71605 21.7699 3.31038 21.7699ZM9.41555 11.5728C11.7424 11.5728 13.6389 9.50087 13.6389 6.94705C13.6389 4.4567 11.7506 2.43533 9.41555 2.43533C7.0967 2.43533 5.17914 4.48599 5.19023 6.96724C5.20332 9.51393 7.08871 11.5728 9.41555 11.5728ZM9.41555 9.68449C8.15419 9.68449 7.08049 8.47458 7.08049 6.96724C7.0785 5.50311 8.14908 4.32559 9.41555 4.32559C10.7073 4.32559 11.7597 5.48492 11.7597 6.94705C11.7597 8.47458 10.688 9.68449 9.41555 9.68449Z" fill="#8F99BA"/>
</svg>
