<svg width="32" height="21" viewBox="0 0 32 21" fill="none" xmlns="http://www.w3.org/2000/svg">
<path d="M1.95171 20.6152H2.67805C3.29468 20.6152 3.70789 20.2158 3.70789 19.5874V17.8953C3.83891 17.9325 4.24883 17.9581 4.54695 17.9581H27.4499C27.748 17.9581 28.1579 17.9325 28.2889 17.8953V19.5874C28.2889 20.2158 28.7021 20.6152 29.3188 20.6152H30.0451C30.6692 20.6152 31.0749 20.2158 31.0749 19.5874V11.3956C31.0749 9.07292 29.8098 7.82371 27.4787 7.82371H4.51812C2.18914 7.82371 0.921875 9.07292 0.921875 11.3956V19.5874C0.921875 20.2158 1.32758 20.6152 1.95171 20.6152ZM3.56304 15.9814C3.30007 15.9814 3.14351 15.8035 3.14351 15.5075V11.2315C3.14351 10.362 3.71678 9.80041 4.60132 9.80041H27.4051C28.28 9.80041 28.8533 10.362 28.8533 11.2315V15.5075C28.8533 15.8035 28.6967 15.9814 28.4338 15.9814H3.56304ZM3.95609 8.2069H7.10352V5.66628C7.10352 4.54058 7.72554 3.93027 8.87257 3.93027H13.0745C14.2119 3.93027 14.8339 4.54058 14.8339 5.66628V8.2069H17.1629V5.66628C17.1629 4.54058 17.7849 3.93027 18.9224 3.93027H23.1242C24.2713 3.93027 24.8933 4.54058 24.8933 5.66628V8.2069H28.0407V3.72824C28.0407 1.50754 26.8489 0.358398 24.6699 0.358398H7.32688C5.1575 0.358398 3.95609 1.50754 3.95609 3.72824V8.2069Z" fill="#8F99BA"/>
</svg>
