<svg width="28" height="34" viewBox="0 0 28 34" fill="none" xmlns="http://www.w3.org/2000/svg">
<path d="M21.9755 28.308C25.0306 25.2625 25.5289 21.4757 23.4532 17.1105L20.7912 11.4851C20.5911 11.0709 20.3515 10.7313 20.0843 10.4641C19.1443 9.52408 17.7593 9.54143 16.8333 10.4791C16.2422 11.0585 16.0369 11.9414 16.3993 12.8704L17.0537 14.4258C17.0633 14.4684 17.075 14.5111 17.0419 14.5441C16.9972 14.5889 16.9524 14.5772 16.9097 14.5345L10.5225 8.14736C9.47603 7.10088 8.134 7.10932 7.11752 8.1258C6.79877 8.44244 6.61549 8.83268 6.57846 9.24424C5.57955 8.56502 4.48784 8.64119 3.63049 9.49853C2.80831 10.3207 2.73214 11.4454 3.3687 12.423C2.98057 12.4441 2.61589 12.6274 2.33229 12.9089C1.38073 13.8508 1.40323 15.1493 2.37636 16.1341L3.16292 16.909C2.75441 16.9204 2.35011 17.1124 2.02268 17.4398C1.08073 18.3818 1.12128 19.7451 2.12089 20.7447L9.37034 27.9942C13.3695 31.9933 18.2881 31.9954 21.9755 28.308ZM20.5388 26.966C17.5658 29.9294 13.8661 29.8504 10.5486 26.5254L3.59158 19.578C3.27798 19.2644 3.25877 18.8421 3.57236 18.5285C3.87846 18.2245 4.31791 18.2245 4.63362 18.5381L8.89572 22.8098C9.25643 23.1609 9.784 23.1203 10.1063 22.7981C10.4382 22.4662 10.4766 21.9311 10.1255 21.58L3.73197 15.1769C3.41837 14.8633 3.39916 14.441 3.70314 14.137C4.00713 13.833 4.44869 13.833 4.77401 14.1466L10.7351 20.1098C11.0862 20.4588 11.6234 20.4278 11.9457 20.0981C12.2775 19.7662 12.316 19.229 11.9649 18.8779L4.95142 11.8645C4.63783 11.5509 4.61861 11.1093 4.9322 10.8054C5.22658 10.5014 5.66814 10.5206 5.99135 10.8342L12.912 17.7548C13.2439 18.0846 13.7811 18.0729 14.1129 17.741C14.4544 17.4016 14.4736 16.8644 14.1322 16.5229L8.26384 10.645C7.95024 10.3315 7.93853 9.90165 8.24251 9.59766C8.55611 9.28407 8.98056 9.29157 9.30377 9.61477L17.555 17.8659C18.0284 18.3393 18.5932 18.3077 18.987 17.9097C19.3095 17.583 19.4616 17.133 19.2146 16.5058L17.7413 12.6398C17.5611 12.1706 17.7284 11.7792 18.0943 11.6149C18.4815 11.4389 18.8344 11.6128 19.0723 12.112L21.7826 17.9081C23.5822 21.7518 22.9318 24.5613 20.5388 26.966ZM10.512 7.19345C10.1879 7.49626 10.0142 7.88767 9.96539 8.28658L11.6128 9.80977C11.2908 9.45305 11.277 8.98617 11.6032 8.66625C11.9199 8.35383 12.375 8.37305 12.7076 8.70563L16.5106 12.5065L17.6982 10.9983L13.9074 7.21501C12.8588 6.16853 11.539 6.18751 10.512 7.19345ZM25.2106 27.438C28.2678 24.3829 28.766 20.5961 26.6979 16.2288L24.0263 10.5958C23.5226 9.51399 22.6507 8.88634 21.6054 8.89267C20.8479 8.89478 19.448 9.40314 19.448 11.0627C19.448 11.1832 19.448 11.3015 19.4672 11.4316L20.9977 11.966C20.9337 11.8242 20.8932 11.6739 20.8932 11.4979C20.8932 11.1525 21.1779 10.8175 21.6354 10.8175C21.9181 10.8175 22.2125 11.0149 22.3693 11.3498L25.0273 17.0264C26.8247 20.8605 26.1861 23.6913 23.776 26.0746C22.7562 27.0923 21.6481 27.7483 20.5048 28.0235L18.3889 30.0032C20.783 30.3297 23.1861 29.4604 25.2106 27.438Z" fill="#8F99BA"/>
<path d="M18.4146 8.29641C18.6232 8.29641 18.7882 8.15485 18.8041 7.92493C19.1334 5.22164 19.2539 5.145 22.0167 4.69102C22.27 4.66547 22.4095 4.53141 22.4095 4.31321C22.4095 4.11094 22.27 3.97688 22.0657 3.93961C19.271 3.39633 19.1334 3.4186 18.8041 0.711096C18.7882 0.485393 18.6232 0.343831 18.4146 0.343831C18.2219 0.343831 18.0665 0.485393 18.0506 0.699377C17.684 3.46219 17.6083 3.54211 14.7815 3.93961C14.5793 3.96516 14.4356 4.11094 14.4356 4.31321C14.4356 4.51969 14.5729 4.66125 14.7794 4.69102C17.6125 5.25563 17.6744 5.23547 18.0506 7.95047C18.0665 8.15485 18.224 8.29641 18.4146 8.29641ZM10.2942 5.15766C10.4315 5.15766 10.5412 5.0768 10.5764 4.91813C10.8759 3.19406 10.878 3.18445 12.6159 2.86688C12.7788 2.82961 12.881 2.73164 12.881 2.58469C12.881 2.42391 12.7788 2.32594 12.6222 2.29078C10.8717 1.94133 10.908 1.93594 10.5764 0.251249C10.5412 0.0904684 10.4411 0 10.2942 0C10.143 0 10.0333 0.100078 10.012 0.24914C9.66443 1.9507 9.71248 1.96242 7.95865 2.29078C7.79787 2.32383 7.69779 2.43352 7.69779 2.58469C7.69779 2.72203 7.79576 2.82961 7.95654 2.86688C9.71248 3.21422 9.69115 3.2025 10.012 4.92024C10.0333 5.06719 10.143 5.15766 10.2942 5.15766ZM3.41601 31.8035C3.60867 31.8035 3.7214 31.6833 3.74695 31.4981C4.15195 29.2033 4.14234 29.1649 6.53625 28.7184C6.73734 28.6694 6.84585 28.5705 6.84585 28.3779C6.84585 28.1852 6.73734 28.0863 6.54679 28.0469C4.14773 27.5665 4.19367 27.5322 3.74695 25.2597C3.7214 25.0725 3.60867 24.9522 3.41601 24.9522C3.23508 24.9522 3.13406 25.0725 3.08719 25.2576C2.63836 27.5512 2.71523 27.5939 0.301171 28.0469C0.120234 28.0842 0 28.1852 0 28.3779C0 28.5705 0.118124 28.6694 0.299061 28.7184C2.71523 29.1893 2.67047 29.216 3.08719 31.5044C3.13406 31.6833 3.23508 31.8035 3.41601 31.8035Z" fill="#8F99BA"/>
</svg>
