<svg width="14" height="24" viewBox="0 0 14 24" fill="none" xmlns="http://www.w3.org/2000/svg">
<path d="M3.73369 23.4471C4.58097 23.4471 5.1164 22.9738 5.09847 22.1573L4.90737 11.1373C4.90737 10.7652 5.03487 10.5249 5.35499 10.3748C6.67087 9.80011 7.27495 9.18316 7.17044 7.38732L6.88955 1.43245C6.87162 0.973819 6.61371 0.701203 6.19751 0.701203C5.7928 0.701203 5.54455 0.994996 5.54455 1.45365L5.63113 7.25838C5.63113 7.59634 5.39591 7.82657 5.08238 7.82657C4.73605 7.82657 4.49761 7.59634 4.49761 7.27633L4.42574 1.28556C4.42574 0.836607 4.14169 0.572266 3.73369 0.572266C3.32066 0.572266 3.04806 0.836607 3.04806 1.28556L2.94676 7.27633C2.94676 7.59634 2.71978 7.82657 2.39151 7.82657C2.07473 7.82657 1.84271 7.59634 1.84271 7.25838L1.93251 1.45365C1.93251 0.994996 1.68109 0.701203 1.27632 0.701203C0.856819 0.701203 0.584219 0.98027 0.566259 1.43245L0.303359 7.38732C0.228302 9.18316 0.802954 9.80011 2.12717 10.3748C2.43892 10.5249 2.56965 10.7652 2.56965 11.1373L2.37534 22.1573C2.35738 22.977 2.89613 23.4471 3.73369 23.4471ZM10.6148 15.0859L10.404 22.1132C10.3681 22.977 10.9247 23.4471 11.7508 23.4471C12.6243 23.4471 13.1386 23.0032 13.1386 22.2048V1.32004C13.1386 0.818646 12.7841 0.572266 12.43 0.572266C12.0414 0.572266 11.7933 0.784535 11.4797 1.23851C9.89077 3.44483 8.80996 7.70768 8.80996 11.5769V12.2431C8.80996 12.9518 9.06005 13.4236 9.59195 13.7893L10.1134 14.1474C10.4694 14.3923 10.6213 14.6552 10.6148 15.0859Z" fill="#8F99BA"/>
</svg>
