<svg width="23" height="22" viewBox="0 0 23 22" fill="none" xmlns="http://www.w3.org/2000/svg">
<path d="M4.81589 21.9997H19.0012C21.5402 21.9997 22.8454 20.6944 22.8454 18.1939V3.93175C22.8454 1.4291 21.5402 0.125977 19.0012 0.125977H4.81589C2.28652 0.125977 0.97168 1.41949 0.97168 3.93175V18.1939C0.97168 20.7041 2.28652 21.9997 4.81589 21.9997ZM4.94901 19.7038C3.8594 19.7038 3.2676 19.1396 3.2676 18.001V4.12253C3.2676 2.98393 3.8594 2.4219 4.94901 2.4219H18.8681C19.9481 2.4219 20.5495 2.98393 20.5495 4.12253V18.001C20.5495 19.1396 19.9481 19.7038 18.8681 19.7038H4.94901Z" fill="#8F99BA"/>
<path d="M6.81285 7.84317C7.83777 7.85699 8.70074 6.99402 8.70074 5.93606C8.70074 4.89731 7.83988 4.05566 6.81285 4.05566C5.76238 4.05566 4.91113 4.8952 4.91113 5.93606C4.91113 6.99192 5.76238 7.82184 6.81285 7.84317ZM17.0253 7.84317C18.0523 7.85699 18.9056 6.99402 18.9056 5.93606C18.9056 4.8952 18.0565 4.05566 17.0253 4.05566C15.9769 4.05566 15.1181 4.8952 15.1181 5.93606C15.1181 6.99192 15.9769 7.82184 17.0253 7.84317ZM11.9163 12.9563C12.9434 12.9563 13.8042 12.1029 13.8042 11.0449C13.8042 10.0104 12.9413 9.17091 11.9163 9.17091C10.868 9.17091 10.0264 10.0083 10.0264 11.0449C10.0264 12.105 10.8659 12.9563 11.9163 12.9563ZM6.81074 18.0715C7.83777 18.0715 8.69863 17.2181 8.69863 16.1698C8.69863 15.1256 7.83566 14.2819 6.81074 14.2819C5.76238 14.2819 4.92285 15.1235 4.92285 16.1698C4.92285 17.2202 5.76238 18.0715 6.81074 18.0715ZM17.0253 18.0715C18.0565 18.0715 18.9056 17.2181 18.9056 16.1698C18.9056 15.1235 18.0523 14.2819 17.0253 14.2819C15.979 14.2819 15.1395 15.1235 15.1395 16.1698C15.1395 17.2181 15.979 18.0715 17.0253 18.0715Z" fill="#8F99BA"/>
</svg>
