<?xml version="1.0" encoding="UTF-8"?>
<!DOCTYPE svg PUBLIC "-//W3C//DTD SVG 1.1//EN" "http://www.w3.org/Graphics/SVG/1.1/DTD/svg11.dtd">
<!-- Creator: CorelDRAW X6 -->
<svg xmlns="http://www.w3.org/2000/svg" xml:space="preserve" width="25mm" height="25.5mm" version="1.1" style="shape-rendering:geometricPrecision; text-rendering:geometricPrecision; image-rendering:optimizeQuality; fill-rule:evenodd; clip-rule:evenodd"
viewBox="0 0 2500 2550"
 xmlns:xlink="http://www.w3.org/1999/xlink">
 <defs>
  <style type="text/css">
   <![CDATA[
    .fil0 {fill:white}
    .fil1 {fill:var(--icon-color);fill-rule:nonzero}
   ]]>
  </style>
 </defs>
 <g id="Слой_x0020_1">
  <metadata id="CorelCorpID_0Corel-Layer"/>
  <path class="fil0" d="M390 25l1720 0c215,0 390,175 390,390l0 1720c0,215 -175,390 -390,390l-1720 0c-215,0 -390,-175 -390,-390l0 -1720c0,-215 175,-390 390,-390z"/>
  <path class="fil1" d="M1250 921l114 -214 -114 -215 -114 215 114 214zm-399 465c-28,0 -50,-23 -50,-50 0,-28 22,-50 50,-50l349 0 0 -246 -165 -310c-7,-14 -8,-32 0,-47l171 -321c4,-8 11,-16 21,-21 24,-13 54,-3 67,21l171 321c7,14 8,32 0,47l-165 310 0 246 349 0c28,0 50,22 50,50 0,27 -22,50 -50,50l-349 0 0 505c0,28 -22,50 -50,50 -28,0 -50,-22 -50,-50l0 -505 -349 0zm1216 68c-18,21 -50,23 -71,4 -20,-18 -22,-49 -4,-70 20,-22 36,-48 46,-76 11,-27 16,-57 16,-87 0,-67 -27,-128 -71,-172 -44,-45 -106,-72 -173,-72 -59,0 -114,21 -157,57 -43,36 -73,86 -84,144 -4,27 -30,46 -57,41 -28,-5 -46,-31 -41,-58 15,-82 58,-153 118,-204 60,-50 138,-80 221,-80 95,0 181,39 243,101 63,62 101,148 101,243 0,42 -7,84 -22,123 -15,39 -37,75 -65,106zm-585 63c-9,-26 5,-55 31,-64 26,-9 54,5 63,31 28,81 79,142 142,187 66,47 147,75 230,85 82,10 165,1 236,-24 64,-22 117,-57 150,-103 16,-23 47,-28 69,-12 23,16 28,47 12,70 -45,64 -116,111 -198,140 -85,29 -184,40 -281,28 -98,-12 -195,-45 -276,-103 -79,-56 -142,-133 -178,-235zm-974 -129c18,21 16,52 -4,70 -21,19 -53,17 -71,-4 -28,-31 -50,-67 -65,-106 -15,-39 -22,-81 -22,-123 0,-95 38,-181 101,-243 62,-62 148,-101 243,-101 83,0 161,30 221,80 60,51 103,122 118,204 5,27 -13,53 -41,58 -27,5 -53,-14 -57,-41 -11,-58 -41,-108 -84,-144 -43,-36 -98,-57 -157,-57 -67,0 -129,27 -173,72 -44,44 -71,105 -71,172 0,30 5,60 16,87 10,28 26,54 46,76zm416 96c9,-26 37,-40 63,-31 26,9 40,38 31,64 -36,102 -99,179 -178,235 -81,58 -178,91 -276,103 -97,12 -196,1 -281,-28 -82,-29 -153,-76 -198,-140 -16,-23 -11,-54 12,-70 22,-16 53,-11 69,12 33,46 86,81 150,103 71,25 154,34 236,24 83,-10 164,-38 230,-85 63,-45 114,-106 142,-187z"/>
 </g>
</svg>
