<?xml version="1.0" encoding="UTF-8"?>
<!DOCTYPE svg PUBLIC "-//W3C//DTD SVG 1.1//EN" "http://www.w3.org/Graphics/SVG/1.1/DTD/svg11.dtd">
<!-- Creator: CorelDRAW X6 -->
<svg xmlns="http://www.w3.org/2000/svg" xml:space="preserve" width="25mm" height="25mm" version="1.1" style="shape-rendering:geometricPrecision; text-rendering:geometricPrecision; image-rendering:optimizeQuality; fill-rule:evenodd; clip-rule:evenodd"
viewBox="0 0 2500 2500"
 xmlns:xlink="http://www.w3.org/1999/xlink">
 <defs>
  <style type="text/css">
   <![CDATA[
    .fil0 {fill:white}
    .fil1 {fill:var(--icon-color);fill-rule:nonzero}
   ]]>
  </style>
 </defs>
 <g id="Слой_x0020_1">
  <metadata id="CorelCorpID_0Corel-Layer"/>
  <rect class="fil0" width="2500" height="2500" rx="390" ry="390"/>
  <path class="fil1" d="M234 1961c-24,12 -54,2 -67,-22 -12,-25 -2,-55 22,-67 167,-84 220,-156 274,-230 31,-42 62,-84 111,-130 63,-59 145,-92 235,-109 86,-15 181,-15 273,-7 53,5 104,12 152,20 50,8 96,18 139,27 6,1 16,3 28,5 47,10 114,23 147,42 3,1 5,3 8,5l419 -275c1,-1 2,-2 3,-3 63,-41 128,-54 188,-46 66,9 125,44 163,96l0 0c15,22 11,52 -9,68l-782 629 0 0c-1,1 -2,2 -3,2 -44,31 -90,53 -139,69 -47,15 -98,23 -151,24l-451 11 -231 226c-19,20 -51,19 -70,0 -19,-20 -19,-52 1,-71l244 -240c10,-9 23,-14 36,-14l469 -12c43,-1 84,-7 123,-20 39,-12 76,-30 111,-54l737 -592c-18,-12 -39,-20 -61,-23 -37,-5 -79,4 -120,31 -1,1 -2,1 -3,2l-412 270c5,16 8,32 7,49 -2,36 -19,74 -48,100 -26,24 -61,39 -102,38l-569 0c-27,0 -50,-22 -50,-50 0,-27 23,-49 50,-49l569 -1 2 0c46,1 70,-56 21,-84 -19,-10 -76,-22 -117,-30 -10,-2 -19,-3 -29,-5 -42,-9 -87,-19 -134,-27 -48,-8 -97,-14 -144,-19 -85,-7 -171,-7 -247,6 -73,13 -137,39 -185,84 -42,39 -70,78 -98,116 -62,83 -121,165 -310,260zm1180 -975c26,-84 6,-187 -35,-292 -51,-132 -136,-266 -212,-372 -72,99 -157,233 -210,367 -41,106 -62,211 -38,294 21,72 62,124 113,156 41,26 87,39 134,40 47,0 94,-13 135,-38 50,-31 92,-83 113,-155zm58 -328c49,124 70,249 38,356 -29,97 -87,168 -157,212 -57,35 -122,53 -187,52 -66,0 -131,-18 -188,-54 -70,-45 -127,-116 -155,-214 -31,-107 -7,-233 41,-357 67,-171 182,-340 264,-445l0 0c2,-3 5,-6 9,-8 22,-17 53,-13 70,9 89,116 201,282 265,449zm-193 244c-3,-27 17,-52 44,-55 27,-3 52,16 55,44 1,3 1,7 2,12 0,5 0,9 0,12 0,48 -16,93 -45,129 -28,36 -67,62 -114,74 -27,6 -54,-10 -60,-37 -7,-27 10,-54 36,-60 25,-6 45,-20 60,-39 14,-18 23,-42 23,-67 0,-3 0,-5 0,-6 0,-2 0,-4 -1,-7z"/>
 </g>
</svg>
