<?xml version="1.0" encoding="UTF-8"?>
<!DOCTYPE svg PUBLIC "-//W3C//DTD SVG 1.1//EN" "http://www.w3.org/Graphics/SVG/1.1/DTD/svg11.dtd">
<!-- Creator: CorelDRAW X6 -->
<svg xmlns="http://www.w3.org/2000/svg" xml:space="preserve" width="25mm" height="25.5mm" version="1.1" style="shape-rendering:geometricPrecision; text-rendering:geometricPrecision; image-rendering:optimizeQuality; fill-rule:evenodd; clip-rule:evenodd"
viewBox="0 0 2500 2550"
 xmlns:xlink="http://www.w3.org/1999/xlink">
 <defs>
  <style type="text/css">
   <![CDATA[
    .fil0 {fill:white}
    .fil1 {fill:var(--icon-color);fill-rule:nonzero}
   ]]>
  </style>
 </defs>
 <g id="Слой_x0020_1">
  <metadata id="CorelCorpID_0Corel-Layer"/>
  <rect class="fil0" y="25" width="2500" height="2500" rx="390" ry="390"/>
  <path class="fil1" d="M1292 1573c21,-17 53,-14 70,7 17,22 14,53 -8,71 -111,90 -279,141 -453,146 -165,5 -338,-31 -478,-117 -23,-14 -30,-45 -16,-68 14,-24 45,-31 68,-17 122,75 276,107 423,103 153,-5 299,-49 394,-125zm86 -153l96 -623c38,-253 173,-389 320,-435 62,-19 127,-23 188,-11 61,11 119,36 166,74 104,83 162,221 116,395 -8,26 -34,42 -61,36 -89,-23 -154,-22 -204,8 -53,32 -94,99 -134,209l-269 745 -1 2 0 0c-51,127 -140,220 -248,282 -120,70 -264,103 -407,104 -106,1 -211,-16 -305,-47 -95,-31 -180,-76 -244,-135 -5,-5 -11,-11 -17,-18 -42,-46 -93,-132 -124,-217 -35,-94 -44,-192 7,-248 2,-2 5,-5 9,-8l0 -1 0 0c127,-115 331,-175 542,-190 202,-13 413,15 570,78zm194 -608l-105 688 -1 0c0,5 -2,11 -5,16 -12,24 -42,34 -67,21 -145,-75 -366,-110 -580,-95 -190,13 -372,66 -482,165l0 -1 -1 2c-22,24 -11,84 12,147 27,73 70,146 105,185 4,4 7,8 11,10 53,49 125,88 206,115 85,27 180,42 274,41 127,-1 253,-29 358,-90 90,-52 163,-129 206,-233l269 -744c47,-132 102,-215 175,-260 64,-39 138,-47 229,-31 15,-108 -25,-193 -90,-244 -35,-28 -77,-47 -122,-55 -45,-9 -93,-6 -140,8 -115,36 -220,147 -252,355z"/>
 </g>
</svg>
