<?xml version="1.0" encoding="UTF-8"?>
<!DOCTYPE svg PUBLIC "-//W3C//DTD SVG 1.1//EN" "http://www.w3.org/Graphics/SVG/1.1/DTD/svg11.dtd">
<!-- Creator: CorelDRAW X6 -->
<svg xmlns="http://www.w3.org/2000/svg" xml:space="preserve" width="25mm" height="25.5mm" version="1.1" style="shape-rendering:geometricPrecision; text-rendering:geometricPrecision; image-rendering:optimizeQuality; fill-rule:evenodd; clip-rule:evenodd"
viewBox="0 0 2500 2550"
 xmlns:xlink="http://www.w3.org/1999/xlink">
 <defs>
  <style type="text/css">
   <![CDATA[
    .fil0 {fill:white}
    .fil1 {fill:var(--icon-color);fill-rule:nonzero}
   ]]>
  </style>
 </defs>
 <g id="Слой_x0020_1">
  <metadata id="CorelCorpID_0Corel-Layer"/>
  <rect class="fil0" y="25" width="2500" height="2500" rx="390" ry="390"/>
  <path class="fil1" d="M1085 1571l0 -884 0 -7 8 0 263 0c96,0 164,29 209,80 49,56 71,137 71,236l0 138c0,103 -24,180 -74,231 -50,52 -125,78 -228,78l-150 0 0 128 230 0 8 0 0 8 0 100 0 7 -8 0 -230 0 0 272 0 8 -8 0 -83 0 -8 0 0 -8 0 -272 -79 0 -8 0 0 -7 0 -100 0 -8 8 0 79 0zm141 824l48 0 0 -63c0,-20 11,-37 28,-45 57,-33 123,-70 190,-111 68,-42 140,-88 208,-137 21,-15 43,-31 64,-49 20,-17 39,-35 54,-54 12,-17 18,-33 18,-49 -1,-65 -75,-101 -53,-188 13,-48 53,-78 94,-101 69,-37 175,-80 180,-166 3,-65 -117,-158 -137,-219 -30,-89 47,-139 50,-239 1,-30 -13,-60 -35,-81 -32,-29 -69,-34 -107,-48 -13,-5 -27,-12 -40,-19 -32,-20 -54,-46 -65,-75 -27,-74 31,-139 40,-214 6,-47 -35,-85 -74,-104 -21,-11 -44,-17 -67,-18 -50,-3 -92,-17 -128,-41 -36,-25 -64,-60 -85,-106 -17,-37 -41,-62 -65,-80 -63,-44 -125,-44 -188,0 -24,18 -48,43 -65,80 -21,46 -49,81 -85,106 -83,57 -223,21 -265,127 -1,3 -8,36 -4,36 4,39 20,77 36,115 13,32 16,66 4,99 -11,29 -33,55 -65,75 -51,31 -155,48 -181,105 -33,74 85,157 50,277 -26,91 -97,110 -129,179 -6,14 -10,28 -9,42 0,15 5,31 13,46 16,31 43,55 73,73 49,29 104,48 147,86 41,38 54,84 36,136 -12,37 -48,79 -48,117 0,16 6,32 18,49l1 1c15,19 34,37 53,53 79,67 188,134 272,186 71,43 137,81 193,112 16,9 25,26 25,44l0 63zm98 100l-148 0c-27,0 -50,-22 -50,-50l0 -84c-53,-31 -112,-65 -170,-100 -90,-55 -202,-124 -285,-194 -55,-47 -108,-104 -107,-182 1,-37 13,-75 38,-116 4,3 53,-85 -76,-111 -63,-13 -129,-79 -159,-136 -15,-29 -23,-60 -24,-91 -1,-29 6,-58 19,-86 16,-36 119,-148 123,-168 9,-47 -34,-102 -49,-169 -35,-156 85,-212 200,-256 28,-11 59,-27 45,-62 -41,-99 -78,-213 12,-298 112,-104 185,-51 257,-101 21,-14 37,-35 50,-64 26,-55 61,-94 98,-120 98,-69 206,-69 303,0 37,26 73,65 99,120 13,29 29,50 50,64 21,14 47,22 78,24 36,2 72,12 105,28 78,38 140,115 129,206 -6,51 -24,96 -42,140 -15,36 15,52 44,63 112,43 211,91 206,225 -2,63 -60,143 -57,191 3,44 42,69 97,127 28,31 50,70 46,142 -2,53 -27,103 -70,147 -20,20 -40,36 -65,50 -30,18 -73,33 -102,53 -67,47 -7,94 10,151 4,16 6,32 7,47 0,40 -13,76 -39,111 -20,26 -44,50 -68,71 -24,19 -48,37 -71,53 -71,51 -144,98 -214,141 -61,37 -119,70 -170,100l0 84c0,28 -23,50 -50,50zm-140 -1724l0 580 150 0c71,0 122,-15 155,-49 33,-34 48,-88 48,-163l0 -149c0,-67 -11,-122 -40,-160 -28,-38 -73,-59 -141,-59l-172 0z"/>
 </g>
</svg>
