<?xml version="1.0" encoding="UTF-8"?>
<!DOCTYPE svg PUBLIC "-//W3C//DTD SVG 1.1//EN" "http://www.w3.org/Graphics/SVG/1.1/DTD/svg11.dtd">
<!-- Creator: CorelDRAW X6 -->
<svg xmlns="http://www.w3.org/2000/svg" xml:space="preserve" width="25mm" height="25.5mm" version="1.1" style="shape-rendering:geometricPrecision; text-rendering:geometricPrecision; image-rendering:optimizeQuality; fill-rule:evenodd; clip-rule:evenodd"
viewBox="0 0 2500 2550"
 xmlns:xlink="http://www.w3.org/1999/xlink">
 <defs>
  <style type="text/css">
   <![CDATA[
    .fil0 {fill:white}
    .fil1 {fill:var(--icon-color);fill-rule:nonzero}
   ]]>
  </style>
 </defs>
 <g id="Слой_x0020_1">
  <metadata id="CorelCorpID_0Corel-Layer"/>
  <rect class="fil0" y="25" width="2500" height="2500" rx="390" ry="390"/>
  <path class="fil1" d="M694 2312c0,28 -22,50 -50,50 -28,0 -50,-22 -50,-50l0 -1062c0,-180 74,-344 193,-463 14,-15 30,-29 45,-42l0 -141c0,-115 47,-219 123,-294 75,-75 179,-122 293,-122l4 0c114,0 218,47 294,122 75,75 122,179 122,294l0 141c15,13 31,27 45,42 119,119 193,283 193,463l0 1062c0,28 -22,50 -50,50 -27,0 -50,-22 -50,-50l0 -1062c0,-140 -52,-268 -138,-366l0 460c0,115 -47,219 -123,295 -76,75 -180,122 -295,122l0 0c-115,0 -219,-47 -295,-122 -76,-76 -123,-180 -123,-295l0 -460c-86,98 -138,226 -138,366l0 1062zm704 -1216c0,-28 22,-50 50,-50 27,0 50,22 50,50l0 38c0,28 -23,50 -50,50 -28,0 -50,-22 -50,-50l0 -38zm0 -484c0,-28 22,-50 50,-50 27,0 50,22 50,50l0 310c0,27 -23,50 -50,50 -28,0 -50,-23 -50,-50l0 -310zm-443 849c37,-24 77,-43 119,-57 57,-20 116,-30 176,-30 61,0 121,11 178,30 41,14 80,33 117,57 15,-36 23,-76 23,-117l0 -740c0,-87 -36,-166 -93,-223 -57,-57 -136,-93 -223,-93l-4 0c-87,0 -166,36 -223,93 -57,57 -93,136 -93,223l0 740c0,41 8,81 23,117zm539 86c-31,-20 -64,-36 -98,-48 -47,-16 -96,-25 -146,-25 -49,0 -98,9 -144,24 -35,12 -69,28 -100,49 6,7 13,14 20,21 57,58 137,93 224,93l0 0c87,0 167,-35 224,-93 7,-7 14,-14 20,-21z"/>
 </g>
</svg>
