<?xml version="1.0" encoding="UTF-8"?>
<!DOCTYPE svg PUBLIC "-//W3C//DTD SVG 1.1//EN" "http://www.w3.org/Graphics/SVG/1.1/DTD/svg11.dtd">
<!-- Creator: CorelDRAW X6 -->
<svg xmlns="http://www.w3.org/2000/svg" xml:space="preserve" width="25mm" height="25.5mm" version="1.1" style="shape-rendering:geometricPrecision; text-rendering:geometricPrecision; image-rendering:optimizeQuality; fill-rule:evenodd; clip-rule:evenodd"
viewBox="0 0 2500 2550"
 xmlns:xlink="http://www.w3.org/1999/xlink">
 <defs>
  <style type="text/css">
   <![CDATA[
    .fil0 {fill:white}
    .fil1 {fill:#60BA3E;fill-rule:nonzero}
   ]]>
  </style>
 </defs>
 <g id="Слой_x0020_1">
  <metadata id="CorelCorpID_0Corel-Layer"/>
  <rect class="fil0" y="25" width="2500" height="2500" rx="390" ry="390"/>
  <path class="fil1" d="M2286 1381l-47 0 0 191c0,22 -8,44 -21,60 -15,19 -37,32 -62,32l-315 0c-23,0 -42,-16 -48,-38l-86 -245 -915 0 -94 250c-8,20 -27,32 -47,32l0 0 -307 0c-25,0 -47,-12 -62,-32 -13,-16 -21,-37 -21,-60l0 -190 -47 0c-20,0 -38,-8 -51,-21l0 0c-12,-13 -21,-31 -21,-51l0 -182c0,-20 9,-38 21,-51 2,-1 4,-3 5,-4 13,-10 29,-17 46,-17l97 0 1878 0 97 0c20,0 38,8 51,21l0 0c12,13 21,31 21,51l0 182c0,20 -9,38 -21,51 -3,4 -23,19 -51,21zm-1975 -395c-28,0 -50,-22 -50,-50 0,-27 22,-50 50,-50l433 0c28,0 50,23 50,50 0,28 -22,50 -50,50l-433 0zm722 0c-27,0 -50,-22 -50,-50 0,-27 23,-50 50,-50l434 0c27,0 50,23 50,50 0,28 -23,50 -50,50l-434 0zm723 0c-28,0 -50,-22 -50,-50 0,-27 22,-50 50,-50l433 0c28,0 50,23 50,50 0,28 -22,50 -50,50l-433 0zm-1445 169l-69 0 0 126 69 0c28,0 50,22 50,50l0 232 255 0 93 -247c7,-20 26,-35 48,-35l986 0 0 0c20,0 39,13 47,33l87 250 262 0 0 -233c0,-28 22,-50 50,-50l69 0 0 -126 -69 0 -1878 0z"/>
 </g>
</svg>
