<?xml version="1.0" encoding="UTF-8"?>
<!DOCTYPE svg PUBLIC "-//W3C//DTD SVG 1.1//EN" "http://www.w3.org/Graphics/SVG/1.1/DTD/svg11.dtd">
<!-- Creator: CorelDRAW X6 -->
<svg xmlns="http://www.w3.org/2000/svg" xml:space="preserve" width="25mm" height="25mm" version="1.1" style="shape-rendering:geometricPrecision; text-rendering:geometricPrecision; image-rendering:optimizeQuality; fill-rule:evenodd; clip-rule:evenodd"
viewBox="0 0 2500 2500"
 xmlns:xlink="http://www.w3.org/1999/xlink">
 <defs>
  <style type="text/css">
   <![CDATA[
    .fil0 {fill:white}
    .fil1 {fill:var(--icon-color);fill-rule:nonzero}
   ]]>
  </style>
 </defs>
 <g id="Слой_x0020_1">
  <metadata id="CorelCorpID_0Corel-Layer"/>
  <rect class="fil0" width="2500" height="2500" rx="390" ry="390"/>
  <path class="fil1" d="M1362 1603c22,-6 93,-151 175,-335 128,-288 261,-662 291,-794l0 -3 0 0c11,-37 12,-71 6,-98 -6,-23 -17,-41 -33,-51 -27,-16 -56,-8 -83,0 -35,9 -69,19 -109,5 -36,-12 -54,-32 -73,-53 -1,-1 -1,-2 -2,-3 -11,-11 -22,-22 -40,-25l-1 -1 0 1c-17,-4 -33,2 -49,8 -25,9 -48,18 -81,13 -31,-5 -48,-20 -68,-36 -12,-10 -26,-21 -45,-21 -19,0 -33,11 -45,21 -20,16 -37,31 -68,36 -33,5 -56,-4 -81,-13 -16,-6 -32,-12 -49,-8 -1,0 -3,0 -4,0 -18,4 -29,16 -39,28l0 0 0 0c-19,21 -37,41 -73,53 -40,14 -74,4 -109,-5 -27,-8 -56,-16 -83,0 -16,10 -27,28 -33,51 -6,27 -5,61 6,98 0,2 1,4 1,6 31,134 163,505 290,791 84,188 156,335 176,335l1 0 0 0 220 0 2 0zm-347 -1090c-1,3 -1,7 -2,10 -6,43 7,82 26,111 14,21 30,37 45,48 1,-4 2,-8 3,-12 3,-24 1,-51 -7,-77 -7,-24 -20,-47 -39,-63 -8,-7 -16,-13 -26,-17zm-101 -3c4,-24 10,-49 22,-75 7,-21 30,-36 53,-32 48,6 87,25 117,51 34,30 57,69 70,110 12,40 15,82 9,119 -5,38 -19,72 -39,96 -11,13 -27,20 -45,17 -11,-1 -23,-5 -36,-10 -35,-16 -78,-50 -109,-97 -31,-47 -51,-109 -42,-179zm200 515c-6,17 -9,34 -12,50 -10,76 12,143 46,195 33,50 75,86 110,103 8,-17 14,-37 17,-59 6,-41 3,-88 -11,-133 -13,-43 -36,-83 -71,-113 -22,-19 -48,-34 -79,-43zm-111 37c5,-36 16,-73 32,-112 8,-21 30,-36 54,-32 70,9 125,37 169,74 50,44 83,101 102,161 17,58 21,120 14,175 -8,53 -27,102 -55,135 -11,14 -28,21 -46,19 -15,-2 -32,-7 -49,-15 -52,-23 -114,-73 -160,-142 -45,-70 -75,-160 -61,-263zm656 -619c17,38 27,76 32,111 14,104 -15,194 -61,263 -45,70 -108,119 -159,142 -18,8 -34,13 -49,15 -18,2 -35,-5 -46,-18 -35,-30 -57,-155 -58,-164 -3,-48 2,-98 17,-147 19,-60 52,-117 102,-160 43,-38 99,-65 168,-75 24,-3 47,11 54,33zm-67 125c-2,-17 -6,-34 -11,-51 -31,10 -58,24 -79,43 -35,30 -58,71 -71,114 -14,44 -17,91 -11,132 3,23 9,43 16,59 36,-17 78,-53 111,-102 34,-52 56,-119 45,-195zm-496 1267c-29,0 -53,-24 -53,-53 0,-29 24,-53 53,-53l308 0c29,0 53,24 53,53 0,29 -24,53 -53,53l-308 0zm0 126c-29,0 -53,-23 -53,-53 0,-29 24,-53 53,-53l308 0c29,0 53,24 53,53 0,30 -24,53 -53,53l-308 0zm61 388c-4,29 -31,49 -60,44 -29,-4 -49,-31 -44,-60l47 -304c4,-29 31,-49 60,-45 19,3 34,15 41,32 7,-20 26,-34 49,-34 23,0 42,14 49,34 7,-17 22,-29 41,-32 29,-4 56,16 60,45l47 304c5,29 -15,56 -44,60 -29,5 -56,-15 -60,-44l-40 -258 0 252c0,29 -24,53 -53,53 -29,0 -53,-24 -53,-53l0 -252 -40 258zm476 -1038c-86,194 -175,352 -244,389 -9,5 -18,8 -29,8l-220 0 0 0c-71,0 -175,-175 -273,-397 -129,-290 -264,-670 -297,-810l0 -1c-15,-56 -17,-108 -6,-152 12,-50 39,-91 79,-116 66,-40 119,-26 167,-12 19,5 37,10 47,7 10,-3 19,-14 28,-24l1 0c23,-25 46,-51 99,-61l2 0c45,-9 76,2 105,13 12,4 23,8 29,7 2,0 9,-6 17,-12 26,-22 55,-46 112,-46 57,0 86,24 112,46 8,6 15,12 17,12 6,1 17,-3 29,-7 29,-11 60,-22 105,-13l0 0c52,9 76,33 99,58 1,1 2,2 3,3 9,10 18,21 28,24 10,3 28,-2 47,-7 48,-14 101,-28 167,12 40,25 67,66 79,116 11,44 9,96 -6,152l0 0c-32,139 -168,520 -297,811z"/>
 </g>
</svg>
