<?xml version="1.0" encoding="UTF-8"?>
<!DOCTYPE svg PUBLIC "-//W3C//DTD SVG 1.1//EN" "http://www.w3.org/Graphics/SVG/1.1/DTD/svg11.dtd">
<!-- Creator: CorelDRAW X6 -->
<svg xmlns="http://www.w3.org/2000/svg" xml:space="preserve" width="25mm" height="25mm" version="1.1" style="shape-rendering:geometricPrecision; text-rendering:geometricPrecision; image-rendering:optimizeQuality; fill-rule:evenodd; clip-rule:evenodd"
viewBox="0 0 2500 2500"
 xmlns:xlink="http://www.w3.org/1999/xlink">
 <defs>
  <style type="text/css">
   <![CDATA[
    .fil0 {fill:white}
    .fil1 {fill:var(--icon-color);fill-rule:nonzero}
   ]]>
  </style>
 </defs>
 <g id="Слой_x0020_1">
  <metadata id="CorelCorpID_0Corel-Layer"/>
  <rect class="fil0" width="2500" height="2500" rx="390" ry="390"/>
  <path class="fil1" d="M768 1838l619 0 0 -209 -619 0 0 209zm-459 449l619 0 0 -208 -619 0 0 208zm669 100l-719 0 -50 0 0 -50 0 -308 0 -50 50 0 719 0 50 0 0 50 0 308 0 50 -50 0zm254 -100l619 0 0 -208 -619 0 0 208zm669 100l-719 0 -50 0 0 -50 0 -308 0 -50 50 0 719 0 50 0 0 50 0 308 0 50 -50 0zm-1477 -2301l1310 403c27,8 41,36 33,63 -2,7 -6,13 -10,18l0 0 -355 394 259 246 108 -116 0 0c19,-21 50,-22 71,-4l507 462 0 0 0 0c86,81 99,182 68,269 -12,34 -31,66 -55,92 -24,27 -54,50 -87,65 -81,38 -181,34 -272,-44 -2,-1 -3,-2 -4,-4l-493 -479 0 0c-20,-19 -21,-50 -2,-70l91 -98 -257 -245 -370 412c-19,20 -50,22 -71,3 -6,-5 -10,-11 -13,-18l0 0 -522 -1283c-10,-26 2,-55 28,-65 12,-5 25,-5 36,-1zm1206 476l-1137 -351 452 1112 318 -354 -202 -192c-20,-19 -21,-51 -2,-71 19,-20 51,-20 70,-1l201 190 300 -333zm649 1064l-74 -68 -211 230 72 70c56,49 117,52 165,30 20,-10 39,-24 55,-41 15,-18 28,-38 35,-60 19,-51 10,-112 -42,-161l0 0zm-148 -135l-322 -294 -201 216 315 306 208 -228zm-694 447l-719 0 -50 0 0 -50 0 -309 0 -50 50 0 719 0 50 0 0 50 0 309 0 50 -50 0z"/>
 </g>
</svg>
