<?xml version="1.0" encoding="UTF-8"?>
<!DOCTYPE svg PUBLIC "-//W3C//DTD SVG 1.1//EN" "http://www.w3.org/Graphics/SVG/1.1/DTD/svg11.dtd">
<!-- Creator: CorelDRAW X6 -->
<svg xmlns="http://www.w3.org/2000/svg" xml:space="preserve" width="25mm" height="25mm" version="1.1" style="shape-rendering:geometricPrecision; text-rendering:geometricPrecision; image-rendering:optimizeQuality; fill-rule:evenodd; clip-rule:evenodd"
viewBox="0 0 2500 2500"
 xmlns:xlink="http://www.w3.org/1999/xlink">
 <defs>
  <style type="text/css">
   <![CDATA[
    .fil0 {fill:white}
    .fil1 {fill:var(--icon-color);fill-rule:nonzero}
   ]]>
  </style>
 </defs>
 <g id="Слой_x0020_1">
  <metadata id="CorelCorpID_0Corel-Layer"/>
  <rect class="fil0" width="2500" height="2500" rx="390" ry="390"/>
  <path class="fil1" d="M666 511c-22,-16 -27,-47 -11,-69 17,-22 48,-27 70,-11 29,22 83,36 138,43 65,8 130,5 160,-7 26,-10 55,2 65,28 10,25 -2,54 -28,64 -45,18 -129,24 -209,14 -70,-9 -141,-29 -185,-62zm517 1200c-65,87 -128,288 -126,398 88,40 258,40 351,16 0,-112 27,-233 80,-332 -27,-26 -54,-77 -40,-114 -91,-5 -177,10 -265,32zm-91 -43c-26,-36 -45,-75 -58,-116 -228,-1 -455,-49 -621,-134 -8,-3 -31,4 -61,19 -68,34 -135,99 -170,167 -103,201 118,362 282,427 142,56 315,83 493,86 -4,-138 65,-342 135,-449zm-81 -216c-4,-28 -6,-57 -6,-86 -156,-2 -284,-21 -441,-83 -90,-35 -159,-78 -206,-125 -57,-56 -95,-128 -72,-210 25,-90 114,-156 191,-198 17,-8 31,-13 48,-13l0 0c20,-1 37,7 53,22 80,76 266,100 462,85 207,-17 422,-79 539,-173 11,-9 26,-13 41,-10 153,32 246,171 213,323 41,-14 80,-24 114,-33 6,-1 39,-7 56,26 75,147 89,296 97,459 131,51 257,167 335,282 11,15 14,36 4,53 -88,164 -235,247 -408,298 -6,150 -76,285 -104,339 -13,25 -25,48 -59,44 -235,-27 -360,-157 -425,-233 -111,30 -274,30 -385,-4 -16,1 -31,1 -47,1 -208,3 -415,-26 -584,-93 -225,-89 -467,-303 -334,-564 44,-87 127,-167 215,-211 58,-29 113,-37 150,-19 148,76 349,120 553,123zm-4 -186l0 -2c0,-5 1,-9 1,-13 0,0 -2,-35 31,-42 77,-31 165,-45 248,-48 83,-3 161,6 218,18 40,-61 118,-110 202,-148 62,-101 35,-227 -86,-267 -135,98 -359,162 -573,179 -214,17 -422,-13 -528,-102 -49,27 -122,76 -138,133 -12,44 17,84 46,113 38,38 95,73 173,103 136,54 264,74 406,76zm501 876c51,60 150,173 337,206 29,-57 84,-172 87,-291 -118,-87 -133,-85 -253,-222 -23,7 -77,14 -102,2 -48,88 -72,206 -69,305zm104 -399c3,0 5,1 9,1 51,0 117,-46 49,-83 -29,-16 -62,-16 -92,-3 -8,4 -16,9 -21,14 -41,41 18,69 55,71zm380 234c139,-40 264,-100 344,-227 -65,-86 -162,-175 -262,-217 -70,108 -155,156 -279,186 -4,23 -15,44 -30,63 79,107 157,155 227,195zm10 -518c-7,-133 -16,-277 -70,-401 -96,27 -275,86 -338,168 85,84 115,223 106,339 25,11 59,33 72,57 110,-27 171,-64 230,-163zm-493 -175c-46,-15 -128,-26 -219,-23 -62,2 -126,11 -185,30 -5,106 4,231 68,320 112,-28 218,-42 333,-26 28,-20 62,-32 95,-34 5,-81 -19,-221 -92,-267zm-1194 417c-18,-21 -15,-53 6,-70 21,-18 52,-15 70,6 41,49 104,83 174,106 96,33 203,44 286,44 28,0 50,22 50,50 0,27 -22,49 -50,49 -92,1 -211,-12 -318,-48 -85,-29 -164,-73 -218,-137zm322 -1340c-32,37 -48,80 -48,121 1,181 244,184 374,178 144,-7 306,-36 427,-82 189,-72 228,-141 31,-228 -79,-35 -181,-63 -286,-79 -150,-23 -387,-38 -498,90zm-76 -65c139,-160 399,-153 589,-124 113,17 224,48 312,87 280,124 240,308 -37,412 -131,49 -304,81 -458,88 -197,9 -476,-19 -477,-276 -1,-65 24,-131 71,-187z"/>
 </g>
</svg>
