<?xml version="1.0" encoding="UTF-8"?>
<!DOCTYPE svg PUBLIC "-//W3C//DTD SVG 1.1//EN" "http://www.w3.org/Graphics/SVG/1.1/DTD/svg11.dtd">
<!-- Creator: CorelDRAW X6 -->
<svg xmlns="http://www.w3.org/2000/svg" xml:space="preserve" width="25mm" height="25mm" version="1.1" style="shape-rendering:geometricPrecision; text-rendering:geometricPrecision; image-rendering:optimizeQuality; fill-rule:evenodd; clip-rule:evenodd"
viewBox="0 0 2500 2500"
 xmlns:xlink="http://www.w3.org/1999/xlink">
 <defs>
  <style type="text/css">
   <![CDATA[
    .fil0 {fill:white}
    .fil1 {fill:var(--icon-color);fill-rule:nonzero}
   ]]>
  </style>
 </defs>
 <g id="Слой_x0020_1">
  <metadata id="CorelCorpID_0Corel-Layer"/>
  <rect class="fil0" width="2500" height="2500" rx="390" ry="390"/>
  <path class="fil1" d="M1078 1410l-33 838 462 0 161 0 -37 -837 -122 0 61 323 0 0 0 1c5,27 -13,53 -40,58l-131 23c-1,0 -3,1 -4,1 -27,5 -53,-14 -58,-41l-5 -27c-6,1 -13,2 -20,0l-135 -24c-27,-5 -45,-31 -40,-58 1,-2 1,-4 2,-6l0 0 81 -251 -142 0zm261 -283l44 0c39,0 74,16 99,41l0 0 0 0 1 0c2,2 4,5 5,7l133 0 -12 -264c-1,-27 20,-51 48,-52 17,-1 33,8 43,21l0 0 184 259 230 -192 -499 -626c-1,-1 -1,-2 -2,-2 -19,-26 -40,-43 -64,-53 -18,-8 -37,-13 -58,-14l-387 509 -16 413 146 0c2,-2 4,-4 6,-6 1,-1 2,-2 3,-3 25,-24 59,-38 96,-38zm184 147l0 37 104 0 -2 -37 -102 0zm-109 174c-10,2 -20,4 -31,4l-2 0 46 258 36 -7 -49 -255zm-215 -137l0 -37 -324 0 -2 36 326 1zm184 -84l-44 0c-10,0 -20,4 -27,10l-1 2c-8,7 -12,17 -12,28l0 45c0,11 4,21 12,28l-1 0 1 0c7,7 17,12 28,12l44 0c12,0 22,-5 29,-12l0 0c7,-7 11,-17 11,-28l0 -45c0,-11 -4,-21 -11,-28l0 0c-7,-8 -17,-12 -29,-12zm-68 422l-24 -134 -40 122 64 12zm-446 -239l-37 838 113 0 34 -838 -110 0zm119 -236l17 -432 0 0c1,-10 4,-20 10,-28l169 -223 -175 -239c-21,1 -41,6 -58,14 -24,10 -45,27 -64,53 -1,0 -1,1 -2,2l-500 627 231 192 184 -260 0 0c10,-13 26,-22 43,-21 28,1 49,25 48,52l-12 263 109 0zm954 47l53 74 239 -197 -57 -73 -235 196zm-106 24l0 -1c-2,-2 -3,-4 -4,-6l-116 -163 54 1217c0,2 0,4 0,6 0,28 -22,50 -50,50l-213 0 -514 0 -213 0c-28,0 -50,-22 -50,-50 0,-2 0,-4 0,-6l54 -1217 -229 322c-16,22 -47,27 -69,11 -2,-1 -3,-2 -5,-3l-317 -262c-21,-17 -24,-48 -7,-69l0 0 650 -815c30,-40 64,-67 103,-84 39,-18 81,-24 125,-23 16,1 30,8 39,20l0 0 173 236 178 -234c9,-13 23,-21 40,-22 44,-1 86,5 125,23 39,17 73,44 103,84l650 815 0 0c17,21 14,52 -7,69l-317 262c-2,1 -3,2 -5,3 -22,16 -53,11 -69,-11l-109 -152zm-1513 -220l-57 73 239 197 53 -74 -235 -196z"/>
 </g>
</svg>
