<?xml version="1.0" encoding="UTF-8"?>
<!DOCTYPE svg PUBLIC "-//W3C//DTD SVG 1.1//EN" "http://www.w3.org/Graphics/SVG/1.1/DTD/svg11.dtd">
<!-- Creator: CorelDRAW X6 -->
<svg xmlns="http://www.w3.org/2000/svg" xml:space="preserve" width="25mm" height="25mm" version="1.1" style="shape-rendering:geometricPrecision; text-rendering:geometricPrecision; image-rendering:optimizeQuality; fill-rule:evenodd; clip-rule:evenodd"
viewBox="0 0 2500 2500"
 xmlns:xlink="http://www.w3.org/1999/xlink">
 <defs>
  <style type="text/css">
   <![CDATA[
    .fil0 {fill:white}
    .fil1 {fill:var(--icon-color);fill-rule:nonzero}
   ]]>
  </style>
 </defs>
 <g id="Слой_x0020_1">
  <metadata id="CorelCorpID_0Corel-Layer"/>
  <rect class="fil0" width="2500" height="2500" rx="390" ry="390"/>
  <path class="fil1" d="M1957 299c25,10 38,38 29,64 -10,26 -39,39 -65,29 -159,-61 -319,-69 -455,-21 -127,44 -234,138 -302,282 -11,25 -41,36 -66,25 -25,-12 -35,-42 -24,-67 80,-170 208,-281 359,-334 159,-56 342,-47 524,22zm137 431c36,131 54,262 54,393 0,93 -9,186 -27,279l183 -113c25,-101 41,-218 41,-337 0,-159 -29,-322 -102,-457 -72,-131 -188,-235 -363,-283 -67,-18 -143,-27 -229,-27l0 0c-76,0 -143,8 -204,23 -185,45 -305,156 -378,294 -76,142 -104,314 -104,476 0,113 14,221 34,311l172 109c-19,-93 -28,-186 -27,-278 1,-133 21,-265 58,-395 6,-22 26,-36 48,-36l0 0 421 0c25,-34 53,-65 84,-92 37,-32 77,-60 120,-83 24,-14 54,-5 67,19 6,12 8,24 5,36l0 0c-6,25 -8,51 -5,75 1,15 6,30 13,45l90 0c25,0 45,18 49,41zm-640 197c3,6 5,12 5,19 0,26 -21,46 -46,46 -25,0 -46,-20 -46,-46 0,-5 1,-11 3,-16 -12,8 -22,19 -30,33 -14,24 -44,33 -68,19 -8,-4 -14,-10 -18,-16 -6,51 -10,103 -10,154 -1,62 3,123 12,185 1,1 2,2 3,3 28,29 57,55 85,78 112,91 222,135 326,132 103,-2 204,-50 298,-142 21,-21 42,-44 62,-69 2,-2 4,-4 6,-6 8,-59 12,-118 12,-178 0,-46 -2,-93 -7,-140 -3,1 -5,3 -7,4 -26,10 -55,-2 -66,-27 -6,-15 -16,-26 -29,-33l0 0c2,6 4,12 4,19 0,26 -21,46 -46,46 -25,0 -46,-20 -46,-46 0,-5 2,-11 3,-16 -12,8 -22,18 -30,33 -14,24 -44,33 -68,19 -24,-13 -33,-44 -20,-68 23,-40 56,-67 92,-82 26,-11 54,-16 81,-14 28,1 55,9 79,22 13,8 25,16 35,27 -4,-26 -10,-52 -17,-78l-79 0 0 0c-16,0 -32,-8 -41,-22 -26,-36 -39,-73 -44,-111l0 -2c-7,6 -14,12 -21,18 -30,26 -57,56 -81,91 -9,15 -25,26 -44,26l-408 0c-9,35 -17,70 -23,106 21,-30 49,-51 79,-63 26,-11 54,-16 82,-14 27,1 54,9 78,22 31,18 57,45 73,81 10,26 -2,55 -27,66 -26,10 -55,-2 -66,-27 -6,-15 -16,-26 -29,-33l-1 0zm547 554c-103,88 -213,134 -329,137 -125,3 -253,-46 -381,-147 2,8 5,15 7,23l0 0c4,13 2,28 -6,41 -15,23 -46,30 -69,15l-292 -186c-11,-7 -21,-18 -24,-32 -25,-101 -42,-225 -42,-354 0,-176 32,-365 116,-523 86,-162 226,-291 442,-344 69,-17 145,-26 228,-26l0 0c95,0 179,11 254,31 205,55 341,178 425,331 83,151 115,331 115,505 0,136 -19,268 -50,382l0 -1c-3,12 -11,23 -22,30l-300 186c-12,8 -27,11 -41,7 -27,-7 -42,-35 -35,-61l4 -14zm-462 -201c0,-24 29,-38 58,-30 39,10 78,10 118,0 33,-10 58,8 56,32 -3,46 -51,97 -115,97 -66,0 -117,-52 -117,-99z"/>
  <path class="fil1" d="M1125 2168c-32,27 -71,51 -114,71 -45,19 -95,36 -148,49 -27,21 -55,34 -85,39 -27,4 -53,2 -79,-5 -40,29 -79,41 -116,40 -34,0 -66,-11 -94,-31l-2 1c-49,24 -91,32 -128,25 -39,-8 -69,-31 -91,-67 -14,-5 -27,-9 -39,-15 -36,-15 -65,-35 -83,-59 -18,-23 -27,-50 -23,-78 -120,-65 -112,-146 -85,-208 9,-19 19,-35 27,-47 5,-6 8,-12 9,-13 1,-2 -3,-8 -7,-16 -11,-22 -23,-47 -13,-85l0 0c8,-32 25,-50 41,-65 7,-7 13,-13 15,-18 0,-1 -2,-7 -3,-14 -7,-23 -14,-51 4,-89 18,-37 43,-49 66,-60 6,-2 12,-5 12,-6 3,-4 4,-13 4,-22 2,-23 4,-46 24,-73l2 -2c22,-32 47,-39 70,-47 10,-2 19,-5 25,-11 1,-2 5,-9 9,-18 25,-54 66,-141 227,-100 26,-18 58,-25 91,-23 36,2 73,15 113,36 35,-5 66,5 95,27 24,20 46,51 64,92 37,14 70,33 93,60 21,25 34,55 38,91 23,14 45,31 61,53 20,27 31,60 28,101 31,59 55,118 69,171 14,55 16,107 5,149 0,3 -1,5 -2,7l0 0 -68 146c-3,6 -7,10 -12,14zm107 -183c9,-19 32,-27 51,-18 20,9 28,32 19,51l-95 204c-9,19 -33,28 -52,18 -19,-9 -27,-32 -18,-51l95 -204zm334 356c17,11 22,36 10,53 -12,18 -35,22 -54,11l-186 -126c-18,-11 -23,-35 -11,-54 8,-11 21,-17 34,-17 -11,-11 -14,-28 -7,-43 7,-15 22,-23 37,-22 -8,-9 -12,-23 -8,-36 6,-20 28,-33 48,-26l216 63c20,6 32,27 26,48 -6,20 -28,32 -48,26l-183 -53 166 78c20,9 28,32 19,51 -9,19 -32,28 -52,18l-165 -77 158 106zm-250 -317c9,-18 32,-27 51,-18 19,9 28,32 19,51l-96 204c-9,19 -32,28 -52,19 -18,-9 -27,-32 -18,-52l96 -204zm-822 -655c20,7 38,16 53,27 45,33 69,76 80,119 10,42 6,84 -4,112 -3,10 -8,19 -13,26 -7,11 -20,17 -33,16l0 0c-24,-1 -50,-11 -75,-28 -24,-17 -46,-41 -62,-68 -17,-29 -26,-63 -25,-98 1,-31 11,-62 32,-93 11,-15 31,-20 47,-13zm9 90c-3,-1 -4,-3 -7,-4 -3,8 -4,15 -4,23 -1,20 5,39 15,56 11,18 24,33 40,44 2,2 5,4 8,5 2,-14 1,-32 -3,-50 -7,-27 -21,-55 -49,-74zm-233 538c12,7 25,13 37,17 56,20 110,13 155,-5 42,-16 76,-43 94,-68 -11,-8 -26,-15 -42,-21 -30,-11 -66,-16 -102,-12 -34,3 -69,14 -98,36 -16,14 -32,31 -44,53zm11 89c-27,-9 -54,-23 -81,-43 -14,-10 -21,-28 -15,-44 19,-51 48,-89 82,-116 42,-32 90,-47 138,-52 47,-5 95,2 135,17 40,14 74,36 95,63l0 0c8,10 10,24 6,37 -5,11 -11,22 -19,35 -25,35 -72,75 -132,98 -60,24 -133,32 -209,5zm559 -461c32,9 60,21 85,36 69,42 108,104 128,165 19,61 19,123 7,165 -3,14 -8,26 -15,36 -7,12 -19,19 -33,18 -34,1 -72,-10 -108,-32 -37,-22 -72,-55 -98,-94 -27,-41 -45,-88 -47,-140 -1,-43 10,-90 38,-137 8,-15 27,-21 43,-17l0 0zm45 102c-11,-7 -23,-13 -36,-18 -9,24 -14,46 -13,68 1,36 15,70 34,99 20,30 46,54 74,70 15,10 29,16 43,20 7,-30 6,-73 -8,-117 -14,-46 -43,-91 -94,-122zm94 441c36,-16 67,-34 91,-55l64 -135c6,-29 3,-65 -7,-107 -13,-50 -36,-107 -67,-163 -4,-7 -5,-15 -4,-23 3,-26 -3,-45 -13,-59 -12,-16 -31,-29 -52,-40 -15,-6 -25,-20 -24,-37 1,-26 -6,-47 -20,-63 -16,-19 -42,-32 -73,-42 -12,-3 -22,-11 -27,-23 -13,-37 -29,-63 -46,-77 -13,-10 -28,-13 -44,-9l0 0c-10,2 -20,2 -29,-4 -34,-19 -65,-32 -91,-33 -20,-1 -38,3 -52,16 -10,10 -24,13 -38,9 -113,-33 -139,20 -154,54 -8,15 -14,28 -23,38 -20,20 -38,26 -58,32 -11,3 -22,7 -30,17 -1,2 -2,2 -3,3 -7,10 -8,23 -9,35 -2,19 -3,38 -16,58 -13,18 -28,25 -45,34 -11,4 -22,10 -28,22 -6,13 -3,25 0,37 4,18 9,34 3,55 -7,23 -20,36 -34,51 -9,8 -18,17 -21,29l0 0 -1 1c-2,10 3,21 8,31 12,25 24,48 7,82 -3,7 -8,15 -13,23 -6,10 -15,23 -21,37 -15,34 -17,79 74,120l0 0c20,9 29,31 21,51 -1,2 -2,4 -3,7 -3,11 -1,20 6,29 10,13 28,25 52,36 13,5 28,11 45,15l0 0c10,3 19,10 24,20 1,2 2,5 5,8l0 0 0 0c10,19 24,30 41,33 20,4 46,-2 78,-18 6,-3 12,-6 18,-9 14,-10 33,-10 47,2 21,18 44,29 67,30 24,0 52,-11 83,-37l0 0c10,-9 25,-12 39,-6 21,8 40,11 59,8 19,-3 37,-12 55,-27 5,-5 11,-7 16,-9 52,-12 101,-28 143,-47z"/>
 </g>
</svg>
