<?xml version="1.0" encoding="UTF-8"?>
<!DOCTYPE svg PUBLIC "-//W3C//DTD SVG 1.1//EN" "http://www.w3.org/Graphics/SVG/1.1/DTD/svg11.dtd">
<!-- Creator: CorelDRAW X6 -->
<svg xmlns="http://www.w3.org/2000/svg" xml:space="preserve" width="25mm" height="25mm" version="1.1" style="shape-rendering:geometricPrecision; text-rendering:geometricPrecision; image-rendering:optimizeQuality; fill-rule:evenodd; clip-rule:evenodd"
viewBox="0 0 2500 2500"
 xmlns:xlink="http://www.w3.org/1999/xlink">
 <defs>
  <style type="text/css">
   <![CDATA[
    .fil0 {fill:white}
    .fil1 {fill:#60BA3E;fill-rule:nonzero}
   ]]>
  </style>
 </defs>
 <g id="Слой_x0020_1">
  <metadata id="CorelCorpID_0Corel-Layer"/>
  <rect class="fil0" width="2500" height="2500" rx="390" ry="390"/>
  <path class="fil1" d="M948 216c-14,-23 -6,-54 18,-68 24,-14 54,-5 68,18 53,93 28,175 3,259 -21,67 -42,136 -3,203 14,24 6,55 -18,68 -24,14 -55,6 -68,-18 -61,-105 -33,-194 -7,-282 20,-63 38,-124 7,-180zm343 1368c-111,22 -95,105 -69,238 7,38 15,81 22,127 16,112 166,107 371,100 60,-2 124,-4 191,-4l0 0 21 1c99,0 166,1 190,-63 24,-65 29,-191 4,-305 -19,-82 -54,-155 -109,-189 -80,-49 -263,1 -433,48 -66,18 -130,35 -188,47zm-167 256c-37,-191 -61,-312 147,-354 55,-11 117,-28 181,-45 191,-53 395,-108 512,-37 81,49 130,147 154,253 30,132 22,281 -7,360 -48,130 -145,129 -285,128l-20 0c-65,-1 -129,2 -188,4 -256,8 -444,15 -473,-186 -6,-44 -14,-85 -21,-123zm-626 114c11,106 101,102 227,95 40,-2 83,-4 129,-4l0 0 15 1c48,0 93,1 108,-53 61,-359 -65,-427 -197,-450 -26,-4 -53,-7 -79,-10 -42,-5 -82,-9 -117,-19 -4,-1 -7,-1 -9,-1 -8,1 -17,8 -25,20 -14,18 -26,46 -35,81 -23,85 -30,205 -17,340zm232 195c-181,9 -311,16 -331,-186 -15,-146 -7,-280 19,-375 13,-47 30,-85 51,-114 26,-35 58,-56 96,-60 15,-2 30,0 44,4 29,7 65,11 103,16 27,3 55,6 84,11 182,31 355,118 279,567l0 0c0,2 -1,3 -1,5 -35,131 -117,130 -207,128l-14 0c-42,0 -84,2 -123,4zm596 -1264c-11,-1 -22,-2 -33,-2 -109,-1 -230,40 -327,105 -93,62 -161,146 -170,234 0,4 0,8 -1,11 5,26 17,41 32,50 20,12 49,17 83,18 75,4 179,9 278,10 98,0 193,-4 255,-17 49,-10 89,-27 111,-55 20,-25 25,-64 7,-122 -19,-67 -42,-123 -77,-163 -34,-37 -83,-62 -158,-69zm-32 -102c14,1 28,1 41,3 104,10 173,46 223,101 48,54 76,122 99,201 28,93 15,162 -25,212 -38,49 -98,77 -169,92 -68,15 -171,19 -276,18 -103,0 -207,-5 -282,-9 -48,-2 -92,-10 -129,-32 -41,-24 -69,-62 -80,-123l0 0c0,-3 0,-6 0,-8 0,-9 0,-17 1,-25 12,-120 98,-230 214,-308 112,-76 254,-123 383,-122zm-1097 572c0,-27 22,-49 50,-49 27,0 49,22 49,49l0 886 1908 0 0 -886c0,-27 23,-50 50,-50 28,0 50,23 50,50l0 936c0,28 -22,50 -50,50l-2008 0 0 0c-28,0 -50,-22 -50,-50l1 -936zm1012 -1139c-14,-24 -5,-54 19,-68 23,-13 54,-5 67,19 54,92 29,174 3,258 -20,67 -41,136 -3,203 14,24 6,55 -18,68 -24,14 -54,6 -68,-18 -60,-105 -33,-194 -6,-282 19,-63 38,-125 6,-180zm262 0c-14,-23 -6,-54 18,-68 24,-14 54,-5 68,18 54,93 29,175 3,259 -21,67 -42,136 -3,203 14,24 6,55 -18,68 -24,14 -54,6 -68,-18 -61,-105 -33,-194 -6,-282 19,-63 38,-124 6,-180z"/>
 </g>
</svg>
