<?xml version="1.0" encoding="UTF-8"?>
<!DOCTYPE svg PUBLIC "-//W3C//DTD SVG 1.1//EN" "http://www.w3.org/Graphics/SVG/1.1/DTD/svg11.dtd">
<!-- Creator: CorelDRAW X6 -->
<svg xmlns="http://www.w3.org/2000/svg" xml:space="preserve" width="25.2mm" height="25.2mm" version="1.1" style="shape-rendering:geometricPrecision; text-rendering:geometricPrecision; image-rendering:optimizeQuality; fill-rule:evenodd; clip-rule:evenodd"
viewBox="0 0 2520 2520"
 xmlns:xlink="http://www.w3.org/1999/xlink">
 <defs>
  <style type="text/css">
   <![CDATA[
    .fil0 {fill:white}
    .fil1 {fill:var(--icon-color);fill-rule:nonzero}
   ]]>
  </style>
 </defs>
 <g id="Слой_x0020_1">
  <metadata id="CorelCorpID_0Corel-Layer"/>
  <g id="_807327048">
   <rect class="fil0" x="10" y="10" width="2500" height="2500" rx="390" ry="390"/>
   <path class="fil1" d="M1592 659c27,0 49,22 49,50 0,27 -22,49 -49,49l-639 0c-28,0 -50,-22 -50,-49 0,-28 22,-50 50,-50l639 0zm-320 236l312 1c10,0 19,3 26,8l1 0c230,146 372,357 449,569 52,146 73,292 70,420 -3,132 -32,246 -80,321 -30,46 -67,79 -111,95 -82,29 -184,52 -296,68 -116,16 -243,25 -370,26l-1 0 0 0c-127,-1 -255,-10 -371,-26 -111,-16 -214,-39 -296,-68 -43,-16 -81,-49 -110,-95 -48,-75 -77,-189 -80,-321 -3,-128 18,-274 70,-419 76,-213 219,-424 449,-570 9,-6 20,-9 31,-8l307 -1zm297 101l-297 -1 -296 1c-203,133 -329,321 -397,511 -48,133 -67,267 -65,384 3,113 27,209 65,269 18,28 38,47 60,55 75,27 170,48 276,63 113,16 236,24 357,26 122,-2 245,-10 357,-26 106,-15 202,-36 277,-63 21,-8 42,-27 60,-55 38,-60 61,-156 64,-269 3,-117 -16,-251 -64,-384 -68,-190 -195,-378 -397,-511zm-514 -462l423 0 139 -260c-177,-102 -262,-78 -372,-48 -79,22 -170,48 -305,44l115 264zm453 100l-486 0 0 0c-19,0 -37,-12 -45,-30l-161 -368c-4,-8 -5,-17 -4,-27 2,-27 27,-47 54,-44 165,17 266,-11 352,-35 143,-39 250,-69 492,84l0 0c22,14 30,42 17,66l-173 323c-8,18 -25,31 -46,31zm202 585c-44,321 -144,563 -300,723 -160,163 -376,241 -650,229l-1 0 0 0 -1 0 0 0 0 0 -1 0 -1 -1 0 0 -1 0 0 0 -2 0 0 0 -1 0 0 0 -1 0 0 0 -1 0 0 -1 -1 0 0 0 -1 0 -1 0 -1 -1 0 0 -1 0 0 0 -1 0 0 0c-2,-1 -5,-2 -7,-3l0 -1 -1 0 -1 -1 0 0 -1 -1 -1 0 0 0 0 0 -1 -1 0 0 -1 -1 0 0 -1 0 0 0 -1 -1 0 0 -1 -1c-3,-3 -6,-6 -9,-10l0 0 0 -1 -1 -1 0 0 0 -1 -1 0 0 -1 0 -1 -1 0 0 -1 0 0 0 -1 -1 0 0 -1 0 0 0 -1 0 0 -1 -1 0 0 0 -1 0 0 0 -1 0 0 -1 -1 0 0 0 -2 0 -1 0 0 -1 -1 0 0 0 -1 0 0 0 -1 0 0 0 -1 0 0c-46,-307 15,-541 178,-704 159,-160 415,-248 765,-265 19,-3 38,6 49,23 7,11 9,24 6,37zm-372 653c3,-2 6,-5 8,-8 -49,2 -99,6 -149,11 -82,10 -165,23 -247,42 -36,50 -70,101 -103,155 205,-7 368,-74 491,-200zm88 -110c44,-67 81,-145 112,-233 -35,3 -71,8 -106,13 -59,9 -117,20 -176,34l0 0 -2 1c-23,21 -46,42 -68,64 -49,50 -97,101 -142,155 48,-8 95,-15 142,-20 80,-9 160,-13 240,-14zm142 -336c10,-37 19,-76 26,-116 -64,43 -126,88 -185,134l8 -1c50,-8 100,-13 151,-17zm-102 -149c-79,12 -151,28 -216,49 4,26 10,52 15,76 2,9 4,17 6,26 62,-53 128,-103 195,-151zm-311 86c-77,35 -142,79 -195,131 -14,15 -28,30 -40,46 6,50 14,100 24,151 4,18 8,37 12,56 50,-62 104,-120 160,-176 23,-24 47,-46 71,-68 -7,-26 -13,-53 -19,-79 -5,-21 -9,-41 -13,-61zm-314 318c-32,82 -46,176 -44,283 26,-40 53,-79 81,-116 -13,-47 -23,-93 -32,-138 -2,-10 -4,-20 -5,-29zm1125 -1246c1,-28 25,-49 52,-47 28,1 49,25 47,52 -4,80 -21,154 -71,220 -35,46 -85,88 -158,123 41,13 83,13 121,4 46,-12 88,-39 119,-78 12,-15 23,-33 31,-52 10,-24 17,-50 21,-80 3,-28 3,-58 -2,-91 -4,-27 15,-52 43,-56 27,-4 52,15 56,42 6,42 6,81 2,117 -4,39 -14,75 -29,108 -11,27 -26,51 -43,73 -45,58 -106,97 -174,114 -67,16 -141,11 -211,-19 -27,-12 -53,-27 -79,-47 -9,-6 -16,-15 -20,-26 -8,-26 6,-54 32,-63 109,-36 174,-79 211,-129 36,-47 48,-103 52,-165zm-374 341c27,0 49,23 49,50 0,28 -22,50 -49,50l-639 0c-28,0 -50,-22 -50,-50 0,-27 22,-50 50,-50l639 0z"/>
  </g>
 </g>
</svg>
