<?xml version="1.0" encoding="UTF-8"?>
<!DOCTYPE svg PUBLIC "-//W3C//DTD SVG 1.1//EN" "http://www.w3.org/Graphics/SVG/1.1/DTD/svg11.dtd">
<!-- Creator: CorelDRAW X6 -->
<svg xmlns="http://www.w3.org/2000/svg" xml:space="preserve" width="25mm" height="25mm" version="1.1" style="shape-rendering:geometricPrecision; text-rendering:geometricPrecision; image-rendering:optimizeQuality; fill-rule:evenodd; clip-rule:evenodd"
viewBox="0 0 2500 2500"
 xmlns:xlink="http://www.w3.org/1999/xlink">
 <defs>
  <style type="text/css">
   <![CDATA[
    .fil0 {fill:white}
    .fil1 {fill:var(--icon-color);fill-rule:nonzero}
   ]]>
  </style>
 </defs>
 <g id="Слой_x0020_1">
  <metadata id="CorelCorpID_0Corel-Layer"/>
  <rect class="fil0" width="2500" height="2500" rx="390" ry="390"/>
  <path class="fil1" d="M1380 792c53,24 105,59 156,102 51,45 101,98 149,156 42,22 75,50 99,85 21,30 34,64 40,102 60,33 98,75 119,121 20,43 24,90 16,137l3 2c59,47 93,96 106,146 13,53 2,105 -30,154 2,20 4,39 4,57 2,55 -6,103 -25,140 -19,36 -47,62 -85,74 -11,190 -117,227 -211,229 -29,0 -55,-3 -75,-6 -10,-2 -19,-3 -22,-3 -2,0 -8,9 -16,18 -21,27 -45,57 -98,66l0 0c-46,9 -78,-2 -107,-13 -12,-5 -23,-9 -30,-8 -2,0 -8,6 -16,12 -26,22 -56,47 -114,47 -58,0 -87,-25 -114,-47 -7,-6 -14,-12 -16,-12 -6,-1 -18,3 -30,8 -29,11 -60,22 -106,13l-3 -1c-53,-9 -76,-36 -100,-61 -9,-11 -18,-21 -29,-24 -3,-1 -14,-1 -27,-1 -84,0 -216,0 -260,-226 -38,-23 -65,-58 -82,-101 -19,-46 -25,-101 -21,-163 -27,-41 -34,-86 -23,-135 11,-43 37,-88 78,-135 -5,-55 0,-107 21,-152 19,-41 49,-75 92,-101 4,-38 12,-75 30,-108 23,-41 57,-74 111,-95 55,-74 115,-139 174,-187 61,-50 124,-84 184,-95 4,-1 7,-1 10,-1l0 0 223 0c9,0 17,2 25,6zm-293 -27c-29,0 -53,-24 -53,-53 0,-30 24,-54 53,-54l312 0c30,0 54,24 54,54 0,29 -24,53 -54,53l-312 0zm250 -628c4,-29 32,-49 61,-44 29,4 49,31 45,61l-48 308c-4,29 -31,49 -61,45 -19,-3 -34,-16 -41,-32 -8,20 -27,34 -50,34 -23,0 -42,-14 -50,-34 -7,16 -22,29 -41,32 -29,4 -57,-16 -61,-45l-48 -308c-4,-30 16,-57 45,-61 29,-5 57,15 61,44l41 261 0 -254c0,-30 24,-54 53,-54 30,0 54,24 54,54l0 254 40 -261zm-250 500c-29,0 -53,-24 -53,-53 0,-30 24,-54 53,-54l312 0c30,0 54,24 54,54 0,29 -24,53 -54,53l-312 0zm-339 1418c-3,-29 -2,-57 3,-83 14,-75 55,-131 102,-169 47,-38 102,-58 143,-62 15,-2 28,-1 40,1 19,3 33,16 40,32l0 0c13,31 16,70 9,111 -7,40 -24,82 -49,118 -27,38 -63,70 -108,89 -40,17 -85,23 -136,14 -25,-4 -43,-26 -44,-51zm108 -64c0,4 -1,7 -1,11 11,-1 21,-4 31,-8 26,-11 46,-30 62,-52 16,-24 27,-50 32,-76 0,-4 1,-9 1,-13 -19,6 -41,17 -61,33 -30,24 -56,59 -64,105zm813 -25c1,-19 1,-38 -1,-55 -8,-82 -48,-146 -97,-192 -46,-44 -99,-70 -141,-79 -3,19 -4,42 -2,66 4,44 19,92 45,135 24,41 59,78 103,101 27,13 58,22 93,24zm105 -66c4,40 3,82 -6,128 -4,23 -23,42 -47,44 -75,7 -140,-7 -194,-35 -64,-33 -112,-84 -147,-142 -33,-57 -53,-120 -58,-179 -6,-59 2,-115 24,-157l0 0c8,-16 24,-27 42,-29 17,-1 35,0 55,3 59,11 137,47 202,108 65,61 118,148 129,259zm-908 -430c-8,-45 -9,-88 -5,-128 12,-111 66,-197 132,-258 65,-60 143,-96 202,-106 20,-4 38,-5 55,-3 19,2 35,14 42,31 21,42 29,97 23,155 -6,59 -26,123 -60,179 -35,58 -84,108 -148,141 -54,27 -119,41 -194,33 -24,-2 -43,-21 -47,-44l0 0zm101 -116c-2,17 -2,36 -1,55 35,-2 66,-10 93,-24 44,-22 79,-59 104,-100 26,-43 41,-90 45,-135 3,-24 2,-46 -1,-65 -42,8 -95,35 -142,78 -49,45 -89,108 -98,191zm499 -378c-41,-36 -82,-64 -123,-83l-207 0c-40,9 -84,34 -130,72 -56,46 -113,108 -166,180 -6,9 -15,15 -26,19 -34,11 -55,29 -67,51 -13,24 -18,55 -19,88 1,22 -11,43 -32,52 -34,15 -56,36 -68,63 -14,31 -16,71 -9,116 3,16 -2,34 -14,47 -38,39 -61,74 -69,104 -5,22 0,42 15,60l-1 0c9,11 14,24 13,39 -5,54 -2,100 12,134 10,26 26,45 50,56 18,6 31,22 34,42 25,162 107,162 159,162 23,0 43,0 61,6 37,13 55,33 74,54 11,12 22,24 40,28 2,0 3,1 5,1 16,3 33,-3 49,-9 25,-9 49,-18 82,-13 31,5 49,20 69,36 12,11 26,22 45,22 19,0 33,-11 46,-22 20,-16 38,-31 68,-36 33,-5 57,4 83,13 15,6 32,12 49,9l0 0 2 0c13,-3 24,-16 34,-28 24,-30 46,-58 99,-57 11,0 23,1 36,3 17,2 39,5 60,5 51,-1 108,-26 107,-164l0 0c-1,-30 22,-55 51,-56 4,0 7,0 11,-1 15,-2 26,-11 33,-24 10,-20 15,-50 14,-87 -1,-20 -3,-42 -7,-66l0 0c-2,-14 1,-29 11,-42 1,-2 4,-5 7,-10l0 0 0 0c17,-24 23,-48 17,-71 -7,-28 -29,-57 -68,-88 -7,-5 -15,-11 -23,-17 -20,-12 -31,-36 -25,-60 10,-37 11,-72 -2,-102 -14,-30 -44,-58 -95,-82l0 0c-17,-8 -29,-25 -30,-46 -2,-31 -10,-57 -25,-78 -15,-22 -37,-40 -67,-54 -8,-3 -15,-9 -20,-15 -46,-58 -94,-110 -143,-151z"/>
 </g>
</svg>
