<?xml version="1.0" encoding="UTF-8"?>
<!DOCTYPE svg PUBLIC "-//W3C//DTD SVG 1.1//EN" "http://www.w3.org/Graphics/SVG/1.1/DTD/svg11.dtd">
<!-- Creator: CorelDRAW X6 -->
<svg xmlns="http://www.w3.org/2000/svg" xml:space="preserve" width="25.2mm" height="25.2mm" version="1.1" style="shape-rendering:geometricPrecision; text-rendering:geometricPrecision; image-rendering:optimizeQuality; fill-rule:evenodd; clip-rule:evenodd"
viewBox="0 0 2520 2520"
 xmlns:xlink="http://www.w3.org/1999/xlink">
 <defs>
  <style type="text/css">
   <![CDATA[
    .fil0 {fill:white}
    .fil1 {fill:var(--icon-color);fill-rule:nonzero}
   ]]>
  </style>
 </defs>
 <g id="Слой_x0020_1">
  <metadata id="CorelCorpID_0Corel-Layer"/>
  <g id="_807341904">
   <rect class="fil0" x="10" y="10" width="2500" height="2500" rx="390" ry="390"/>
   <path class="fil1" d="M1872 851l-521 0c-22,0 -41,18 -41,41l0 66 603 0 0 -66c0,-23 -18,-41 -41,-41zm-678 -675c11,-25 40,-37 66,-27 25,11 37,40 27,66 -18,42 -3,79 11,111 28,67 52,123 -39,193 -22,16 -54,12 -70,-10 -17,-22 -13,-53 9,-70 30,-23 20,-46 8,-74 -21,-50 -45,-107 -12,-189zm247 0c11,-25 40,-37 65,-27 26,11 38,40 27,66 -17,42 -2,79 12,111 28,67 52,123 -40,193 -21,16 -53,12 -69,-10 -17,-22 -13,-53 9,-70 30,-23 20,-46 8,-74 -21,-50 -46,-107 -12,-189zm-472 0c10,-25 40,-37 65,-27 26,11 38,40 27,66 -18,42 -2,79 11,111 29,67 53,123 -39,193 -22,16 -53,12 -70,-10 -17,-22 -12,-53 9,-70 30,-23 21,-46 9,-74 -22,-50 -46,-107 -12,-189zm883 2098l0 -606c0,-143 -116,-259 -259,-259l-666 0c-143,0 -259,116 -259,259l0 606 285 0c-118,-119 -67,-303 -4,-436 92,-197 261,-384 309,-406 18,-8 39,-4 53,8 45,36 194,220 273,410 55,131 95,310 -20,424l288 0zm-1284 0l0 -606c0,-198 161,-359 359,-359l666 0c198,0 359,161 359,359l0 606 108 0 0 -1184c0,-18 -15,-32 -33,-32l-64 0c-490,0 -980,0 -1470,0 -18,0 -33,14 -33,32l0 1184 108 0zm772 -18c16,-12 24,-29 25,-50 2,-29 -7,-64 -20,-98 -23,-59 -56,-114 -80,-148 -25,31 -59,85 -85,143 -14,33 -24,66 -25,95 -1,21 3,40 16,52 35,33 130,31 169,6zm770 118c-567,0 -1133,0 -1700,0 -27,0 -50,-22 -50,-50l0 -1234c0,-73 60,-132 133,-132l15 0 0 -66c0,-78 63,-141 141,-141l188 0 0 -66c0,-77 64,-141 141,-141l564 0c78,0 141,64 141,141l0 66 189 0c78,0 141,63 141,141l0 66 14 0c73,0 133,59 133,132l0 1234c0,28 -23,50 -50,50zm-619 -486c-62,-148 -165,-289 -217,-346 -56,50 -165,189 -235,338 -42,90 -97,245 -13,327 9,8 19,16 31,23 -2,-12 -2,-24 -2,-36 2,-42 15,-87 34,-130 46,-106 133,-208 158,-220 21,-10 45,-5 59,12 28,28 95,121 132,216 18,47 29,95 27,139 -1,5 -1,11 -2,16 2,-1 4,-2 6,-4 112,-75 64,-236 22,-335zm51 -1244l-564 0c-22,0 -41,19 -41,41l0 66 646 0 0 -66c0,-22 -19,-41 -41,-41zm-372 207l-521 0c-23,0 -41,18 -41,41l0 66 602 0 0 -66c0,-23 -18,-41 -40,-41z"/>
  </g>
 </g>
</svg>
