<?xml version="1.0" encoding="UTF-8"?>
<!DOCTYPE svg PUBLIC "-//W3C//DTD SVG 1.1//EN" "http://www.w3.org/Graphics/SVG/1.1/DTD/svg11.dtd">
<!-- Creator: CorelDRAW X6 -->
<svg xmlns="http://www.w3.org/2000/svg" xml:space="preserve" width="25mm" height="25mm" version="1.1" style="shape-rendering:geometricPrecision; text-rendering:geometricPrecision; image-rendering:optimizeQuality; fill-rule:evenodd; clip-rule:evenodd"
viewBox="0 0 2500 2500"
 xmlns:xlink="http://www.w3.org/1999/xlink">
 <defs>
  <style type="text/css">
   <![CDATA[
    .fil0 {fill:white}
    .fil1 {fill:var(--icon-color);fill-rule:nonzero}
   ]]>
  </style>
 </defs>
 <g id="Слой_x0020_1">
  <metadata id="CorelCorpID_0Corel-Layer"/>
  <rect class="fil0" width="2500" height="2500" rx="390" ry="390"/>
  <path class="fil1" d="M210 999c13,-18 32,-34 58,-43l922 -327c55,-19 95,-28 135,-26 40,1 77,12 126,31l903 296 0 0c2,1 5,2 7,3 23,11 41,33 50,56 4,11 6,23 6,35 0,13 -3,26 -9,37 -9,19 -25,35 -49,44l-325 118 -1 240c1,21 -10,41 -30,49l-500 221 0 0c-1,1 -2,1 -4,2 -13,4 -18,6 -23,8 -81,29 -173,62 -317,-15l-501 -217c-18,-7 -32,-25 -31,-46l2 -217 -367 -111 0 0 -1 0c-23,-8 -40,-20 -52,-36 -11,-16 -17,-34 -16,-53 1,-17 7,-34 17,-49zm100 48l384 116c23,7 37,30 35,53l-2 216 475 206c1,1 2,1 4,2l0 0c105,56 175,31 237,9l22 -8 468 -207 1 -246c0,-22 14,-40 33,-47l0 0 337 -122 -887 -291c-1,0 -2,0 -3,-1l0 0c-39,-15 -67,-24 -92,-25 -26,-1 -56,6 -99,22l-913 323z"/>
  <path class="fil1" d="M264 1138c-27,-8 -42,-36 -34,-62 8,-27 36,-42 62,-34l970 292 1 1c24,7 46,10 69,10 23,0 46,-3 70,-9l879 -309c26,-9 55,4 64,30 9,26 -5,55 -31,64l-880 310c-2,1 -4,1 -6,2 -32,8 -64,12 -96,12 -33,0 -66,-5 -98,-15l-1 0 -969 -292z"/>
  <path class="fil1" d="M340 1921c12,0 15,-24 17,-43 2,-15 4,-28 8,-41l0 0c17,-48 20,-60 81,-86 38,-16 21,-69 9,-103 -7,-24 -14,-43 -11,-62 4,-31 18,-47 34,-65 8,-9 17,-20 18,-36 1,-21 -13,-41 -35,-59 -34,-31 -83,-53 -121,-66 -39,13 -87,35 -122,66 -21,18 -36,38 -35,59 1,16 10,27 19,36 16,18 30,34 34,65 2,19 -4,38 -12,62 -11,34 -28,87 9,103 61,26 65,38 81,86l0 0c5,14 6,27 8,42 2,19 5,42 18,42zm116 -31c-7,58 -17,131 -116,131 -102,0 -111,-73 -117,-131 -1,-9 -2,-18 -3,-21l0 0c-5,-14 -6,-17 -26,-26 -121,-52 -87,-157 -65,-226 4,-12 8,-17 7,-19 0,0 -4,-5 -9,-10 -19,-22 -41,-46 -43,-98 -3,-56 26,-103 69,-140 51,-44 123,-75 173,-90 8,-3 18,-3 28,0 49,15 121,46 173,90 42,37 72,84 69,140 -3,52 -25,76 -44,98 -5,5 -9,10 -9,10 0,2 3,7 7,19 23,69 57,174 -64,226 -20,9 -21,12 -26,26l0 0c-2,4 -3,13 -4,21z"/>
  <path class="fil1" d="M390 1310c0,28 -23,50 -50,50 -28,0 -50,-22 -50,-50l0 -187c0,-28 22,-50 50,-50 27,0 50,22 50,50l0 187z"/>
 </g>
</svg>
