<?xml version="1.0" encoding="UTF-8"?>
<!DOCTYPE svg PUBLIC "-//W3C//DTD SVG 1.1//EN" "http://www.w3.org/Graphics/SVG/1.1/DTD/svg11.dtd">
<!-- Creator: CorelDRAW X6 -->
<svg xmlns="http://www.w3.org/2000/svg" xml:space="preserve" width="25mm" height="25mm" version="1.1" style="shape-rendering:geometricPrecision; text-rendering:geometricPrecision; image-rendering:optimizeQuality; fill-rule:evenodd; clip-rule:evenodd"
viewBox="0 0 2500 2500"
 xmlns:xlink="http://www.w3.org/1999/xlink">
 <defs>
  <style type="text/css">
   <![CDATA[
    .fil0 {fill:white}
    .fil1 {fill:var(--icon-color);fill-rule:nonzero}
   ]]>
  </style>
 </defs>
 <g id="Слой_x0020_1">
  <metadata id="CorelCorpID_0Corel-Layer"/>
  <rect class="fil0" width="2500" height="2500" rx="390" ry="390"/>
  <path class="fil1" d="M2258 279c13,-25 43,-34 67,-21 24,13 34,43 21,68 -4,7 -9,13 -13,20 -38,50 -108,86 -181,102 -50,11 -103,12 -149,3 -16,148 -42,291 -76,431 -40,162 -90,319 -152,471 -59,144 -127,285 -205,423 -78,136 -164,269 -260,399l0 0c-45,68 -107,97 -166,98 -28,0 -56,-7 -80,-19 -25,-13 -46,-31 -62,-55 -31,-45 -41,-107 -12,-177l1 -4c140,-272 272,-549 397,-829 113,-252 220,-506 324,-763l-248 58c-4,73 -25,137 -59,190 -42,66 -104,114 -179,138l-4 2 -815 191 -1 0c-6,2 -10,3 -13,3 -74,13 -128,1 -167,-24 -42,-27 -64,-67 -73,-110l0 0 -1 -7 0 0c-9,-46 -2,-96 28,-137 25,-34 64,-61 122,-75l0 -1 1457 -341c22,-40 53,-66 86,-78 22,-8 45,-10 66,-6 22,5 43,15 60,32 21,21 35,51 39,89 31,11 76,10 121,0 52,-11 100,-34 122,-64 2,-2 3,-5 5,-7zm-347 99l0 -1 0 0c1,-23 -3,-38 -11,-45 -2,-3 -5,-4 -8,-5 -4,0 -8,0 -13,2 -14,5 -29,20 -39,45l0 0c-115,289 -235,575 -361,856 -126,282 -258,560 -398,832 -13,34 -10,62 3,81 7,10 15,17 25,22 11,5 22,8 35,8 28,0 58,-16 83,-53l2 -2c93,-127 178,-257 254,-391 76,-133 142,-271 199,-412 61,-148 110,-300 148,-456 38,-156 65,-317 81,-481zm-549 130l-1037 244 0 0c-32,8 -52,21 -64,37 -12,17 -15,39 -11,61l0 0 1 4 0 0c3,18 13,36 29,46 19,13 50,18 96,10l9 -2 0 0 812 -191c52,-18 95,-51 124,-96 20,-32 34,-70 41,-113z"/>
 </g>
</svg>
