<?xml version="1.0" encoding="UTF-8"?>
<!DOCTYPE svg PUBLIC "-//W3C//DTD SVG 1.1//EN" "http://www.w3.org/Graphics/SVG/1.1/DTD/svg11.dtd">
<!-- Creator: CorelDRAW X6 -->
<svg xmlns="http://www.w3.org/2000/svg" xml:space="preserve" width="25mm" height="25mm" version="1.1" style="shape-rendering:geometricPrecision; text-rendering:geometricPrecision; image-rendering:optimizeQuality; fill-rule:evenodd; clip-rule:evenodd"
viewBox="0 0 2500 2500"
 xmlns:xlink="http://www.w3.org/1999/xlink">
 <defs>
  <style type="text/css">
   <![CDATA[
    .fil0 {fill:white}
    .fil1 {fill:var(--icon-color);fill-rule:nonzero}
   ]]>
  </style>
 </defs>
 <g id="Слой_x0020_1">
  <metadata id="CorelCorpID_0Corel-Layer"/>
  <rect class="fil0" width="2500" height="2500" rx="390" ry="390"/>
  <path class="fil1" d="M2036 2327l-289 -385c-15,-20 -13,-47 3,-64l-73 -93c-112,51 -239,73 -370,57 -3,0 -6,-1 -9,-1 -187,-26 -345,-124 -452,-263 -106,-138 -160,-317 -137,-504 0,-3 1,-6 1,-9 26,-186 124,-345 263,-451 139,-107 320,-161 508,-137 189,25 349,124 456,263 107,140 161,320 137,509 -18,136 -75,257 -157,355l69 88 2 -1c21,-17 53,-13 70,9l0 0 290 369c1,1 2,2 3,3 60,79 61,160 30,223 -13,26 -32,49 -54,67 -23,18 -49,32 -77,39 -69,19 -149,3 -210,-69 -1,-1 -2,-3 -4,-5zm-1754 -1533c-23,15 -54,8 -69,-15 -15,-24 -8,-55 16,-69l994 -632c17,-11 39,-10 55,0l993 632c24,14 31,45 16,69 -15,23 -46,30 -69,15l-968 -615 -968 615zm125 1057c71,0 134,29 180,75 46,46 75,109 75,180 0,58 -20,111 -53,154l1313 0c27,0 50,22 50,50 0,28 -23,50 -50,50l-1494 0c-2,0 -4,0 -6,0 -5,0 -10,0 -15,0 -70,0 -133,-29 -179,-75 -47,-46 -75,-109 -75,-179 0,-71 28,-134 75,-180 46,-46 109,-75 179,-75zm109 145c-27,-27 -66,-45 -109,-45 -42,0 -81,18 -109,45 -28,28 -45,67 -45,110 0,42 17,81 45,109 28,28 67,45 109,45 43,0 82,-17 109,-45 28,-28 46,-67 46,-109 0,-43 -18,-82 -46,-110zm-109 -662c71,0 134,29 180,75 46,46 75,109 75,179 0,71 -29,134 -75,180 -46,46 -109,75 -180,75 -70,0 -133,-29 -179,-75 -47,-46 -75,-109 -75,-180 0,-70 28,-133 75,-179 46,-46 109,-75 179,-75zm109 145c-27,-28 -66,-45 -109,-45 -42,0 -81,17 -109,45 -28,28 -45,67 -45,109 0,43 17,82 45,110 28,28 67,45 109,45 43,0 82,-17 109,-45 28,-28 46,-67 46,-110 0,-42 -18,-81 -46,-109zm-109 -662c71,0 134,29 180,75 46,46 75,109 75,179 0,71 -29,134 -75,180 -46,46 -109,75 -180,75 -70,0 -133,-29 -179,-75 -47,-46 -75,-109 -75,-180 0,-70 28,-133 75,-179 46,-46 109,-75 179,-75zm109 145c-27,-28 -66,-45 -109,-45 -42,0 -81,17 -109,45 -28,28 -45,67 -45,109 0,43 17,82 45,109 28,28 67,46 109,46 43,0 82,-18 109,-46 28,-27 46,-66 46,-109 0,-42 -18,-81 -46,-109zm501 296c7,27 -9,54 -36,61 -26,7 -54,-9 -61,-35 -8,-31 -13,-62 -15,-94 -2,-31 -1,-63 3,-94 18,-134 88,-248 187,-324 99,-76 227,-114 360,-96 27,3 47,28 43,56 -3,27 -28,46 -56,43 -106,-14 -208,16 -287,77 -78,60 -134,151 -148,257 -3,24 -4,50 -2,75 1,25 5,50 12,74zm748 479l63 79 80 -62 -62 -79c-11,11 -23,20 -35,30 -15,11 -30,22 -46,32zm93 -936c-92,-119 -229,-204 -390,-225 -161,-21 -315,25 -434,117 -120,92 -204,229 -225,390l0 0c-21,161 25,315 116,434 92,120 229,204 390,225l0 0c161,21 316,-25 435,-116 119,-92 204,-229 225,-390 21,-161 -25,-316 -117,-435zm-2 1120l260 347c33,37 73,47 108,37 14,-4 28,-11 40,-20 11,-10 21,-21 27,-35 16,-31 14,-73 -19,-117 -1,-1 -2,-2 -2,-2l-260 -331 -154 121z"/>
 </g>
</svg>
