<?xml version="1.0" encoding="UTF-8"?>
<!DOCTYPE svg PUBLIC "-//W3C//DTD SVG 1.1//EN" "http://www.w3.org/Graphics/SVG/1.1/DTD/svg11.dtd">
<!-- Creator: CorelDRAW X6 -->
<svg xmlns="http://www.w3.org/2000/svg" xml:space="preserve" width="25.2mm" height="25.2mm" version="1.1" style="shape-rendering:geometricPrecision; text-rendering:geometricPrecision; image-rendering:optimizeQuality; fill-rule:evenodd; clip-rule:evenodd"
viewBox="0 0 2520 2520"
 xmlns:xlink="http://www.w3.org/1999/xlink">
 <defs>
  <style type="text/css">
   <![CDATA[
    .fil0 {fill:white}
    .fil1 {fill:var(--icon-color);fill-rule:nonzero}
   ]]>
  </style>
 </defs>
 <g id="Слой_x0020_1">
  <metadata id="CorelCorpID_0Corel-Layer"/>
  <rect class="fil0" x="10" y="10" width="2500" height="2500" rx="390" ry="390"/>
  <path class="fil1" d="M442 2021c-2,3 -3,6 -4,9 -2,5 -2,11 0,15 1,4 3,7 6,11l248 237c30,20 60,36 89,47 28,11 56,17 83,17 14,0 28,-1 42,-4 14,-3 28,-7 42,-12 52,-20 96,-59 126,-106 31,-48 47,-104 43,-157 0,-2 0,-5 0,-8l0 -274c0,-11 -5,-18 -12,-21 -4,-2 -9,-3 -14,-3 -5,0 -11,1 -16,3 -7,3 -13,8 -14,15l3 152 22 20c20,18 22,50 4,70 -19,21 -50,22 -71,4l-26 -23c-9,-5 -16,-11 -21,-19l-317 -285 0 0c-11,-8 -26,-9 -39,-7l221 205c20,19 21,51 3,71 -19,20 -51,21 -71,2l-227 -210c-1,-1 -2,-2 -3,-3 -2,-1 -4,-3 -5,-5l-48 -44c-8,-5 -16,-6 -22,-3 -3,1 -5,3 -7,5l0 0 0 0c-1,2 -2,3 -3,5 0,0 1,1 3,3l0 0 39 37 0 0 1 1 0 1 233 218c20,19 21,51 2,71 -19,20 -51,21 -71,2l-229 -216c-2,-1 -4,-1 -5,-1 -1,0 -2,1 -3,2 -1,2 -2,5 -3,7 -1,6 0,14 6,20l243 228c20,19 21,51 2,71 -19,20 -50,21 -71,2l-159 -150zm419 -737c38,42 77,78 116,109 99,78 197,115 290,113 94,-2 186,-43 277,-124 32,-30 65,-65 98,-105 7,-58 11,-117 11,-175 0,-47 -3,-94 -8,-141 -2,2 -4,3 -7,4 -25,11 -54,-1 -65,-27 -6,-14 -16,-25 -29,-32l-1 -1c3,6 5,13 5,20 0,25 -21,45 -46,45 -25,0 -46,-20 -46,-45 0,-6 1,-12 3,-17 -12,8 -23,19 -31,33 -13,24 -44,33 -68,19 -24,-13 -32,-43 -19,-68 23,-39 55,-67 92,-82 26,-11 54,-15 81,-14 28,2 55,9 79,23 13,7 25,16 35,26 -5,-26 -10,-52 -17,-78l-80 0 0 0c-15,0 -31,-7 -40,-21 -26,-37 -39,-74 -44,-112l0 -2c-7,6 -14,12 -21,18 -30,26 -57,57 -81,91 -9,16 -25,26 -44,26l-408 0c-9,35 -17,71 -23,106 21,-30 49,-50 79,-63 26,-11 54,-15 81,-14 28,2 55,9 79,23 31,17 57,44 72,81 11,25 -1,54 -27,65 -25,11 -54,-1 -65,-27 -6,-14 -16,-25 -29,-32l-1 -1c3,6 5,13 5,20 0,25 -21,45 -46,45 -25,0 -46,-20 -46,-45 0,-6 1,-11 3,-16 -12,7 -23,18 -31,32 -13,24 -44,33 -68,19 -7,-4 -13,-9 -17,-16 -7,51 -10,103 -11,155 0,61 4,123 13,185zm283 -26c0,-24 29,-38 58,-30 39,10 78,10 118,0 33,-10 58,8 56,33 -4,46 -52,97 -115,97 -66,0 -117,-53 -117,-100zm417 -981c26,10 39,39 29,64 -9,26 -38,39 -64,29 -160,-60 -319,-68 -455,-21 -127,45 -234,138 -302,283 -11,25 -41,35 -66,24 -25,-12 -36,-42 -24,-66 80,-171 207,-282 359,-335 158,-55 342,-47 523,22zm178 1024c0,2 -1,5 -1,7 -4,24 -8,48 -12,72l182 -113c26,-101 42,-217 42,-336 0,-160 -29,-323 -103,-457 -71,-131 -187,-236 -363,-283 -66,-18 -142,-28 -228,-28l0 0c-76,0 -144,8 -204,23 -185,45 -305,156 -378,294 -76,142 -104,314 -104,476 0,114 14,221 34,311l172 110c-19,-94 -28,-186 -27,-279 1,-133 21,-264 58,-394 6,-22 26,-37 48,-37l0 0 420 0c26,-34 54,-65 85,-92 36,-32 77,-60 120,-83 24,-13 54,-4 67,20 6,11 8,23 5,35l0 0c-6,26 -9,51 -6,75 2,15 6,30 14,45l90 0c24,0 45,18 49,42 35,130 53,262 53,393 0,66 -4,133 -13,199zm-134 159c-107,95 -219,143 -336,146 -117,3 -236,-42 -354,-135 -5,-4 -11,-9 -17,-14 2,5 3,10 5,15l0 0c3,13 2,28 -6,41 -15,23 -46,30 -69,15l-292 -186c-12,-7 -21,-18 -24,-32 -25,-101 -42,-225 -42,-354 0,-176 31,-364 115,-523 86,-161 227,-291 443,-344 69,-17 145,-26 228,-26l0 0c94,0 179,11 254,31 205,55 341,178 425,332 83,150 115,330 115,505 0,135 -20,268 -50,381l0 0c-3,12 -11,22 -22,29l-300 187c-12,7 -27,10 -42,6 -26,-7 -42,-34 -34,-61l3 -13zm-57 575c-20,19 -51,18 -70,-2 -19,-19 -19,-51 1,-70l20 -20 3 -153c-1,-7 -6,-13 -12,-15 -4,-2 -8,-3 -12,-3 -4,0 -7,1 -10,2l-1 1c-6,2 -10,9 -11,21l1 275c0,2 0,4 0,7 -4,53 11,110 40,158 28,47 69,86 116,106 12,5 25,8 38,11 13,3 26,4 38,4 24,0 50,-6 76,-17 26,-10 54,-26 82,-47l230 -236c3,-3 5,-6 6,-10 2,-6 2,-12 0,-18 0,-1 -1,-3 -1,-4l-144 145c-20,19 -51,19 -71,0 -19,-20 -20,-51 0,-71l173 -173c1,-1 2,-3 3,-3l51 -52c5,-7 6,-15 5,-22 -1,-3 -2,-6 -4,-7l0 -1 -213 216c-20,19 -51,19 -71,0 -19,-19 -19,-51 0,-71l216 -218 2 -1 36 -37 0 0c3,-3 3,-5 3,-7 -1,-1 -2,-3 -3,-5 -2,-1 -4,-3 -6,-4 -4,-1 -8,-1 -13,3l-49 48 0 0 -1 1 0 0 -215 213c-19,20 -51,20 -70,0 -20,-19 -20,-51 0,-70l208 -207c-10,-2 -21,-1 -30,5l-297 286c-5,8 -12,14 -20,19l-24 23zm53 -189l220 -212c2,-2 4,-3 6,-5 39,-30 92,-33 131,-19 13,5 26,12 37,21 35,-22 72,-22 103,-9 15,7 29,17 40,28 11,12 19,26 24,42 8,23 8,49 -2,73 4,4 8,8 12,13 10,12 19,28 23,45 10,36 4,78 -26,113 0,1 -1,3 -2,4l0 0 -14 13c12,14 21,31 26,49 7,24 7,51 -1,76 -5,16 -14,31 -26,45 -1,1 -1,2 -2,3l0 0 -235 240c-2,2 -4,3 -6,5l0 0c-35,27 -71,48 -107,62 -37,15 -75,23 -113,23 -20,0 -39,-1 -57,-5 -19,-4 -38,-9 -56,-17 -69,-29 -126,-82 -164,-147 -40,-65 -60,-142 -55,-216l0 -276 0 -2 0 0c1,-56 31,-92 69,-109 1,-1 2,-1 3,-2 16,-6 32,-9 48,-9 17,0 35,3 51,10 39,16 71,51 74,103 0,2 0,3 0,5l-1 55zm-638 6l-1 -60c0,-2 0,-4 0,-7 3,-51 36,-86 77,-103 17,-6 35,-9 53,-9 18,0 36,3 53,11 40,17 70,53 72,109l0 0 0 2 -1 276c6,74 -16,152 -58,218 -41,64 -102,117 -174,145 -20,8 -40,13 -60,17 -20,4 -40,5 -60,5 -40,0 -79,-8 -119,-23 -36,-14 -73,-34 -111,-60 -3,-1 -5,-3 -8,-6l-251 -239c-1,-1 -2,-2 -3,-3 -14,-15 -24,-33 -30,-51 -7,-24 -7,-48 0,-71 5,-18 14,-35 27,-50l-11 -11c-2,-1 -4,-3 -5,-4 -30,-34 -37,-75 -29,-110 4,-18 12,-34 23,-48 5,-5 10,-10 15,-15 -10,-23 -10,-46 -4,-68 5,-16 14,-31 25,-44l0 0c11,-12 24,-22 40,-29 33,-15 75,-16 114,8 10,-8 23,-16 37,-21 42,-15 100,-13 142,20l0 0c1,1 2,1 3,2l244 219z"/>
 </g>
</svg>
