<?xml version="1.0" encoding="UTF-8"?>
<!DOCTYPE svg PUBLIC "-//W3C//DTD SVG 1.1//EN" "http://www.w3.org/Graphics/SVG/1.1/DTD/svg11.dtd">
<!-- Creator: CorelDRAW X6 -->
<svg xmlns="http://www.w3.org/2000/svg" xml:space="preserve" width="25mm" height="25mm" version="1.1" style="shape-rendering:geometricPrecision; text-rendering:geometricPrecision; image-rendering:optimizeQuality; fill-rule:evenodd; clip-rule:evenodd"
viewBox="0 0 2500 2500"
 xmlns:xlink="http://www.w3.org/1999/xlink">
 <defs>
  <style type="text/css">
   <![CDATA[
    .fil0 {fill:white}
    .fil1 {fill:var(--icon-color);fill-rule:nonzero}
   ]]>
  </style>
 </defs>
 <g id="Слой_x0020_1">
  <metadata id="CorelCorpID_0Corel-Layer"/>
  <rect class="fil0" width="2500" height="2500" rx="390" ry="390"/>
  <path class="fil1" d="M1429 766c-6,0 -12,-1 -18,-4 -41,-9 -83,-17 -129,-23 -2,0 -4,0 -6,0 -23,-3 -47,-4 -72,-4 -9,0 -17,-2 -25,-6 -41,47 -66,99 -82,153 -22,77 -26,160 -28,240 1,19 -9,37 -27,46 -25,12 -55,3 -67,-22 -17,-34 -34,-95 -44,-166 -12,-84 -14,-186 7,-277 22,-98 70,-185 159,-230 17,-8 34,-15 53,-20 24,-78 69,-146 126,-201 90,-87 212,-143 334,-160 142,-20 291,3 422,62 127,57 238,149 312,270 8,13 23,39 34,63 8,16 15,33 18,47 3,11 2,24 -4,36 -13,24 -43,33 -68,20 -10,-6 -21,-9 -31,-12 31,70 50,163 52,264 1,114 -20,240 -75,358 -7,17 -24,30 -44,31 -28,1 -51,-21 -52,-48 -6,-127 -15,-210 -40,-280 -23,-61 -59,-115 -119,-184 -218,138 -367,102 -539,59 -16,-4 -31,-8 -47,-12zm-22 237c5,7 8,17 8,27 0,27 -22,50 -49,50 -28,0 -50,-23 -50,-50 0,-9 2,-17 6,-24 -15,8 -29,22 -40,40 -13,24 -44,33 -68,19 -24,-13 -32,-44 -19,-68 24,-42 59,-71 97,-87 28,-12 58,-17 87,-15 29,2 58,10 83,24 33,18 61,47 77,86 10,25 -2,54 -27,65 -26,10 -55,-2 -65,-27 -7,-17 -19,-29 -34,-37 -2,-1 -4,-2 -6,-3zm107 418c0,-24 29,-38 58,-30 39,9 78,10 118,0 33,-10 58,8 56,32 -4,46 -52,97 -115,97 -66,0 -117,-52 -117,-99zm292 -375c-13,24 -44,33 -68,19 -24,-13 -32,-44 -19,-68 24,-42 59,-71 97,-87 28,-12 58,-17 87,-15 29,2 58,10 83,24 33,18 61,47 77,86 10,25 -2,54 -27,65 -26,10 -55,-2 -65,-27 -7,-17 -19,-29 -34,-37 -2,-1 -4,-2 -6,-3 5,8 8,17 8,27 0,27 -22,50 -49,50 -28,0 -50,-23 -50,-50 0,-9 3,-17 7,-24 -16,8 -30,22 -41,40zm-683 314c-7,-27 10,-54 37,-60 27,-6 54,11 60,38 3,12 5,23 7,34 8,42 16,83 48,105 67,44 145,85 219,113l2 2c62,23 120,38 161,36 37,-1 86,-17 139,-41 57,-25 116,-57 170,-88 29,-17 50,-40 65,-67 14,-28 21,-60 18,-91 -2,-28 19,-52 46,-54 28,-2 52,18 54,46 4,49 -6,100 -30,145 -23,43 -57,81 -103,107 -58,34 -121,68 -180,94 -63,28 -124,47 -176,49 -55,2 -126,-15 -200,-44l-2 -1c-80,-30 -164,-75 -237,-123 -68,-45 -80,-106 -92,-169 -2,-11 -4,-22 -6,-31zm1069 -761c-29,15 -58,37 -90,60l-5 3c65,75 104,136 130,206 6,16 11,32 15,48 2,-25 3,-49 3,-73 -1,-99 -22,-187 -53,-244zm-1056 31c-3,-22 -4,-45 -4,-63 -52,32 -82,90 -97,158 -4,20 -8,41 -10,63 24,-56 60,-110 111,-158zm105 -64c2,22 6,43 10,63l0 0 0 0c38,-109 94,-187 160,-241 76,-62 163,-92 249,-105 27,-4 52,15 56,42 4,28 -15,53 -42,57 -70,11 -140,35 -200,83 -49,41 -93,100 -124,183 20,4 39,7 58,11 49,-69 110,-119 177,-153 1,0 2,-1 3,-1 86,-42 182,-56 274,-48 28,2 48,26 46,54 -2,27 -27,48 -54,45 -76,-6 -153,5 -222,38l-2 2c-43,21 -82,50 -115,89 150,37 282,64 474,-68 22,-15 39,-27 55,-39 74,-54 139,-101 213,-105 -63,-101 -158,-179 -266,-228 -115,-52 -244,-72 -367,-54 -103,14 -204,61 -278,133 -48,46 -85,102 -103,167 1,3 1,7 0,11 -3,22 -3,44 -2,64z"/>
  <path class="fil1" d="M1157 2168c-32,27 -70,51 -114,71 -45,19 -95,36 -147,49 -28,21 -56,34 -86,39 -26,4 -52,2 -79,-5 -40,29 -79,41 -115,40 -35,0 -66,-11 -95,-31l-2 1c-49,24 -91,32 -128,25 -38,-8 -69,-31 -91,-67 -14,-5 -27,-9 -38,-15 -37,-15 -66,-35 -84,-59 -18,-23 -26,-50 -22,-78 -121,-65 -113,-146 -85,-208 9,-19 19,-35 27,-47 4,-6 7,-12 8,-13 1,-2 -3,-8 -7,-16 -11,-22 -23,-47 -13,-85l0 0c9,-32 26,-50 42,-65 7,-7 13,-13 14,-18 1,-1 -1,-7 -3,-14 -6,-23 -13,-51 4,-89 18,-37 43,-49 66,-60 6,-2 12,-5 13,-6 2,-4 3,-13 4,-22 1,-23 4,-46 24,-73l1 -2c22,-32 47,-39 71,-47 9,-2 19,-5 24,-11 2,-2 5,-9 9,-18 26,-54 66,-141 227,-100 27,-18 58,-25 91,-23 36,2 74,15 113,36 35,-5 66,5 95,27 25,20 46,51 64,92 38,14 70,33 93,60 21,25 34,55 38,91 23,14 45,31 61,53 20,27 31,60 28,101 32,59 56,118 69,171 14,55 17,107 6,149 -1,3 -2,5 -3,7l0 0 -68 146c-3,6 -7,10 -12,14zm108 -183c9,-19 32,-27 50,-18 20,9 28,32 19,51l-95 204c-9,19 -32,28 -52,18 -19,-9 -27,-32 -18,-51l96 -204zm333 356c18,11 22,36 10,53 -11,18 -35,22 -54,11l-186 -126c-18,-11 -22,-35 -11,-54 8,-11 21,-17 34,-17 -11,-11 -14,-28 -7,-43 7,-15 22,-23 37,-22 -8,-9 -12,-23 -8,-36 6,-20 28,-33 48,-26l216 63c21,6 32,27 26,48 -6,20 -27,32 -47,26l-183 -53 165 78c20,9 28,32 19,51 -9,19 -32,28 -51,18l-166 -77 158 106zm-250 -317c9,-18 32,-27 51,-18 20,9 28,32 19,51l-95 204c-10,19 -33,28 -52,19 -19,-9 -27,-32 -18,-52l95 -204zm-821 -655c19,7 37,16 53,27 44,33 68,76 79,119 10,42 6,84 -3,112 -4,10 -8,19 -13,26 -8,11 -21,17 -33,16l0 0c-25,-1 -51,-11 -76,-28 -24,-17 -46,-41 -62,-68 -16,-29 -26,-63 -25,-98 1,-31 11,-62 33,-93 10,-15 30,-20 47,-13zm8 90c-2,-1 -4,-3 -7,-4 -2,8 -3,15 -4,23 -1,20 6,39 15,56 11,18 24,33 40,44 2,2 5,4 8,5 2,-14 1,-32 -3,-50 -6,-27 -21,-55 -49,-74zm-232 538c12,7 24,13 36,17 56,20 110,13 155,-5 43,-16 76,-43 95,-68 -12,-8 -27,-15 -43,-21 -30,-11 -66,-16 -102,-12 -34,3 -69,14 -97,36 -17,14 -32,31 -44,53zm11 89c-28,-9 -55,-23 -82,-43 -14,-10 -20,-28 -14,-44 18,-51 47,-89 82,-116 41,-32 89,-47 137,-52 48,-5 95,2 135,17 40,14 74,36 95,63l0 0c8,10 10,24 6,37 -4,11 -10,22 -19,35 -25,35 -72,75 -132,98 -60,24 -133,32 -208,5zm558 -461c32,9 60,21 85,36 69,42 109,104 128,165 20,61 19,123 8,165 -4,14 -9,26 -15,36 -7,12 -20,19 -33,18 -34,1 -73,-10 -109,-32 -36,-22 -72,-55 -98,-94 -27,-41 -45,-88 -47,-140 -1,-43 10,-90 38,-137 9,-15 27,-21 43,-17l0 0zm45 102c-10,-7 -23,-13 -36,-18 -9,24 -13,46 -12,68 0,36 14,70 33,99 20,30 46,54 74,70 15,10 30,16 43,20 8,-30 6,-73 -7,-117 -15,-46 -44,-91 -95,-122zm94 441c36,-16 67,-34 92,-55l63 -135c6,-29 4,-65 -7,-107 -13,-50 -36,-107 -67,-163 -4,-7 -5,-15 -4,-23 3,-26 -2,-45 -13,-59 -12,-16 -30,-29 -52,-40 -14,-6 -24,-20 -24,-37 1,-26 -6,-47 -20,-63 -16,-19 -41,-32 -73,-42 -11,-3 -22,-11 -26,-23 -14,-37 -30,-63 -47,-77 -13,-10 -28,-13 -44,-9l0 0c-9,2 -19,2 -29,-4 -34,-19 -65,-32 -91,-33 -20,-1 -37,3 -52,16 -9,10 -24,13 -38,9 -113,-33 -138,20 -154,54 -7,15 -13,28 -23,38 -20,20 -38,26 -58,32 -11,3 -22,7 -30,17 -1,2 -2,2 -2,3 -7,10 -9,23 -10,35 -1,19 -3,38 -16,58 -13,18 -28,25 -45,34 -11,4 -22,10 -28,22 -6,13 -3,25 0,37 5,18 9,34 3,55 -7,23 -20,36 -34,51 -8,8 -17,17 -21,29l0 0 0 1c-2,10 3,21 8,31 12,25 23,48 6,82 -3,7 -7,15 -13,23 -6,10 -15,23 -21,37 -15,34 -16,79 74,120l0 0c20,9 29,31 21,51 -1,2 -2,4 -3,7 -3,11 0,20 6,29 10,13 28,25 52,36 14,5 29,11 46,15l0 0c9,3 18,10 24,20 1,2 2,5 4,8l0 0 0 0c11,19 24,30 41,33 21,4 46,-2 78,-18 6,-3 12,-6 19,-9 14,-10 33,-10 46,2 21,18 44,29 68,30 23,0 51,-11 82,-37l0 0c11,-9 25,-12 39,-6 21,8 41,11 59,8 19,-3 37,-12 56,-27 4,-5 10,-7 16,-9 52,-12 100,-28 142,-47z"/>
 </g>
</svg>
