<?xml version="1.0" encoding="UTF-8"?>
<!DOCTYPE svg PUBLIC "-//W3C//DTD SVG 1.1//EN" "http://www.w3.org/Graphics/SVG/1.1/DTD/svg11.dtd">
<!-- Creator: CorelDRAW X6 -->
<svg xmlns="http://www.w3.org/2000/svg" xml:space="preserve" width="25mm" height="25mm" version="1.1" style="shape-rendering:geometricPrecision; text-rendering:geometricPrecision; image-rendering:optimizeQuality; fill-rule:evenodd; clip-rule:evenodd"
viewBox="0 0 2500 2500"
 xmlns:xlink="http://www.w3.org/1999/xlink">
 <defs>
  <style type="text/css">
   <![CDATA[
    .fil0 {fill:white}
    .fil1 {fill:var(--icon-color);fill-rule:nonzero}
   ]]>
  </style>
 </defs>
 <g id="Слой_x0020_1">
  <metadata id="CorelCorpID_0Corel-Layer"/>
  <rect class="fil0" width="2500" height="2500" rx="390" ry="390"/>
  <path class="fil1" d="M1523 2307c27,-1 50,21 51,48 1,28 -21,51 -49,51 -175,6 -349,-22 -511,-81 -162,-59 -314,-148 -445,-265 -132,-117 -239,-257 -316,-411 -78,-154 -127,-323 -142,-498 -3,-28 18,-52 45,-54 28,-3 52,18 54,45 15,163 60,319 132,462 72,144 171,273 293,381 122,109 262,191 413,246 151,55 312,81 475,76zm100 -1060c-2,-28 19,-51 47,-52 27,-2 51,19 52,47l2 47c5,10 5,21 2,31l28 551c3,23 21,42 41,50 5,2 11,4 15,4l2 0 0 -9 0 -1 0 -1 -14 -402c-1,-28 21,-51 48,-52 28,-1 51,21 52,48l13 403 0 0 1 2 3 93c2,15 11,24 21,28 5,2 11,3 17,3 5,-1 10,-2 14,-4 7,-4 12,-12 12,-24l-2 -66c0,-3 0,-6 0,-9l-10 -407c-1,-27 21,-50 48,-51 28,0 50,21 51,49l11 405c2,8 5,12 8,14 3,1 6,1 10,1 6,-1 12,-3 17,-7 13,-7 22,-21 24,-40l-3 -97c0,-2 0,-3 0,-5l-9 -327c-1,-28 21,-51 48,-51 28,-1 51,21 51,48l9 292c10,0 21,-3 30,-9 9,-5 17,-14 22,-24l0 -1 0 0c3,-6 5,-14 6,-21l-9 -441c-9,-48 -21,-91 -38,-127 -16,-36 -37,-66 -62,-90l0 0c-13,-12 -27,-23 -43,-33 -15,-10 -32,-18 -50,-25 -68,-25 -146,-25 -220,-4 -75,21 -145,64 -192,122 0,1 -1,2 -2,3l0 0 -255 270 0 0c-15,17 -18,34 -12,48 2,6 7,12 12,17 6,6 13,10 20,13 14,5 30,4 42,-7l144 -158 -2 -44zm194 777c-3,1 -7,1 -10,1 -17,-1 -35,-5 -52,-13 -48,-20 -93,-68 -100,-130l0 0c0,-1 0,-3 0,-4l-23 -446 -78 85 0 0c-1,1 -2,2 -3,3 -44,42 -100,47 -148,29 -19,-7 -37,-19 -52,-33 -16,-15 -28,-33 -36,-52 -19,-47 -15,-102 29,-152l0 0 1 -1 256 -271c60,-73 147,-126 240,-153 93,-27 194,-27 283,7 24,9 46,20 67,33 21,13 41,29 59,46l-1 0 1 0c35,33 62,73 84,120 21,46 36,98 46,154l0 0c0,3 0,5 0,8l9 446c0,2 0,3 0,5 -1,22 -6,43 -14,61l-1 0c-13,29 -35,52 -61,68 -24,14 -50,22 -79,23l2 38c0,2 0,5 0,7 -4,55 -34,97 -71,120 -18,11 -38,18 -58,21 -11,1 -22,1 -32,-1 -9,36 -32,62 -61,77 -17,10 -36,15 -55,16 -19,1 -39,-1 -57,-8 -41,-15 -75,-49 -85,-104zm-591 -1251c27,1 49,24 48,51 0,28 -23,50 -51,49l-46 -1 -147 151c-10,13 -10,30 -2,45 3,8 9,16 16,22 7,7 14,11 22,14 15,6 32,3 48,-13l0 0 253 -269c1,-2 3,-3 4,-5 55,-49 92,-122 106,-200 15,-77 7,-159 -27,-229 -8,-18 -19,-36 -31,-52 -12,-16 -25,-31 -39,-45 -28,-26 -62,-46 -101,-63 -40,-16 -86,-28 -136,-35l-456 3 -1 0c-9,0 -17,3 -24,7 -9,5 -16,12 -20,21 -5,9 -7,20 -6,31 0,2 0,4 0,6l308 0c27,0 50,22 50,50 0,27 -23,50 -50,50l-446 -1c-17,2 -28,10 -35,20l-1 2c-3,6 -5,12 -6,18 0,5 1,9 2,13 3,6 9,10 20,13l421 -1c27,0 50,23 50,50 0,28 -23,50 -50,50l-423 0c-2,0 -4,0 -7,0l-70 0 0 0c-11,0 -17,5 -20,11 -2,4 -4,8 -4,14 0,5 1,12 4,18 5,13 18,25 38,27l515 4c28,0 50,23 50,50 0,28 -22,50 -50,50l-417 -4 -1 0 -1 0 -8 0c1,5 2,11 5,16 11,22 34,43 61,47l573 13c11,-3 22,-3 33,1l49 1zm-185 96l-474 -12c-2,0 -3,0 -5,0 -65,-7 -117,-53 -141,-102 -9,-17 -14,-35 -16,-52 0,-3 0,-6 0,-9 -61,-7 -101,-45 -119,-89 -7,-18 -11,-38 -10,-57 0,-20 5,-40 14,-57 13,-28 37,-50 70,-60 -3,-12 -4,-25 -3,-38 1,-21 8,-42 18,-61 1,-1 2,-2 2,-3 23,-36 61,-64 114,-69 1,0 3,0 4,0l41 0c-2,-29 4,-57 17,-82 13,-26 34,-47 59,-62 20,-11 42,-18 68,-20 2,0 4,0 6,0l461 -3c3,0 5,0 7,1l0 -1c60,9 114,23 163,43 50,21 94,48 131,83 19,18 37,37 52,58 15,21 28,43 40,68 44,90 53,194 35,290 -18,98 -65,191 -136,255l-253 271 -1 1 0 0c-48,47 -104,54 -153,36 -21,-8 -40,-20 -56,-35 -16,-14 -29,-32 -38,-52 -23,-48 -23,-105 16,-153 1,-1 3,-3 4,-4l83 -85zm466 934c27,0 50,21 51,49 1,27 -21,50 -48,51 -112,4 -222,-14 -325,-52 -103,-37 -199,-94 -282,-168 -84,-74 -151,-162 -201,-260 -49,-98 -80,-206 -90,-317 -2,-27 18,-51 46,-54 27,-2 52,18 54,46 9,98 36,193 79,280 44,87 104,165 178,231 74,65 159,116 250,149 92,33 189,49 288,45zm8 229c27,-1 50,21 51,48 1,28 -21,51 -48,52 -141,4 -280,-19 -410,-66 -130,-47 -252,-118 -357,-212 -106,-93 -191,-205 -253,-329 -63,-123 -102,-259 -114,-399 -2,-27 18,-51 46,-54 27,-2 51,18 54,46 11,127 46,250 103,363 57,112 134,214 230,299 96,85 206,150 325,193 118,42 245,63 373,59z"/>
 </g>
</svg>
