<?xml version="1.0" encoding="UTF-8"?>
<!DOCTYPE svg PUBLIC "-//W3C//DTD SVG 1.1//EN" "http://www.w3.org/Graphics/SVG/1.1/DTD/svg11.dtd">
<!-- Creator: CorelDRAW X6 -->
<svg xmlns="http://www.w3.org/2000/svg" xml:space="preserve" width="25mm" height="25mm" version="1.1" style="shape-rendering:geometricPrecision; text-rendering:geometricPrecision; image-rendering:optimizeQuality; fill-rule:evenodd; clip-rule:evenodd"
viewBox="0 0 2500 2500"
 xmlns:xlink="http://www.w3.org/1999/xlink">
 <defs>
  <style type="text/css">
   <![CDATA[
    .fil0 {fill:white}
    .fil1 {fill:var(--icon-color);fill-rule:nonzero}
   ]]>
  </style>
 </defs>
 <g id="Слой_x0020_1">
  <metadata id="CorelCorpID_0Corel-Layer"/>
  <rect class="fil0" width="2500" height="2500" rx="390" ry="390"/>
  <path class="fil1" d="M1048 723c-5,0 -11,-1 -17,-4 -41,-9 -84,-18 -129,-23 -2,0 -4,0 -7,0 -23,-3 -46,-4 -71,-5 -9,1 -18,-1 -25,-5 -41,47 -67,99 -82,153 -22,77 -26,160 -28,240 1,18 -9,37 -27,46 -25,12 -55,2 -67,-22 -17,-34 -34,-95 -44,-166 -12,-85 -14,-186 7,-278 22,-98 70,-184 159,-229 16,-9 34,-15 53,-20 24,-78 68,-146 126,-202 90,-86 211,-142 334,-160 142,-19 291,3 422,62 127,58 238,150 312,271 8,13 23,39 34,63 8,16 15,33 18,46 3,12 2,25 -4,37 -13,24 -43,33 -68,20 -10,-6 -21,-10 -32,-12 31,70 51,162 52,264 2,113 -20,240 -74,358 -7,17 -24,30 -44,30 -28,2 -51,-20 -52,-47 -6,-128 -15,-210 -41,-280 -22,-61 -58,-115 -118,-184 -218,138 -367,101 -540,59 -15,-4 -31,-8 -47,-12zm-616 1301c-2,2 -3,5 -4,9 -2,5 -2,10 0,14 1,4 3,8 6,11l248 237c30,20 60,36 89,47 28,11 56,17 83,17 14,0 28,-1 42,-4 14,-2 28,-6 42,-12 52,-20 96,-59 126,-106 31,-48 47,-104 43,-157 0,-2 0,-5 0,-7l1 -275c-1,-11 -6,-18 -13,-20 -4,-2 -9,-3 -14,-3 -5,0 -11,1 -16,3 -7,2 -13,8 -14,15l3 152 22 19c20,18 22,50 4,70 -19,21 -50,23 -71,4l-26 -23c-8,-4 -16,-11 -21,-19l-317 -284 0 0c-11,-9 -26,-10 -39,-7l221 205c20,18 21,50 3,70 -19,20 -51,21 -71,3l-227 -211c-1,-1 -2,-1 -3,-2 -2,-2 -4,-4 -5,-6l-48 -44c-8,-5 -16,-5 -22,-3 -3,2 -5,3 -7,5l0 0 0 1c-1,1 -2,3 -3,4 0,0 1,2 3,3l0 0 39 38 0 0 1 1 0 0 233 219c20,18 21,50 2,70 -19,20 -51,21 -71,2l-229 -216c-2,-1 -4,-1 -5,-1 -1,1 -2,1 -2,3 -2,1 -3,4 -4,7 -1,6 0,13 6,19l243 228c20,19 21,51 2,71 -19,20 -50,21 -71,2l-159 -149zm521 -170l-1 -60c0,-2 0,-4 0,-6 3,-52 36,-87 77,-103 17,-7 35,-10 53,-10 18,0 36,4 53,11 40,17 70,53 72,109l0 0 0 2 -1 276c6,74 -16,152 -58,218 -41,64 -102,117 -174,145 -20,8 -40,13 -60,17 -19,4 -40,6 -60,6 -40,0 -79,-8 -118,-23 -37,-14 -74,-35 -112,-60 -3,-2 -5,-4 -8,-7l-251 -239c-1,-1 -2,-2 -3,-3 -14,-15 -24,-33 -30,-51 -7,-23 -7,-48 0,-71 5,-18 14,-35 27,-50l-11 -10c-2,-2 -4,-3 -5,-5 -30,-34 -37,-75 -29,-110 4,-18 12,-34 23,-47 5,-6 10,-11 15,-16 -10,-22 -10,-46 -3,-68 4,-16 13,-31 24,-44l0 0c11,-11 25,-21 40,-28 33,-16 75,-17 114,7 10,-8 23,-15 37,-21 42,-15 100,-13 142,20l0 0c1,1 2,2 3,2l244 219zm1077 74c1,-1 2,-2 3,-3l51 -52c5,-7 6,-15 5,-22 -1,-3 -2,-5 -4,-7l0 0 -213 215c-20,20 -51,20 -71,0 -19,-19 -19,-51 0,-70l216 -219 2 -1 36 -37 0 0c3,-3 3,-5 3,-7 -1,-1 -2,-3 -3,-4 -2,-2 -4,-4 -6,-5 -4,-1 -8,-1 -13,3l-49 48 0 0 -1 2 0 0 -215 212c-19,20 -51,20 -70,0 -20,-19 -20,-51 0,-70l208 -207c-10,-2 -21,-1 -30,5l-297 286c-5,8 -12,14 -20,19l-24 23c-20,19 -51,18 -70,-1 -19,-20 -19,-52 1,-71l21 -20 2 -153c-1,-7 -6,-12 -12,-15 -4,-2 -8,-2 -12,-2 -4,0 -7,0 -9,1l-2 1c-6,3 -10,9 -11,21l1 275c0,2 0,5 0,7 -4,53 11,110 40,158 28,47 69,86 117,106 12,5 24,9 37,11 13,3 26,4 38,4 25,0 50,-6 76,-16 26,-11 54,-27 82,-48l230 -236c3,-3 5,-6 6,-10 2,-5 2,-12 0,-18 0,-1 -1,-3 -1,-4l-144 145c-20,19 -51,19 -71,0 -19,-19 -19,-51 0,-70l173 -174zm113 27c12,15 21,31 26,49 7,25 7,51 -1,76 -5,16 -14,32 -26,46 -1,0 -1,1 -2,2l0 0 -235 240c-2,2 -4,4 -6,5l0 0c-35,27 -71,48 -107,62 -37,15 -75,24 -113,24 -20,0 -39,-2 -57,-6 -19,-4 -37,-9 -56,-17 -69,-28 -126,-82 -164,-146 -40,-66 -60,-143 -55,-217l0 -276 0 -2 0 0c2,-56 31,-92 69,-109 1,-1 2,-1 3,-1 16,-7 32,-10 48,-10 17,0 35,3 51,10 39,16 71,51 74,103 0,2 0,4 0,6l-1 54 220 -212c2,-1 4,-3 6,-4 39,-31 92,-34 131,-20 14,5 26,12 37,21 35,-22 72,-22 103,-8 15,6 29,16 40,28 11,11 19,26 24,41 8,24 8,49 -2,74 4,3 8,7 12,12 10,13 19,28 23,46 10,35 4,77 -25,113 -1,1 -2,2 -3,3l0 0 -14 13zm-1401 -638c-6,-27 11,-54 38,-60 27,-6 53,11 60,37 2,13 5,24 7,35 8,42 16,83 48,104 67,44 145,86 219,114l2 1c62,24 119,39 160,37 38,-1 87,-17 140,-41 57,-25 116,-57 170,-88 29,-17 50,-40 64,-67 15,-28 22,-60 19,-92 -2,-27 19,-51 46,-53 28,-3 52,18 54,46 4,49 -7,100 -30,145 -23,43 -57,80 -103,107 -58,33 -121,68 -180,94 -63,27 -124,47 -176,49 -55,2 -126,-15 -200,-44l-2 -1c-80,-31 -165,-75 -237,-123 -68,-45 -80,-107 -92,-170 -2,-10 -4,-21 -7,-30zm392 60c0,-24 29,-38 58,-30 39,10 78,10 118,0 33,-9 58,9 56,33 -4,46 -52,97 -115,97 -66,0 -117,-52 -117,-100zm292 -374c-13,24 -44,32 -68,19 -24,-14 -32,-44 -19,-68 24,-42 59,-71 97,-87 28,-12 58,-17 87,-15 29,1 58,9 83,24 33,18 61,47 77,85 10,26 -2,55 -27,66 -26,10 -55,-2 -66,-27 -6,-17 -18,-29 -33,-37 -2,-2 -4,-3 -6,-4 5,8 8,18 8,28 0,27 -22,49 -49,49 -28,0 -50,-22 -50,-49 0,-9 2,-17 6,-24 -15,8 -29,21 -40,40zm-524 0c-13,24 -44,32 -68,19 -24,-14 -32,-44 -19,-68 24,-42 59,-71 97,-87 28,-12 58,-17 87,-15 29,1 58,9 83,24 33,18 61,47 77,85 10,26 -2,55 -27,66 -26,10 -55,-2 -66,-27 -7,-17 -18,-29 -33,-37 -2,-2 -4,-3 -7,-4 6,8 9,18 9,28 0,27 -22,49 -50,49 -27,0 -49,-22 -49,-49 0,-9 2,-17 6,-24 -16,8 -29,21 -40,40zm-146 -417c-3,-21 -4,-44 -4,-62 -52,31 -82,90 -97,157 -5,21 -8,42 -10,64 24,-56 60,-110 111,-159zm105 -63c2,22 6,43 10,62l-1 0 1 1c38,-109 94,-187 160,-241 76,-62 162,-92 249,-105 27,-4 52,15 56,42 4,27 -15,53 -42,57 -70,10 -140,34 -200,83 -49,41 -93,100 -124,183 20,3 39,7 58,11 48,-69 110,-120 177,-153 1,-1 2,-1 3,-1 86,-42 182,-56 274,-49 27,3 48,27 46,54 -3,28 -27,48 -54,46 -76,-6 -154,5 -222,38l-3 1c-42,21 -81,51 -115,89 151,37 283,64 475,-67 22,-15 38,-27 54,-39 75,-54 140,-101 214,-105 -63,-102 -158,-179 -266,-229 -115,-51 -244,-71 -367,-54 -103,15 -204,62 -279,133 -48,46 -84,103 -102,167 1,4 0,8 0,12 -3,22 -3,43 -2,64zm951 33c-29,15 -58,36 -90,59l-5 4c64,75 104,136 130,206 6,16 11,32 15,48 2,-25 3,-49 3,-73 -1,-100 -22,-187 -53,-244z"/>
 </g>
</svg>
