<?xml version="1.0" encoding="UTF-8"?>
<!DOCTYPE svg PUBLIC "-//W3C//DTD SVG 1.1//EN" "http://www.w3.org/Graphics/SVG/1.1/DTD/svg11.dtd">
<!-- Creator: CorelDRAW X6 -->
<svg xmlns="http://www.w3.org/2000/svg" xml:space="preserve" width="25mm" height="25mm" version="1.1" style="shape-rendering:geometricPrecision; text-rendering:geometricPrecision; image-rendering:optimizeQuality; fill-rule:evenodd; clip-rule:evenodd"
viewBox="0 0 2500 2500"
 xmlns:xlink="http://www.w3.org/1999/xlink">
 <defs>
  <style type="text/css">
   <![CDATA[
    .fil0 {fill:white}
    .fil1 {fill:var(--icon-color);fill-rule:nonzero}
   ]]>
  </style>
 </defs>
 <g id="Слой_x0020_1">
  <metadata id="CorelCorpID_0Corel-Layer"/>
  <rect class="fil0" width="2500" height="2500" rx="390" ry="390"/>
  <path class="fil1" d="M1610 1460l0 0 0 0c-122,175 -235,102 -358,23l-9 -6 0 0c-13,-7 -24,-11 -33,-11l-1 0c0,2 0,4 1,7l0 0c3,10 10,21 22,33l0 0 147 133c19,16 22,43 9,64l-243 437c-15,26 -13,49 -3,66 4,6 10,12 16,16l2 1c6,3 12,5 19,6 17,2 37,-8 54,-33 1,-1 2,-2 3,-3l974 -1349c37,-55 59,-101 60,-140 0,-33 -16,-64 -55,-94l-277 -182 -1 -1c-16,-10 -29,-11 -39,-7 -4,2 -8,4 -10,7 -2,3 -4,7 -5,12 -2,10 2,23 15,36l159 128c46,37 67,75 66,123l0 1c-2,39 -19,79 -51,128 -1,2 -2,4 -3,5 -2,3 -3,5 -5,7l-340 443c-1,2 -2,3 -3,4l-111 146zm-118 -19l-220 -144c-23,-15 -29,-46 -14,-69 15,-23 46,-30 69,-15l230 151 54 -70 -236 -154c-23,-16 -29,-46 -14,-70 15,-23 46,-29 69,-14l242 159 54 -70 -248 -163c-23,-15 -29,-46 -14,-69 15,-23 46,-29 69,-14l253 166 54 -70 -259 -170c-23,-15 -29,-46 -14,-69 15,-23 46,-29 69,-14l265 173 54 -70 -271 -177c-23,-15 -29,-46 -14,-69 15,-23 46,-30 69,-15l272 179c8,-16 12,-29 12,-40l0 0c1,-13 -8,-26 -28,-42l-162 -130 0 0c-1,-1 -3,-3 -4,-4 -40,-39 -52,-85 -44,-125 3,-21 12,-41 25,-57 13,-16 30,-29 50,-37 37,-16 84,-14 131,15l2 1 278 182 0 1c1,0 2,1 3,2 68,52 96,110 95,176 -1,61 -29,125 -76,195l0 0 -1 1 -976 1350 0 2c-41,59 -96,80 -147,75 -21,-2 -42,-9 -60,-20 -2,0 -3,-1 -4,-2 -19,-12 -35,-28 -47,-47 -29,-44 -35,-105 0,-168l225 -405 -118 -106 0 0 -1 -1c-27,-25 -43,-53 -50,-79l0 0 0 0c-10,-36 -4,-70 14,-95 18,-26 48,-39 83,-39l0 0c26,0 55,9 83,25 1,1 2,1 3,2l9 6c67,43 129,83 186,42z"/>
  <path class="fil1" d="M769 1424l-119 -28c-17,34 -18,67 -19,98 -1,30 -3,59 -12,91 -9,35 -23,66 -41,94 -31,48 -74,86 -124,107 -50,23 -107,28 -165,12 -27,-8 -54,-20 -80,-36 -7,-5 -13,-10 -20,-15l0 0 0 0c-57,-44 -87,-103 -95,-163 -8,-60 6,-121 37,-170 4,-6 8,-12 12,-17 1,-1 2,-2 2,-3 19,-23 43,-43 70,-58 40,-23 87,-35 135,-33 49,2 98,19 142,53 13,10 25,21 36,33 16,-22 35,-48 56,-77 1,-1 2,-2 3,-4 37,-50 80,-108 123,-166 107,-142 218,-287 259,-336 19,-24 38,-47 57,-70l0 0 0 0 57 -69c27,-32 57,-69 87,-106 42,-51 83,-102 140,-169l0 0 169 -205 0 0c1,-2 2,-3 6,-8 31,-40 62,-80 126,-36l0 0c63,41 39,85 15,128 -1,2 -2,4 -4,9l0 0 -121 237 -1 2c-29,59 -64,127 -98,194 -18,34 -35,68 -63,121l-40 81 0 0 0 0 -41 80c-30,58 -119,217 -206,371 -38,67 -75,132 -108,189l0 0c-1,2 -2,4 -4,5 -14,26 -28,49 -40,69 30,10 57,23 81,41 34,24 63,56 82,93 19,37 30,78 28,121 -2,46 -17,92 -48,136 -38,52 -95,88 -159,100 -36,6 -74,5 -112,-5 -2,14 -2,32 0,50 4,37 17,74 37,95 19,20 19,51 -1,70 -20,20 -52,19 -71,-1 -35,-37 -58,-96 -64,-153 -4,-37 -2,-74 9,-106 -42,-32 -75,-76 -92,-127 -19,-54 -20,-115 4,-174l0 -1 0 0c13,-32 31,-64 55,-93 23,-29 51,-57 82,-83 29,-22 56,-39 79,-53 9,-6 18,-11 25,-15l-66 -100zm137 -221c25,16 32,50 15,75 -16,25 -50,32 -75,16 -25,-17 -32,-50 -16,-76 17,-25 50,-32 76,-15zm-195 105l97 22c13,3 25,10 33,22l56 85c22,-39 45,-79 68,-120 88,-154 176,-313 204,-367 6,-13 10,-21 41,-81l0 1 40 -81c14,-27 38,-74 63,-122 31,-61 63,-123 98,-193 0,-1 1,-2 1,-3l63 -123 -88 107 0 0 0 0c-37,44 -88,107 -139,169 -28,34 -56,68 -88,106l-57 70 0 0c-19,23 -38,46 -57,69 -40,48 -150,192 -256,333 -27,36 -54,72 -79,106zm-188 251c3,-11 5,-23 6,-34 -17,0 -34,-9 -44,-26 -16,-28 -34,-49 -53,-64 -27,-21 -57,-31 -86,-32 -29,-2 -58,6 -82,19 -16,9 -29,21 -40,34 -1,1 -2,2 -2,3 -3,3 -5,6 -7,9 -19,30 -27,66 -22,103 5,36 23,71 57,97l0 1c4,3 8,6 13,9 18,11 36,19 53,24 35,9 69,6 99,-7 31,-14 58,-38 79,-70 13,-20 23,-42 29,-66zm296 156c-9,0 -18,-2 -26,-7 -8,-6 -15,-13 -19,-22 -17,16 -33,33 -47,51 -17,22 -31,45 -40,68l0 0c-15,36 -14,73 -3,106 12,36 38,67 70,88 37,23 76,29 112,23 39,-7 73,-29 96,-61 19,-27 28,-54 29,-81 1,-24 -5,-49 -16,-71 -12,-22 -30,-42 -52,-58 -29,-21 -65,-34 -104,-36z"/>
 </g>
</svg>
