<?xml version="1.0" encoding="UTF-8"?>
<!DOCTYPE svg PUBLIC "-//W3C//DTD SVG 1.1//EN" "http://www.w3.org/Graphics/SVG/1.1/DTD/svg11.dtd">
<!-- Creator: CorelDRAW X6 -->
<svg xmlns="http://www.w3.org/2000/svg" xml:space="preserve" width="25mm" height="25mm" version="1.1" style="shape-rendering:geometricPrecision; text-rendering:geometricPrecision; image-rendering:optimizeQuality; fill-rule:evenodd; clip-rule:evenodd"
viewBox="0 0 2500 2500"
 xmlns:xlink="http://www.w3.org/1999/xlink">
 <defs>
  <style type="text/css">
   <![CDATA[
    .fil0 {fill:white}
    .fil1 {fill:var(--icon-color);fill-rule:nonzero}
   ]]>
  </style>
 </defs>
 <g id="Слой_x0020_1">
  <metadata id="CorelCorpID_0Corel-Layer"/>
  <rect class="fil0" width="2500" height="2500" rx="390" ry="390"/>
  <path class="fil1" d="M330 1503c-19,-20 -17,-52 4,-70 21,-18 52,-16 70,4l246 279c18,20 17,52 -4,70 -21,18 -52,16 -70,-4l-246 -279zm1429 -303c164,0 312,66 420,173 107,108 173,256 173,420 0,163 -66,312 -173,419 -108,107 -256,174 -420,174 -164,0 -312,-67 -419,-174 -107,-107 -174,-256 -174,-419 0,-164 67,-312 174,-420 107,-107 255,-173 419,-173zm349 244c-89,-89 -213,-144 -349,-144 -136,0 -259,55 -348,144 -90,89 -145,212 -145,349 0,136 55,259 145,348 89,89 212,145 348,145 136,0 260,-56 349,-145 89,-89 144,-212 144,-348 0,-137 -55,-260 -144,-349zm-349 -44c109,0 207,44 278,115 71,71 115,169 115,278 0,108 -44,206 -115,277 -71,71 -169,115 -278,115 -108,0 -206,-44 -277,-115 -71,-71 -115,-169 -115,-277 0,-109 44,-207 115,-278 71,-71 169,-115 277,-115zm207 186c-53,-53 -126,-86 -207,-86 -81,0 -154,33 -207,86 -52,53 -85,126 -85,207 0,80 33,153 85,206 53,53 126,86 207,86 81,0 154,-33 207,-86 53,-53 86,-126 86,-206 0,-81 -33,-154 -86,-207zm-207 4c56,0 107,23 143,59l1 0c36,37 59,88 59,144 0,56 -23,106 -59,143 -37,37 -88,59 -144,59 -56,0 -106,-22 -143,-59l0 0c-37,-37 -60,-88 -60,-143 0,-56 23,-107 60,-144l0 0c37,-36 87,-59 143,-59zm73 130c-19,-19 -44,-30 -73,-30 -28,0 -54,11 -73,30 -18,18 -30,44 -30,73 0,28 12,54 30,72l1 0c18,19 44,30 72,30 29,0 54,-11 73,-30 18,-18 30,-44 30,-72 0,-29 -12,-55 -30,-73l0 0zm-1332 293l-404 -460c-18,-21 -16,-52 4,-70l0 0 1588 -1413c20,-18 52,-17 70,4l2 2 230 240c14,15 17,36 10,53l0 0 -69 170c-7,16 -21,27 -38,30l-137 33 -17 166c-2,21 -17,37 -35,43l0 0 -171 54 -22 154c-3,22 -20,38 -41,42l-169 44 -17 171c-3,21 -17,37 -36,43l0 0 -197 60 -22 153c-2,19 -15,34 -32,40l-148 59 -37 169c-3,13 -10,23 -19,30l-222 190c-21,18 -52,15 -70,-6l-1 -1zm-297 -489l341 388 174 -149 33 -155 -286 -316 -262 232zm616 11l116 -45 22 -154c1,-20 15,-38 35,-44l196 -59 18 -173 0 0c2,-20 16,-38 37,-43l174 -45 21 -149c2,-20 15,-38 35,-44l170 -54 18 -168 0 0c2,-20 16,-38 37,-43l150 -36 47 -116 -177 -186 -1179 1049 280 310z"/>
 </g>
</svg>
