<?xml version="1.0" encoding="UTF-8"?>
<!DOCTYPE svg PUBLIC "-//W3C//DTD SVG 1.1//EN" "http://www.w3.org/Graphics/SVG/1.1/DTD/svg11.dtd">
<!-- Creator: CorelDRAW X6 -->
<svg xmlns="http://www.w3.org/2000/svg" xml:space="preserve" width="25mm" height="25mm" version="1.1" style="shape-rendering:geometricPrecision; text-rendering:geometricPrecision; image-rendering:optimizeQuality; fill-rule:evenodd; clip-rule:evenodd"
viewBox="0 0 2500 2500"
 xmlns:xlink="http://www.w3.org/1999/xlink">
 <defs>
  <style type="text/css">
   <![CDATA[
    .fil0 {fill:white}
    .fil1 {fill:var(--icon-color);fill-rule:nonzero}
   ]]>
  </style>
 </defs>
 <g id="Слой_x0020_1">
  <metadata id="CorelCorpID_0Corel-Layer"/>
  <rect class="fil0" width="2500" height="2500" rx="390" ry="390"/>
  <path class="fil1" d="M228 1621c-26,-8 -40,-36 -32,-63 8,-26 36,-40 63,-32l314 102 -218 -248c-19,-20 -17,-52 4,-70 20,-18 52,-16 70,4l114 129c-9,-28 -16,-54 -23,-81 -33,-133 -46,-264 -30,-389 17,-128 65,-250 155,-364 67,-85 158,-158 260,-206 89,-42 187,-64 286,-59 118,-97 255,-135 389,-128 147,8 290,73 394,174 73,70 130,162 169,263 40,104 62,218 62,331 1,88 -10,174 -28,254 -18,77 -42,149 -69,212 38,19 72,44 101,73 73,73 118,173 118,284 0,111 -45,211 -118,284 -72,72 -172,117 -283,117 -111,0 -211,-45 -284,-117 -72,-73 -117,-173 -117,-284 0,-111 45,-211 117,-284 73,-72 173,-117 284,-117 30,0 60,3 88,10 26,-59 49,-127 65,-199 17,-74 27,-153 27,-232 -1,-101 -20,-203 -56,-296 -34,-88 -83,-167 -145,-227 -88,-85 -207,-139 -331,-146 -83,-5 -167,12 -246,55 45,15 88,37 128,63 71,48 132,112 171,189 8,15 15,31 20,46 33,89 28,172 -1,242 -29,71 -83,127 -147,160 -11,5 -23,10 -34,14 -81,30 -174,29 -256,-9l0 0c-71,-33 -134,-95 -173,-189 -32,-79 -40,-186 -10,-292 14,-50 36,-100 69,-147 -51,8 -101,23 -148,45 -87,41 -165,104 -224,178 -78,99 -119,204 -134,315 -9,66 -8,135 0,205 19,3 36,16 42,35l78 258 30 -268c3,-27 28,-47 55,-44 28,3 47,28 44,55l-30 269 134 -235c13,-23 44,-32 68,-18 24,13 32,44 18,68l-133 234 215 -162c22,-17 53,-12 70,10 17,22 12,53 -10,69l-215 163 262 -64c27,-7 54,10 60,37 7,26 -10,53 -36,60l-263 64 267 45c27,4 45,30 41,57 -5,27 -30,46 -58,41l-266 -45 227 147c23,14 30,45 15,68 -15,24 -46,30 -69,16l-227 -147 151 224c15,23 9,54 -14,70 -22,15 -54,9 -69,-14l-151 -224 50 266c5,27 -12,53 -39,58 -28,5 -54,-13 -59,-40l-50 -266 -59 264c-6,27 -32,44 -59,38 -27,-6 -44,-32 -38,-59l59 -264 -158 219c-16,22 -48,27 -70,11 -22,-16 -27,-47 -11,-69l158 -220 -232 139c-24,14 -54,7 -68,-17 -14,-23 -7,-54 17,-68l232 -139 -268 36c-27,4 -53,-16 -56,-43 -4,-27 15,-52 43,-56l290 -39 -279 -90zm1173 -1104c-54,-36 -115,-60 -176,-69 -53,52 -86,113 -103,174 -24,84 -18,167 6,227 28,69 73,113 123,136l0 0 0 0c57,27 123,27 180,6 7,-2 15,-6 23,-10 44,-22 80,-60 100,-108 20,-48 23,-106 0,-170 -5,-11 -10,-23 -16,-35 -31,-61 -80,-112 -137,-151zm738 1077c-55,-54 -130,-88 -213,-88 -83,0 -159,34 -213,88 -55,55 -88,130 -88,213 0,83 33,158 88,213 54,54 130,88 213,88 83,0 158,-34 213,-88 54,-55 88,-130 88,-213 0,-83 -34,-158 -88,-213zm-171 99c-28,-2 -48,-27 -46,-54 3,-28 27,-48 55,-46 51,5 97,29 130,65 33,36 53,83 53,135 0,25 -5,49 -13,71l0 1 0 0c-9,22 -22,43 -38,62 -18,20 -50,22 -70,4 -21,-19 -23,-50 -4,-71 8,-9 14,-20 18,-31l0 0c5,-11 7,-23 7,-36 0,-26 -10,-50 -26,-68 -17,-18 -40,-30 -66,-32z"/>
 </g>
</svg>
