<?xml version="1.0" encoding="UTF-8"?>
<!DOCTYPE svg PUBLIC "-//W3C//DTD SVG 1.1//EN" "http://www.w3.org/Graphics/SVG/1.1/DTD/svg11.dtd">
<!-- Creator: CorelDRAW X6 -->
<svg xmlns="http://www.w3.org/2000/svg" xml:space="preserve" width="25mm" height="25mm" version="1.1" style="shape-rendering:geometricPrecision; text-rendering:geometricPrecision; image-rendering:optimizeQuality; fill-rule:evenodd; clip-rule:evenodd"
viewBox="0 0 2500 2500"
 xmlns:xlink="http://www.w3.org/1999/xlink">
 <defs>
  <style type="text/css">
   <![CDATA[
    .fil0 {fill:white}
    .fil1 {fill:var(--icon-color);fill-rule:nonzero}
   ]]>
  </style>
 </defs>
 <g id="Слой_x0020_1">
  <metadata id="CorelCorpID_0Corel-Layer"/>
  <rect class="fil0" width="2500" height="2500" rx="390" ry="390"/>
  <path class="fil1" d="M1629 552l0 -211c0,-18 7,-33 20,-44l0 -1 0 0c11,-9 25,-15 41,-15l188 0c16,0 30,6 41,15l0 0c12,11 20,27 20,45l0 391c0,2 0,3 0,5l446 266c24,14 32,44 18,68 -14,24 -45,31 -69,17l-1084 -645 -1084 645c-24,14 -55,7 -69,-17 -14,-24 -6,-54 18,-68l1110 -661c16,-10 36,-9 51,0l353 210zm-892 496c-27,0 -50,-22 -50,-50 0,-27 23,-50 50,-50l1015 0c28,0 50,23 50,50 0,28 -22,50 -50,50l-1015 0zm1379 53c-29,0 -56,12 -75,31 -19,19 -31,46 -31,75 0,29 12,56 31,75 19,19 46,31 75,31 29,0 56,-12 75,-31 19,-19 31,-46 31,-75 0,-29 -12,-56 -31,-75 -19,-19 -46,-31 -75,-31zm-146 -40c38,-37 89,-60 146,-60 57,0 108,23 146,60 37,38 60,89 60,146 0,57 -23,108 -60,146 -28,27 -63,47 -102,55 39,9 74,29 102,56 37,37 60,89 60,146 0,55 -22,105 -57,142 -1,1 -2,2 -3,4 -28,27 -63,47 -102,55 39,9 74,28 102,56 37,37 60,89 60,146 0,55 -22,105 -57,142 -1,1 -2,2 -3,3 -38,37 -89,61 -146,61 -3,0 -5,0 -8,-1l-492 1c-27,0 -50,-23 -50,-50l0 0 0 -710 -422 0 0 353 0 357c0,28 -23,50 -50,50 -2,0 -3,0 -5,0l-697 -1c-3,1 -5,1 -8,1 -57,0 -108,-24 -146,-61l0 0 0 0c-37,-37 -60,-89 -60,-145 0,-57 23,-109 60,-146 28,-28 63,-47 102,-56 -39,-8 -74,-28 -102,-55l0 -1 0 0c-37,-37 -60,-88 -60,-145 0,-57 23,-109 60,-146 28,-27 63,-47 102,-56 -39,-8 -74,-28 -102,-55 -37,-38 -60,-89 -60,-146 0,-57 23,-108 60,-146 38,-37 89,-60 146,-60 57,0 108,23 146,60 37,38 60,89 60,146 0,57 -23,108 -60,146 -2,2 -5,4 -7,6l1454 0c-2,-2 -5,-4 -7,-6 -37,-38 -60,-89 -60,-146 0,-57 23,-108 60,-146zm146 443c-29,0 -56,12 -75,31l0 0c-19,19 -31,46 -31,75 0,29 12,56 31,75 1,1 1,1 2,2 19,18 45,29 73,29 29,0 56,-12 75,-31 1,-1 1,-2 2,-2 18,-19 29,-45 29,-73 0,-29 -12,-56 -31,-75 -19,-19 -46,-31 -75,-31zm-146 -40c2,-2 4,-3 6,-5l-310 0 0 302 311 0 -4 -3c-1,-1 -2,-1 -3,-2 -37,-38 -60,-89 -60,-146 0,-57 23,-109 60,-146l0 0 0 0zm146 442c-29,0 -56,12 -75,31l0 1c-19,19 -31,45 -31,75 0,29 12,55 31,75 1,0 1,1 2,2 19,18 45,29 73,29 29,0 56,-12 75,-31 1,-1 1,-2 2,-3 18,-19 29,-44 29,-72 0,-30 -12,-56 -31,-75 -19,-20 -46,-32 -75,-32zm-146 -39c2,-2 4,-4 6,-6l-310 0 0 258 273 0c-18,-31 -29,-68 -29,-106 0,-57 23,-109 60,-146l0 0 0 0zm-1586 -766c-29,0 -56,12 -75,31 -19,19 -31,46 -31,75 0,29 12,56 31,75 19,19 46,31 75,31 29,0 56,-12 75,-31 19,-19 31,-46 31,-75 0,-29 -12,-56 -31,-75 -19,-19 -46,-31 -75,-31zm0 403c-29,0 -56,12 -75,31 -19,19 -31,46 -31,75 0,29 12,56 31,75l0 0c19,19 46,31 75,31 29,0 56,-12 75,-31l0 0c19,-19 31,-46 31,-75 0,-29 -12,-56 -31,-75 -1,-1 -1,-2 -2,-2 -19,-18 -45,-29 -73,-29zm140 -45l3 2c1,1 2,2 3,3 37,37 60,89 60,146 0,57 -23,108 -60,146l0 -1 0 1c-3,2 -5,4 -7,6l521 0 0 -303 -520 0zm-140 447c-29,0 -56,12 -75,32 -19,19 -31,45 -31,75 0,29 12,55 31,75l0 0c19,19 46,31 75,31 29,0 56,-12 75,-31l0 0c19,-20 31,-46 31,-75 0,-30 -12,-56 -31,-75 -1,-1 -1,-2 -2,-3 -19,-18 -45,-29 -73,-29zm140 -44l3 2c1,1 2,2 3,3 37,37 60,89 60,146 0,38 -11,75 -29,106l483 0 0 -257 -520 0zm1315 -1184l0 -297 -110 0 0 231 110 66z"/>
 </g>
</svg>
