<?xml version="1.0" encoding="UTF-8"?>
<!DOCTYPE svg PUBLIC "-//W3C//DTD SVG 1.1//EN" "http://www.w3.org/Graphics/SVG/1.1/DTD/svg11.dtd">
<!-- Creator: CorelDRAW X6 -->
<svg xmlns="http://www.w3.org/2000/svg" xml:space="preserve" width="25mm" height="25mm" version="1.1" style="shape-rendering:geometricPrecision; text-rendering:geometricPrecision; image-rendering:optimizeQuality; fill-rule:evenodd; clip-rule:evenodd"
viewBox="0 0 2500 2500"
 xmlns:xlink="http://www.w3.org/1999/xlink">
 <defs>
  <style type="text/css">
   <![CDATA[
    .fil0 {fill:white}
    .fil1 {fill:var(--icon-color);fill-rule:nonzero}
   ]]>
  </style>
 </defs>
 <g id="Слой_x0020_1">
  <metadata id="CorelCorpID_0Corel-Layer"/>
  <rect class="fil0" width="2500" height="2500" rx="390" ry="390"/>
  <path class="fil1" d="M1991 2085c3,27 -17,52 -44,55 -28,2 -52,-18 -55,-45l-47 -457c-3,-27 17,-51 45,-54 27,-3 52,17 54,44l47 457z"/>
  <path class="fil1" d="M2277 830c-3,175 -22,320 -77,454l29 0c25,0 47,19 50,44l94 762c0,28 -22,50 -50,50l-1685 0c-2,0 -4,0 -6,0 -27,-4 -47,-29 -43,-56l93 -755c3,-25 24,-45 50,-45l29 0c-55,-134 -74,-280 -77,-454l-19 0c-18,0 -34,-7 -45,-19 -12,-11 -19,-27 -19,-44l0 -206c0,-17 7,-33 19,-45 11,-11 27,-18 45,-18l104 0c-9,-18 -24,-31 -41,-40l0 0c-14,-6 -29,-10 -44,-11 -15,0 -30,2 -44,8 -29,12 -52,40 -58,87 0,2 0,4 0,6l-231 1550c-4,27 -29,46 -56,42 -27,-4 -46,-30 -42,-57l230 -1550 0 -1c10,-89 59,-144 119,-169 27,-12 57,-16 86,-15 29,1 58,8 84,20l0 0 0 0c50,25 89,69 102,130l1423 0c17,0 33,7 44,18 12,12 19,28 19,45l0 206c0,17 -7,33 -19,44 -11,12 -27,19 -44,19l-20 0zm-126 554c-73,127 -185,246 -354,375 -9,7 -20,10 -30,10l0 1 -286 0 -287 0c-13,0 -25,-6 -34,-14 -19,-15 -39,-30 -57,-45l-29 329 1193 0 -82 -656 -34 0zm-1141 246c-87,-82 -152,-162 -200,-246l-34 0 -81 656 279 0 36 -410zm-277 -900l748 0 747 0 32 0 0 -132 -1559 0 0 132 32 0zm469 100c5,139 23,279 64,417 42,140 110,278 215,408 104,-130 172,-268 215,-408 41,-138 59,-278 63,-417l-278 0 -279 0zm657 0c-5,148 -24,298 -68,445 -41,135 -103,268 -196,395l155 0c179,-138 286,-263 347,-399 58,-128 78,-269 81,-441l-319 0zm-493 840c-93,-127 -155,-260 -196,-395 -44,-147 -63,-297 -67,-445l-319 0c3,172 22,313 80,441 62,136 168,261 347,399l155 0z"/>
 </g>
</svg>
