<?xml version="1.0" encoding="UTF-8"?>
<!DOCTYPE svg PUBLIC "-//W3C//DTD SVG 1.1//EN" "http://www.w3.org/Graphics/SVG/1.1/DTD/svg11.dtd">
<!-- Creator: CorelDRAW X6 -->
<svg xmlns="http://www.w3.org/2000/svg" xml:space="preserve" width="25mm" height="25mm" version="1.1" style="shape-rendering:geometricPrecision; text-rendering:geometricPrecision; image-rendering:optimizeQuality; fill-rule:evenodd; clip-rule:evenodd"
viewBox="0 0 2500 2500"
 xmlns:xlink="http://www.w3.org/1999/xlink">
 <defs>
  <style type="text/css">
   <![CDATA[
    .fil0 {fill:white}
    .fil1 {fill:var(--icon-color);fill-rule:nonzero}
   ]]>
  </style>
 </defs>
 <g id="Слой_x0020_1">
  <metadata id="CorelCorpID_0Corel-Layer"/>
  <rect class="fil0" width="2500" height="2500" rx="390" ry="390"/>
  <path class="fil1" d="M583 1476l1 -5c8,-112 -8,-244 -62,-344 -27,-50 -61,-85 -97,-100l-2 33c114,57 137,275 132,392 0,4 0,7 -1,11l29 13zm90 -465l0 -5c2,-19 2,-38 2,-58 0,-112 -24,-214 -63,-286 -27,-50 -61,-86 -97,-100l-2 32c108,55 133,258 133,354 0,12 -1,24 -1,38 0,4 -1,8 -1,11l29 14zm31 93c-7,0 -13,-1 -18,-4l-134 -64c13,17 25,36 36,56 8,14 15,30 22,46l535 0c21,0 38,17 38,38 0,20 -17,37 -38,37l-510 0c16,61 26,129 26,201 0,21 -1,42 -3,63 0,6 -1,12 -1,18l1340 0c1,-8 1,-16 2,-24 6,-77 0,-159 -20,-235l-372 0c-21,0 -38,-16 -38,-37 0,-21 17,-38 38,-38l346 0c-8,-19 -18,-39 -30,-57l-1219 0zm-288 -158l27 -428 0 0c0,-21 17,-38 37,-38l1409 0c82,0 153,55 202,144 63,113 82,259 73,387 -2,19 -4,39 -7,58 -1,20 -18,35 -37,35l-111 0c57,111 74,250 65,373 -1,7 -1,13 -2,20 10,13 19,28 27,43 63,113 82,259 73,387 -2,19 -4,38 -7,58 -1,19 -18,35 -37,35l-1416 0c-7,0 -13,-2 -18,-5 -83,-39 -166,-78 -248,-117 -14,-6 -23,-20 -22,-36l23 -367 -99 -47c-14,-6 -23,-20 -22,-36l27 -429c0,-20 17,-37 37,-37l26 0zm331 83l1340 0c1,-7 1,-15 2,-23 6,-78 0,-160 -20,-235l-745 0c-21,0 -38,-17 -38,-38 0,-20 17,-37 38,-37l719 0c-5,-13 -11,-24 -17,-35 -36,-66 -85,-106 -137,-106l-1260 0c18,20 34,44 49,71 8,15 15,30 22,47l231 0c21,0 37,16 37,37 0,21 -16,38 -37,38l-206 0c16,60 25,129 25,200 0,21 0,42 -2,63 0,6 -1,12 -1,18zm-247 -225c13,11 24,28 31,48 11,26 17,60 17,96l0 4 23 11c0,-5 0,-10 0,-15 0,-75 -15,-196 -64,-262l-7 118zm404 141c-20,0 -37,-17 -37,-37 0,-21 17,-38 37,-38l724 0c21,0 38,17 38,38 0,20 -17,37 -38,37l-724 0zm-223 981l0 -5c7,-87 -6,-246 -63,-351 -8,0 -14,0 -22,-5l-22 -10c68,88 83,251 79,347 0,3 -1,7 -1,11l29 13zm19 -356c53,115 66,261 55,375l1340 0c1,-8 1,-16 2,-24 6,-78 0,-159 -20,-235l-568 0c-21,0 -38,-16 -38,-37 0,-21 17,-38 38,-38l542 0c-1,-10 -17,-41 -20,-41l-1331 0zm-290 -301c13,12 24,28 32,48 10,27 16,61 16,97l0 4 23 10c0,-4 0,-9 0,-14 0,-75 -14,-196 -64,-263l-7 118zm486 142c-20,0 -37,-17 -37,-38 0,-20 17,-37 37,-37l550 0c20,0 37,17 37,37 0,21 -17,38 -37,38l-550 0zm-388 308c13,12 24,28 31,48 11,27 17,61 17,97l0 3 23 11c0,-4 0,-9 0,-14 0,-76 -15,-196 -64,-263l-7 118zm404 142c-20,0 -37,-17 -37,-38 0,-21 17,-37 37,-37l907 0c21,0 37,16 37,37 0,21 -16,38 -37,38l-907 0z"/>
 </g>
</svg>
