<?xml version="1.0" encoding="UTF-8"?>
<!DOCTYPE svg PUBLIC "-//W3C//DTD SVG 1.1//EN" "http://www.w3.org/Graphics/SVG/1.1/DTD/svg11.dtd">
<!-- Creator: CorelDRAW X6 -->
<svg xmlns="http://www.w3.org/2000/svg" xml:space="preserve" width="25mm" height="25mm" version="1.1" style="shape-rendering:geometricPrecision; text-rendering:geometricPrecision; image-rendering:optimizeQuality; fill-rule:evenodd; clip-rule:evenodd"
viewBox="0 0 2500 2500"
 xmlns:xlink="http://www.w3.org/1999/xlink">
 <defs>
  <style type="text/css">
   <![CDATA[
    .fil0 {fill:white}
    .fil1 {fill:var(--icon-color);fill-rule:nonzero}
   ]]>
  </style>
 </defs>
 <g id="Слой_x0020_1">
  <metadata id="CorelCorpID_0Corel-Layer"/>
  <rect class="fil0" width="2500" height="2500" rx="390" ry="390"/>
  <path class="fil1" d="M1856 1648c58,-45 12,-161 45,-212 20,-30 40,-60 82,-81 55,-27 124,-27 120,-109 -2,-35 -22,-61 -36,-91 -6,-11 -10,-24 -14,-37 -8,-34 -6,-64 5,-90 18,-40 51,-57 86,-73 68,-31 115,-55 85,-140 -22,-61 -70,-73 -86,-155 -8,-39 -4,-78 11,-120 11,-32 12,-61 7,-86 -11,-63 -47,-97 -110,-107 -25,-4 -54,-2 -86,10 -41,16 -81,21 -119,14 -38,-6 -74,-24 -108,-53 -25,-22 -66,-38 -99,-36 -89,6 -74,144 -158,184 -26,13 -57,16 -90,8 -44,-10 -88,-45 -130,-46 -14,0 -28,2 -40,8 -47,21 -51,88 -72,127 -30,55 -77,84 -138,92 -34,4 -83,-2 -115,10 -12,5 -21,11 -29,19 -8,9 -14,20 -18,34 -8,28 -6,58 2,86 12,47 36,94 39,143 3,50 -18,90 -63,113 -16,8 -33,13 -48,17 -23,6 -40,14 -50,24 -36,36 -13,186 -8,223 11,85 30,173 47,235l222 202c44,10 156,28 255,41 75,10 142,16 163,13 62,-10 54,-70 76,-117 22,-46 61,-67 111,-66 50,2 96,24 144,35 42,9 86,11 117,-19zm-1251 81c-20,-19 -21,-51 -2,-71 19,-20 50,-21 70,-2l212 199c20,19 21,50 2,71 -18,20 -50,21 -70,2l-212 -199zm628 172c-112,-14 -240,-36 -278,-45 -9,-2 -17,-6 -23,-12l-241 -220c-7,-6 -12,-14 -14,-23 -20,-66 -42,-167 -55,-263 -12,-87 -36,-235 36,-307 24,-24 56,-41 96,-51 19,-5 37,-6 36,-27 -1,-10 -4,-23 -7,-35l0 0c-9,-30 -20,-58 -29,-88 -12,-46 -14,-94 -1,-140 9,-28 22,-53 41,-74 18,-19 41,-34 66,-44 58,-22 85,-9 139,-16 12,-2 24,-5 35,-11l0 0c12,-7 21,-18 28,-30 28,-51 13,-77 59,-128 16,-18 36,-32 59,-42 26,-12 54,-17 83,-17 28,1 56,7 83,19 3,2 7,3 11,6 2,1 6,2 12,6 7,3 15,7 24,11 6,3 13,5 20,7 66,15 38,-124 155,-177 22,-11 46,-16 70,-17 119,-4 154,78 225,90 20,3 42,0 66,-9 51,-20 97,-22 137,-16 104,16 174,84 193,188 8,40 7,87 -11,137 -9,25 -12,47 -8,67 5,21 27,51 47,81 32,46 50,82 50,141 -1,24 -5,48 -15,71 -23,56 -58,72 -110,96 -37,16 -70,34 -62,64 1,6 4,13 7,20 22,47 43,67 45,129 3,53 -16,106 -54,143 -17,16 -37,28 -59,36 -33,14 -76,20 -96,54l-1 2c-18,35 -12,68 -10,104 3,43 -1,88 -58,141 -45,41 -98,53 -151,49 -44,-2 -89,-19 -129,-30 -60,-16 -68,-21 -83,40 -7,25 -12,50 -40,82 -1,1 -2,2 -3,3 -25,26 -56,42 -95,48 -31,4 -107,-2 -190,-13zm-715 467c-15,24 -46,31 -69,16 -23,-14 -30,-45 -16,-68l221 -353 -3 -3 -281 298c-19,20 -51,21 -71,2 -20,-18 -21,-50 -2,-70l281 -299 -5 -5 -353 216c-24,14 -55,7 -69,-17 -14,-23 -7,-54 17,-69l331 -201c-11,-19 -8,-43 7,-60 19,-20 50,-21 71,-2l212 199c20,19 21,50 2,71 -17,17 -42,20 -62,8l-211 337z"/>
 </g>
</svg>
