<?xml version="1.0" encoding="UTF-8"?>
<!DOCTYPE svg PUBLIC "-//W3C//DTD SVG 1.1//EN" "http://www.w3.org/Graphics/SVG/1.1/DTD/svg11.dtd">
<!-- Creator: CorelDRAW X6 -->
<svg xmlns="http://www.w3.org/2000/svg" xml:space="preserve" width="25mm" height="25.5mm" version="1.1" style="shape-rendering:geometricPrecision; text-rendering:geometricPrecision; image-rendering:optimizeQuality; fill-rule:evenodd; clip-rule:evenodd"
viewBox="0 0 2500 2550"
 xmlns:xlink="http://www.w3.org/1999/xlink">
 <defs>
  <style type="text/css">
   <![CDATA[
    .fil0 {fill:white}
    .fil1 {fill:var(--icon-color);fill-rule:nonzero}
   ]]>
  </style>
 </defs>
 <g id="Слой_x0020_1">
  <metadata id="CorelCorpID_0Corel-Layer"/>
  <rect class="fil0" y="25" width="2500" height="2500" rx="390" ry="390"/>
  <path class="fil1" d="M2061 1099l-450 -685 -282 302 418 647 314 -264zm-1602 609l326 460 776 -650 -1102 190zm274 558l-398 -562 0 0c-1,-1 -2,-2 -3,-3l0 0c0,-1 -1,-3 -2,-4l0 0 0 0 -1 -2 0 0 -1 -1 0 -1 0 0 0 -1 -1 -1 0 0 0 -1 0 0c-5,-12 -5,-25 0,-37l0 -1 1 -1 0 0 0 -1 634 -1361 0 -1 0 0c4,-8 10,-15 18,-21 10,-6 21,-8 31,-7l605 23c17,0 33,8 43,23l510 776 0 0c4,6 6,12 7,19l0 1 0 0 0 1 0 1 0 0 1 1 0 0 0 1 0 0 0 1 0 0 0 1 0 0 0 1 0 1 0 0 0 1 0 1 0 1 0 0 0 1 -1 0 0 1 0 1 0 0 0 1 0 0 0 1 0 0 0 1 0 0c-1,3 -2,5 -3,8l-395 1126c-5,22 -25,38 -48,38l-954 0 0 0c-14,0 -28,-6 -38,-18 -2,-2 -4,-5 -5,-7zm1049 -324l236 -674 -233 201 -3 473zm-97 -397l-772 646 767 0 5 -646zm-544 -626l-631 679 1142 -197 -393 -609 -118 127zm-572 469l634 -683 -189 -293 -462 995 17 -19zm894 -962l44 -47 -406 -16 172 267 190 -204z"/>
 </g>
</svg>
