<?xml version="1.0" encoding="UTF-8"?>
<!DOCTYPE svg PUBLIC "-//W3C//DTD SVG 1.1//EN" "http://www.w3.org/Graphics/SVG/1.1/DTD/svg11.dtd">
<!-- Creator: CorelDRAW X6 -->
<svg xmlns="http://www.w3.org/2000/svg" xml:space="preserve" width="25mm" height="25.5mm" version="1.1" style="shape-rendering:geometricPrecision; text-rendering:geometricPrecision; image-rendering:optimizeQuality; fill-rule:evenodd; clip-rule:evenodd"
viewBox="0 0 2500 2550"
 xmlns:xlink="http://www.w3.org/1999/xlink">
 <defs>
  <style type="text/css">
   <![CDATA[
    .fil0 {fill:white}
    .fil1 {fill:var(--icon-color);fill-rule:nonzero}
   ]]>
  </style>
 </defs>
 <g id="Слой_x0020_1">
  <metadata id="CorelCorpID_0Corel-Layer"/>
  <rect class="fil0" y="25" width="2500" height="2500" rx="390" ry="390"/>
  <path class="fil1" d="M392 1977c-14,-9 -23,-25 -23,-42 0,-11 3,-22 10,-30l-132 -711c-1,-3 -1,-5 -1,-8l-38 -206c-2,-7 -2,-14 -2,-20 0,-32 14,-61 36,-82 19,-20 46,-34 75,-39l0 0 0 -213c0,-88 35,-167 93,-224 57,-58 137,-93 224,-93l0 0c87,0 166,35 224,93 57,57 93,136 93,224l0 210 540 0 0 -210c0,-88 36,-167 93,-224 57,-58 137,-93 224,-93l0 0c87,0 167,35 224,93 57,57 93,136 93,224l0 210 19 0c7,0 15,1 23,2 29,5 56,19 76,39 23,22 37,51 37,84 0,6 -1,12 -2,19l-167 960c0,2 0,4 -1,6l-21 124c-6,34 -21,65 -44,88l0 0 0 1c-23,23 -54,37 -90,37l-965 0c-5,2 -10,3 -16,3 -7,1 -14,0 -20,-3l-411 0c-36,0 -67,-14 -90,-37 -23,-23 -38,-55 -44,-89l-17 -93zm84 -92l431 0 -37 -654 -515 0 121 654zm-139 -754l528 0 -11 -195 -487 0 -25 0 0 0 -1 0 0 0 0 0 0 0 0 0c-3,0 -5,0 -6,1 -9,1 -17,5 -23,11 -4,4 -6,8 -6,12l0 2 31 169zm616 -195l11 195 513 0 11 -195 -535 0zm1072 -100l0 -210c0,-60 -24,-114 -64,-154 -39,-39 -93,-63 -153,-63l0 0c-60,0 -114,24 -153,63 -40,40 -64,94 -64,154l0 210 434 0zm-437 100l-11 195 573 0 30 -168c0,-1 0,-1 0,-2 0,-4 -3,-9 -7,-13 -6,-6 -14,-10 -23,-11 -2,-1 -4,-1 -6,-1l-69 0 -487 0zm545 295l-562 0 -38 654 487 0 113 -654zm-131 754l-475 0 -6 111 434 0c7,0 14,-3 19,-8l0 0c8,-8 14,-21 16,-35l12 -68zm-581 111l7 -111 -416 0 7 111 402 0zm-502 0l-6 -111 -418 0 12 67c3,15 9,28 17,36 5,5 11,8 19,8l376 0zm889 -1612c38,0 73,15 98,40 1,1 2,3 3,4 23,25 38,58 38,94 0,39 -16,73 -41,98 -25,26 -60,41 -98,41 -38,0 -73,-15 -98,-41l0 0c-25,-25 -41,-59 -41,-98 0,-38 16,-72 41,-98l0 0 0 0 0 0c25,-25 60,-40 98,-40zm27 111c-7,-7 -16,-11 -27,-11 -11,0 -21,4 -27,11l-1 0c-7,7 -11,17 -11,27 0,11 5,21 12,28l-1 0 1 0c6,7 16,11 27,11 11,0 20,-4 27,-11 7,-7 12,-17 12,-28 0,-10 -4,-19 -10,-25l-2 -2zm-364 636l-501 0 37 654 426 0 38 -654zm-837 -747c38,0 73,15 98,40 1,1 2,3 3,4 23,25 38,58 38,94 0,39 -16,73 -41,98 -25,26 -60,41 -98,41 -38,0 -73,-15 -98,-41l0 0c-25,-25 -41,-59 -41,-98 0,-38 16,-72 41,-98l0 0 0 0 0 0c25,-25 60,-40 98,-40zm27 111c-7,-7 -16,-11 -27,-11 -11,0 -21,4 -28,11l0 0c-7,7 -11,17 -11,27 0,11 4,21 11,28l0 0 0 0c7,7 17,11 28,11 11,0 20,-4 27,-11 7,-7 12,-17 12,-28 0,-10 -4,-19 -10,-25l-2 -2zm-27 -186l0 0c-60,0 -114,24 -153,63 -40,40 -64,94 -64,154l0 210 434 0 0 -210c0,-60 -25,-114 -64,-154 -39,-39 -94,-63 -153,-63z"/>
 </g>
</svg>
