<?xml version="1.0" encoding="UTF-8"?>
<!DOCTYPE svg PUBLIC "-//W3C//DTD SVG 1.1//EN" "http://www.w3.org/Graphics/SVG/1.1/DTD/svg11.dtd">
<!-- Creator: CorelDRAW X6 -->
<svg xmlns="http://www.w3.org/2000/svg" xml:space="preserve" width="25mm" height="25.5mm" version="1.1" style="shape-rendering:geometricPrecision; text-rendering:geometricPrecision; image-rendering:optimizeQuality; fill-rule:evenodd; clip-rule:evenodd"
viewBox="0 0 2500 2550"
 xmlns:xlink="http://www.w3.org/1999/xlink">
 <defs>
  <style type="text/css">
   <![CDATA[
    .fil0 {fill:white}
    .fil1 {fill:var(--icon-color);fill-rule:nonzero}
   ]]>
  </style>
 </defs>
 <g id="Слой_x0020_1">
  <metadata id="CorelCorpID_0Corel-Layer"/>
  <rect class="fil0 " y="25" width="2500" height="2500" rx="390" ry="390"/>
  <path class="fil1" d="M1250 407c128,0 244,52 328,135 84,84 136,200 136,328 0,128 -52,244 -136,328 -84,84 -200,136 -328,136 -128,0 -244,-52 -328,-136 -84,-84 -136,-200 -136,-328 0,-128 52,-244 136,-328 84,-83 200,-135 328,-135zm197 997l753 0c32,0 61,13 83,34 20,20 33,48 35,79l50 497 0 1c3,32 -8,62 -26,85 -20,23 -48,39 -80,42l-1 1 0 0 -3 0c-3,0 -5,0 -7,0l-868 0c-32,0 -62,-13 -83,-34l0 0 0 0c-22,-22 -35,-51 -35,-84 0,-3 0,-8 1,-12l0 -2c1,-4 1,-8 2,-10l62 -493c4,-30 18,-55 39,-74 19,-16 43,-27 69,-29 3,0 6,-1 9,-1zm753 100l-751 0 -2 0c-5,0 -9,2 -12,5 -3,3 -6,7 -6,11l-62 493c-1,3 -1,6 -2,8l0 2 0 0 0 2c0,5 2,10 5,13l0 0c4,3 8,5 13,5l866 0 0 0 0 0 1 0 4 0 0 0c4,-1 8,-3 11,-6 2,-4 4,-8 4,-13l0 0 -50 -498 0 0c0,-2 0,-3 0,-4 -1,-5 -3,-9 -6,-13 -3,-3 -8,-5 -13,-5zm-1887 -100l754 0c32,0 61,13 82,34 21,20 34,48 35,79l50 497 0 1c3,32 -7,62 -26,85 -19,23 -47,39 -80,42l-1 1 0 0 -3 0c-2,0 -5,0 -7,0l-867 0c-33,0 -62,-13 -84,-34l0 0 0 0c-21,-22 -35,-51 -35,-84 0,-3 1,-7 1,-12 1,-5 1,-9 2,-12l62 -493c4,-30 19,-56 39,-74 2,-1 3,-2 4,-3 19,-15 41,-24 65,-26 3,0 6,-1 9,-1zm754 100l-752 0 -2 0c-4,0 -7,2 -10,4l-2 1c-3,3 -5,7 -6,11l-62 493c0,3 -1,6 -1,8l-1 2 0 2c0,5 2,10 6,13l0 0c3,3 8,5 13,5l866 0 0 0 0 0 1 0 3 0 0 0c5,-1 8,-3 11,-6 3,-4 4,-8 4,-13l0 0 -50 -498 0 0c0,-2 0,-3 0,-4 0,-5 -2,-9 -6,-13 -3,-3 -7,-5 -12,-5zm440 -891c-66,-66 -157,-106 -257,-106 -100,0 -191,40 -257,106 -66,66 -107,157 -107,257 0,101 41,192 107,257 66,66 157,107 257,107 100,0 191,-41 257,-107 66,-65 107,-156 107,-257 0,-100 -41,-191 -107,-257z"/>
 </g>
</svg>
