<svg width="68" height="61" viewBox="0 0 68 61" fill="none" xmlns="http://www.w3.org/2000/svg">
<path fill-rule="evenodd" clip-rule="evenodd" d="M41.6518 51.3209C41.6518 50.5365 40.8674 49.8974 39.9087 49.8974H36.4805C35.5218 49.8974 34.7373 50.5365 34.7373 51.3209C34.7373 52.8898 36.2771 54.139 38.1946 54.139C40.083 54.139 41.6518 52.8898 41.6518 51.3209ZM7.28284 11.8678C6.67274 12.1293 6.14979 12.536 6.12074 13.1461C6.06264 13.1751 6.06264 13.2332 6.06264 13.3204V19.77H6.03358V20.5835C5.16201 21.0774 3.8256 21.7165 2.77972 22.4719C2.46014 22.7043 2.11151 22.9658 1.85004 23.3144C1.55952 23.6921 1.55952 24.0698 1.85004 24.5637C1.96625 24.767 2.08246 24.9704 2.02435 25.2028C1.96625 25.4062 1.73383 25.5805 1.50141 25.7258C1.41425 25.7839 1.26899 25.842 1.18183 25.9001C0.920363 26.0163 0.687944 26.1325 0.51363 26.3068C-0.125523 26.8588 -0.183628 27.5851 0.426473 28.1952L0.484577 28.2533C0.687944 28.4567 0.920363 28.6891 1.00752 29.0087C1.15278 29.4445 0.949416 29.7931 0.804154 30.1127C0.775101 30.1417 0.746049 30.1708 0.746049 30.2289C0.600787 30.4904 0.600787 30.7809 0.716996 31.0714C0.833206 31.42 1.12373 31.6815 1.50141 31.7977C1.55952 31.8268 1.61762 31.8558 1.67573 31.8849C1.85004 31.9139 1.9953 31.972 2.16962 32.0592C2.48919 32.2626 2.6054 32.5531 2.46014 32.9017C2.34393 33.1922 2.19867 33.5118 2.16962 33.8314C2.14056 34.18 2.28583 34.4415 2.43109 34.6158C2.69256 34.9354 3.12835 35.1387 3.56413 35.1678C4.17423 35.1969 4.58096 35.4874 4.81338 36.0394C5.22012 36.9109 6.03358 37.0853 6.32411 37.0853H6.35316C6.64368 37.0853 7.45715 36.9109 7.86388 36.0394C8.0963 35.4874 8.53209 35.1969 9.11314 35.1678C9.54892 35.1387 9.98471 34.9354 10.2752 34.6158C10.3914 34.4415 10.5658 34.18 10.5077 33.8314C10.4786 33.5118 10.3333 33.1922 10.2171 32.9017C10.0719 32.5531 10.1881 32.2626 10.5077 32.0592C10.682 31.972 10.8272 31.9139 11.0015 31.8849C11.0596 31.8558 11.1178 31.8268 11.1759 31.7977C11.5535 31.6815 11.8441 31.42 11.9603 31.0714C12.0765 30.7809 12.0765 30.4904 11.9312 30.2289C11.9312 30.1708 11.9022 30.1417 11.8731 30.1127C11.7279 29.7931 11.5245 29.4445 11.6697 29.0087C11.7569 28.6891 11.9893 28.4567 12.2217 28.2533L12.2508 28.1952C12.5413 27.9047 12.6866 27.5851 12.6866 27.2656C12.6866 26.946 12.5123 26.5973 12.1636 26.3068C11.9893 26.1325 11.7569 26.0163 11.5245 25.9001C11.4083 25.842 11.2921 25.7839 11.1759 25.7258C10.9434 25.5805 10.711 25.4062 10.6529 25.2028C10.5948 24.9704 10.711 24.767 10.8272 24.5637C11.1178 24.0698 11.1178 23.6921 10.8272 23.3144C10.5658 22.9658 10.2171 22.7043 9.89755 22.4719C8.85167 21.7165 7.51526 21.0774 6.64368 20.5835V19.77V14.1629C6.75989 14.2501 6.90516 14.3082 7.05042 14.3663L7.83483 14.5987C7.86388 14.5987 7.89294 14.5987 7.95104 14.6278L9.75229 15.1798L18.7585 17.8816V17.9397L35.6089 23.082C36.3352 23.3144 37.0325 23.4306 37.7297 23.4306C38.427 23.4306 39.1533 23.3435 39.8506 23.1692L56.6719 17.2425V17.2134L67.0727 13.4366C68.2347 13.0299 67.8571 11.5482 66.9855 11.1124L41.0998 0.885983C38.5142 -0.130851 37.323 -0.392323 34.5049 0.740721L7.28284 11.8678ZM28.7816 44.4936C28.8107 44.6389 28.8688 44.7841 28.9269 44.9004C29.0721 45.249 29.2755 45.5686 29.537 45.83C29.7694 46.0624 30.0309 46.2658 30.3214 46.382C30.8734 46.6144 31.5997 46.6144 32.4422 46.2368L33.0523 45.9753C34.4468 45.3361 35.9285 44.6389 37.9622 44.6389C39.7634 44.6389 41.3032 45.249 42.7849 45.83L43.5112 46.1496C44.3246 46.4401 44.9928 46.4982 45.5448 46.4111C45.9806 46.3239 46.3583 46.1206 46.6779 45.83C46.9975 45.5105 47.2589 45.1037 47.4623 44.6098C46.0387 44.8713 44.3827 44.4065 42.7558 43.9707C42.0004 43.7383 41.2451 43.5349 40.635 43.4477C40.5188 43.4477 40.3154 43.4768 40.083 43.5639C39.7053 43.7383 39.2986 43.9997 38.8337 44.3484C38.3108 44.726 37.6426 44.697 37.1487 44.3774C36.7129 44.0869 36.3643 43.8835 36.0157 43.7673C35.6961 43.6511 35.4056 43.593 35.115 43.5639C34.563 43.5058 33.8948 43.7964 33.2266 44.0578C31.774 44.6679 30.3504 45.249 28.7816 44.4936ZM26.2831 46.0624C25.6149 44.5227 25.4987 42.6343 26.1669 40.9783C26.254 40.7168 26.4284 40.4844 26.6608 40.3101C27.2999 39.8162 28.2006 39.9614 28.6944 40.5715C29.9728 42.2856 31.0477 41.8498 32.1226 41.385C33.1104 40.9783 34.0982 40.5715 35.3765 40.6878C35.8704 40.7459 36.4224 40.833 37.0034 41.0364C37.294 41.1526 37.6135 41.2979 37.9041 41.4431C38.2817 41.2397 38.6304 41.0364 38.979 40.8911C39.6763 40.6006 40.3445 40.4844 41.0127 40.5715C41.8552 40.6878 42.6977 40.9202 43.5402 41.1526C45.2834 41.6465 47.0846 42.1694 47.7238 40.8621C47.869 40.3972 48.2758 40.0196 48.7987 39.9324C49.5831 39.7871 50.3385 40.3101 50.4837 41.0945C50.8033 42.6633 50.6871 44.2903 50.1642 45.6267C49.8155 46.5273 49.3216 47.3117 48.6534 47.9509C47.9562 48.59 47.0846 49.0548 46.0968 49.2582C45.0219 49.4616 43.8307 49.3454 42.4943 48.8515C42.0585 48.6772 41.8842 48.6191 41.7099 48.5319C40.4897 48.038 39.2114 47.5441 37.9622 47.5441C36.5676 47.5441 35.3765 48.0961 34.2435 48.6191C34.0982 48.6772 33.9529 48.7353 33.6043 48.8805C31.9774 49.6068 30.4666 49.5778 29.2174 49.0548C28.5201 48.7934 27.9391 48.3576 27.4452 47.8346C26.9513 47.3117 26.5736 46.7307 26.2831 46.0624ZM19.0491 25.7548C19.0781 25.6386 19.1362 25.5805 19.1943 25.4934V20.322L34.9698 25.1738C35.8704 25.4643 36.8001 25.5805 37.7297 25.6096C38.6304 25.6096 39.531 25.4934 40.4316 25.2609C40.4897 25.2319 40.5188 25.2319 40.5478 25.2028L56.6719 19.5376L56.6428 24.9414C56.9043 25.0866 57.1367 25.319 57.282 25.6096C57.6016 26.3359 57.8921 27.2074 58.0374 28.079C58.0664 28.2533 58.0955 28.4567 58.0955 28.631C58.5894 28.7472 59.0251 29.0377 59.4609 29.4154C60.5068 30.3451 61.3493 32.2045 61.7851 34.3834C62.2209 36.4171 62.3662 38.7994 62.0756 41.0073C61.5818 44.6389 59.9548 47.8346 56.6138 48.5319C56.178 49.3744 55.7132 50.1879 55.1902 50.9142C54.5511 51.902 53.8248 52.8026 53.0694 53.6161C51.0357 55.8531 48.7115 57.5381 46.213 58.6712C43.6274 59.8623 40.8965 60.4143 38.1946 60.3853C34.4759 60.4434 30.641 59.3394 27.2709 57.0443C24.3366 55.0977 21.7219 52.2506 19.7463 48.5319C16.4343 47.8346 14.7784 44.6389 14.3135 41.0073C14.023 38.7994 14.1392 36.4171 14.575 34.3834C15.0398 32.2045 15.8533 30.3451 16.8992 29.4154C17.335 29.0087 17.7998 28.7472 18.2646 28.631C18.2937 28.4858 18.3227 28.3114 18.3227 28.1371C18.468 27.3237 18.7295 26.4521 19.0491 25.7548ZM21.78 26.6264C21.78 26.7136 21.7219 26.8298 21.6928 26.9169C21.4604 27.4108 21.2861 28.0209 21.1989 28.631C21.1118 29.183 21.0827 29.6769 21.1408 30.0836C21.257 30.868 20.705 31.5944 19.9206 31.7106C19.5429 31.7687 19.1943 31.6815 18.9038 31.5072L18.8457 31.5653C18.2646 32.0882 17.7417 33.3666 17.4221 34.9644C17.0444 36.7076 16.9282 38.7703 17.1897 40.6297C17.5383 43.3025 18.6423 45.5686 20.8213 45.7719C21.3732 45.83 21.8381 46.1787 22.0415 46.6725C23.8136 50.1879 26.1959 52.8607 28.8688 54.662C31.774 56.5794 35.0279 57.5381 38.1655 57.5091H38.1946H38.2236C40.4897 57.5381 42.8139 57.0443 45.0219 56.0274C47.1427 55.0687 49.1764 53.6161 50.9195 51.6696C51.5877 50.9432 52.1978 50.1588 52.8079 49.2873C53.3599 48.4447 53.9119 47.5441 54.3768 46.5854C54.6092 46.0915 55.045 45.83 55.5389 45.7719C57.7468 45.5686 58.8508 43.3025 59.1995 40.6297C59.4319 38.7703 59.3157 36.7076 58.967 34.9644C58.6184 33.3666 58.0955 32.0882 57.5144 31.5653L57.4563 31.5072C56.7881 31.943 55.8875 31.7396 55.4517 31.0714C55.2483 30.7518 55.1902 30.4032 55.2483 30.0836C55.3064 29.6769 55.2774 29.154 55.1612 28.5729C55.045 27.9338 54.8707 27.3237 54.6382 26.8298C54.5511 26.6555 54.522 26.4521 54.522 26.2487L42.1167 31.7396C39.8796 32.495 37.4102 33.8023 33.3719 31.6234L21.78 26.6264ZM48.5953 38.5669C50.3675 38.5669 51.7911 37.1434 51.7911 35.3712C51.7911 33.628 50.3675 32.1754 48.5953 32.1754C46.8522 32.1754 45.3996 33.628 45.3996 35.3712C45.3996 37.1434 46.8522 38.5669 48.5953 38.5669ZM27.7648 32.1754C26.0216 32.1754 24.569 33.628 24.569 35.3712C24.569 37.1434 26.0216 38.5669 27.7648 38.5669C29.537 38.5669 30.9605 37.1434 30.9605 35.3712C30.9605 33.628 29.537 32.1754 27.7648 32.1754Z" fill="#3E3E51"/>
</svg>
