<svg width="14" height="12" viewBox="0 0 14 12" fill="none" xmlns="http://www.w3.org/2000/svg">
<path d="M7.09848 11.4874C8.28288 10.4239 9.15884 9.62006 9.72637 9.07594C10.2939 8.53181 10.9108 7.88875 11.577 7.14676C12.2432 6.40477 12.6997 5.74934 12.9465 5.18048C13.2179 4.61162 13.3536 4.05512 13.3536 3.511C13.3536 2.71954 13.0822 2.06411 12.5393 1.54472C12.0211 1.02532 11.3673 0.765625 10.5777 0.765625C9.96078 0.765625 9.23615 0.865734 8.6933 1.212C8.2146 1.53188 7.63507 2.04688 7.33652 2.50783C7.2923 2.57611 7.21814 2.62061 7.13679 2.62061C7.07227 2.62061 7.01118 2.59252 6.96732 2.54521C6.48116 2.02084 5.82182 1.61561 5.30354 1.28502C4.78537 0.938756 4.08813 0.765625 3.47125 0.765625C2.68165 0.765625 2.01543 1.02532 1.47258 1.54472C0.9544 2.06411 0.695312 2.71954 0.695312 3.511C0.695312 4.05512 0.818688 4.61162 1.06544 5.18048C1.33686 5.74934 1.80569 6.40477 2.47191 7.14676C3.13814 7.88875 3.75501 8.53181 4.32254 9.07594C4.89006 9.62006 5.76603 10.4239 6.95043 11.4874C6.99128 11.5284 7.05762 11.5284 7.09848 11.4874Z" fill="#17A300"/>
</svg>
