<svg width="20" height="19" viewBox="0 0 20 19" fill="none" xmlns="http://www.w3.org/2000/svg">
<path d="M10.0939 16.0651C11.5962 14.7454 12.7074 13.748 13.4272 13.0728C14.1471 12.3976 14.9296 11.5997 15.7746 10.6789C16.6197 9.75823 17.1987 8.94493 17.5117 8.23905C17.856 7.53317 18.0282 6.84263 18.0282 6.16744C18.0282 5.18534 17.6839 4.37204 16.9953 3.72754C16.338 3.08304 15.5086 2.76079 14.507 2.76079C13.7246 2.76079 12.989 2.97562 12.3005 3.40529C11.9327 3.64572 11.6286 3.92459 11.3882 4.2419C11.0474 4.69178 10.5644 5.06258 10 5.06258C9.4356 5.06258 8.95261 4.69082 8.60564 4.24567C8.3571 3.9268 8.03942 3.64667 7.65258 3.40529C6.99531 2.97562 6.27543 2.76079 5.49296 2.76079C4.49139 2.76079 3.64632 3.08304 2.95775 3.72754C2.30047 4.37204 1.97183 5.18534 1.97183 6.16744C1.97183 6.84263 2.12833 7.53317 2.44131 8.23905C2.7856 8.94493 3.38028 9.75823 4.22535 10.6789C5.07042 11.5997 5.8529 12.3976 6.57277 13.0728C7.29264 13.748 8.40376 14.7454 9.9061 16.0651C9.95826 16.1163 10.0417 16.1163 10.0939 16.0651ZM14.507 0.78125C16.072 0.78125 17.3709 1.30299 18.4038 2.34647C19.4679 3.38995 20 4.6636 20 6.16744C20 7.05747 19.8279 7.93215 19.4836 8.79148C19.1393 9.62012 18.4977 10.5562 17.5587 11.5997C16.651 12.6431 15.8216 13.5178 15.0704 14.2237C14.3192 14.9296 13.1142 16.0191 11.4554 17.4922L11.3022 17.628C10.5555 18.2893 9.43573 18.2993 8.67728 17.6516L8.5446 17.5383C6.38498 15.6355 4.82003 14.2084 3.84977 13.257C2.9108 12.3055 2.03443 11.1853 1.22066 9.89634C0.406886 8.60734 0 7.36437 0 6.16744C0 4.6636 0.516432 3.38995 1.5493 2.34647C2.61346 1.30299 3.92801 0.78125 5.49296 0.78125C6.49021 0.78125 7.39301 0.989644 8.20136 1.40643C9.28814 1.96679 10.7119 1.96679 11.7986 1.40643C12.607 0.989644 13.5098 0.78125 14.507 0.78125Z" fill="white"/>
</svg>
