<svg width="11" height="13" viewBox="0 0 11 13" fill="none" xmlns="http://www.w3.org/2000/svg">
<path d="M5.60529 9.64681C5.92269 9.64681 6.22708 9.52249 6.45151 9.3012C6.67594 9.07992 6.80203 8.77979 6.80203 8.46684C6.80203 7.81195 6.2635 7.28687 5.60529 7.28687C5.2879 7.28687 4.98351 7.41118 4.75907 7.63247C4.53464 7.85376 4.40856 8.15389 4.40856 8.46684C4.40856 8.77979 4.53464 9.07992 4.75907 9.3012C4.98351 9.52249 5.2879 9.64681 5.60529 9.64681ZM9.19549 4.33693C9.51289 4.33693 9.81728 4.46125 10.0417 4.68254C10.2661 4.90383 10.3922 5.20396 10.3922 5.51691V11.4168C10.3922 11.7297 10.2661 12.0298 10.0417 12.2511C9.81728 12.4724 9.51289 12.5967 9.19549 12.5967H2.01509C1.6977 12.5967 1.39331 12.4724 1.16887 12.2511C0.944443 12.0298 0.818359 11.7297 0.818359 11.4168V5.51691C0.818359 4.86202 1.35689 4.33693 2.01509 4.33693H2.61346V3.15696C2.61346 2.37459 2.92867 1.62427 3.48975 1.07105C4.05082 0.517827 4.81181 0.207031 5.60529 0.207031C5.99819 0.207031 6.38723 0.283333 6.75022 0.431581C7.1132 0.579829 7.44302 0.79712 7.72084 1.07105C7.99866 1.34497 8.21903 1.67017 8.36939 2.02807C8.51974 2.38597 8.59713 2.76957 8.59713 3.15696V4.33693H9.19549ZM5.60529 1.387C5.1292 1.387 4.67261 1.57348 4.33597 1.90541C3.99932 2.23734 3.81019 2.68754 3.81019 3.15696V4.33693H7.40039V3.15696C7.40039 2.68754 7.21127 2.23734 6.87462 1.90541C6.53797 1.57348 6.08138 1.387 5.60529 1.387Z" fill="#8F99BA"/>
</svg>
