<svg width="66" height="66" viewBox="0 0 66 66" fill="none" xmlns="http://www.w3.org/2000/svg">
<circle cx="33" cy="33" r="33" fill="#FF515B"/>
<path d="M19.1052 30.1589C17.4404 31.8237 16.7946 33.424 16.8994 35.5436C16.8996 35.692 16.9093 35.8466 16.9188 35.989C16.9915 37.1724 17.3684 38.1043 17.9756 38.7115C18.6853 39.4212 19.7151 39.6782 21.1533 39.4215L25.9382 38.5639C27.4458 38.2892 28.52 37.3206 28.5229 35.7268L28.5199 34.3111C28.5178 33.8147 28.7338 33.5728 29.2019 33.494C30.0576 33.3219 31.8862 33.2026 33.2211 33.2021C34.578 33.1956 36.038 33.2945 36.9953 33.4931C37.4585 33.5936 37.6688 33.8229 37.671 34.3194L37.6783 35.7273C37.6746 37.3306 38.7567 38.3106 40.257 38.5768L45.1237 39.4448C46.5163 39.6921 47.572 39.4121 48.2899 38.7097C48.9089 38.1064 49.2764 37.2015 49.352 36.02C49.3613 35.8654 49.3724 35.7248 49.3801 35.5978C49.4732 33.433 48.8434 31.8434 47.1262 30.1262C44.3251 27.3251 39.3991 25.6419 33.1065 25.6533C26.85 25.6664 21.9532 27.3109 19.1052 30.1589ZM20.6956 31.7409C23.0717 29.2836 27.8283 27.9982 33.0417 27.9781C38.2879 27.9596 43.2043 29.3018 45.5848 31.7634C46.5921 32.8018 47.1197 34.0623 47.026 35.4037C47.0166 35.5374 47.0133 35.6494 46.9927 35.7718C46.9535 36.2709 46.7898 36.68 46.5267 36.9431C46.2534 37.2165 45.8955 37.3551 45.4269 37.2537L40.9606 36.3648C40.4157 36.2591 40.0385 35.8994 40.043 35.2613L40.0485 33.7342C40.0592 32.32 39.1864 31.5625 38.0807 31.3779C36.8461 31.1698 34.8038 31.0395 33.2097 31.0527C31.5232 31.0502 29.3086 31.175 28.1049 31.3689C26.9962 31.5515 26.1247 32.3074 26.1413 33.7216L26.1478 35.2471C26.1553 35.8869 25.7831 36.2347 25.2383 36.3584L20.8557 37.2393C20.3743 37.3372 20.0291 37.2006 19.7492 36.9206C19.4856 36.6571 19.3195 36.2493 19.2794 35.7467C19.2664 35.6166 19.255 35.5123 19.2455 35.3786C19.1493 34.0371 19.6824 32.7853 20.6956 31.7409Z" fill="white"/>
</svg>
