<svg width="66" height="66" viewBox="0 0 66 66" fill="none" xmlns="http://www.w3.org/2000/svg">
<circle cx="33" cy="33" r="33" fill="#8F99BA"/>
<path d="M23.4531 31.5088C23.4531 36.6724 26.8949 40.218 31.8414 40.6852V43.2673H27.2306C26.5813 43.2673 26.0391 43.7936 26.0391 44.4452C26.0391 45.0901 26.5813 45.6107 27.2306 45.6107H38.7458C39.3975 45.6107 39.9396 45.0901 39.9396 44.4452C39.9396 43.7936 39.3975 43.2673 38.7458 43.2673H34.1373V40.6852C35.6442 40.5452 37.0051 40.1152 38.1777 39.439L36.4805 37.7497C35.482 38.2414 34.3091 38.5165 32.9945 38.5165C28.7059 38.5165 25.8191 35.7036 25.8191 31.4244V29.0209C25.8191 28.3716 25.2918 27.8668 24.6276 27.8668C23.9737 27.8668 23.4531 28.3716 23.4531 29.0209V31.5088ZM39.7856 33.7766L41.657 35.6524C42.222 34.4428 42.5256 33.0471 42.5256 31.5088V29.0209C42.5256 28.3716 42.0027 27.8668 41.3489 27.8668C40.6972 27.8668 40.1596 28.3716 40.1596 29.0209V31.4244C40.1596 32.2759 40.0315 33.0634 39.7856 33.7766ZM32.9945 36.0916C33.5553 36.0916 34.0737 35.9937 34.5411 35.8126L32.3692 33.6304C32.2846 33.6694 32.1897 33.6775 32.0948 33.6752C31.415 33.5233 30.908 32.9692 30.739 32.2576L30.7242 31.9956L28.1914 29.463V30.9573C28.1914 33.974 30.1672 36.0916 32.9945 36.0916ZM37.7873 23.132C37.7873 20.1119 35.8092 18 32.9945 18C30.5559 18 28.7823 19.6014 28.3795 21.986V22.3978L30.5665 24.5722V23.0936C30.5665 21.4184 31.5139 20.2799 32.9945 20.2799C34.4751 20.2799 35.41 21.4139 35.41 23.0936V29.1347C35.41 29.2285 35.41 29.3221 35.3997 29.4055L37.7232 31.729C37.7667 31.4787 37.7873 31.218 37.7873 30.9573V23.132Z" fill="white"/>
<path d="M42.6404 41.6777C43.0307 42.0656 43.6663 42.0679 44.0542 41.6777C44.4297 41.2794 44.4444 40.6541 44.0542 40.2638L23.9931 20.2175C23.6051 19.8376 22.957 19.8273 22.5667 20.2175C22.1913 20.6055 22.1913 21.2559 22.5667 21.6313L42.6404 41.6777Z" fill="white"/>
</svg>
