<svg width="66" height="66" viewBox="0 0 66 66" fill="none" xmlns="http://www.w3.org/2000/svg">
<circle cx="33" cy="33" r="33" fill="#8F99BA"/>
<path d="M26.0797 38.5752H29.8787C29.992 38.5752 30.0871 38.613 30.1736 38.6885L36.0595 43.9547C36.7664 44.5763 37.292 44.8659 37.9951 44.8659C38.621 44.8659 39.1388 44.5597 39.4589 44.0344L37.2834 41.8699L31.3643 36.5264C31.0892 36.2781 30.9068 36.2173 30.5417 36.2173H26.306C25.8502 36.2173 25.6369 36.0016 25.6369 35.5591V30.2125L23.6971 28.2751C23.324 28.7446 23.1113 29.4293 23.1113 30.3303V35.4791C23.1113 37.556 24.116 38.5752 26.0797 38.5752ZM39.7133 36.1557L39.7157 22.6911C39.7157 21.7024 38.9837 20.9082 37.9731 20.9082C37.2796 20.9082 36.8104 21.2149 36.0523 21.8878L30.4431 26.8696L32.1389 28.5716L36.7908 24.344C36.8554 24.2794 36.9333 24.2441 37.0113 24.2441C37.1098 24.2441 37.1901 24.3134 37.1901 24.4364V33.6277L39.7133 36.1557Z" fill="white"/>
<path d="M44.1652 46.1636C44.5815 46.5774 45.2728 46.5798 45.6732 46.1636C46.0871 45.7387 46.0895 45.0717 45.6732 44.6579L22.2601 21.2448C21.8439 20.8286 21.1526 20.8286 20.7363 21.2448C20.3249 21.6477 20.3249 22.35 20.7363 22.7528L44.1652 46.1636Z" fill="white"/>
</svg>
