<svg width="23" height="22" viewBox="0 0 23 22" fill="none" xmlns="http://www.w3.org/2000/svg">
<path fill-rule="evenodd" clip-rule="evenodd" d="M0.466797 10.781C0.582064 4.9719 5.26878 0.284972 11.0778 0.169922C11.0265 4.62524 10.7344 7.11864 9.0754 8.7783C7.41573 10.4373 4.92211 10.7296 0.466797 10.781ZM11.7248 0.175989C17.4361 0.398289 22.0128 5.03994 22.1272 10.7786C17.8025 10.7203 15.3611 10.4113 13.7274 8.7783C12.0684 7.11929 11.7761 4.62762 11.7248 0.175989ZM22.1211 11.4303C21.9008 17.071 17.3681 21.6037 11.7274 21.824C11.7861 17.5033 12.0944 15.0636 13.7274 13.4304C15.3605 11.7973 17.8001 11.4892 22.1211 11.4303ZM11.0754 21.8303C5.33681 21.715 0.69473 17.1393 0.47308 11.4279C4.92471 11.4793 7.41616 11.7713 9.0754 13.4304C10.7084 15.064 11.0172 17.5056 11.0754 21.8303Z" fill="#3E3E51"/>
</svg>
