<svg width="23" height="22" viewBox="0 0 23 22" fill="none" xmlns="http://www.w3.org/2000/svg">
<path fill-rule="evenodd" clip-rule="evenodd" d="M11.2962 0.166992C17.2793 0.166992 22.1296 5.01729 22.1296 11.0003C22.1296 15.6827 19.1582 19.6709 14.9988 21.1841V14.1264H17.2244L17.6352 11.3169H14.9988V9.66999C14.9988 9.22106 15.3665 8.85338 15.8157 8.85338H17.6352V6.00096H14.7746C13.0675 6.00096 11.6708 7.39759 11.6708 9.10449V11.3169H10.0283V14.1264H11.6708V21.8263C11.5463 21.8306 11.4217 21.8337 11.2962 21.8337C5.31319 21.8337 0.462891 16.9834 0.462891 11.0003C0.462891 5.01729 5.31319 0.166992 11.2962 0.166992Z" fill="#3E3E51"/>
</svg>
