<svg width="23" height="22" viewBox="0 0 23 22" fill="none" xmlns="http://www.w3.org/2000/svg">
<path fill-rule="evenodd" clip-rule="evenodd" d="M11.2962 0.166992C17.2793 0.166992 22.1296 5.01729 22.1296 11.0003C22.1296 16.9834 17.2793 21.8337 11.2962 21.8337C5.31319 21.8337 0.462891 16.9834 0.462891 11.0003C0.462891 5.01729 5.31319 0.166992 11.2962 0.166992ZM14.9388 4.34194H7.65189C5.99114 4.34194 4.63719 5.69503 4.63719 7.35838V14.6434C4.63719 16.3067 5.99114 17.6587 7.65189 17.6587H14.9388C16.6015 17.6587 17.9548 16.3067 17.9548 14.6434V7.35838C17.9548 5.69503 16.6015 4.34194 14.9388 4.34194ZM7.65189 16.3334C6.72087 16.3334 5.96254 15.5763 5.96254 14.6434V7.35838C5.96254 6.42628 6.72087 5.66794 7.65189 5.66794H14.9388C15.8709 5.66794 16.6282 6.42628 16.6282 7.35838V14.6434C16.6282 15.5763 15.8709 16.3334 14.9388 16.3334H7.65189ZM14.8688 6.75171C14.3865 6.75171 13.9965 7.14128 13.9965 7.62596C13.9965 8.10631 14.3865 8.49869 14.8688 8.49869C15.3522 8.49869 15.7442 8.10631 15.7442 7.62596C15.7442 7.14128 15.3522 6.75171 14.8688 6.75171ZM11.2962 7.59801C9.39887 7.59801 7.85491 9.14198 7.85491 11.04C7.85491 12.9373 9.39887 14.4813 11.2962 14.4813C13.1936 14.4813 14.7382 12.9373 14.7382 11.04C14.7382 9.14198 13.1936 7.59801 11.2962 7.59801ZM11.2962 13.1557C10.1288 13.1557 9.17982 12.208 9.17982 11.04C9.17982 9.87366 10.1288 8.92336 11.2962 8.92336C12.4638 8.92336 13.4128 9.87366 13.4128 11.04C13.4128 12.208 12.4638 13.1557 11.2962 13.1557Z" fill="#3E3E51"/>
</svg>
