<svg width="23" height="22" viewBox="0 0 23 22" fill="none" xmlns="http://www.w3.org/2000/svg">
<path fill-rule="evenodd" clip-rule="evenodd" d="M11.2967 0.166992C17.2797 0.166992 22.13 5.01708 22.13 11.0001C22.13 16.9834 17.2797 21.8334 11.2967 21.8334C5.31368 21.8334 0.463379 16.9834 0.463379 11.0001C0.463379 5.01708 5.31368 0.166992 11.2967 0.166992ZM18.3941 6.48629C17.8725 6.72376 17.3109 6.88431 16.7218 6.95603C17.3235 6.58704 17.785 6.00183 18.0025 5.30481C17.4392 5.64649 16.8169 5.89501 16.152 6.02848C15.6222 5.44824 14.8648 5.08598 14.0265 5.08598C12.4193 5.08598 11.1156 6.42303 11.1156 8.07208C11.1156 8.30608 11.1405 8.53336 11.1903 8.75219C8.77016 8.62739 6.62495 7.43984 5.18758 5.63111C4.9369 6.07376 4.79368 6.58704 4.79368 7.13391C4.79368 8.16936 5.30761 9.08348 6.08913 9.61908C5.61268 9.60478 5.16266 9.46893 4.7692 9.24684V9.28346C4.7692 10.7308 5.77323 11.9378 7.10638 12.2113C6.8622 12.2815 6.6048 12.3166 6.33895 12.3166C6.15153 12.3166 5.96823 12.2986 5.79078 12.2635C6.1615 13.4495 7.23616 14.3132 8.51103 14.3363C7.51436 15.1378 6.25813 15.6151 4.89421 15.6151C4.65935 15.6151 4.42686 15.6015 4.19936 15.5739C5.48831 16.4198 7.01971 16.9147 8.66335 16.9147C14.0206 16.9147 16.9491 12.3651 16.9491 8.41874C16.9491 8.28896 16.9465 8.15918 16.9415 8.03178C17.5109 7.61058 18.0049 7.08516 18.3941 6.48629Z" fill="#3E3E51"/>
</svg>
