<svg width="23" height="22" viewBox="0 0 23 22" fill="none" xmlns="http://www.w3.org/2000/svg">
<path fill-rule="evenodd" clip-rule="evenodd" d="M11.296 0.166992C17.279 0.166992 22.1293 5.01729 22.1293 11.0003C22.1293 16.9834 17.279 21.8337 11.296 21.8337C5.31297 21.8337 0.462891 16.9834 0.462891 11.0003C0.462891 5.01729 5.31297 0.166992 11.296 0.166992ZM18.246 7.50333C18.025 7.31656 15.5143 7.30963 15.198 7.43399C15.1423 7.45588 15.0595 7.58523 14.9551 7.78239C14.4769 8.68351 14.0782 9.70206 13.4157 10.4892C13.202 10.7427 13.0025 10.9013 12.8424 10.8989C12.3546 10.8913 12.4673 9.37663 12.4963 8.26534C12.5559 5.92101 9.11352 6.97358 8.89361 7.64199C9.29726 7.69464 9.99427 7.56594 9.72496 10.414C9.71196 10.5523 9.40061 11.7259 8.40892 10.1373C8.16366 9.74431 7.21227 7.37398 6.88467 7.36466C5.78466 7.33433 4.70631 7.28926 4.32129 7.50333C3.67411 7.86278 6.77136 12.4899 7.50997 13.2942C8.33352 14.191 9.30332 14.8342 10.6256 15.057C11.015 15.096 12.0413 15.143 12.3577 14.9883C12.578 14.88 12.31 13.3304 13.0504 13.1863C13.2919 13.139 14.0232 14.007 14.5906 14.5608C15.0004 14.961 15.0825 15.0219 15.6387 15.0927C16.5534 15.2099 18.2335 15.213 18.3154 14.711C18.49 13.6419 16.1686 12.2527 16.0986 11.5916C16.0469 11.1035 18.0259 8.95391 18.3045 8.03199C18.3754 7.79691 18.3708 7.60841 18.246 7.50333Z" fill="#3E3E51"/>
</svg>
