<svg width="23" height="22" viewBox="0 0 23 22" fill="none" xmlns="http://www.w3.org/2000/svg">
<path fill-rule="evenodd" clip-rule="evenodd" d="M11.2967 0.166992C17.2797 0.166992 22.13 5.01708 22.13 11.0001C22.13 16.9834 17.2797 21.8334 11.2967 21.8334C5.31368 21.8334 0.463379 16.9834 0.463379 11.0001C0.463379 5.01708 5.31368 0.166992 11.2967 0.166992ZM14.0774 10.8523L9.40933 13.3743L9.40868 9.49103V8.31041L11.514 9.45636L14.0774 10.8523ZM18.1811 8.07034C18.1811 8.07034 18.0444 7.06003 17.6234 6.61543C17.0891 6.03238 16.4898 6.02869 16.2163 5.99533C14.2484 5.84799 11.2997 5.84799 11.2997 5.84799H11.2937C11.2937 5.84799 8.34268 5.84799 6.37708 5.99576C6.10235 6.02869 5.50435 6.03238 4.96875 6.61543C4.54841 7.06068 4.41105 8.07078 4.41105 8.07078C4.41105 8.07078 4.27065 9.25572 4.27065 10.4418V11.553C4.27065 12.7397 4.41105 13.9251 4.41105 13.9251C4.41105 13.9251 4.54841 14.9354 4.96875 15.3794C5.50435 15.9631 6.207 15.9438 6.519 16.0045C7.64306 16.1171 11.2961 16.1524 11.2961 16.1524C11.2961 16.1524 14.2484 16.147 16.2163 16.0001C16.4898 15.9655 17.0891 15.9631 17.6234 15.3787C18.0444 14.9341 18.1811 13.9245 18.1811 13.9245C18.1811 13.9245 18.3223 12.7397 18.3223 11.553V10.4418C18.3223 9.25572 18.1811 8.07034 18.1811 8.07034Z" fill="#3E3E51"/>
</svg>
