<svg width="26" height="21" viewBox="0 0 26 21" fill="none" xmlns="http://www.w3.org/2000/svg">
<path d="M3.38695 20.3989H22.1306C24.3526 20.3989 25.5195 19.2489 25.5195 17.0458V6.21153C25.5195 4.00843 24.3526 2.86692 22.1306 2.86692H19.3004C18.4903 2.86692 18.2277 2.72031 17.7315 2.19849L16.9148 1.31386C16.3762 0.749709 15.8367 0.462265 14.7843 0.462265H10.674C9.62357 0.462265 9.08216 0.749709 8.54546 1.31386L7.7269 2.19849C7.23069 2.71184 6.96142 2.86692 6.15795 2.86692H3.38695C1.15844 2.86692 0 4.00843 0 6.21153V17.0458C0 19.2489 1.15844 20.3989 3.38695 20.3989ZM3.50424 18.3761C2.56117 18.3761 2.02283 17.879 2.02283 16.8759V6.38994C2.02283 5.38679 2.56117 4.88975 3.50424 4.88975H6.74377C7.67301 4.88975 8.15662 4.72351 8.67658 4.15276L9.46146 3.2832C10.0388 2.64657 10.3598 2.48509 11.2591 2.48509H14.1993C15.1005 2.48509 15.4195 2.64843 15.9894 3.27763L16.7836 4.15276C17.3036 4.72166 17.7872 4.88975 18.7146 4.88975H22.0049C22.9583 4.88975 23.4966 5.38679 23.4966 6.38994V16.8759C23.4966 17.879 22.9583 18.3761 22.0049 18.3761H3.50424ZM12.7588 17.0008C15.8472 17.0008 18.3301 14.5264 18.3301 11.4107C18.3301 8.30544 15.8556 5.831 12.7588 5.831C9.66568 5.831 7.18092 8.30544 7.18092 11.4107C7.18092 14.5264 9.66568 17.0008 12.7588 17.0008ZM12.7588 15.1564C10.7023 15.1564 9.01688 13.4945 9.01688 11.4107C9.01688 9.33354 10.6939 7.66694 12.7588 7.66694C14.8275 7.66694 16.4941 9.33354 16.4941 11.4107C16.4941 13.4945 14.8275 15.1564 12.7588 15.1564ZM18.6865 7.70412C18.6865 8.45284 19.2955 9.04305 20.0358 9.04305C20.7488 9.04305 21.3662 8.44438 21.3662 7.70412C21.3662 6.99293 20.747 6.37364 20.0358 6.37364C19.2974 6.37364 18.6865 6.99293 18.6865 7.70412Z" fill="#17A300"/>
</svg>
