<svg width="158" height="158" viewBox="0 0 158 158" fill="none" xmlns="http://www.w3.org/2000/svg">
<circle cx="78.9796" cy="78.9796" r="78.9796" fill="#F1F3F9"/>
<g clip-path="url(#clip0_1505_11839)">
<path d="M42.2087 136C40.4894 136 38.777 135.526 37.2517 134.583C34.4492 132.852 32.7774 129.851 32.7774 126.556V112.728C22.9097 100.226 18.6451 84.6135 20.7599 68.5925C24.15 42.8879 45.2769 21.8198 70.9905 18.5006C89.1017 16.1609 106.88 22.097 119.786 34.7781C132.694 47.4592 138.939 65.118 136.924 83.2286C134.004 109.457 112.825 131.035 86.5665 134.538C76.0982 135.926 65.5109 134.477 55.798 130.316L46.4343 134.995C45.093 135.665 43.647 136 42.2084 136L42.2087 136ZM72.0599 26.7965C50.0409 29.6387 31.9519 47.6765 29.0468 69.6863C27.1752 83.8825 31.1256 97.6945 40.1732 108.571C40.797 109.323 41.1384 110.269 41.1384 111.245V126.556C41.1384 127.05 41.4165 127.323 41.647 127.471C41.8837 127.613 42.2573 127.736 42.6966 127.515L53.834 121.95C54.3987 121.667 55.0202 121.516 55.6518 121.509C56.2834 121.501 56.9085 121.637 57.48 121.905C66.2424 126.017 75.9138 127.52 85.4593 126.25C107.964 123.249 126.112 104.766 128.615 82.3061C130.344 66.763 124.989 51.6116 113.925 40.7433C102.862 29.871 87.6038 24.7834 72.0599 26.7965Z" fill="#8F99BA"/>
<path d="M49.7061 89.7551L68.8982 62.44C69.6977 61.041 71.5414 60.6603 72.8295 61.6262L85.6865 71.2681C86.1123 71.5875 86.6236 71.7727 87.1552 71.8001C87.6867 71.8275 88.2144 71.6959 88.6708 71.422L104.327 60.3559C106.624 58.9777 109.297 61.4533 108.099 63.8498L92.6003 90.6662C91.9027 92.0617 90.1652 92.5676 88.8275 91.7644L71.6638 81.4663C71.2775 81.2345 70.8389 81.1039 70.3887 81.0866C69.9384 81.0693 69.4911 81.1658 69.0881 81.3672L53.2282 93.4777C50.8594 94.6634 48.3918 92.0552 49.7061 89.7551Z" fill="#8F99BA"/>
</g>
<defs>
<clipPath id="clip0_1505_11839">
<rect width="118" height="118" fill="white" transform="translate(20 18)"/>
</clipPath>
</defs>
</svg>
