<svg width="22" height="13" viewBox="0 0 22 13" fill="none" xmlns="http://www.w3.org/2000/svg">
<path d="M15.668 0.402348C15.9466 0.671444 16.0854 1.02441 16.0845 1.3771C16.0827 2.09706 15.4613 2.64297 15.0509 3.23452L9.33173 11.4782C8.92134 12.0698 8.4565 12.7563 7.73666 12.7698C7.36355 12.7767 6.98815 12.6427 6.70344 12.3677C6.42485 12.0986 6.28601 11.7456 6.2869 11.3929C6.28873 10.673 6.91012 10.127 7.32051 9.5355L13.0397 1.29181C13.4501 0.700263 13.9149 0.0136772 14.6347 0.000257387C15.0079 -0.00669845 15.3833 0.127332 15.668 0.402348Z" fill="#17A300"/>
<path d="M0.416537 4.37626C0.97192 3.8398 1.87237 3.8398 2.42776 4.37626L8.68973 10.4249C9.24512 10.9614 9.24512 11.8312 8.68974 12.3676C8.13435 12.9041 7.2339 12.9041 6.67852 12.3676L0.416538 6.31897C-0.138845 5.78251 -0.138846 4.91273 0.416537 4.37626Z" fill="#17A300"/>
<path d="M20.6682 0.402348C20.9468 0.671444 21.0856 1.02441 21.0847 1.3771C21.0829 2.09706 20.4615 2.64297 20.0511 3.23452L14.3319 11.4782C13.9216 12.0698 13.4567 12.7563 12.7369 12.7698C12.3638 12.7767 11.9884 12.6427 11.7036 12.3677C11.4251 12.0986 11.2862 11.7456 11.2871 11.3929C11.2889 10.673 11.9103 10.127 12.3207 9.5355L18.0399 1.29181C18.4503 0.700263 18.9151 0.0136773 19.635 0.000257399C20.0081 -0.00669848 20.3835 0.127332 20.6682 0.402348Z" fill="#17A300"/>
</svg>
