<svg width="168" height="171" viewBox="0 0 168 171" fill="none" xmlns="http://www.w3.org/2000/svg">
<circle cx="80.9796" cy="78.9796" r="78.9796" fill="#F1F3F9"/>
<path fill-rule="evenodd" clip-rule="evenodd" d="M140.035 42.6393C140.035 37.4815 135.854 33.3002 130.696 33.3002H37.304C32.1461 33.3002 27.9648 37.4815 27.9648 42.6393V105.922C27.9704 108.375 28.9641 110.722 30.7214 112.434C32.4787 114.145 34.8516 115.077 37.304 115.018H48.978V131.361C48.9768 133.099 49.9401 134.693 51.4785 135.5C53.0168 136.307 54.876 136.193 56.3045 135.204L85.4568 115.018H130.696C135.854 115.018 140.035 110.837 140.035 105.679V42.6393ZM130.695 104.511C130.695 105.156 130.172 105.679 129.528 105.679H83.9991C83.0496 105.679 82.1227 105.969 81.3422 106.51L60.1469 121.177C59.7938 121.421 59.3353 121.451 58.953 121.256C58.5707 121.061 58.3262 120.672 58.3164 120.243V110.348C58.3164 107.769 56.2258 105.679 53.6469 105.679H38.4707C37.826 105.679 37.3033 105.156 37.3033 104.511V43.8066C37.3033 43.497 37.4263 43.2 37.6452 42.9811C37.8642 42.7622 38.1611 42.6392 38.4707 42.6392H129.528C130.172 42.6392 130.695 43.1618 130.695 43.8066V104.511ZM65.3215 75.3215C65.3215 79.1899 62.1855 82.3258 58.3171 82.3258C54.4487 82.3258 51.3127 79.1899 51.3127 75.3215C51.3127 71.4531 54.4487 68.3171 58.3171 68.3171C62.1855 68.3171 65.3215 71.4531 65.3215 75.3215ZM83.9997 82.3258C87.8681 82.3258 91.0041 79.1899 91.0041 75.3215C91.0041 71.4531 87.8681 68.3171 83.9997 68.3171C80.1313 68.3171 76.9953 71.4531 76.9953 75.3215C76.9953 79.1899 80.1313 82.3258 83.9997 82.3258ZM116.687 75.3215C116.687 79.1899 113.551 82.3258 109.682 82.3258C105.814 82.3258 102.678 79.1899 102.678 75.3215C102.678 71.4531 105.814 68.3171 109.682 68.3171C113.551 68.3171 116.687 71.4531 116.687 75.3215Z" fill="#8F99BA"/>
<mask id="mask0_1722_6870" style="mask-type:luminance" maskUnits="userSpaceOnUse" x="27" y="33" width="114" height="104">
<path fill-rule="evenodd" clip-rule="evenodd" d="M140.035 42.6393C140.035 37.4815 135.854 33.3002 130.696 33.3002H37.304C32.1461 33.3002 27.9648 37.4815 27.9648 42.6393V105.922C27.9704 108.375 28.9641 110.722 30.7214 112.434C32.4787 114.145 34.8516 115.077 37.304 115.018H48.978V131.361C48.9768 133.099 49.9401 134.693 51.4785 135.5C53.0168 136.307 54.876 136.193 56.3045 135.204L85.4568 115.018H130.696C135.854 115.018 140.035 110.837 140.035 105.679V42.6393ZM130.695 104.511C130.695 105.156 130.172 105.679 129.528 105.679H83.9991C83.0496 105.679 82.1227 105.969 81.3422 106.51L60.1469 121.177C59.7938 121.421 59.3353 121.451 58.953 121.256C58.5707 121.061 58.3262 120.672 58.3164 120.243V110.348C58.3164 107.769 56.2258 105.679 53.6469 105.679H38.4707C37.826 105.679 37.3033 105.156 37.3033 104.511V43.8066C37.3033 43.497 37.4263 43.2 37.6452 42.9811C37.8642 42.7622 38.1611 42.6392 38.4707 42.6392H129.528C130.172 42.6392 130.695 43.1618 130.695 43.8066V104.511ZM65.3215 75.3215C65.3215 79.1899 62.1855 82.3258 58.3171 82.3258C54.4487 82.3258 51.3127 79.1899 51.3127 75.3215C51.3127 71.4531 54.4487 68.3171 58.3171 68.3171C62.1855 68.3171 65.3215 71.4531 65.3215 75.3215ZM83.9997 82.3258C87.8681 82.3258 91.0041 79.1899 91.0041 75.3215C91.0041 71.4531 87.8681 68.3171 83.9997 68.3171C80.1313 68.3171 76.9953 71.4531 76.9953 75.3215C76.9953 79.1899 80.1313 82.3258 83.9997 82.3258ZM116.687 75.3215C116.687 79.1899 113.551 82.3258 109.682 82.3258C105.814 82.3258 102.678 79.1899 102.678 75.3215C102.678 71.4531 105.814 68.3171 109.682 68.3171C113.551 68.3171 116.687 71.4531 116.687 75.3215Z" fill="white"/>
</mask>
<g mask="url(#mask0_1722_6870)">
</g>
</svg>
