<svg width="28" height="25" viewBox="0 0 28 25" fill="none" xmlns="http://www.w3.org/2000/svg">
<path d="M12.2105 23.3935L12.2105 23.3935L12.2157 23.3967C12.4125 23.5169 12.6518 23.6505 12.9001 23.757C13.1261 23.854 13.4596 23.9733 13.8152 23.9733C14.1699 23.9733 14.5036 23.8537 14.7282 23.7581C14.9758 23.6527 15.2161 23.5205 15.4139 23.4029L15.422 23.3981L15.43 23.3932C18.7418 21.3382 21.5096 19.0778 23.4592 16.6782C25.4088 14.2786 26.5845 11.6825 26.5845 8.98616C26.5845 4.32076 23.1889 1 18.8144 1C16.7786 1 15.0575 1.73223 13.817 2.92837C12.5794 1.73485 10.845 1 8.81595 1C4.44151 1 1.0459 4.32076 1.0459 8.98616C1.0459 11.6825 2.22161 14.2787 4.17254 16.6784C6.12348 19.0781 8.89377 21.3385 12.2105 23.3935Z" stroke="#8F99BA" stroke-width="2"/>
</svg>
