<svg width="27" height="26" viewBox="0 0 27 26" fill="none" xmlns="http://www.w3.org/2000/svg">
<path d="M22.1768 5.53144V1.7177C22.1768 1.42112 21.9374 1.17777 21.6458 1.17777H19.2264C18.9347 1.17777 18.6954 1.42112 18.6954 1.7177V2.98008C17.2781 2.01048 15.8497 1.10933 14.4923 0.322248C13.7481 -0.107416 12.5777 -0.107416 11.8373 0.322248C8.12405 2.47437 3.87982 5.4744 0.757413 8.42881C0.132931 9.01437 -0.143785 10.1779 0.0731008 11.0334C1.15753 15.311 2.44763 20.1476 4.1528 24.2579C4.48561 25.0754 5.51021 25.6914 6.40766 25.6876C8.43816 25.6876 10.4687 25.6876 12.4992 25.6876V24.6419C11.4447 24.0374 10.0872 23.2313 8.82332 22.3187C8.42695 22.0335 7.98196 21.6951 7.66037 21.2655C7.3126 20.7978 7.31634 20.2997 7.67906 19.6989C7.82116 19.4632 7.95952 19.1856 7.89221 18.9194C7.82116 18.6381 7.54445 18.4441 7.26025 18.273C7.12189 18.1932 6.97979 18.121 6.84144 18.0487C6.53854 17.8966 6.25809 17.7483 6.02998 17.5392C5.62987 17.1742 5.41298 16.7559 5.40176 16.3301C5.39054 15.9308 5.57378 15.5354 5.92528 15.1818L5.99259 15.1133C6.26183 14.8471 6.54228 14.5658 6.66194 14.1703C6.81526 13.6456 6.58716 13.1969 6.38897 12.8015C6.36653 12.7559 6.34409 12.714 6.3254 12.6684C6.16086 12.3338 6.14591 11.9498 6.288 11.5924C6.4488 11.1779 6.8003 10.8471 7.24529 10.6836C7.32008 10.657 7.39861 10.6304 7.47714 10.6037C7.67159 10.5429 7.87351 10.4783 8.06048 10.3604C8.46808 10.1094 8.59896 9.74062 8.43069 9.32616C8.27737 8.94973 8.12031 8.5657 8.0717 8.15125C8.02309 7.72919 8.21006 7.40219 8.37459 7.20066C8.70366 6.80522 9.2384 6.53906 9.77687 6.50484C10.5098 6.46301 11.0184 6.10939 11.325 5.42497C11.8111 4.34131 12.8058 4.10557 13.1461 4.10557H13.176H13.2022C13.5425 4.10557 14.5371 4.34131 15.027 5.42497C15.3336 6.10939 15.8422 6.46301 16.5751 6.50484C17.1136 6.53526 17.6521 6.80522 17.9774 7.20066C18.1419 7.40219 18.3289 7.72919 18.2803 8.15125C18.2317 8.5657 18.0746 8.95354 17.9213 9.32616C17.753 9.74062 17.8877 10.1056 18.2953 10.3604C18.4822 10.4783 18.6804 10.5391 18.8786 10.6037C18.9571 10.6304 19.0357 10.6532 19.1104 10.6836C19.5554 10.8471 19.9069 11.1779 20.064 11.5962C20.2061 11.9536 20.1911 12.3376 20.0303 12.6722C20.0079 12.714 19.9855 12.7597 19.9668 12.8015C19.7648 13.1969 19.5405 13.6494 19.6901 14.1741C19.806 14.5696 20.0864 14.8509 20.3594 15.1209L20.423 15.1856C20.7745 15.5354 20.954 15.9308 20.9465 16.3339C20.9353 16.7597 20.7184 17.178 20.322 17.543C20.0902 17.7521 19.806 17.8966 19.5068 18.0525C19.3685 18.1248 19.2264 18.197 19.088 18.2768C18.8001 18.448 18.5234 18.6419 18.456 18.9232C18.3887 19.1894 18.5271 19.467 18.6655 19.7027C19.0319 20.3035 19.0357 20.8016 18.6879 21.2693C18.37 21.6951 17.9213 22.0374 17.5249 22.3225C16.261 23.2351 14.9036 24.0412 13.8491 24.6457V25.6914C15.8796 25.6914 17.9101 25.6914 19.9406 25.6914C20.8381 25.6952 21.8589 25.0792 22.1917 24.2617C23.8819 20.1476 25.172 15.311 26.2565 11.0334C26.4733 10.1741 26.1966 9.01437 25.5721 8.42881C24.5476 7.45542 23.3883 6.48202 22.1768 5.53144Z" fill="white"/>
</svg>
