<svg width="23" height="30" viewBox="0 0 23 30" fill="none" xmlns="http://www.w3.org/2000/svg">
<path d="M1.4541 13.5088C1.4541 18.6724 4.89588 22.218 9.84237 22.6852V25.2673H5.23163C4.58224 25.2673 4.04009 25.7936 4.04009 26.4452C4.04009 27.0901 4.58224 27.6107 5.23163 27.6107H16.7468C17.3984 27.6107 17.9406 27.0901 17.9406 26.4452C17.9406 25.7936 17.3984 25.2673 16.7468 25.2673H12.1383V22.6852C13.6452 22.5452 15.006 22.1153 16.1787 21.439L14.4815 19.7497C13.483 20.2414 12.3101 20.5165 10.9955 20.5165C6.70692 20.5165 3.82009 17.7036 3.82009 13.4244V11.0209C3.82009 10.3716 3.29276 9.86685 2.62856 9.86685C1.97466 9.86685 1.4541 10.3716 1.4541 11.0209V13.5088ZM17.7866 15.7766L19.658 17.6524C20.2229 16.4428 20.5266 15.0471 20.5266 13.5088V11.0209C20.5266 10.3716 20.0037 9.86685 19.3498 9.86685C18.6982 9.86685 18.1605 10.3716 18.1605 11.0209V13.4244C18.1605 14.2759 18.0325 15.0634 17.7866 15.7766ZM10.9955 18.0916C11.5563 18.0916 12.0747 17.9937 12.5421 17.8126L10.3702 15.6304C10.2856 15.6694 10.1907 15.6775 10.0957 15.6752C9.41596 15.5233 8.90895 14.9692 8.73995 14.2576L8.72514 13.9956L6.1924 11.463V12.9573C6.1924 15.974 8.16818 18.0916 10.9955 18.0916ZM15.7883 5.13205C15.7883 2.11188 13.8102 0 10.9955 0C8.55689 0 6.78326 1.60137 6.38048 3.98597V4.39781L8.56743 6.57221V5.09364C8.56743 3.41842 9.5149 2.27987 10.9955 2.27987C12.4761 2.27987 13.411 3.4139 13.411 5.09364V11.1347C13.411 11.2285 13.411 11.3221 13.4007 11.4055L15.7242 13.729C15.7677 13.4787 15.7883 13.218 15.7883 12.9573V5.13205Z" fill="white"/>
<path d="M20.6404 23.6787C21.0307 24.0666 21.6663 24.0689 22.0542 23.6787C22.4297 23.2804 22.4444 22.6551 22.0542 22.2648L1.99306 2.21852C1.60508 1.83858 0.956954 1.82828 0.56672 2.21852C0.191302 2.60649 0.191302 3.25688 0.56672 3.6323L20.6404 23.6787Z" fill="white"/>
</svg>
