<svg width="31" height="29" viewBox="0 0 31 29" fill="none" xmlns="http://www.w3.org/2000/svg">
<path d="M3.20683 21.3299C4.35647 22.3583 5.88399 22.9151 7.56792 23.0093V24.9018C7.56792 24.9193 7.56748 24.9455 7.56691 24.9791C7.56291 25.2148 7.55276 25.8127 7.64791 26.3027C7.69484 26.5444 7.81089 27.0321 8.19421 27.3689C8.42544 27.5721 8.73366 27.7015 9.08435 27.6923C9.40507 27.684 9.67423 27.5623 9.87426 27.4358C10.4009 27.1026 11.2964 26.3013 12.2085 25.4632C12.5742 25.1272 12.9521 24.776 13.331 24.424C13.8445 23.9468 14.3596 23.4682 14.8481 23.0237H22.579C24.5263 23.0237 26.1815 22.4608 27.3488 21.2857C28.5149 20.1118 29.0632 18.4584 29.0632 16.5394V7.48423C29.0632 5.56527 28.5149 3.9119 27.3488 2.73792C26.1815 1.56281 24.5263 1 22.579 1H7.68525C5.74013 1 4.08521 1.55978 2.91767 2.73398C1.75108 3.90722 1.20312 5.56113 1.20312 7.48423V16.5394C1.20312 18.5316 1.92639 20.1845 3.20683 21.3299Z" stroke="#8F99BA" stroke-width="2"/>
<path d="M12.7532 14.9869C15.4481 17.9118 18.8471 19.7499 20.8627 17.5727C20.9363 17.4825 20.9962 17.4027 21.0656 17.3148C21.5613 16.6789 21.7243 15.8443 21.0353 15.2838C20.4843 14.8559 19.9185 14.4199 19.0164 13.7448C18.3276 13.2151 17.8983 13.3521 17.3839 13.9058L16.9347 14.3888C16.798 14.5349 16.5686 14.512 16.4203 14.4116C16.0195 14.1457 15.3431 13.56 14.7035 12.8681C14.0775 12.1887 13.5085 11.417 13.2907 11.0049C13.2139 10.8713 13.1539 10.6453 13.3043 10.4797L13.7588 9.96139C14.2712 9.37573 14.3858 8.93724 13.8956 8.18959L12.4891 6.02727C12.0189 5.29771 11.3235 5.42128 10.5325 6.04561C10.4746 6.09358 10.4284 6.1438 10.3821 6.19404C8.36232 8.38598 10.0697 12.0747 12.7532 14.9869Z" fill="#8F99BA"/>
</svg>
