<svg width="34" height="15" viewBox="0 0 34 15" fill="none" xmlns="http://www.w3.org/2000/svg">
<path d="M3.1052 5.15891C1.44041 6.8237 0.794644 8.42404 0.899428 10.5436C0.899562 10.692 0.909256 10.8466 0.918782 10.989C0.991536 12.1724 1.36839 13.1043 1.97556 13.7115C2.68529 14.4212 3.71506 14.6782 5.15326 14.4215L9.93825 13.5639C11.4458 13.2892 12.52 12.3206 12.5229 10.7268L12.5199 9.31114C12.5178 8.81468 12.7338 8.57284 13.2019 8.49396C14.0576 8.32187 15.8862 8.20258 17.2211 8.20209C18.578 8.19559 20.038 8.29448 20.9953 8.49311C21.4585 8.59361 21.6688 8.82295 21.671 9.3194L21.6783 10.7273C21.6746 12.3306 22.7567 13.3106 24.257 13.5768L29.1237 14.4448C30.5163 14.6921 31.572 14.4121 32.2899 13.7097C32.9089 13.1064 33.2764 12.2015 33.352 11.02C33.3613 10.8654 33.3724 10.7248 33.3801 10.5978C33.4732 8.43301 32.8434 6.84342 31.1262 5.12621C28.3251 2.32513 23.3991 0.641864 17.1065 0.653312C10.85 0.666388 5.95325 2.31086 3.1052 5.15891ZM4.69564 6.74093C7.07172 4.28361 11.8283 2.99819 17.0417 2.97811C22.2879 2.95963 27.2043 4.30176 29.5848 6.76339C30.5921 7.80182 31.1197 9.06233 31.026 10.4037C31.0166 10.5374 31.0133 10.6494 30.9927 10.7718C30.9535 11.2709 30.7898 11.68 30.5267 11.9431C30.2534 12.2165 29.8955 12.3551 29.4269 12.2537L24.9606 11.3648C24.4157 11.2591 24.0385 10.8994 24.043 10.2613L24.0485 8.73416C24.0592 7.31999 23.1864 6.56249 22.0807 6.37791C20.8461 6.16985 18.8038 6.0395 17.2097 6.05268C15.5232 6.0502 13.3086 6.17505 12.1049 6.36885C10.9962 6.55148 10.1247 7.30742 10.1413 8.72157L10.1478 10.2471C10.1553 10.8869 9.78305 11.2347 9.23834 11.3584L4.85572 12.2393C4.37433 12.3372 4.02914 12.2006 3.74919 11.9206C3.48561 11.6571 3.31951 11.2493 3.27937 10.7467C3.26637 10.6166 3.25502 10.5123 3.2455 10.3786C3.14927 9.03708 3.68243 7.78527 4.69564 6.74093Z" fill="white"/>
</svg>
