<svg width="32" height="32" viewBox="0 0 32 32" fill="none" xmlns="http://www.w3.org/2000/svg">
<path d="M9.08166 21.5772H12.8807C12.994 21.5772 13.0891 21.6149 13.1756 21.6905L19.0615 26.9566C19.7683 27.5782 20.2939 27.8678 20.997 27.8678C21.623 27.8678 22.1408 27.5617 22.4609 27.0364L20.2854 24.8718L14.3662 19.5284C14.0911 19.2801 13.9087 19.2193 13.5436 19.2193H9.30799C8.8521 19.2193 8.63888 19.0036 8.63888 18.5611V13.2144L6.69908 11.277C6.32596 11.7466 6.11328 12.4312 6.11328 13.3323V18.4811C6.11328 20.558 7.118 21.5772 9.08166 21.5772ZM22.7153 19.1577L22.7177 5.69301C22.7177 4.70435 21.9857 3.91016 20.9751 3.91016C20.2816 3.91016 19.8123 4.21685 19.0543 4.88971L13.4451 9.8716L15.1409 11.5736L19.7928 7.34594C19.8574 7.28138 19.9353 7.24603 20.0132 7.24603C20.1118 7.24603 20.1921 7.3154 20.1921 7.43835V16.6297L22.7153 19.1577Z" fill="white"/>
<path d="M27.1662 29.1646C27.5824 29.5784 28.2737 29.5808 28.6742 29.1646C29.088 28.7397 29.0904 28.0727 28.6742 27.6589L5.26112 4.24578C4.84487 3.82953 4.15353 3.82953 3.73728 4.24578C3.32585 4.64864 3.32585 5.35096 3.73728 5.75382L27.1662 29.1646Z" fill="white"/>
</svg>
