<svg width="27" height="26" viewBox="0 0 27 26" fill="none" xmlns="http://www.w3.org/2000/svg">
<path d="M22.3373 5.53144V1.7177C22.3373 1.42112 22.0962 1.17777 21.8025 1.17777H19.3655C19.0718 1.17777 18.8307 1.42112 18.8307 1.7177V2.98008C17.4032 2.01048 15.9644 1.10933 14.5972 0.322248C13.8477 -0.107416 12.6687 -0.107416 11.923 0.322248C8.18286 2.47437 3.90791 5.4744 0.762896 8.42881C0.133894 9.01437 -0.144826 10.1779 0.07363 11.0334C1.16591 15.311 2.46535 20.1476 4.18286 24.2579C4.51808 25.0754 5.55009 25.6914 6.45405 25.6876C8.49925 25.6876 10.5444 25.6876 12.5896 25.6876V24.6419C11.5275 24.0374 10.1603 23.2313 8.8872 22.3187C8.48795 22.0335 8.03974 21.6951 7.71582 21.2655C7.36554 20.7978 7.3693 20.2997 7.73465 19.6989C7.87778 19.4632 8.01714 19.1856 7.94934 18.9194C7.87778 18.6381 7.59906 18.4441 7.31281 18.273C7.17345 18.1932 7.03032 18.121 6.89096 18.0487C6.58588 17.8966 6.30339 17.7483 6.07363 17.5392C5.67062 17.1742 5.45217 16.7559 5.44087 16.3301C5.42957 15.9308 5.61412 15.5354 5.96817 15.1818L6.03597 15.1133C6.30716 14.8471 6.58964 14.5658 6.71017 14.1703C6.8646 13.6456 6.63484 13.1969 6.43522 12.8015C6.41262 12.7559 6.39002 12.714 6.37119 12.6684C6.20546 12.3338 6.1904 11.9498 6.33352 11.5924C6.49548 11.1779 6.84953 10.8471 7.29774 10.6836C7.37307 10.657 7.45217 10.6304 7.53126 10.6037C7.72712 10.5429 7.93051 10.4783 8.11883 10.3604C8.52938 10.1094 8.66121 9.74062 8.49172 9.32616C8.33729 8.94973 8.1791 8.5657 8.13013 8.15125C8.08117 7.72919 8.26949 7.40219 8.43522 7.20066C8.76667 6.80522 9.30528 6.53906 9.84765 6.50484C10.5859 6.46301 11.0981 6.10939 11.407 5.42497C11.8966 4.34131 12.8985 4.10557 13.2412 4.10557H13.2714H13.2977C13.6405 4.10557 14.6424 4.34131 15.1358 5.42497C15.4446 6.10939 15.9569 6.46301 16.6951 6.50484C17.2375 6.53526 17.7799 6.80522 18.1075 7.20066C18.2733 7.40219 18.4616 7.72919 18.4126 8.15125C18.3637 8.5657 18.2055 8.95354 18.051 9.32616C17.8816 9.74062 18.0171 10.1056 18.4277 10.3604C18.616 10.4783 18.8156 10.5391 19.0153 10.6037C19.0944 10.6304 19.1735 10.6532 19.2488 10.6836C19.697 10.8471 20.051 11.1779 20.2092 11.5962C20.3524 11.9536 20.3373 12.3376 20.1753 12.6722C20.1527 12.714 20.1301 12.7597 20.1113 12.8015C19.9079 13.1969 19.6819 13.6494 19.8326 14.1741C19.9494 14.5696 20.2318 14.8509 20.5068 15.1209L20.5708 15.1856C20.9249 15.5354 21.1057 15.9308 21.0981 16.3339C21.0868 16.7597 20.8684 17.178 20.4691 17.543C20.2356 17.7521 19.9494 17.8966 19.648 18.0525C19.5087 18.1248 19.3655 18.197 19.2262 18.2768C18.9362 18.448 18.6574 18.6419 18.5897 18.9232C18.5219 19.1894 18.6612 19.467 18.8006 19.7027C19.1697 20.3035 19.1735 20.8016 18.8232 21.2693C18.503 21.6951 18.051 22.0374 17.6518 22.3225C16.3787 23.2351 15.0115 24.0412 13.9493 24.6457V25.6914C15.9945 25.6914 18.0397 25.6914 20.0849 25.6914C20.9889 25.6952 22.0171 25.0792 22.3524 24.2617C24.0548 20.1476 25.3542 15.311 26.4465 11.0334C26.665 10.1741 26.3863 9.01437 25.7573 8.42881C24.7253 7.45542 23.5576 6.48202 22.3373 5.53144Z" fill="#8F99BA"/>
</svg>
