<svg width="109" height="31" viewBox="0 0 109 31" fill="none" xmlns="http://www.w3.org/2000/svg">
<g clip-path="url(#clip0_3841_11889)">
<path d="M43.4885 22.1218C43.1897 22.3497 42.75 22.4647 42.1812 22.4647H39.7453V19.8576H42.1812C43.349 19.8576 43.9406 20.2881 43.9406 21.136C43.9406 21.5603 43.7884 21.8916 43.4885 22.1218ZM47.2566 21.0344C47.2566 19.9186 46.8743 19.0506 46.1194 18.4538C45.3617 17.856 44.2595 17.5528 42.8418 17.5528H39.7453V15.5855H46.3434V13.0779H36.5146V24.7869H42.4022C43.9321 24.7869 45.1373 24.4527 45.9845 23.7926C46.8293 23.1358 47.2566 22.2076 47.2566 21.0344Z" fill="#32BD1B"/>
<path d="M55.3433 20.2452C55.3433 20.9341 55.1583 21.4815 54.7926 21.8738C54.4269 22.266 53.9515 22.4647 53.3811 22.4647C52.8093 22.4647 52.3343 22.266 51.9691 21.8738C51.6042 21.4831 51.4198 20.935 51.4198 20.2452C51.4198 19.5648 51.6042 19.0252 51.97 18.6406C52.3343 18.2536 52.8093 18.0575 53.3811 18.0575C53.9515 18.0575 54.4269 18.2536 54.7926 18.6406C55.1583 19.0265 55.3433 19.5664 55.3433 20.2452ZM52.7042 15.5846C51.8791 15.5846 51.1192 15.7756 50.4451 16.1523C49.7719 16.5291 49.2295 17.0767 48.8344 17.7797C48.4393 18.485 48.2383 19.3135 48.2383 20.2452C48.2383 21.1758 48.4393 22.0082 48.8344 22.7185C49.2295 23.4262 49.7719 23.9789 50.4451 24.3614C51.1187 24.7443 51.8787 24.9377 52.7042 24.9377C53.8941 24.9377 54.7963 24.5855 55.385 23.8898L55.4442 23.8202V24.7869H58.4385V15.7363H55.2928V16.5751L55.235 16.5171C54.6228 15.8983 53.772 15.5846 52.7042 15.5846Z" fill="#32BD1B"/>
<path d="M63.7498 15.7363H60.6211V24.7869H63.7498V21.5904H67.1162V24.7869H70.2633V15.7363H67.1162V19.1165H63.7498V15.7363Z" fill="#32BD1B"/>
<path d="M78.2652 18.1921V20.3282H76.5223C76.0657 20.3282 75.7188 20.2411 75.4958 20.0691C75.2677 19.8944 75.1521 19.6197 75.1521 19.2516C75.1521 18.5492 75.6188 18.1921 76.5393 18.1921H78.2652ZM73.1431 16.6291C72.3428 17.2205 71.9376 18.0629 71.9376 19.1347C71.9376 19.775 72.0977 20.3311 72.4143 20.7892C72.7305 21.2473 73.1954 21.6141 73.7956 21.8797L73.8332 21.8954L71.8164 24.7869H75.1337L76.7577 22.313H78.2652V24.7869H81.0552V15.7363H76.4718C75.0649 15.7363 73.9443 16.0366 73.1431 16.6291Z" fill="#32BD1B"/>
<path d="M85.9211 21.7314C85.5678 21.3922 85.1089 21.2195 84.5569 21.2195C84.0172 21.2195 83.5611 21.3922 83.2018 21.7314C82.8434 22.0722 82.6621 22.5225 82.6621 23.0706C82.6621 23.6074 82.8466 24.0578 83.21 24.409C83.5748 24.76 84.0273 24.9377 84.5569 24.9377C85.0984 24.9377 85.5536 24.76 85.912 24.4093C86.2708 24.0588 86.4516 23.608 86.4516 23.0706C86.4516 22.5225 86.2731 22.0722 85.9211 21.7314Z" fill="#32BD1B"/>
<path d="M94.2169 21.8565C93.8558 22.2603 93.3781 22.4647 92.7962 22.4647C92.2019 22.4647 91.7242 22.2626 91.375 21.864C91.0272 21.4674 90.8505 20.928 90.8505 20.2614C90.8505 19.6047 91.0299 19.0682 91.3837 18.6663C91.738 18.2627 92.2129 18.0576 92.7962 18.0576C93.3771 18.0576 93.8548 18.2627 94.2169 18.6663C94.5753 19.0682 94.7575 19.6053 94.7575 20.2614C94.7575 20.9165 94.5753 21.4533 94.2169 21.8565ZM97.3002 22.7269C97.6668 22.0214 97.8541 21.1922 97.8541 20.2614C97.8541 19.3183 97.6521 18.4834 97.257 17.7797C96.8638 17.0781 96.2902 16.53 95.5541 16.153C94.819 15.7756 93.9416 15.5846 92.9476 15.5846C91.911 15.5846 90.9886 15.7813 90.2062 16.1701C89.4256 16.5585 88.8158 17.1145 88.3931 17.8225C87.9691 18.5317 87.7539 19.3637 87.7539 20.2948V28.0499H90.9014V23.927L90.9597 23.9899C91.5489 24.6192 92.3712 24.9377 93.4047 24.9377C94.2867 24.9377 95.0718 24.7443 95.7386 24.3614C96.4053 23.9803 96.9317 23.4308 97.3002 22.7269Z" fill="#32BD1B"/>
<path d="M105.855 19.4871C105.855 20.2095 105.69 20.7598 105.364 21.1245C105.038 21.489 104.61 21.674 104.094 21.674C103.59 21.674 103.201 21.5116 102.936 21.1911C102.673 20.8726 102.54 20.3562 102.54 19.6557V15.7363H99.3923V20.1774C99.3923 21.5521 99.7447 22.5964 100.439 23.2819C101.134 23.9673 102.08 24.3145 103.25 24.3145C104.262 24.3145 105.12 23.9899 105.798 23.3486L105.855 23.296V23.5745C105.855 24.3103 105.657 24.8733 105.269 25.2482C104.881 25.6216 104.27 25.8118 103.453 25.8118C102.908 25.8118 102.356 25.723 101.81 25.5499C101.277 25.3806 100.826 25.1471 100.469 24.8555L99.334 27.0303C99.8663 27.4108 100.518 27.7032 101.269 27.8989C102.035 28.0996 102.872 28.2008 103.757 28.2008C105.442 28.2008 106.752 27.7766 107.65 26.9403C108.546 26.1034 109.001 24.8296 109.001 23.1543V15.7363H105.855V19.4871Z" fill="#32BD1B"/>
<path d="M27.2155 6.81188V2.23542C27.2155 1.8789 26.9228 1.58732 26.5641 1.58732H23.5962C23.2389 1.58732 22.9434 1.8789 22.9434 2.23542V3.74945C21.2026 2.58604 19.4502 1.50354 17.7864 0.560806C16.8745 0.0440807 15.4366 0.0440807 14.5258 0.560806C9.97184 3.14092 4.76271 6.74448 0.928479 10.2879C0.165395 10.9907 -0.177338 12.3847 0.0899293 13.4145C1.41945 18.5469 3.00226 24.352 5.09596 29.2844C5.50464 30.266 6.75961 31.0057 7.86145 31C10.3527 31 12.8442 31 15.3365 31V29.7471C14.0437 29.0222 12.3742 28.0552 10.8272 26.9606C10.3425 26.6193 9.79255 26.2122 9.3991 25.6986C8.9716 25.1377 8.97857 24.5386 9.42347 23.8183C9.59862 23.5344 9.76676 23.2011 9.68357 22.8818C9.5972 22.5442 9.25909 22.3105 8.90634 22.1073C8.73711 22.012 8.56039 21.923 8.39046 21.8371C8.02064 21.6537 7.67381 21.4771 7.39256 21.2275C6.90086 20.7889 6.63608 20.2866 6.62337 19.775C6.61171 19.2946 6.834 18.8187 7.26545 18.3982L7.34773 18.3164C7.68097 17.9968 8.0244 17.6617 8.16744 17.1856C8.35334 16.5559 8.07516 16.0169 7.8308 15.5431C7.80359 15.4902 7.7772 15.436 7.75036 15.3841C7.54762 14.9822 7.5322 14.5223 7.70516 14.0927C7.90413 13.5959 8.33181 13.1977 8.87872 13.0014C8.97215 12.968 9.0659 12.9371 9.16323 12.9072C9.4025 12.8341 9.65112 12.7562 9.87846 12.6174C10.3786 12.314 10.5401 11.8735 10.335 11.3777C10.1486 10.9274 9.95624 10.4643 9.8942 9.96667C9.83362 9.45921 10.0638 9.06742 10.2656 8.8264C10.6673 8.35138 11.3264 8.03091 11.9847 7.9924C12.8851 7.9418 13.5062 7.51843 13.8842 6.69707C14.482 5.39591 15.7029 5.113 16.121 5.113H16.1564H16.1891C16.6089 5.113 17.8289 5.39591 18.4287 6.69707C18.8069 7.51843 19.4268 7.9418 20.327 7.9924C20.987 8.03091 21.6455 8.35138 22.0454 8.8264C22.2489 9.06742 22.4784 9.45921 22.4171 9.96667C22.3579 10.4643 22.1641 10.9274 21.977 11.3777C21.7726 11.8735 21.9336 12.314 22.4346 12.6174C22.6628 12.7562 22.9094 12.8341 23.1488 12.9072C23.2456 12.9371 23.3408 12.968 23.4338 13.0014C23.9807 13.1981 24.4087 13.5959 24.6061 14.0948C24.7792 14.5232 24.7638 14.9822 24.5624 15.3841C24.5362 15.436 24.5079 15.4892 24.4826 15.54C24.2368 16.0169 23.9587 16.5551 24.1454 17.1856C24.289 17.6617 24.6339 17.9968 24.9666 18.3205L25.0464 18.3982C25.4769 18.8187 25.6997 19.2946 25.6886 19.775C25.6754 20.2866 25.4102 20.7889 24.9205 21.2275C24.6364 21.4771 24.289 21.6537 23.9206 21.8371C23.752 21.923 23.5745 22.012 23.406 22.1073C23.0538 22.3105 22.7142 22.5442 22.6287 22.8818C22.547 23.2032 22.7142 23.5344 22.8865 23.8183C23.3345 24.5386 23.3424 25.1359 22.9123 25.6986C22.5212 26.2104 21.9695 26.6193 21.4851 26.9606C19.9353 28.0559 18.267 29.0242 16.9771 29.7471V31C19.4681 31 21.9603 31 24.4516 31C25.5527 31.0057 26.807 30.266 27.216 29.2844C29.3095 24.352 30.8925 18.5469 32.2226 13.4145C32.4902 12.3847 32.1491 10.9907 31.3848 10.2879C30.1226 9.1214 28.7031 7.95161 27.2155 6.81188Z" fill="#32BD1B"/>
</g>
<defs>
<clipPath id="clip0_3841_11889">
<rect width="109" height="30.8283" fill="white" transform="translate(0 0.171715)"/>
</clipPath>
</defs>
</svg>
