<svg width="20" height="14" viewBox="0 0 20 14" fill="none" xmlns="http://www.w3.org/2000/svg">
<path fill-rule="evenodd" clip-rule="evenodd" d="M10.7654 8.97471C10.3878 9.35121 9.77676 9.35121 9.39915 8.97471L1.91565 1.48967C1.81201 1.3864 1.77558 1.23345 1.82155 1.09455C1.86753 0.955647 1.98801 0.854629 2.1328 0.833587C2.20674 0.822691 2.28139 0.817267 2.35613 0.817359H17.8115C17.8857 0.817343 17.9599 0.822767 18.0333 0.833587C18.1781 0.854629 18.2986 0.955647 18.3446 1.09455C18.3905 1.23345 18.3541 1.3864 18.2505 1.48967L10.7654 8.97471ZM19.1159 2.26317C19.1565 2.22252 19.2176 2.2106 19.2705 2.23303C19.323 2.2547 19.3572 2.30602 19.357 2.36286V11.6361C19.357 12.4897 18.6651 13.1816 17.8115 13.1816H2.35609C1.50251 13.1816 0.810549 12.4897 0.810549 11.6361V2.36286C0.811168 2.30664 0.845204 2.2562 0.897099 2.23458C0.949892 2.21169 1.01133 2.22367 1.05165 2.26472L5.84282 7.05589C5.91807 7.13155 5.91807 7.25379 5.84282 7.32945L1.94575 11.2265C1.72599 11.4538 1.72896 11.8153 1.95242 12.039C2.17588 12.2627 2.53737 12.266 2.76488 12.0464L6.66196 8.14936C6.73762 8.07411 6.85986 8.07411 6.93552 8.14936L8.58229 9.79304C9.4121 10.6224 10.757 10.6224 11.5868 9.79304L13.232 8.14781C13.2683 8.11147 13.3175 8.09105 13.3688 8.09105C13.4201 8.09105 13.4694 8.11147 13.5056 8.14781L17.4027 12.0449C17.5483 12.1955 17.7638 12.2558 17.9664 12.2027C18.169 12.1495 18.3272 11.9912 18.3801 11.7885C18.4331 11.5859 18.3726 11.3704 18.2218 11.225L14.3247 7.3279C14.2495 7.25224 14.2495 7.13 14.3247 7.05434L19.1159 2.26317Z" fill="#3E3E51"/>
</svg>
