<svg width="14" height="20" viewBox="0 0 14 20" fill="none" xmlns="http://www.w3.org/2000/svg">
<path fill-rule="evenodd" clip-rule="evenodd" d="M10.9474 0.75293H3.21968C1.93931 0.75293 0.901367 1.79087 0.901367 3.07124V16.9285C0.901367 18.2089 1.93931 19.2468 3.21968 19.2468H10.9474C12.2277 19.2468 13.2657 18.2089 13.2657 16.9285V3.07124C13.2657 1.79087 12.2277 0.75293 10.9474 0.75293ZM7.08351 18.0876C6.65672 18.0876 6.31074 17.7417 6.31074 17.3149C6.31074 16.8881 6.65672 16.5421 7.08351 16.5421C7.5103 16.5421 7.85628 16.8881 7.85628 17.3149C7.85628 17.7417 7.5103 18.0876 7.08351 18.0876ZM10.9474 15.383C11.3742 15.383 11.7202 15.037 11.7202 14.6102V3.45762C11.7202 3.03083 11.3742 2.68485 10.9474 2.68485H3.2197C2.79291 2.68485 2.44693 3.03083 2.44693 3.45762V14.6102C2.44693 15.037 2.79291 15.383 3.2197 15.383H10.9474Z" fill="#3E3E51"/>
</svg>
