<svg width="18" height="21" viewBox="0 0 18 21" fill="none" xmlns="http://www.w3.org/2000/svg">
<path d="M16.6554 4.81888H15.8692L14.8886 2.7595C14.8413 2.6603 14.7686 2.57688 14.6787 2.51857C14.5888 2.46026 14.4853 2.42937 14.3796 2.42935H11.5349V0.597382C11.5349 0.267229 11.2804 0 10.966 0H6.41453C6.1001 0 5.8456 0.267229 5.8456 0.597382V2.42935H3.00092C2.89527 2.42937 2.79171 2.46026 2.70182 2.51857C2.61194 2.57688 2.53929 2.6603 2.49199 2.7595L1.51134 4.81888H0.725185C0.410754 4.81888 0.15625 5.08611 0.15625 5.41626C0.15625 5.74641 0.410754 6.01364 0.725185 6.01364H16.6554C16.9698 6.01364 17.2243 5.74641 17.2243 5.41626C17.2243 5.08611 16.9698 4.81888 16.6554 4.81888ZM6.98347 1.19476H10.3971V2.42935H6.98347V1.19476ZM3.00316 19.8429C3.01487 19.9922 3.07965 20.1314 3.18465 20.2329C3.28964 20.3344 3.42715 20.3907 3.56986 20.3906H13.8107C13.9534 20.3907 14.0909 20.3344 14.1959 20.2329C14.3009 20.1314 14.3657 19.9922 14.3774 19.8429L15.377 7.2084H2.00351L3.00316 19.8429ZM10.966 10.1953C10.966 9.86516 11.2205 9.59793 11.5349 9.59793C11.8494 9.59793 12.1039 9.86516 12.1039 10.1953V17.4037C12.1039 17.7339 11.8494 18.0011 11.5349 18.0011C11.2205 18.0011 10.966 17.7339 10.966 17.4037V10.1953ZM8.12134 10.1953C8.12134 9.86516 8.37584 9.59793 8.69027 9.59793C9.0047 9.59793 9.25921 9.86516 9.25921 10.1953V17.4037C9.25921 17.7339 9.0047 18.0011 8.69027 18.0011C8.37584 18.0011 8.12134 17.7339 8.12134 17.4037V10.1953ZM5.27666 10.1953C5.27666 9.86516 5.53117 9.59793 5.8456 9.59793C6.16003 9.59793 6.41453 9.86516 6.41453 10.1953V17.4037C6.41453 17.7339 6.16003 18.0011 5.8456 18.0011C5.53117 18.0011 5.27666 17.7339 5.27666 17.4037V10.1953Z" fill="#3E3E51"/>
</svg>
