<svg width="26" height="27" viewBox="0 0 26 27" fill="none" xmlns="http://www.w3.org/2000/svg">
<path d="M7.01578 26.5901C7.50023 26.5901 7.87382 26.3578 8.45835 25.8169L12.7626 21.9223H20.4504C23.9784 21.9223 25.9547 19.9055 25.9547 16.4276V7.33926C25.9547 3.86137 23.9784 1.83496 20.4504 1.83496H5.50218C1.97625 1.83496 0 3.85176 0 7.33926V16.4276C0 19.9151 2.02476 21.9223 5.42836 21.9223H5.90109V25.3177C5.90109 26.0885 6.30984 26.5901 7.01578 26.5901Z" fill="#32BD1B"/>
<path d="M12.9933 13.8986C12.3059 13.8986 11.9154 13.5187 11.8931 12.8238L11.7281 6.91914C11.7059 6.20524 12.2241 5.69336 12.9816 5.69336C13.7273 5.69336 14.2669 6.21485 14.2446 6.92875L14.0604 12.8175C14.0381 13.5283 13.6498 13.8986 12.9933 13.8986ZM12.9933 17.9383C12.2079 17.9383 11.5542 17.3728 11.5542 16.6001C11.5542 15.839 12.1983 15.2639 12.9933 15.2639C13.7787 15.2639 14.4164 15.8315 14.4164 16.6001C14.4164 17.3824 13.7691 17.9383 12.9933 17.9383Z" fill="white"/>
</svg>
