<svg width="34" height="32" viewBox="0 0 34 32" fill="none" xmlns="http://www.w3.org/2000/svg">
<path d="M4.88602 28.6224H18.9673C18.4758 27.8156 18.1275 26.9206 17.9578 25.9755H4.84872C3.71439 25.9755 3.10102 25.3939 3.10102 24.2056V11.7231C3.10102 10.5458 3.71439 9.95567 4.84872 9.95567H23.49C24.6244 9.95567 25.2488 10.5458 25.2488 11.7231V15.3752C25.7111 15.3031 26.1426 15.2615 26.5926 15.2615C27.0289 15.2615 27.4715 15.3031 27.8957 15.3703V7.79214C27.8957 4.90688 26.3909 3.40454 23.4748 3.40454H4.88602C1.96995 3.40454 0.454102 4.8958 0.454102 7.79214V24.2347C0.454102 27.1287 1.96995 28.6224 4.88602 28.6224ZM11.5677 14.6381H12.3647C12.8449 14.6381 13.012 14.4956 13.012 14.0156V13.2184C13.012 12.7383 12.8449 12.5847 12.3647 12.5847H11.5677C11.0875 12.5847 10.9205 12.7383 10.9205 13.2184V14.0156C10.9205 14.4956 11.0875 14.6381 11.5677 14.6381ZM15.9961 14.6381H16.7821C17.2623 14.6381 17.4292 14.4956 17.4292 14.0156V13.2184C17.4292 12.7383 17.2623 12.5847 16.7821 12.5847H15.9961C15.5048 12.5847 15.3466 12.7383 15.3466 13.2184V14.0156C15.3466 14.4956 15.5048 14.6381 15.9961 14.6381ZM20.411 14.6381H21.2081C21.6883 14.6381 21.8442 14.4956 21.8442 14.0156V13.2184C21.8442 12.7383 21.6883 12.5847 21.2081 12.5847H20.411C19.9309 12.5847 19.7638 12.7383 19.7638 13.2184V14.0156C19.7638 14.4956 19.9309 14.6381 20.411 14.6381ZM7.15278 18.9854H7.94988C8.43004 18.9854 8.58595 18.843 8.58595 18.3629V17.5658C8.58595 17.0856 8.43004 16.9432 7.94988 16.9432H7.15278C6.67261 16.9432 6.50563 17.0856 6.50563 17.5658V18.3629C6.50563 18.843 6.67261 18.9854 7.15278 18.9854ZM11.5677 18.9854H12.3647C12.8449 18.9854 13.012 18.843 13.012 18.3629V17.5658C13.012 17.0856 12.8449 16.9432 12.3647 16.9432H11.5677C11.0875 16.9432 10.9205 17.0856 10.9205 17.5658V18.3629C10.9205 18.843 11.0875 18.9854 11.5677 18.9854ZM15.9961 18.9854H16.7821C17.2623 18.9854 17.4292 18.843 17.4292 18.3629V17.5658C17.4292 17.0856 17.2623 16.9432 16.7821 16.9432H15.9961C15.5048 16.9432 15.3466 17.0856 15.3466 17.5658V18.3629C15.3466 18.843 15.5048 18.9854 15.9961 18.9854ZM7.15278 23.3439H7.94988C8.43004 23.3439 8.58595 23.1929 8.58595 22.7103V21.9156C8.58595 21.433 8.43004 21.293 7.94988 21.293H7.15278C6.67261 21.293 6.50563 21.433 6.50563 21.9156V22.7103C6.50563 23.1929 6.67261 23.3439 7.15278 23.3439ZM11.5677 23.3439H12.3647C12.8449 23.3439 13.012 23.1929 13.012 22.7103V21.9156C13.012 21.433 12.8449 21.293 12.3647 21.293H11.5677C11.0875 21.293 10.9205 21.433 10.9205 21.9156V22.7103C10.9205 23.1929 11.0875 23.3439 11.5677 23.3439ZM15.9961 23.3439H16.7821C17.2623 23.3439 17.4292 23.1929 17.4292 22.7103V21.9156C17.4292 21.433 17.2623 21.293 16.7821 21.293H15.9961C15.5048 21.293 15.3466 21.433 15.3466 21.9156V22.7103C15.3466 23.1929 15.5048 23.3439 15.9961 23.3439Z" fill="var(--icon-color)"/>
<path d="M26.5929 31.0821C30.3641 31.0821 33.546 27.9309 33.546 24.1264C33.546 20.3132 30.3998 17.1757 26.5929 17.1757C22.7772 17.1757 19.6396 20.3243 19.6396 24.1264C19.6396 27.9531 22.7772 31.0821 26.5929 31.0821Z" fill="var(--icon-color)"/>
<path d="M23.3762 25.2752C22.8449 25.2752 22.4229 24.8531 22.4229 24.3329C22.4229 23.8238 22.856 23.4017 23.3762 23.4017H25.7277V20.2174C25.7277 19.7084 26.1498 19.2974 26.6699 19.2974C27.1901 19.2974 27.6122 19.7084 27.6122 20.2174V24.3329C27.6122 24.8642 27.2012 25.2752 26.6699 25.2752H23.3762Z" fill="var(--icon-subcolor)"/>
</svg>
