<svg width="11" height="11" viewBox="0 0 11 11"  xmlns="http://www.w3.org/2000/svg">
<path d="M4.15451 10.5377C4.57501 10.5377 4.94111 10.3291 5.19231 9.95441L10.4318 1.75523C10.5797 1.51359 10.7215 1.2314 10.7215 0.96515C10.7215 0.39046 10.2042 0 9.66051 0C9.30941 0 8.98901 0.19265 8.74101 0.58851L4.11611 8.02201L1.93621 5.24461C1.64859 4.87381 1.3739 4.75151 1.03007 4.75151C0.45328 4.75151 0 5.20801 0 5.79231C0 6.06581 0.10758 6.33001 0.30117 6.58431L3.07411 9.96071C3.38601 10.3622 3.72981 10.5377 4.15451 10.5377Z" fill="var(--icon-color)" />
</svg>
