<svg width="18" height="24" viewBox="0 0 18 24" fill="none" xmlns="http://www.w3.org/2000/svg">
<path d="M3.27865 0.54248C1.71589 0.54248 0.445312 1.83174 0.445312 3.41748V20.6675C0.445312 22.2532 1.71589 23.5425 3.27865 23.5425H14.612C16.1747 23.5425 17.4453 22.2532 17.4453 20.6675V3.41748C17.4453 1.83174 16.1747 0.54248 14.612 0.54248H3.27865ZM4.69531 3.41748H13.1953C13.9789 3.41748 14.612 4.05986 14.612 4.85498V6.29248C14.612 7.0876 13.9789 7.72998 13.1953 7.72998H4.69531C3.91172 7.72998 3.27865 7.0876 3.27865 6.29248V4.85498C3.27865 4.05986 3.91172 3.41748 4.69531 3.41748ZM6.11198 10.605C6.11198 10.9862 5.96272 11.3519 5.69705 11.6214C5.43137 11.891 5.07104 12.0425 4.69531 12.0425C4.31959 12.0425 3.95925 11.891 3.69358 11.6214C3.4279 11.3519 3.27865 10.9862 3.27865 10.605C3.27865 10.2237 3.4279 9.8581 3.69358 9.58851C3.95925 9.31893 4.31959 9.16748 4.69531 9.16748C5.07104 9.16748 5.43137 9.31893 5.69705 9.58851C5.96272 9.8581 6.11198 10.2237 6.11198 10.605ZM4.69531 16.355C4.31959 16.355 3.95925 16.2035 3.69358 15.9339C3.4279 15.6644 3.27865 15.2987 3.27865 14.9175C3.27865 14.5362 3.4279 14.1706 3.69358 13.901C3.95925 13.6314 4.31959 13.48 4.69531 13.48C5.07104 13.48 5.43137 13.6314 5.69705 13.901C5.96272 14.1706 6.11198 14.5362 6.11198 14.9175C6.11198 15.2987 5.96272 15.6644 5.69705 15.9339C5.43137 16.2035 5.07104 16.355 4.69531 16.355ZM3.27865 19.23C3.27865 18.4349 3.91172 17.7925 4.69531 17.7925H8.94531C9.72891 17.7925 10.362 18.4349 10.362 19.23C10.362 20.0251 9.72891 20.6675 8.94531 20.6675H4.69531C3.91172 20.6675 3.27865 20.0251 3.27865 19.23ZM8.94531 12.0425C8.56959 12.0425 8.20925 11.891 7.94358 11.6214C7.6779 11.3519 7.52865 10.9862 7.52865 10.605C7.52865 10.2237 7.6779 9.8581 7.94358 9.58851C8.20925 9.31893 8.56959 9.16748 8.94531 9.16748C9.32104 9.16748 9.68137 9.31893 9.94705 9.58851C10.2127 9.8581 10.362 10.2237 10.362 10.605C10.362 10.9862 10.2127 11.3519 9.94705 11.6214C9.68137 11.891 9.32104 12.0425 8.94531 12.0425ZM10.362 14.9175C10.362 15.2987 10.2127 15.6644 9.94705 15.9339C9.68137 16.2035 9.32104 16.355 8.94531 16.355C8.56959 16.355 8.20925 16.2035 7.94358 15.9339C7.6779 15.6644 7.52865 15.2987 7.52865 14.9175C7.52865 14.5362 7.6779 14.1706 7.94358 13.901C8.20925 13.6314 8.56959 13.48 8.94531 13.48C9.32104 13.48 9.68137 13.6314 9.94705 13.901C10.2127 14.1706 10.362 14.5362 10.362 14.9175ZM13.1953 12.0425C12.8196 12.0425 12.4593 11.891 12.1936 11.6214C11.9279 11.3519 11.7786 10.9862 11.7786 10.605C11.7786 10.2237 11.9279 9.8581 12.1936 9.58851C12.4593 9.31893 12.8196 9.16748 13.1953 9.16748C13.571 9.16748 13.9314 9.31893 14.197 9.58851C14.4627 9.8581 14.612 10.2237 14.612 10.605C14.612 10.9862 14.4627 11.3519 14.197 11.6214C13.9314 11.891 13.571 12.0425 13.1953 12.0425ZM14.612 14.9175C14.612 15.2987 14.4627 15.6644 14.197 15.9339C13.9314 16.2035 13.571 16.355 13.1953 16.355C12.8196 16.355 12.4593 16.2035 12.1936 15.9339C11.9279 15.6644 11.7786 15.2987 11.7786 14.9175C11.7786 14.5362 11.9279 14.1706 12.1936 13.901C12.4593 13.6314 12.8196 13.48 13.1953 13.48C13.571 13.48 13.9314 13.6314 14.197 13.901C14.4627 14.1706 14.612 14.5362 14.612 14.9175ZM13.1953 20.6675C12.8196 20.6675 12.4593 20.516 12.1936 20.2464C11.9279 19.9769 11.7786 19.6112 11.7786 19.23C11.7786 18.8487 11.9279 18.4831 12.1936 18.2135C12.4593 17.9439 12.8196 17.7925 13.1953 17.7925C13.571 17.7925 13.9314 17.9439 14.197 18.2135C14.4627 18.4831 14.612 18.8487 14.612 19.23C14.612 19.6112 14.4627 19.9769 14.197 20.2464C13.9314 20.516 13.571 20.6675 13.1953 20.6675Z" fill="var(--icon-color)"/>
</svg>
