<svg width="28" height="28" viewBox="0 0 28 28" fill="none" xmlns="http://www.w3.org/2000/svg">
<path fill-rule="evenodd" clip-rule="evenodd" d="M21.2424 6.94624H19.1173C19.0106 6.94624 18.9241 6.85974 18.9241 6.75305V5.4007C18.9241 4.97391 18.5782 4.62793 18.1514 4.62793C17.7246 4.62793 17.3786 4.97391 17.3786 5.4007V9.07135C17.3786 9.39145 17.1191 9.65093 16.799 9.65093C16.4789 9.65093 16.2194 9.39145 16.2194 9.07135V7.33262C16.2194 7.11923 16.0464 6.94624 15.8331 6.94624H11.0032C10.8968 6.94624 10.8105 6.86021 10.8101 6.75382V5.4007C10.8101 4.97391 10.4641 4.62793 10.0373 4.62793C9.6105 4.62793 9.26451 4.97391 9.26451 5.4007V9.07135C9.26451 9.39145 9.00503 9.65093 8.68494 9.65093C8.36485 9.65093 8.10536 9.39145 8.10536 9.07135V7.33262C8.10536 7.11923 7.93237 6.94624 7.71898 6.94624H6.55982C5.70624 6.94624 5.01428 7.6382 5.01428 8.49178V21.6289C5.01428 22.4824 5.70624 23.1744 6.55982 23.1744H21.2424C22.096 23.1744 22.788 22.4824 22.788 21.6289V8.49178C22.788 7.6382 22.096 6.94624 21.2424 6.94624ZM10.4238 12.742H9.65105C9.22427 12.742 8.87828 13.088 8.87828 13.5148C8.87828 13.9416 9.22427 14.2876 9.65105 14.2876H10.4238C10.8506 14.2876 11.1966 13.9416 11.1966 13.5148C11.1966 13.088 10.8506 12.742 10.4238 12.742ZM14.2877 12.742H13.5149C13.0882 12.742 12.7422 13.088 12.7422 13.5148C12.7422 13.9416 13.0882 14.2876 13.5149 14.2876H14.2877C14.7145 14.2876 15.0605 13.9416 15.0605 13.5148C15.0605 13.088 14.7145 12.742 14.2877 12.742ZM17.3788 12.742H18.1516C18.5784 12.742 18.9244 13.088 18.9244 13.5148C18.9244 13.9416 18.5784 14.2876 18.1516 14.2876H17.3788C16.952 14.2876 16.6061 13.9416 16.6061 13.5148C16.6061 13.088 16.952 12.742 17.3788 12.742ZM10.4238 15.8331H9.65105C9.22427 15.8331 8.87828 16.1791 8.87828 16.6059C8.87828 17.0327 9.22427 17.3786 9.65105 17.3786H10.4238C10.8506 17.3786 11.1966 17.0327 11.1966 16.6059C11.1966 16.1791 10.8506 15.8331 10.4238 15.8331ZM13.5149 15.8331H14.2877C14.7145 15.8331 15.0605 16.1791 15.0605 16.6059C15.0605 17.0327 14.7145 17.3786 14.2877 17.3786H13.5149C13.0882 17.3786 12.7422 17.0327 12.7422 16.6059C12.7422 16.1791 13.0882 15.8331 13.5149 15.8331ZM18.1516 15.8331H17.3788C16.952 15.8331 16.6061 16.1791 16.6061 16.6059C16.6061 17.0327 16.952 17.3786 17.3788 17.3786H18.1516C18.5784 17.3786 18.9244 17.0327 18.9244 16.6059C18.9244 16.1791 18.5784 15.8331 18.1516 15.8331ZM9.65105 18.9242H10.4238C10.8506 18.9242 11.1966 19.2702 11.1966 19.697C11.1966 20.1237 10.8506 20.4697 10.4238 20.4697H9.65105C9.22427 20.4697 8.87828 20.1237 8.87828 19.697C8.87828 19.2702 9.22427 18.9242 9.65105 18.9242ZM14.2877 18.9242H13.5149C13.0882 18.9242 12.7422 19.2702 12.7422 19.697C12.7422 20.1237 13.0882 20.4697 13.5149 20.4697H14.2877C14.7145 20.4697 15.0605 20.1237 15.0605 19.697C15.0605 19.2702 14.7145 18.9242 14.2877 18.9242ZM17.3788 18.9242H18.1516C18.5784 18.9242 18.9244 19.2702 18.9244 19.697C18.9244 20.1237 18.5784 20.4697 18.1516 20.4697H17.3788C16.952 20.4697 16.6061 20.1237 16.6061 19.697C16.6061 19.2702 16.952 18.9242 17.3788 18.9242ZM20.8562 21.6288C21.0696 21.6288 21.2426 21.4558 21.2426 21.2424V11.9692C21.2426 11.7558 21.0696 11.5828 20.8562 11.5828H6.94639C6.733 11.5828 6.56001 11.7558 6.56001 11.9692V21.2424C6.56001 21.4558 6.733 21.6288 6.94639 21.6288H20.8562Z" fill="var(--icon-color)"/>
<mask id="mask0_4420_824" style="mask-type:luminance" maskUnits="userSpaceOnUse" x="5" y="4" width="18" height="20">
<path fill-rule="evenodd" clip-rule="evenodd" d="M21.2424 6.94624H19.1173C19.0106 6.94624 18.9241 6.85974 18.9241 6.75305V5.4007C18.9241 4.97391 18.5782 4.62793 18.1514 4.62793C17.7246 4.62793 17.3786 4.97391 17.3786 5.4007V9.07135C17.3786 9.39145 17.1191 9.65093 16.799 9.65093C16.4789 9.65093 16.2194 9.39145 16.2194 9.07135V7.33262C16.2194 7.11923 16.0464 6.94624 15.8331 6.94624H11.0032C10.8968 6.94624 10.8105 6.86021 10.8101 6.75382V5.4007C10.8101 4.97391 10.4641 4.62793 10.0373 4.62793C9.6105 4.62793 9.26451 4.97391 9.26451 5.4007V9.07135C9.26451 9.39145 9.00503 9.65093 8.68494 9.65093C8.36485 9.65093 8.10536 9.39145 8.10536 9.07135V7.33262C8.10536 7.11923 7.93237 6.94624 7.71898 6.94624H6.55982C5.70624 6.94624 5.01428 7.6382 5.01428 8.49178V21.6289C5.01428 22.4824 5.70624 23.1744 6.55982 23.1744H21.2424C22.096 23.1744 22.788 22.4824 22.788 21.6289V8.49178C22.788 7.6382 22.096 6.94624 21.2424 6.94624ZM10.4238 12.742H9.65105C9.22427 12.742 8.87828 13.088 8.87828 13.5148C8.87828 13.9416 9.22427 14.2876 9.65105 14.2876H10.4238C10.8506 14.2876 11.1966 13.9416 11.1966 13.5148C11.1966 13.088 10.8506 12.742 10.4238 12.742ZM14.2877 12.742H13.5149C13.0882 12.742 12.7422 13.088 12.7422 13.5148C12.7422 13.9416 13.0882 14.2876 13.5149 14.2876H14.2877C14.7145 14.2876 15.0605 13.9416 15.0605 13.5148C15.0605 13.088 14.7145 12.742 14.2877 12.742ZM17.3788 12.742H18.1516C18.5784 12.742 18.9244 13.088 18.9244 13.5148C18.9244 13.9416 18.5784 14.2876 18.1516 14.2876H17.3788C16.952 14.2876 16.6061 13.9416 16.6061 13.5148C16.6061 13.088 16.952 12.742 17.3788 12.742ZM10.4238 15.8331H9.65105C9.22427 15.8331 8.87828 16.1791 8.87828 16.6059C8.87828 17.0327 9.22427 17.3786 9.65105 17.3786H10.4238C10.8506 17.3786 11.1966 17.0327 11.1966 16.6059C11.1966 16.1791 10.8506 15.8331 10.4238 15.8331ZM13.5149 15.8331H14.2877C14.7145 15.8331 15.0605 16.1791 15.0605 16.6059C15.0605 17.0327 14.7145 17.3786 14.2877 17.3786H13.5149C13.0882 17.3786 12.7422 17.0327 12.7422 16.6059C12.7422 16.1791 13.0882 15.8331 13.5149 15.8331ZM18.1516 15.8331H17.3788C16.952 15.8331 16.6061 16.1791 16.6061 16.6059C16.6061 17.0327 16.952 17.3786 17.3788 17.3786H18.1516C18.5784 17.3786 18.9244 17.0327 18.9244 16.6059C18.9244 16.1791 18.5784 15.8331 18.1516 15.8331ZM9.65105 18.9242H10.4238C10.8506 18.9242 11.1966 19.2702 11.1966 19.697C11.1966 20.1237 10.8506 20.4697 10.4238 20.4697H9.65105C9.22427 20.4697 8.87828 20.1237 8.87828 19.697C8.87828 19.2702 9.22427 18.9242 9.65105 18.9242ZM14.2877 18.9242H13.5149C13.0882 18.9242 12.7422 19.2702 12.7422 19.697C12.7422 20.1237 13.0882 20.4697 13.5149 20.4697H14.2877C14.7145 20.4697 15.0605 20.1237 15.0605 19.697C15.0605 19.2702 14.7145 18.9242 14.2877 18.9242ZM17.3788 18.9242H18.1516C18.5784 18.9242 18.9244 19.2702 18.9244 19.697C18.9244 20.1237 18.5784 20.4697 18.1516 20.4697H17.3788C16.952 20.4697 16.6061 20.1237 16.6061 19.697C16.6061 19.2702 16.952 18.9242 17.3788 18.9242ZM20.8562 21.6288C21.0696 21.6288 21.2426 21.4558 21.2426 21.2424V11.9692C21.2426 11.7558 21.0696 11.5828 20.8562 11.5828H6.94639C6.733 11.5828 6.56001 11.7558 6.56001 11.9692V21.2424C6.56001 21.4558 6.733 21.6288 6.94639 21.6288H20.8562Z" fill="white"/>
</mask>
<g mask="url(#mask0_4420_824)">
</g>
</svg>
