<svg width="27" height="27" viewBox="0 0 27 27" fill="none" xmlns="http://www.w3.org/2000/svg">
<path d="M25.2056 4.5501C24.0467 3.3911 22.5058 2.75286 20.8668 2.75286C19.2278 2.75286 17.6868 3.3911 16.5278 4.5501L6.85501 14.2228C5.41955 15.6583 5.41955 17.994 6.85509 19.4296C8.29063 20.8651 10.6264 20.865 12.0618 19.4294L18.4312 13.0601C18.9105 12.5808 18.9105 11.8038 18.4312 11.3245C17.952 10.8453 17.1749 10.8453 16.6956 11.3245L10.3263 17.6939C9.84783 18.1725 9.06919 18.1724 8.59065 17.694C8.11211 17.2154 8.11211 16.4368 8.59057 15.9583L18.2634 6.28574C18.9588 5.59039 19.8833 5.20741 20.8668 5.20741C21.8502 5.20741 22.7747 5.59039 23.4701 6.28574C24.9055 7.72128 24.9056 10.057 23.4702 11.4925L12.9297 22.0328C10.537 24.4253 6.64417 24.4252 4.2518 22.0328C3.0928 20.8739 2.45447 19.333 2.45447 17.694C2.45447 16.0549 3.0928 14.5139 4.2518 13.3549L14.7921 2.81447C15.2714 2.33519 15.2714 1.55819 14.7921 1.07891C14.3129 0.599714 13.5358 0.599633 13.0566 1.07891L2.51624 11.6194C0.893591 13.242 0 15.3993 0 17.694C0 19.9886 0.893591 22.146 2.51624 23.7684C4.19117 25.4434 6.39054 26.2808 8.59065 26.2805C10.7903 26.2804 12.9906 25.443 14.6652 23.7684L25.2058 13.228C27.5982 10.8354 27.5981 6.94264 25.2056 4.5501Z" fill="var(--icon-color)"/>
</svg>
