<svg width="21" height="19" viewBox="0 0 21 19" fill="none" xmlns="http://www.w3.org/2000/svg">
<path d="M5.98482 19C6.51257 19 6.90492 18.7541 7.5618 18.2052L10.8073 15.4713H16.5465C19.401 15.4713 21 13.9113 21 11.2339V4.2374C21 1.56 19.401 0 16.5465 0H4.45183C1.59899 0 0 1.5526 0 4.2374V11.2339C0 13.9187 1.63824 15.4713 4.3921 15.4713H4.78236V17.6951C4.78236 18.4921 5.22212 19 5.98482 19ZM6.44525 17.013V14.4373C6.44525 13.9079 6.20688 13.7038 5.67439 13.7038H4.50473C2.71231 13.7038 1.85763 12.8363 1.85763 11.1779V4.28611C1.85763 2.62759 2.71231 1.76748 4.50473 1.76748H16.4952C18.2799 1.76748 19.1424 2.62759 19.1424 4.28611V11.1779C19.1424 12.8363 18.2799 13.7038 16.4952 13.7038H10.7061C10.1308 13.7038 9.85672 13.7923 9.45549 14.1782L6.44525 17.013Z" fill="var(--icon-color)"/>
</svg>
