<svg width="22" height="22" viewBox="0 0 22 22" fill="none" xmlns="http://www.w3.org/2000/svg">
<path d="M20.4302 1.45889C19.2244 0.255145 17.5516 0.0212402 15.417 0.0212402H6.40827C4.30453 0.0212402 2.62968 0.255145 1.42383 1.45889C0.220076 2.66264 0 4.32155 0 6.4199V15.3613C0 17.5002 0.220076 19.1495 1.42383 20.3511C2.63179 21.557 4.30453 21.7888 6.42749 21.7888H15.417C17.5516 21.7888 19.2265 21.557 20.4302 20.3511C21.634 19.1474 21.8541 17.5002 21.8541 15.3613V6.44873C21.8541 4.31194 21.634 2.65092 20.4302 1.45889ZM19.5581 6.12061V15.6798C19.5581 16.907 19.4037 18.0184 18.7458 18.6784C18.0975 19.3246 16.9627 19.4929 15.7472 19.4929H6.10898C4.89351 19.4929 3.75655 19.3246 3.09866 18.6784C2.45248 18.0184 2.29592 16.907 2.29592 15.6798V6.14943C2.29592 4.91264 2.45248 3.78201 3.09866 3.13372C3.75655 2.47583 4.90312 2.31716 6.13781 2.31716H15.7472C16.9627 2.31716 18.0975 2.48544 18.7458 3.13372C19.4037 3.79162 19.5581 4.90303 19.5581 6.12061Z" fill="var(--icon-color)"/>
<path d="M10.9383 4.88794C10.348 4.88794 9.91086 5.30606 9.91086 5.89762V11.4363L10.0098 13.8436L8.94968 12.528L7.63109 11.1577C7.46398 10.9683 7.21718 10.8577 6.92984 10.8577C6.38187 10.8577 5.97852 11.2547 5.97852 11.7942C5.97852 12.0783 6.05727 12.304 6.25297 12.4985L10.1269 16.4102C10.3866 16.6784 10.629 16.8028 10.9383 16.8028C11.2669 16.8028 11.5189 16.6687 11.769 16.4102L15.643 12.4985C15.829 12.304 15.9174 12.0783 15.9174 11.7942C15.9174 11.2547 15.5044 10.8577 14.9565 10.8577C14.6733 10.8577 14.4244 10.9587 14.2552 11.1577L12.9483 12.5175L11.8765 13.8553L11.9754 11.4363V5.89762C11.9754 5.30606 11.5383 4.88794 10.9383 4.88794Z" fill="var(--icon-color)"/>
</svg>
