<svg width="26" height="20" viewBox="0 0 26 20" fill="none" xmlns="http://www.w3.org/2000/svg">
<path d="M17.9004 7.1106L17.9004 3.2303C17.9004 1.2946 16.5471 -9.73931e-05 14.5273 -9.75697e-05L3.31843 -9.85496e-05C1.32813 -9.87236e-05 0.000230485 1.2946 0.000230315 3.2324L0.000229164 16.3986C0.000228995 18.3385 1.32813 19.6311 3.31843 19.6311L14.5273 19.6311C16.5471 19.6311 17.9004 18.3385 17.9004 16.4007L17.9004 12.5002L15.6024 12.5002L15.6024 15.8724C15.6024 16.7657 15.0727 17.2698 14.1335 17.2698L3.75323 17.2698C2.82583 17.2698 2.29613 16.7614 2.29613 15.8703L2.29613 3.7606C2.29613 2.8696 2.82583 2.3612 3.75323 2.3612L14.1335 2.3612C15.0727 2.3612 15.6024 2.8653 15.6024 3.7585L15.6024 7.1106L17.9004 7.1106Z" fill="var(--icon-color)"/>
<path d="M9.82965 10.5699H21.0322L23.1517 10.4598L20.993 12.4181L20.3893 13.0393C20.2289 13.2166 20.1104 13.4661 20.1104 13.7319C20.1104 14.2625 20.4929 14.6311 20.9958 14.6311C21.2527 14.6311 21.4849 14.5333 21.6563 14.3561L25.533 10.3963C25.7779 10.1551 25.9004 9.88543 25.9004 9.63214C25.9004 9.37685 25.7779 9.09073 25.533 8.85678L21.6563 4.90616C21.4849 4.72891 21.2527 4.6311 20.9958 4.6311C20.4929 4.6311 20.1104 4.99971 20.1104 5.52312C20.1104 5.79817 20.225 6.03643 20.3893 6.21367L20.993 6.84611L23.1517 8.79533L21.0322 8.68314H9.82965C9.27078 8.68314 8.90039 9.13026 8.90039 9.63214C8.90039 10.132 9.27078 10.5699 9.82965 10.5699Z" fill="var(--icon-color)"/>
</svg>
