<svg width="21" height="21" viewBox="0 0 21 21" fill="none" xmlns="http://www.w3.org/2000/svg">
<path d="M20.4062 10.07C20.4062 15.083 16.7472 19.248 11.9693 20.01V12.98H14.3053L14.7423 10.07H11.9793V8.18C11.9793 7.386 12.3633 6.602 13.6013 6.602H14.8703V4.133C14.8703 4.133 13.7183 3.94 12.6303 3.94C10.3473 3.94 8.84325 5.335 8.84325 7.848V10.07H6.30625V12.98H8.84425V20.01C6.48747 19.6229 4.34498 18.4108 2.79933 16.59C1.25368 14.7692 0.405509 12.4584 0.40625 10.07C0.40625 4.509 4.88625 0 10.4113 0C15.9373 0 20.4062 4.509 20.4062 10.07Z" fill="var(--icon-color)"/>
</svg>
