<svg width="17" height="14" viewBox="0 0 17 14" fill="none" xmlns="http://www.w3.org/2000/svg">
<path d="M15.9395 0.74561C16.218 1.01471 16.3569 1.36767 16.356 1.72036C16.3542 2.44032 15.7328 2.98623 15.3224 3.57778L9.60321 11.8215C9.19282 12.413 8.72798 13.0996 8.00814 13.113C7.63504 13.12 7.25963 12.9859 6.97492 12.7109C6.69633 12.4418 6.55749 12.0889 6.55839 11.7362C6.56022 11.0162 7.1816 10.4703 7.59199 9.87876L13.3112 1.63507C13.7216 1.04352 14.1864 0.356939 14.9062 0.343519C15.2793 0.336563 15.6547 0.470593 15.9395 0.74561Z" fill="var(--icon-color)"/>
<path d="M0.688021 4.71952C1.2434 4.18306 2.14386 4.18306 2.69924 4.71952L8.96122 10.7682C9.5166 11.3047 9.5166 12.1744 8.96122 12.7109C8.40584 13.2474 7.50538 13.2474 6.95 12.7109L0.688022 6.66224C0.132639 6.12577 0.132638 5.25599 0.688021 4.71952Z" fill="var(--icon-color)"/>
</svg>
