<svg width="24" height="23" viewBox="0 0 24 23" fill="none" xmlns="http://www.w3.org/2000/svg">
<path d="M17.1756 5.77185C16.8997 5.49323 16.4729 5.43012 16.1281 5.61692L4.77666 10.4145C4.41832 10.6071 4.23663 11.0185 4.33566 11.4131C4.43469 11.8077 4.78912 12.0846 5.19596 12.0852L10.4338 13.0658L11.4143 18.3036C11.4142 18.711 11.6914 19.0661 12.0866 19.1649C12.1564 19.1823 12.2279 19.1914 12.2998 19.1919C12.6271 19.1916 12.9276 19.011 13.0815 18.7222L17.327 6.81725C17.5134 6.47367 17.4518 6.04845 17.1756 5.77185Z" fill="var(--icon-color)"/>
<path d="M17.1756 5.77185C16.8997 5.49323 16.4729 5.43012 16.1281 5.61692L4.77666 10.4145C4.41832 10.6071 4.23663 11.0185 4.33566 11.4131C4.43469 11.8077 4.78912 12.0846 5.19596 12.0852L10.4338 13.0658L11.4143 18.3036C11.4142 18.711 11.6914 19.0661 12.0866 19.1649C12.1564 19.1823 12.2279 19.1914 12.2998 19.1919C12.6271 19.1916 12.9276 19.011 13.0815 18.7222L17.327 6.81725C17.5134 6.47367 17.4518 6.04845 17.1756 5.77185Z" fill="var(--icon-color)"/>
<path d="M6.87278 20.8236H2.91029C2.78156 20.8236 2.6772 20.7192 2.6772 20.5905V16.628C2.6772 16.1131 2.25977 15.6956 1.74485 15.6956C1.22993 15.6956 0.8125 16.1131 0.8125 16.628V20.8236C0.8125 21.8534 1.64736 22.6883 2.6772 22.6883H6.87278C7.3877 22.6883 7.80513 22.2708 7.80513 21.7559C7.80513 21.241 7.3877 20.8236 6.87278 20.8236Z" fill="var(--icon-color)"/>
<path d="M1.74487 7.3044C2.25979 7.3044 2.67722 6.88697 2.67722 6.37205V2.40956C2.67722 2.28083 2.78158 2.17647 2.91031 2.17647H6.8728C7.38772 2.17647 7.80515 1.75904 7.80515 1.24412C7.80515 0.729195 7.38772 0.311768 6.8728 0.311768H2.67722C1.64737 0.311768 0.812518 1.14662 0.812518 2.17647V6.37205C0.812518 6.88697 1.22995 7.3044 1.74487 7.3044Z" fill="var(--icon-color)"/>
<path d="M22.2566 15.6956C21.7417 15.6956 21.3243 16.1131 21.3243 16.628V20.5905C21.3243 20.7192 21.2199 20.8236 21.0912 20.8236H17.1287C16.6138 20.8236 16.1963 21.241 16.1963 21.7559C16.1963 22.2708 16.6138 22.6883 17.1287 22.6883H21.3243C22.3541 22.6883 23.189 21.8534 23.189 20.8236V16.628C23.189 16.1131 22.7715 15.6956 22.2566 15.6956Z" fill="var(--icon-color)"/>
<path d="M21.3243 0.311804H17.1287C16.6138 0.311804 16.1963 0.729232 16.1963 1.24416C16.1963 1.75908 16.6138 2.17651 17.1287 2.17651H21.0912C21.2199 2.17651 21.3243 2.28086 21.3243 2.40959V6.37209C21.3243 6.88701 21.7417 7.30444 22.2566 7.30444C22.7715 7.30444 23.189 6.88701 23.189 6.37209V2.17651C23.189 1.14666 22.3541 0.311804 21.3243 0.311804Z" fill="var(--icon-color)"/>
<path d="M6.87278 20.8236H2.91029C2.78156 20.8236 2.6772 20.7192 2.6772 20.5905V16.628C2.6772 16.1131 2.25977 15.6956 1.74485 15.6956C1.22993 15.6956 0.8125 16.1131 0.8125 16.628V20.8236C0.8125 21.8534 1.64736 22.6883 2.6772 22.6883H6.87278C7.3877 22.6883 7.80513 22.2708 7.80513 21.7559C7.80513 21.241 7.3877 20.8236 6.87278 20.8236Z" fill="var(--icon-color)"/>
<path d="M1.74487 7.3044C2.25979 7.3044 2.67722 6.88697 2.67722 6.37205V2.40956C2.67722 2.28083 2.78158 2.17647 2.91031 2.17647H6.8728C7.38772 2.17647 7.80515 1.75904 7.80515 1.24412C7.80515 0.729195 7.38772 0.311768 6.8728 0.311768H2.67722C1.64737 0.311768 0.812518 1.14662 0.812518 2.17647V6.37205C0.812518 6.88697 1.22995 7.3044 1.74487 7.3044Z" fill="var(--icon-color)"/>
<path d="M22.2566 15.6956C21.7417 15.6956 21.3243 16.1131 21.3243 16.628V20.5905C21.3243 20.7192 21.2199 20.8236 21.0912 20.8236H17.1287C16.6138 20.8236 16.1963 21.241 16.1963 21.7559C16.1963 22.2708 16.6138 22.6883 17.1287 22.6883H21.3243C22.3541 22.6883 23.189 21.8534 23.189 20.8236V16.628C23.189 16.1131 22.7715 15.6956 22.2566 15.6956Z" fill="var(--icon-color)"/>
<path d="M21.3243 0.311804H17.1287C16.6138 0.311804 16.1963 0.729232 16.1963 1.24416C16.1963 1.75908 16.6138 2.17651 17.1287 2.17651H21.0912C21.2199 2.17651 21.3243 2.28086 21.3243 2.40959V6.37209C21.3243 6.88701 21.7417 7.30444 22.2566 7.30444C22.7715 7.30444 23.189 6.88701 23.189 6.37209V2.17651C23.189 1.14666 22.3541 0.311804 21.3243 0.311804Z" fill="var(--icon-color)"/>
</svg>
