<svg width="25" height="31" viewBox="0 0 25 31" fill="none" xmlns="http://www.w3.org/2000/svg">
<path d="M3.38648 19.0866H20.7823C23.0231 19.0866 24.1709 17.9484 24.1709 15.746V3.36729C24.1709 1.16909 23.0231 0.00964355 20.7823 0.00964355H3.38648C1.16906 0.00964355 0 1.18081 0 3.36729V15.746C0 17.9388 1.15945 19.0866 3.38648 19.0866ZM3.50694 16.9784C2.58585 16.9784 2.09858 16.5091 2.09858 15.5604V3.54752C2.09858 2.60627 2.58585 2.11033 3.50694 2.11033H20.6756C21.5829 2.11033 22.0702 2.59666 22.0702 3.54752V15.5604C22.0702 16.4995 21.5829 16.9784 20.6756 16.9784H3.50694ZM23.0597 15.1582L17.0435 9.49995C16.5907 9.0919 16.0516 8.88518 15.5051 8.88518C14.9564 8.88518 14.4642 9.07807 13.988 9.48823L9.40265 13.5952L7.53187 11.8948C7.11 11.508 6.63914 11.3109 6.14156 11.3109C5.68359 11.3109 5.27648 11.5059 4.84289 11.8905L1.02538 15.3258C1.07343 17.1855 1.93944 18.1652 3.62951 18.1652H20.0991C22.1393 18.1652 23.1441 17.1183 23.0597 15.1582ZM7.91366 9.73315C9.24514 9.73315 10.3519 8.62854 10.3519 7.28323C10.3519 5.95385 9.24514 4.85463 7.91366 4.85463C6.57046 4.85463 5.48296 5.95385 5.48296 7.28323C5.48296 8.62854 6.57046 9.73315 7.91366 9.73315ZM1.02445 24.6576H23.1368C23.7091 24.6576 24.1709 24.2055 24.1709 23.6236C24.1709 23.0512 23.7091 22.5991 23.1368 22.5991H1.02445C0.452107 22.5991 0 23.0512 0 23.6236C0 24.2055 0.452107 24.6576 1.02445 24.6576ZM1.02445 30.2212H15.5918C16.1641 30.2212 16.6258 29.7691 16.6258 29.1947C16.6258 28.6223 16.1641 28.1606 15.5918 28.1606H1.02445C0.452107 28.1606 0 28.6223 0 29.1947C0 29.7691 0.452107 30.2212 1.02445 30.2212Z" fill="var(--icon-color)"/>
</svg>
