<svg width="26" height="26" viewBox="0 0 26 26" fill="none" xmlns="http://www.w3.org/2000/svg">
<path d="M13.32 5C12.8585 5 12.416 5.18332 12.0897 5.50963C11.7633 5.83595 11.58 6.27852 11.58 6.74C11.58 7.20148 11.7633 7.64405 12.0897 7.97037C12.416 8.29668 12.8585 8.48 13.32 8.48C13.7815 8.48 14.2241 8.29668 14.5504 7.97037C14.8767 7.64405 15.06 7.20148 15.06 6.74C15.06 6.27852 14.8767 5.83595 14.5504 5.50963C14.2241 5.18332 13.7815 5 13.32 5ZM11 10.8C9.44082 10.8 9.49955 12.96 11 12.96H11.58H12.16V18.5H11.58H11C9.49919 18.5 9.50098 20.66 11 20.66H11.58H12.16H14.48H15.06H15.64C17.001 20.66 17.001 18.5 15.64 18.5H15.06H14.48V11.8C14.48 11.2477 14.0323 10.8 13.48 10.8H11.58H11Z" fill="var(--icon-color)"/>
<circle cx="13" cy="13" r="11.9091" transform="rotate(90 13 13)" stroke="var(--icon-color)" stroke-width="2.18182"/>
</svg>
