<svg width="14" height="15" viewBox="0 0 14 15" fill="none" xmlns="http://www.w3.org/2000/svg">
<path d="M7 13.367C3.4856 13.367 0.636364 10.5173 0.636364 7.00167C0.636364 3.48606 3.4856 0.636364 7 0.636364C10.5144 0.636364 13.3636 3.48606 13.3636 7.00167C13.3636 10.5173 10.5144 13.367 7 13.367Z" stroke="var(--icon-color)" stroke-width="1.27273"/>
<path d="M7.65093 5.41345V10.6367H6.38838V5.41345H7.65093ZM7.82402 3.89126C7.82402 3.99987 7.80196 4.10169 7.75784 4.19672C7.71371 4.29175 7.65432 4.3749 7.57965 4.44617C7.50838 4.51745 7.42353 4.57514 7.32511 4.61926C7.22668 4.65999 7.12147 4.68035 7.00947 4.68035C6.90087 4.68035 6.79735 4.65999 6.69893 4.61926C6.6039 4.57514 6.52074 4.51745 6.44947 4.44617C6.3782 4.3749 6.3205 4.29175 6.27638 4.19672C6.23565 4.10169 6.21529 3.99987 6.21529 3.89126C6.21529 3.77926 6.23565 3.67405 6.27638 3.57563C6.3205 3.4772 6.3782 3.39235 6.44947 3.32108C6.52074 3.24981 6.6039 3.19381 6.69893 3.15308C6.79735 3.10896 6.90087 3.0869 7.00947 3.0869C7.12147 3.0869 7.22668 3.10896 7.32511 3.15308C7.42353 3.19381 7.50838 3.24981 7.57965 3.32108C7.65432 3.39235 7.71371 3.4772 7.75784 3.57563C7.80196 3.67405 7.82402 3.77926 7.82402 3.89126Z" fill="var(--icon-color)"/>
</svg>
