<svg width="18" height="16" viewBox="0 0 18 16" fill="none" xmlns="http://www.w3.org/2000/svg">
<path fill-rule="evenodd" clip-rule="evenodd" d="M5 9.12961C5 7.58358 5.62035 6.1022 6.722 5.0175L7.74531 4.00994C8.1923 3.56983 8.444 2.96877 8.444 2.34148V0.888C8.444 0.397572 8.84157 0 9.332 0C10.1556 -4.26852e-08 10.9455 0.327101 11.5279 0.909373C12.1104 1.49164 12.4377 2.28141 12.438 3.105C12.438 4.02897 13.187 4.778 14.111 4.778H15.219C16.7549 4.778 18 6.0231 18 7.559V11.203C18 12.4702 17.4966 13.6855 16.6006 14.5816C15.7045 15.4776 14.4892 15.981 13.222 15.981H9C6.79086 15.981 5 14.1901 5 11.981V9.12961ZM3 8.175C3 7.34657 2.32843 6.675 1.5 6.675C0.671573 6.675 0 7.34657 0 8.175V14.481C0 15.3094 0.671573 15.981 1.5 15.981C2.32843 15.981 3 15.3094 3 14.481V8.175Z" fill="var(--icon-color)"/>
</svg>
