<svg width="29" height="28" viewBox="0 0 29 28" fill="none" xmlns="http://www.w3.org/2000/svg">
<path d="M9.92835 7.77499H25.8476C26.4677 7.77499 26.9634 7.291 26.9634 6.66874C26.9634 6.04109 26.4698 5.55289 25.8476 5.55289H9.92835C9.29859 5.55289 8.8125 6.03687 8.8125 6.66874C8.8125 7.2889 9.29648 7.77499 9.92835 7.77499ZM9.92835 14.9745H25.8476C26.4677 14.9745 26.9634 14.4809 26.9634 13.8587C26.9634 13.2385 26.4698 12.7524 25.8476 12.7524H9.92835C9.29859 12.7524 8.8125 13.2364 8.8125 13.8587C8.8125 14.4788 9.29648 14.9745 9.92835 14.9745ZM9.92835 22.1644H25.8476C26.4677 22.1644 26.9634 21.6804 26.9634 21.0582C26.9634 20.4284 26.4698 19.9423 25.8476 19.9423H9.92835C9.29859 19.9423 8.8125 20.4263 8.8125 21.0582C8.8125 21.6783 9.29648 22.1644 9.92835 22.1644Z" fill="black"/>
<path d="M4.44721 8.30866C5.36034 8.30866 6.09674 7.57225 6.09674 6.66874C6.09674 5.75773 5.36034 5.02133 4.44721 5.02133C3.53621 5.02133 2.7998 5.75773 2.7998 6.66874C2.7998 7.57225 3.53621 8.30866 4.44721 8.30866ZM4.44721 15.5082C5.36034 15.5082 6.09674 14.7718 6.09674 13.8587C6.09674 12.9455 5.36034 12.2113 4.44721 12.2113C3.53621 12.2113 2.7998 12.9455 2.7998 13.8587C2.7998 14.7718 3.53621 15.5082 4.44721 15.5082ZM4.44721 22.7056C5.36034 22.7056 6.09674 21.9617 6.09674 21.0582C6.09674 20.1451 5.36034 19.4108 4.44721 19.4108C3.53621 19.4108 2.7998 20.1451 2.7998 21.0582C2.7998 21.9617 3.53621 22.7056 4.44721 22.7056Z" fill="black"/>
</svg>
