<svg width="17" height="24" viewBox="0 0 17 24" fill="none" xmlns="http://www.w3.org/2000/svg">
<path d="M2.71265 23.339H13.6863C15.4659 23.339 16.399 22.3847 16.399 20.4635V12.1636C16.399 10.2584 15.4659 9.30399 13.6863 9.30399H2.71265C0.930937 9.30399 0 10.2584 0 12.1636V20.4635C0 22.3847 0.930937 23.339 2.71265 23.339ZM3.04545 21.2384C2.55842 21.2384 2.28022 20.9409 2.28022 20.3878V12.2435C2.28022 11.6883 2.55842 11.4047 3.04545 11.4047H13.3556C13.8523 11.4047 14.1166 11.6883 14.1166 12.2435V20.3878C14.1166 20.9409 13.8523 21.2384 13.3556 21.2384H3.04545ZM2.14148 10.2886H4.33592L4.33803 6.3457C4.33803 3.5939 6.09819 2.09858 8.19468 2.09858C10.2869 2.09858 12.0727 3.5939 12.0727 6.3457L12.0684 10.2886H14.2554L14.2575 6.55383C14.2575 2.22984 11.3958 0 8.19468 0C5.0032 0 2.14359 2.22984 2.14359 6.55383L2.14148 10.2886Z" fill="var(--icon-color)"/>
</svg>
