<svg width="36" height="34" viewBox="0 0 36 34" fill="none" xmlns="http://www.w3.org/2000/svg">
<path d="M29.7123 7.32332V2.27601C29.7123 1.88282 29.3927 1.56124 29.0012 1.56124H25.761C25.3709 1.56124 25.0483 1.88282 25.0483 2.27601V3.94582C23.1478 2.66271 21.2346 1.46884 19.4182 0.429112C18.4227 -0.140775 16.8528 -0.140775 15.8584 0.429112C10.8867 3.27467 5.19966 7.24899 1.01366 11.1569C0.180569 11.932 -0.193608 13.4695 0.0981796 14.6052C1.54968 20.2657 3.2777 26.668 5.56348 32.1079C6.00966 33.1905 7.37976 34.0063 8.58269 34C11.3025 34 14.0225 34 16.7436 34V32.6182C15.3322 31.8187 13.5094 30.7523 11.8205 29.545C11.2914 29.1686 10.691 28.7196 10.2614 28.1532C9.79468 27.5345 9.8023 26.8738 10.288 26.0794C10.4792 25.7663 10.6628 25.3987 10.572 25.0466C10.4777 24.6742 10.1086 24.4165 9.72344 24.1924C9.53868 24.0872 9.34574 23.9892 9.16023 23.8944C8.75648 23.6921 8.37783 23.4973 8.07078 23.2221C7.53397 22.7383 7.2449 22.1843 7.23102 21.6201C7.21829 21.0904 7.46097 20.5655 7.932 20.1017L8.02183 20.0115C8.38565 19.659 8.76059 19.2894 8.91675 18.7643C9.1197 18.0698 8.816 17.4754 8.54922 16.9528C8.51951 16.8944 8.49071 16.8347 8.4614 16.7774C8.24006 16.3342 8.22323 15.827 8.41205 15.3532C8.62928 14.8053 9.0962 14.3661 9.69328 14.1497C9.79528 14.1128 9.89763 14.0787 10.0039 14.0457C10.2651 13.9651 10.5365 13.8792 10.7847 13.7261C11.3307 13.3915 11.5071 12.9057 11.2832 12.3589C11.0796 11.8622 10.8697 11.3515 10.8019 10.8027C10.7358 10.243 10.9871 9.81092 11.2074 9.5451C11.646 9.02121 12.3656 8.66777 13.0842 8.62529C14.0672 8.56948 14.7453 8.10256 15.158 7.1967C15.8107 5.76166 17.1435 5.44965 17.5999 5.44965H17.6387H17.6743C18.1326 5.44965 19.4645 5.76166 20.1194 7.1967C20.5323 8.10256 21.209 8.56948 22.1918 8.62529C22.9124 8.66777 23.6314 9.02121 24.068 9.5451C24.2901 9.81092 24.5406 10.243 24.4737 10.8027C24.4091 11.3515 24.1975 11.8622 23.9932 12.3589C23.7701 12.9057 23.9459 13.3915 24.4929 13.7261C24.7419 13.8792 25.0112 13.9651 25.2725 14.0457C25.3782 14.0787 25.4821 14.1128 25.5837 14.1497C26.1807 14.3665 26.6481 14.8053 26.8635 15.3555C27.0526 15.8279 27.0357 16.3342 26.8158 16.7774C26.7872 16.8347 26.7563 16.8934 26.7287 16.9495C26.4604 17.4754 26.1567 18.069 26.3606 18.7643C26.5174 19.2894 26.8938 19.659 27.2571 20.016L27.3442 20.1017C27.8143 20.5655 28.0575 21.0904 28.0454 21.6201C28.0309 22.1843 27.7414 22.7383 27.2068 23.2221C26.8966 23.4973 26.5174 23.6921 26.1152 23.8944C25.931 23.9892 25.7373 24.0872 25.5534 24.1924C25.1688 24.4165 24.7981 24.6742 24.7048 25.0466C24.6155 25.401 24.7981 25.7663 24.9862 26.0794C25.4752 26.8738 25.4839 27.5326 25.0144 28.1532C24.5873 28.7176 23.985 29.1686 23.4562 29.545C21.7642 30.753 19.9428 31.8209 18.5346 32.6182V34C21.2542 34 23.975 34 26.6949 34C27.897 34.0063 29.2663 33.1905 29.7129 32.1079C31.9985 26.668 33.7267 20.2657 35.1788 14.6052C35.471 13.4695 35.0985 11.932 34.2641 11.1569C32.8862 9.87045 31.3364 8.5803 29.7123 7.32332Z" fill="var(--icon-color)"/>
</svg>
