<svg width="23" height="23" viewBox="0 0 23 23" fill="none" xmlns="http://www.w3.org/2000/svg">
<path d="M1.97435 21.6844C2.31339 21.6844 2.63254 21.5624 3.0438 21.3318L8.2181 18.541L13.8621 21.6978C14.2966 21.94 14.7592 22.0593 15.2063 22.0593C15.6378 22.0593 16.0713 21.9468 16.4557 21.7287L21.742 18.7363C22.4707 18.3354 22.7909 17.7605 22.7909 16.9595V2.73654C22.7909 1.85005 22.2596 1.32443 21.3771 1.32443C21.0381 1.32443 20.7208 1.44917 20.299 1.67979L14.9309 4.66433L9.3585 1.29457C8.96545 1.06967 8.53195 0.950439 8.09654 0.950439C7.6677 0.950439 7.23886 1.06586 6.86677 1.28123L1.60077 4.26493C0.880748 4.6764 0.560547 5.23612 0.560547 6.03514V20.2713C0.560547 21.1597 1.09188 21.6844 1.97435 21.6844ZM7.28587 16.665L2.89725 19.0794C2.82906 19.1101 2.76468 19.1418 2.70602 19.1418C2.59082 19.1418 2.52453 19.0517 2.52453 18.9115V6.57008C2.52453 6.27211 2.62555 6.09401 2.91018 5.92862L6.93708 3.58744C7.0633 3.51904 7.16834 3.46123 7.28587 3.39282V16.665ZM9.27654 16.7277V3.64567C9.38243 3.70731 9.50758 3.77274 9.61352 3.83437L14.0749 6.52391V19.413C13.9343 19.3339 13.785 19.2617 13.6357 19.1828L9.27654 16.7277ZM16.0656 19.5711V6.33989L20.4504 3.94471C20.511 3.90913 20.5716 3.88795 20.6215 3.88795C20.7473 3.88795 20.8269 3.97817 20.8269 4.11073V16.4007C20.8269 16.7054 20.7153 16.8873 20.4413 17.0489L16.5459 19.3026C16.387 19.3979 16.2244 19.4932 16.0656 19.5711Z" fill="#15274A"/>
</svg>
