<svg width="26" height="25" viewBox="0 0 26 25" fill="none" xmlns="http://www.w3.org/2000/svg">
<path d="M4.77221 24.2052C6.09565 24.2052 9.28464 22.813 11.2422 21.4188C11.4508 21.2766 11.6148 21.2241 11.7888 21.2241C11.9263 21.233 12.056 21.2419 12.1778 21.2419C20.0353 21.2361 25.5972 16.9332 25.5972 11.1126C25.5972 5.502 19.9972 0.978271 13.0007 0.978271C6.00228 0.978271 0.402344 5.502 0.402344 11.1126C0.402344 14.6104 2.50883 17.7368 6.07824 19.6612C6.27476 19.7699 6.33112 19.9331 6.23036 20.1237C5.59357 21.1738 4.53086 22.359 4.10364 22.9148C3.62441 23.5197 3.90102 24.2052 4.77221 24.2052Z" fill="var(--icon-color)"/>
</svg>
