<svg width="26" height="27" viewBox="0 0 26 27" fill="none" xmlns="http://www.w3.org/2000/svg">
<path d="M7.39687 26.1132C8.04913 26.1132 8.53405 25.7938 9.34592 25.0808L13.3572 21.5295H20.4504C23.9784 21.5295 25.9547 19.5031 25.9547 16.0252V6.93691C25.9547 3.45903 23.9784 1.43262 20.4504 1.43262H5.50218C1.97625 1.43262 0 3.44942 0 6.93691V16.0252C0 19.5127 2.02476 21.5295 5.42836 21.5295H5.9107V24.4182C5.9107 25.4534 6.45422 26.1132 7.39687 26.1132ZM7.96593 23.5321V20.1864C7.96593 19.4987 7.67132 19.2336 7.01319 19.2336H5.56757C3.35225 19.2336 2.29592 18.1067 2.29592 15.9524V7.00019C2.29592 4.84581 3.35225 3.72854 5.56757 3.72854H20.3871C22.5928 3.72854 23.6588 4.84581 23.6588 7.00019V15.9524C23.6588 18.1067 22.5928 19.2336 20.3871 19.2336H13.2321C12.521 19.2336 12.1823 19.3485 11.6864 19.8498L7.96593 23.5321Z" fill="var(--icon-color)"/>
<path d="M12.7349 13.7981C13.363 13.7981 13.7631 13.4252 13.7905 12.9577C13.7947 12.9108 13.7968 12.8543 13.799 12.8191C13.8285 12.2156 14.2384 11.8106 14.9976 11.3159C16.1406 10.5722 16.8817 9.90724 16.8817 8.55583C16.8817 6.63161 15.1473 5.54224 13.0982 5.54224C11.1142 5.54224 9.771 6.44505 9.40913 7.5274C9.3421 7.72333 9.30273 7.91716 9.30273 8.12693C9.30273 8.6838 9.73397 9.02411 10.2083 9.02411C10.6258 9.02411 10.9056 8.84294 11.1292 8.5427L11.3148 8.29942C11.706 7.66825 12.2659 7.32465 12.9592 7.32465C13.915 7.32465 14.5431 7.8834 14.5431 8.67067C14.5431 9.41271 14.0594 9.7699 13.0703 10.4531C12.253 11.0264 11.6476 11.6243 11.6476 12.6799C11.6476 12.7205 11.6476 12.7685 11.6476 12.8091C11.6476 13.4606 12.0306 13.7981 12.7349 13.7981ZM12.7082 17.3346C13.4469 17.3346 14.0561 16.8052 14.0561 16.0695C14.0561 15.3455 13.4565 14.8118 12.7082 14.8118C11.9715 14.8118 11.3657 15.353 11.3657 16.0695C11.3657 16.7955 11.9812 17.3346 12.7082 17.3346Z" fill="var(--icon-color)"/>
</svg>
