<svg width="23" height="30" viewBox="0 0 23 30" fill="none" xmlns="http://www.w3.org/2000/svg">
<path d="M1.45312 13.5088C1.45312 18.6724 4.89491 22.218 9.84139 22.6852V25.2673H5.23065C4.58127 25.2673 4.03911 25.7936 4.03911 26.4452C4.03911 27.0901 4.58127 27.6107 5.23065 27.6107H16.7458C17.3975 27.6107 17.9396 27.0901 17.9396 26.4452C17.9396 25.7936 17.3975 25.2673 16.7458 25.2673H12.1373V22.6852C13.6442 22.5452 15.0051 22.1152 16.1777 21.439L14.4805 19.7497C13.482 20.2414 12.3091 20.5165 10.9945 20.5165C6.70594 20.5165 3.81912 17.7036 3.81912 13.4244V11.0209C3.81912 10.3716 3.29178 9.86685 2.62758 9.86685C1.97368 9.86685 1.45312 10.3716 1.45312 11.0209V13.5088ZM17.7856 15.7766L19.657 17.6524C20.222 16.4428 20.5256 15.0471 20.5256 13.5088V11.0209C20.5256 10.3716 20.0027 9.86685 19.3489 9.86685C18.6972 9.86685 18.1596 10.3716 18.1596 11.0209V13.4244C18.1596 14.2759 18.0315 15.0634 17.7856 15.7766ZM10.9945 18.0916C11.5553 18.0916 12.0737 17.9937 12.5411 17.8126L10.3692 15.6304C10.2846 15.6694 10.1897 15.6775 10.0948 15.6752C9.41499 15.5233 8.90797 14.9692 8.73898 14.2576L8.72416 13.9956L6.19142 11.463V12.9573C6.19142 15.974 8.1672 18.0916 10.9945 18.0916ZM15.7873 5.13205C15.7873 2.11188 13.8092 0 10.9945 0C8.55591 0 6.78228 1.60137 6.3795 3.98597V4.39781L8.56646 6.57221V5.09364C8.56646 3.41842 9.51392 2.27987 10.9945 2.27987C12.4751 2.27987 13.41 3.4139 13.41 5.09364V11.1347C13.41 11.2285 13.41 11.3221 13.3997 11.4055L15.7232 13.729C15.7667 13.4787 15.7873 13.218 15.7873 12.9573V5.13205Z" fill="white"/>
<path d="M20.6404 23.6777C21.0307 24.0656 21.6663 24.0679 22.0542 23.6777C22.4297 23.2794 22.4444 22.6541 22.0542 22.2638L1.99306 2.21754C1.60508 1.8376 0.956954 1.8273 0.56672 2.21754C0.191302 2.60551 0.191302 3.2559 0.56672 3.63132L20.6404 23.6777Z" fill="white"/>
</svg>
