<svg width="20" height="19" viewBox="0 0 20 19" fill="none" xmlns="http://www.w3.org/2000/svg">
<path fill-rule="evenodd" clip-rule="evenodd" d="M16.916 0.844739L18.5566 2.4861C19.3082 3.24007 19.3082 4.46001 18.5566 5.21398L17.4623 6.31054C17.3114 6.46138 17.0669 6.46138 16.916 6.31054L13.0908 2.4861C12.9399 2.33522 12.9399 2.09064 13.0908 1.93975L14.1866 0.844739C14.9407 0.0920951 16.1618 0.0920951 16.916 0.844739ZM12.2716 3.30675C12.1992 3.23377 12.1008 3.19261 11.998 3.19238C11.8954 3.1924 11.7969 3.23328 11.7245 3.30598L3.28428 11.7485C3.13344 11.8994 3.13344 12.144 3.28428 12.2948L7.10794 16.1185C7.25882 16.2693 7.5034 16.2693 7.65429 16.1185L16.0906 7.68217C16.2409 7.53138 16.2409 7.28739 16.0906 7.1366L12.2716 3.30675ZM2.50612 13.209C2.40717 13.1104 2.26268 13.0729 2.12824 13.1109C1.99358 13.1487 1.88984 13.2562 1.85699 13.3922L0.693202 18.2429C0.661971 18.3736 0.700893 18.5111 0.795981 18.6061C0.891631 18.6999 1.02864 18.7384 1.15918 18.7081L6.00599 17.5489C6.14208 17.5163 6.24993 17.4127 6.28793 17.2781C6.32593 17.1434 6.28814 16.9987 6.18914 16.8998L2.50612 13.209Z" fill="#32BD1B"/>
</svg>
