<svg width="24" height="24" viewBox="0 0 24 24" fill="none" xmlns="http://www.w3.org/2000/svg">
<path d="M17.3323 23.3601C19.3894 23.3601 20.7771 22.7714 22.0219 21.3996C22.1135 21.308 22.203 21.2067 22.2851 21.113C22.9713 20.3383 23.3142 19.5312 23.3142 18.7823C23.3142 17.9069 22.8368 17.1133 21.7896 16.3847L18.3035 13.9626C17.2024 13.2023 15.9403 13.1372 14.9538 14.1183L14.081 14.9932C13.7756 15.3007 13.4927 15.3166 13.1548 15.0766C12.5198 14.655 11.3163 13.6008 10.4913 12.7779C9.64897 11.9451 8.80803 10.9837 8.33928 10.2708C8.11522 9.92319 8.12694 9.65202 8.43233 9.34452L9.29765 8.47171C10.2905 7.48523 10.2274 6.21351 9.46499 5.12414L6.99445 1.58742C6.28687 0.576093 5.46163 0.0977337 4.58414 0.0881242C3.82898 0.0785147 3.04289 0.409921 2.26617 1.09195C2.16492 1.18148 2.07117 1.26141 1.98796 1.335C0.592967 2.61258 0 3.98132 0 6.09937C0 9.55429 2.00344 13.6303 5.89828 17.504C9.77179 21.3544 13.8131 23.3601 17.3323 23.3601ZM17.3271 21.4036C14.3409 21.4537 10.608 19.313 7.3746 16.1102C4.12195 12.8862 1.91366 9.02648 1.96382 6.04031C1.98304 4.77867 2.43585 3.67593 3.32249 2.90648C3.41085 2.82984 3.4821 2.76281 3.57046 2.69999C3.90304 2.4164 4.25695 2.26499 4.58203 2.26499C4.91976 2.26499 5.22656 2.40023 5.45343 2.75179L7.66359 6.05437C7.935 6.45562 7.94578 6.91007 7.54875 7.30077L6.60187 8.23921C5.72156 9.10476 5.79281 10.1102 6.36187 10.9059C6.99609 11.7956 8.17734 13.1355 9.17039 14.1105C10.2108 15.1521 11.6562 16.4409 12.5196 17.0637C13.3174 17.6348 14.3229 17.7061 15.1863 16.8237L16.1248 15.8789C16.5155 15.4797 16.9603 15.4948 17.3733 15.7544L20.6252 17.914C20.9831 18.1505 21.112 18.4476 21.112 18.7929C21.112 19.118 20.9627 19.4719 20.677 19.8066C20.6046 19.8949 20.5472 19.9662 20.4705 20.0545C19.7011 20.9412 18.5983 21.3844 17.3271 21.4036Z" fill="var(--icon-color)"/>
</svg>
