<svg width="20" height="20" viewBox="0 0 20 20" fill="none" xmlns="http://www.w3.org/2000/svg">
<path d="M5.43804 14.5412C0.952466 10.0711 -1.88551 4.39819 1.47246 1.02278C1.55007 0.951788 1.62436 0.877464 1.73244 0.799778C3.03722 -0.168019 4.21572 -0.350873 4.99569 0.772645L7.34083 4.09231C8.15267 5.24929 7.96552 5.91679 7.08743 6.824L6.34801 7.61973C6.10326 7.87995 6.20279 8.22437 6.31421 8.43734C6.69752 9.08448 7.63939 10.2433 8.68466 11.2925C9.75164 12.3603 10.8692 13.2523 11.5378 13.6644C11.7945 13.8164 12.1845 13.8503 12.3921 13.6305L13.15 12.8906C13.9977 12.0459 14.7338 11.8432 15.88 12.6372C17.3444 13.6767 18.3117 14.3471 19.2432 15.0176C20.3741 15.8605 20.1092 17.158 19.2885 18.1244C19.1805 18.261 19.0774 18.3946 18.9475 18.5279C15.5928 21.8848 9.91169 19.0515 5.43804 14.5412Z" fill="var(--icon-color)"/>
</svg>
