<svg width="19" height="11" viewBox="0 0 19 11" fill="none" xmlns="http://www.w3.org/2000/svg">
<path fill-rule="evenodd" clip-rule="evenodd" d="M13.9708 1.03251C14.3418 1.38754 14.3418 1.96314 13.9708 2.31817L6.09253 9.85718C5.35053 10.5673 4.14752 10.5672 3.40553 9.85718L0.277269 6.86363C-0.0937252 6.50863 -0.0937252 5.93299 0.277269 5.57799C0.648273 5.22299 1.24978 5.22299 1.62078 5.57799L4.74903 8.57154L12.6273 1.03251C12.9983 0.677496 13.5998 0.677496 13.9708 1.03251ZM18.7208 1.03251C19.0918 1.38754 19.0918 1.96314 18.7208 2.31817L10.1708 10.5C9.79981 10.855 9.19827 10.855 8.82729 10.5C8.45631 10.145 8.45631 9.56936 8.82729 9.21436L17.3773 1.03251C17.7483 0.677496 18.3498 0.677496 18.7208 1.03251Z" fill="var(--icon-color)"/>
</svg>
