<svg width="28" height="28" viewBox="0 0 28 28" fill="none" xmlns="http://www.w3.org/2000/svg">
<path d="M3 20.6183C3 21.6109 3.74062 22.2662 4.95937 22.2662H9.78234C9.87609 24.5194 11.7068 26.5653 14.363 26.5653C17.0308 26.5653 18.8615 24.5291 18.9553 22.2662H23.7783C24.9874 22.2662 25.7376 21.6109 25.7376 20.6183C25.7376 19.3726 24.5887 18.3052 23.5366 17.2812C22.7104 16.4748 22.5101 14.8592 22.3594 13.2458C22.2056 8.80578 20.9196 5.84399 17.8551 4.74008C17.4082 3.1775 16.1142 2 14.363 2C12.6234 2 11.3198 3.1775 10.8825 4.74008C7.81804 5.84399 6.53202 8.80578 6.37828 13.2458C6.22758 14.8592 6.02719 16.4748 5.20102 17.2812C4.1393 18.3052 3 19.3726 3 20.6183ZM5.79654 20.1233V19.9869C6.09607 19.6534 6.7781 19.0252 7.35373 18.3666C8.16162 17.4418 8.54107 15.755 8.66342 13.531C8.79513 8.77061 10.2574 7.18811 12.1453 6.67108C12.4298 6.60288 12.5939 6.46858 12.6162 6.1428C12.6703 4.95358 13.3376 4.15084 14.363 4.15084C15.4001 4.15084 16.0577 4.95358 16.1215 6.1428C16.1437 6.46858 16.2982 6.60288 16.5827 6.67108C18.4802 7.18811 19.9425 8.77061 20.0742 13.531C20.1966 15.755 20.5823 17.4418 21.3743 18.3666C21.9574 19.0252 22.6066 19.6534 22.9083 19.9869V20.1233H5.79654ZM11.9923 22.2662H16.7454C16.6559 23.7439 15.6987 24.6852 14.363 24.6852C13.039 24.6852 12.0722 23.7439 11.9923 22.2662Z" fill="var(--icon-color)"/>
</svg>
