<svg width="18" height="24" viewBox="0 0 18 24" fill="none" xmlns="http://www.w3.org/2000/svg">
<path d="M1.95605 22.4667C2.52303 22.4667 2.92938 22.2144 3.53474 21.6174L8.79459 16.3992C8.84719 16.3466 8.88963 16.306 8.94222 16.306C8.98833 16.306 9.03909 16.3466 9.09169 16.3992L14.3432 21.6174C14.9569 22.2144 15.355 22.4667 15.9219 22.4667C16.6873 22.4667 17.1968 21.882 17.1968 21.0783C17.1968 20.6467 17.039 20.146 16.8557 19.6474L10.5205 2.42176C10.1608 1.43685 9.63975 0.933838 8.94222 0.933838C8.23817 0.933838 7.72541 1.43502 7.36576 2.42176L1.02232 19.6474C0.847268 20.146 0.681152 20.6467 0.681152 21.0783C0.681152 21.882 1.19066 22.4667 1.95605 22.4667Z" fill="var(--icon-color)"/>
</svg>
