<svg width="14" height="18" viewBox="0 0 14 18" fill="none" xmlns="http://www.w3.org/2000/svg">
<path d="M13.6212 5.56498C14.1263 6.02776 14.1263 6.77807 13.6212 7.24085C13.116 7.70364 12.2971 7.70364 11.792 7.24085L8.25998 4.0049L8.25998 16.6725C8.25998 17.4057 7.69585 18 6.99998 18C6.3041 18 5.73998 17.4057 5.73998 16.6725L5.73998 4.00495L2.20803 7.24087C1.70291 7.70365 0.883956 7.70365 0.378837 7.24087C-0.126279 6.77809 -0.126278 6.02777 0.378839 5.56499L6.07407 0.347103C6.32763 0.114799 6.66026 -0.000894863 6.99259 2.20371e-05C6.99505 7.14836e-06 6.99751 -3.06088e-07 6.99998 -3.05981e-07L7.00553 1.23243e-05C7.33848 -0.00134663 7.6719 0.114345 7.92593 0.347087L13.6212 5.56498Z" fill="var(--icon-color)"/>
</svg>
