<svg width="20" height="26" viewBox="0 0 20 26" fill="none" xmlns="http://www.w3.org/2000/svg">
<path d="M7.11036 8L3.23006 8C1.29436 8 -0.000341475 9.35328 -0.000341563 11.3731L-0.000342053 22.582C-0.00034214 24.5723 1.29436 25.9002 3.23216 25.9002L16.3984 25.9002C18.3383 25.9002 19.6309 24.5723 19.6309 22.582L19.6309 11.3731C19.6309 9.35328 18.3383 8 16.4005 8L12.5 8L12.5 10.298L15.8722 10.298C16.7654 10.298 17.2695 10.8277 17.2695 11.7669L17.2695 22.1472C17.2695 23.0746 16.7612 23.6043 15.8701 23.6043L3.76036 23.6043C2.86936 23.6043 2.36096 23.0746 2.36096 22.1472L2.36096 11.7669C2.36096 10.8277 2.86506 10.298 3.75826 10.298L7.11036 10.298L7.11036 8Z" fill="var(--icon-color)"/>
<path d="M10.5697 16.0707L10.5697 4.86816L10.4595 2.74871L12.4178 4.90744L13.0391 5.51107C13.2164 5.67147 13.4658 5.78996 13.7316 5.78996C14.2622 5.78996 14.6309 5.40751 14.6309 4.90459C14.6309 4.64765 14.533 4.4155 14.3558 4.24413L10.3961 0.367368C10.1548 0.122457 9.88518 -2.29674e-07 9.6319 -2.18602e-07C9.3766 -2.07443e-07 9.09049 0.122457 8.85654 0.367369L4.90591 4.24413C4.72867 4.4155 4.63086 4.64765 4.63086 4.90459C4.63086 5.40751 4.99946 5.78996 5.52288 5.78996C5.79793 5.78996 6.03618 5.67543 6.21342 5.51107L6.84587 4.90744L8.79508 2.74871L8.6829 4.86816L8.6829 16.0707C8.6829 16.6296 9.13002 17 9.6319 17C10.1318 17 10.5697 16.6296 10.5697 16.0707Z" fill="var(--icon-color)"/>
</svg>
