<svg width="19" height="17" viewBox="0 0 19 17" fill="none" xmlns="http://www.w3.org/2000/svg">
<path d="M9.4121 1.00006C9.44994 0.930302 9.55006 0.930302 9.5879 1.00006L12.3297 6.05461C12.3446 6.08216 12.3716 6.10111 12.4026 6.1058L18.3327 7.00384C18.415 7.01631 18.4469 7.11803 18.3865 7.1753L14.1554 11.1852C14.1313 11.208 14.1202 11.2413 14.1256 11.2741L15.0526 16.8712C15.0658 16.951 14.9837 17.0126 14.9108 16.9777L9.54317 14.4088C9.51587 14.3957 9.48413 14.3957 9.45683 14.4088L4.08924 16.9777C4.01627 17.0126 3.9342 16.951 3.94741 16.8712L4.87442 11.2741C4.87985 11.2413 4.86865 11.208 4.84455 11.1852L0.613534 7.1753C0.553105 7.11803 0.585032 7.01631 0.667349 7.00384L6.5974 6.1058C6.62838 6.10111 6.65538 6.08216 6.67032 6.05461L9.4121 1.00006Z" fill="var(--icon-color)"/>
</svg>
