<svg width="14" height="14" viewBox="0 0 14 14" fill="none" xmlns="http://www.w3.org/2000/svg">
<path d="M3.32833 7.50944C3.04296 7.50944 2.82525 7.29256 2.82525 7.00818C2.82525 6.729 3.04296 6.51207 3.32833 6.51207H6.01553V2.88899C6.01553 2.60867 6.23324 2.39287 6.51343 2.39287C6.79474 2.39287 7.0165 2.60867 7.0165 2.88899V7.00818C7.0165 7.29256 6.79474 7.50944 6.51343 7.50944H3.32833ZM6.5186 13.2248C10.0899 13.2248 13.0383 10.283 13.0383 6.72965C13.0383 3.17119 10.0847 0.234497 6.51343 0.234497C2.94844 0.234497 0 3.17119 0 6.72965C0 10.283 2.95361 13.2248 6.5186 13.2248Z" fill="var(--icon-color)"/>
</svg>
