<svg width="21" height="20" viewBox="0 0 21 20" fill="none" xmlns="http://www.w3.org/2000/svg">
<path d="M10.4062 0C4.88425 0 0.40625 4.478 0.40625 10C0.40625 15.522 4.88425 20 10.4062 20C15.9282 20 20.4062 15.522 20.4062 10C20.4062 4.478 15.9183 0 10.4062 0ZM16.5462 14.264H15.0963C14.5433 14.264 14.3822 13.817 13.3912 12.825C12.5272 11.994 12.1543 11.876 11.9412 11.876C11.6432 11.876 11.5573 11.951 11.5573 12.366V13.678C11.5573 14.03 11.4403 14.243 10.5133 14.243C8.97725 14.243 7.27225 13.316 6.06725 11.578C4.25525 9.041 3.76425 7.122 3.76425 6.738C3.76425 6.525 3.83925 6.333 4.25425 6.333H5.72625C6.08825 6.333 6.23825 6.493 6.37625 6.898C7.09025 8.977 8.29625 10.788 8.78625 10.788C8.96625 10.788 9.05225 10.704 9.05225 10.235V8.102C8.99925 7.111 8.47625 7.026 8.47625 6.674C8.47625 6.504 8.61525 6.333 8.83925 6.333H11.1202C11.4303 6.333 11.5472 6.503 11.5472 6.866V9.755C11.5472 10.064 11.6753 10.181 11.7712 10.181C11.9513 10.181 12.1112 10.064 12.4532 9.734C13.4983 8.561 14.2443 6.759 14.2443 6.759C14.3403 6.546 14.5113 6.354 14.8843 6.354H16.3342C16.7712 6.354 16.8673 6.578 16.7712 6.887C16.5893 7.729 14.8202 10.224 14.8202 10.245C14.6602 10.501 14.6062 10.608 14.8202 10.895C14.9802 11.109 15.4803 11.545 15.8223 11.94C16.4403 12.644 16.9202 13.24 17.0483 13.646C17.1653 14.051 16.9633 14.264 16.5473 14.264H16.5462Z" fill="var(--icon-color)"/>
</svg>
