<svg width="26" height="28" viewBox="0 0 26 28" fill="none" xmlns="http://www.w3.org/2000/svg">
<path d="M6.07971 19.5752H9.87872C9.99204 19.5752 10.0871 19.613 10.1736 19.6885L16.0595 24.9547C16.7664 25.5763 17.292 25.8659 17.9951 25.8659C18.621 25.8659 19.1388 25.5597 19.4589 25.0344L17.2834 22.8699L11.3643 17.5264C11.0892 17.2781 10.9068 17.2173 10.5417 17.2173H6.30604C5.85015 17.2173 5.63693 17.0016 5.63693 16.5591V11.2125L3.69712 9.27508C3.324 9.74464 3.11133 10.4293 3.11133 11.3303V16.4791C3.11133 18.556 4.11605 19.5752 6.07971 19.5752ZM19.7133 17.1557L19.7157 3.69106C19.7157 2.7024 18.9837 1.9082 17.9731 1.9082C17.2796 1.9082 16.8104 2.2149 16.0523 2.88776L10.4431 7.86964L12.1389 9.5716L16.7908 5.34399C16.8554 5.27943 16.9333 5.24408 17.0113 5.24408C17.1098 5.24408 17.1901 5.31345 17.1901 5.4364V14.6277L19.7133 17.1557Z" fill="white"/>
<path d="M24.1652 27.1638C24.5815 27.5777 25.2728 27.5801 25.6732 27.1638C26.0871 26.7389 26.0895 26.072 25.6732 25.6581L2.26015 2.24505C1.84389 1.8288 1.15255 1.8288 0.736306 2.24505C0.324877 2.64791 0.324877 3.35023 0.736306 3.75308L24.1652 27.1638Z" fill="white"/>
</svg>
