<svg width="119" height="34" viewBox="0 0 119 34" fill="none" xmlns="http://www.w3.org/2000/svg">
<g clip-path="url(#clip0_1920_12855)">
<path d="M47.4779 24.2083C47.1517 24.4598 46.6716 24.5865 46.0507 24.5865H43.3913V21.7113H46.0507C47.3256 21.7113 47.9715 22.1861 47.9715 23.1212C47.9715 23.5891 47.8053 23.9545 47.4779 24.2083ZM51.5917 23.0091C51.5917 21.7785 51.1743 20.8212 50.3502 20.163C49.523 19.5036 48.3196 19.1693 46.7718 19.1693H43.3913V16.9995H50.5947V14.234H39.8643V27.1477H46.292C47.9622 27.1477 49.2779 26.7791 50.2029 26.0511C51.1252 25.3267 51.5917 24.3031 51.5917 23.0091Z" fill="#32BD1B"/>
<path d="M60.4199 22.1387C60.4199 22.8985 60.218 23.5022 59.8187 23.9349C59.4194 24.3674 58.9004 24.5865 58.2777 24.5865C57.6534 24.5865 57.1349 24.3674 56.7361 23.9349C56.3378 23.5039 56.1364 22.8995 56.1364 22.1387C56.1364 21.3883 56.3378 20.7932 56.7371 20.369C57.1349 19.9422 57.6534 19.726 58.2777 19.726C58.9004 19.726 59.4194 19.9422 59.8187 20.369C60.218 20.7946 60.4199 21.3901 60.4199 22.1387ZM57.5387 16.9986C56.6379 16.9986 55.8083 17.2093 55.0723 17.6247C54.3374 18.0403 53.7452 18.6442 53.3139 19.4195C52.8825 20.1974 52.6631 21.1111 52.6631 22.1387C52.6631 23.165 52.8825 24.0831 53.3139 24.8665C53.7452 25.6469 54.3374 26.2565 55.0723 26.6784C55.8078 27.1006 56.6374 27.314 57.5387 27.314C58.8378 27.314 59.8227 26.9255 60.4655 26.1583L60.5301 26.0816V27.1477H63.7991V17.1659H60.3648V18.091L60.3017 18.0271C59.6334 17.3446 58.7045 16.9986 57.5387 16.9986Z" fill="#32BD1B"/>
<path d="M69.5984 17.1659H66.1826V27.1477H69.5984V23.6223H73.2736V27.1477H76.7094V17.1659H73.2736V20.8939H69.5984V17.1659Z" fill="#32BD1B"/>
<path d="M85.4447 19.8744V22.2303H83.5419C83.0435 22.2303 82.6647 22.1342 82.4212 21.9444C82.1722 21.7518 82.046 21.4489 82.046 21.0429C82.046 20.2682 82.5555 19.8744 83.5605 19.8744H85.4447ZM79.8527 18.1505C78.9789 18.8028 78.5366 19.7319 78.5366 20.914C78.5366 21.6201 78.7114 22.2334 79.0571 22.7386C79.4023 23.2439 79.9098 23.6485 80.5651 23.9414L80.6061 23.9587L78.4043 27.1477H82.026L83.799 24.4193H85.4447V27.1477H88.4907V17.1659H83.4868C81.9508 17.1659 80.7274 17.4971 79.8527 18.1505Z" fill="#32BD1B"/>
<path d="M93.8031 23.7778C93.4174 23.4037 92.9164 23.2132 92.3137 23.2132C91.7245 23.2132 91.2266 23.4037 90.8343 23.7778C90.443 24.1537 90.2451 24.6503 90.2451 25.2548C90.2451 25.8468 90.4465 26.3436 90.8433 26.7309C91.2416 27.118 91.7356 27.314 92.3137 27.314C92.9049 27.314 93.4019 27.118 93.7931 26.7313C94.1849 26.3446 94.3823 25.8474 94.3823 25.2548C94.3823 24.6503 94.1874 24.1537 93.8031 23.7778Z" fill="#32BD1B"/>
<path d="M102.861 23.9158C102.466 24.3611 101.945 24.5865 101.31 24.5865C100.661 24.5865 100.139 24.3637 99.758 23.9241C99.3782 23.4867 99.1854 22.8918 99.1854 22.1566C99.1854 21.4323 99.3812 20.8407 99.7675 20.3973C100.154 19.9523 100.673 19.726 101.31 19.726C101.944 19.726 102.465 19.9523 102.861 20.3973C103.252 20.8407 103.451 21.4329 103.451 22.1566C103.451 22.879 103.252 23.4711 102.861 23.9158ZM106.227 24.8757C106.627 24.0976 106.831 23.1831 106.831 22.1566C106.831 21.1164 106.611 20.1956 106.18 19.4195C105.75 18.6458 105.124 18.0413 104.321 17.6255C103.518 17.2093 102.56 16.9986 101.475 16.9986C100.343 16.9986 99.3362 17.2156 98.482 17.6444C97.6298 18.0727 96.964 18.6859 96.5026 19.4667C96.0396 20.2489 95.8047 21.1666 95.8047 22.1934V30.7463H99.241V26.1993L99.3046 26.2687C99.9479 26.9627 100.846 27.314 101.974 27.314C102.937 27.314 103.794 27.1007 104.522 26.6784C105.25 26.2581 105.824 25.652 106.227 24.8757Z" fill="#32BD1B"/>
<path d="M115.567 21.3026C115.567 22.0993 115.386 22.7062 115.031 23.1084C114.675 23.5104 114.208 23.7145 113.644 23.7145C113.093 23.7145 112.669 23.5354 112.38 23.182C112.092 22.8307 111.948 22.2611 111.948 21.4886V17.1659H108.511V22.064C108.511 23.58 108.896 24.7318 109.654 25.4879C110.412 26.2438 111.445 26.6267 112.723 26.6267C113.827 26.6267 114.764 26.2687 115.504 25.5614L115.567 25.5034V25.8105C115.567 26.622 115.351 27.243 114.927 27.6564C114.503 28.0683 113.836 28.278 112.944 28.278C112.349 28.278 111.747 28.1801 111.15 27.9892C110.569 27.8025 110.076 27.5449 109.686 27.2234L108.447 29.6219C109.028 30.0416 109.74 30.364 110.56 30.5798C111.397 30.8012 112.31 30.9128 113.276 30.9128C115.116 30.9128 116.546 30.445 117.526 29.5226C118.505 28.5996 119.002 27.1948 119.002 25.3471V17.1659H115.567V21.3026Z" fill="#32BD1B"/>
<path d="M29.7123 7.32332V2.27601C29.7123 1.88282 29.3927 1.56124 29.0012 1.56124H25.761C25.3709 1.56124 25.0483 1.88282 25.0483 2.27601V3.94582C23.1478 2.66271 21.2346 1.46884 19.4182 0.429111C18.4227 -0.140774 16.8528 -0.140774 15.8584 0.429111C10.8867 3.27468 5.19966 7.24899 1.01366 11.1569C0.180569 11.932 -0.193608 13.4695 0.0981796 14.6052C1.54968 20.2657 3.2777 26.668 5.56348 32.1079C6.00966 33.1905 7.37976 34.0063 8.58269 34C11.3025 34 14.0225 34 16.7436 34V32.6182C15.3322 31.8187 13.5094 30.7523 11.8205 29.545C11.2914 29.1686 10.691 28.7196 10.2614 28.1532C9.79468 27.5345 9.8023 26.8738 10.288 26.0794C10.4792 25.7663 10.6628 25.3987 10.572 25.0466C10.4777 24.6742 10.1086 24.4165 9.72344 24.1924C9.53868 24.0872 9.34574 23.9892 9.16023 23.8944C8.75648 23.6921 8.37783 23.4973 8.07078 23.2221C7.53397 22.7383 7.2449 22.1843 7.23102 21.6201C7.21829 21.0904 7.46097 20.5655 7.932 20.1017L8.02183 20.0115C8.38565 19.659 8.76059 19.2894 8.91675 18.7643C9.1197 18.0698 8.816 17.4754 8.54922 16.9528C8.51951 16.8944 8.49071 16.8347 8.4614 16.7774C8.24006 16.3342 8.22323 15.827 8.41205 15.3532C8.62928 14.8053 9.0962 14.3661 9.69328 14.1497C9.79528 14.1128 9.89763 14.0787 10.0039 14.0457C10.2651 13.9651 10.5365 13.8792 10.7847 13.7261C11.3307 13.3915 11.5071 12.9057 11.2832 12.3589C11.0796 11.8622 10.8697 11.3515 10.8019 10.8027C10.7358 10.243 10.9871 9.81092 11.2074 9.5451C11.646 9.02121 12.3656 8.66777 13.0842 8.62529C14.0672 8.56948 14.7453 8.10256 15.158 7.1967C15.8107 5.76166 17.1435 5.44965 17.5999 5.44965H17.6387H17.6743C18.1326 5.44965 19.4645 5.76166 20.1194 7.1967C20.5323 8.10256 21.209 8.56948 22.1918 8.62529C22.9124 8.66777 23.6314 9.02121 24.068 9.5451C24.2901 9.81092 24.5406 10.243 24.4737 10.8027C24.4091 11.3515 24.1975 11.8622 23.9932 12.3589C23.7701 12.9057 23.9459 13.3915 24.4929 13.7261C24.7419 13.8792 25.0112 13.9651 25.2725 14.0457C25.3782 14.0787 25.4821 14.1128 25.5837 14.1497C26.1807 14.3665 26.6481 14.8053 26.8635 15.3555C27.0526 15.8279 27.0357 16.3342 26.8158 16.7774C26.7872 16.8347 26.7563 16.8934 26.7287 16.9495C26.4604 17.4754 26.1567 18.069 26.3606 18.7643C26.5174 19.2894 26.8938 19.659 27.2571 20.016L27.3442 20.1017C27.8143 20.5655 28.0575 21.0904 28.0454 21.6201C28.0309 22.1843 27.7414 22.7383 27.2068 23.2221C26.8966 23.4973 26.5174 23.6921 26.1152 23.8944C25.931 23.9892 25.7373 24.0872 25.5534 24.1924C25.1688 24.4165 24.7981 24.6742 24.7048 25.0466C24.6155 25.401 24.7981 25.7663 24.9862 26.0794C25.4752 26.8738 25.4839 27.5326 25.0144 28.1532C24.5873 28.7176 23.985 29.1686 23.4562 29.545C21.7642 30.753 19.9428 31.8209 18.5346 32.6182V34C21.2542 34 23.975 34 26.6949 34C27.897 34.0063 29.2663 33.1905 29.7129 32.1079C31.9985 26.668 33.7267 20.2657 35.1788 14.6052C35.471 13.4695 35.0985 11.932 34.2641 11.1569C32.8862 9.87045 31.3364 8.58031 29.7123 7.32332Z" fill="#32BD1B"/>
</g>
<defs>
<clipPath id="clip0_1920_12855">
<rect width="119" height="34" fill="white"/>
</clipPath>
</defs>
</svg>
