<svg width="108" height="31" viewBox="0 0 108 31" fill="none" xmlns="http://www.w3.org/2000/svg">
<path d="M43.1795 21.9013C42.8848 22.1288 42.4512 22.2435 41.8904 22.2435H39.4884V19.6421H41.8904C43.0419 19.6421 43.6252 20.0716 43.6252 20.9177C43.6252 21.341 43.4752 21.6717 43.1795 21.9013ZM46.895 20.8163C46.895 19.7029 46.5181 18.8368 45.7737 18.2413C45.0266 17.6447 43.9397 17.3422 42.5417 17.3422H39.4884V15.3791H45.9946V12.877H36.3027V24.5607H42.1083C43.6169 24.5607 44.8053 24.2272 45.6407 23.5686C46.4737 22.9131 46.895 21.987 46.895 20.8163" fill="#8F99BA"/>
<path d="M54.8693 20.0285C54.8693 20.7159 54.6869 21.2621 54.3263 21.6536C53.9657 22.0449 53.4969 22.2432 52.9344 22.2432C52.3706 22.2432 51.9023 22.0449 51.5421 21.6536C51.1823 21.2637 51.0004 20.7168 51.0004 20.0285C51.0004 19.3496 51.1824 18.8112 51.543 18.4274C51.9023 18.0412 52.3706 17.8456 52.9344 17.8456C53.4969 17.8456 53.9657 18.0412 54.3263 18.4274C54.6869 18.8125 54.8693 19.3512 54.8693 20.0285ZM52.267 15.3779C51.4534 15.3779 50.7041 15.5686 50.0393 15.9444C49.3755 16.3204 48.8407 16.8668 48.4511 17.5683C48.0615 18.2721 47.8633 19.0988 47.8633 20.0285C47.8633 20.9571 48.0615 21.7877 48.4511 22.4965C48.8407 23.2026 49.3755 23.7541 50.0393 24.1358C50.7036 24.5179 51.4529 24.7109 52.267 24.7109C53.4403 24.7109 54.3299 24.3594 54.9105 23.6652L54.9688 23.5958V24.5604H57.9214V15.5293H54.8195V16.3663L54.7625 16.3085C54.1589 15.691 53.3199 15.3779 52.267 15.3779" fill="#8F99BA"/>
<path d="M63.1584 15.5293H60.0732V24.5604H63.1584V21.3708H66.4779V24.5604H69.5811V15.5293H66.4779V18.9023H63.1584V15.5293" fill="#8F99BA"/>
<path d="M77.4713 17.9799V20.1114H75.7527C75.3024 20.1114 74.9603 20.0244 74.7404 19.8527C74.5155 19.6784 74.4015 19.4044 74.4015 19.0371C74.4015 18.3361 74.8617 17.9799 75.7694 17.9799H77.4713ZM72.4205 16.4202C71.6313 17.0103 71.2318 17.8509 71.2318 18.9204C71.2318 19.5593 71.3897 20.1142 71.7019 20.5713C72.0137 21.0284 72.4721 21.3945 73.0639 21.6595L73.101 21.6751L71.1123 24.5604H74.3834L75.9848 22.0919H77.4713V24.5604H80.2224V15.5293H75.7029C74.3155 15.5293 73.2105 15.829 72.4205 16.4202" fill="#8F99BA"/>
<path d="M85.0203 21.5118C84.6719 21.1733 84.2194 21.001 83.675 21.001C83.1429 21.001 82.6931 21.1733 82.3388 21.5118C81.9854 21.8519 81.8066 22.3012 81.8066 22.8481C81.8066 23.3838 81.9885 23.8332 82.3469 24.1837C82.7067 24.5338 83.1528 24.7112 83.675 24.7112C84.209 24.7112 84.6578 24.5338 85.0112 24.184C85.3651 23.8342 85.5434 23.3843 85.5434 22.8481C85.5434 22.3012 85.3673 21.8519 85.0203 21.5118Z" fill="#8F99BA"/>
<path d="M93.2011 21.6363C92.845 22.0392 92.3739 22.2432 91.8002 22.2432C91.2142 22.2432 90.7431 22.0415 90.3988 21.6438C90.0558 21.2481 89.8816 20.7098 89.8816 20.0447C89.8816 19.3894 90.0585 18.8541 90.4074 18.453C90.7567 18.0503 91.225 17.8456 91.8002 17.8456C92.373 17.8456 92.8441 18.0503 93.2011 18.453C93.5545 18.8541 93.7341 19.3899 93.7341 20.0447C93.7341 20.6983 93.5545 21.234 93.2011 21.6363V21.6363ZM96.2414 22.5048C96.603 21.8008 96.7876 20.9734 96.7876 20.0447C96.7876 19.1036 96.5885 18.2705 96.1989 17.5683C95.8111 16.8682 95.2455 16.3213 94.5197 15.9451C93.7948 15.5686 92.9296 15.3779 91.9495 15.3779C90.9273 15.3779 90.0178 15.5743 89.2463 15.9622C88.4766 16.3498 87.8752 16.9045 87.4585 17.611C87.0403 18.3187 86.8281 19.1489 86.8281 20.0779V27.8163H89.9318V23.7024L89.9893 23.7652C90.5703 24.393 91.3812 24.7109 92.4002 24.7109C93.2699 24.7109 94.0441 24.5179 94.7016 24.1358C95.3591 23.7556 95.8781 23.2072 96.2414 22.5048Z" fill="#8F99BA"/>
<path d="M104.678 19.272C104.678 19.9929 104.514 20.542 104.193 20.9059C103.872 21.2696 103.45 21.4542 102.941 21.4542C102.444 21.4542 102.06 21.2922 101.799 20.9724C101.539 20.6546 101.409 20.1393 101.409 19.4403V15.5293H98.3045V19.9609C98.3045 21.3326 98.6521 22.3747 99.3371 23.0587C100.022 23.7426 100.954 24.0891 102.109 24.0891C103.106 24.0891 103.952 23.7652 104.621 23.1252L104.678 23.0728V23.3506C104.678 24.0848 104.482 24.6466 104.1 25.0207C103.717 25.3933 103.114 25.5831 102.308 25.5831C101.772 25.5831 101.227 25.4945 100.688 25.3218C100.163 25.1529 99.7186 24.9198 99.3661 24.6289L98.2471 26.799C98.772 27.1787 99.4145 27.4704 100.155 27.6657C100.911 27.866 101.736 27.967 102.609 27.967C104.27 27.967 105.562 27.5437 106.447 26.7091C107.331 25.8741 107.78 24.6031 107.78 22.9313V15.5293H104.678V19.272" fill="#8F99BA"/>
<path d="M27.1333 6.6243V2.05771C27.1333 1.70196 26.8446 1.41101 26.4909 1.41101H23.5644C23.2121 1.41101 22.9207 1.70196 22.9207 2.05771V3.56848C21.2041 2.40758 19.4762 1.32741 17.8355 0.386708C16.9364 -0.128903 15.5184 -0.128903 14.6203 0.386708C10.1298 2.96125 4.99325 6.55705 1.21242 10.0928C0.459962 10.7941 0.122007 12.1851 0.385553 13.2126C1.69656 18.334 3.25732 24.1266 5.32185 29.0484C5.72485 30.0279 6.96234 30.766 8.04882 30.7603C10.5054 30.7603 12.9621 30.7603 15.4198 30.7603V29.5101C14.145 28.7867 12.4987 27.8218 10.9733 26.7296C10.4953 26.389 9.95303 25.9827 9.56506 25.4703C9.14351 24.9106 9.15039 24.3128 9.58908 23.5941C9.7618 23.3108 9.9276 22.9781 9.84556 22.6596C9.7604 22.3227 9.427 22.0895 9.07917 21.8868C8.91228 21.7916 8.73803 21.7029 8.57047 21.6171C8.2058 21.4341 7.8638 21.2579 7.58647 21.0089C7.10162 20.5712 6.84052 20.0699 6.82799 19.5595C6.8165 19.0801 7.03569 18.6052 7.46112 18.1857L7.54226 18.104C7.87086 17.7851 8.20951 17.4507 8.35055 16.9757C8.53386 16.3473 8.25956 15.8095 8.0186 15.3367C7.99177 15.2839 7.96575 15.2298 7.93928 15.178C7.73937 14.777 7.72416 14.3181 7.89471 13.8894C8.09091 13.3937 8.51264 12.9964 9.05192 12.8005C9.14405 12.7671 9.2365 12.7363 9.33247 12.7065C9.56841 12.6336 9.81357 12.5558 10.0377 12.4173C10.5309 12.1145 10.6901 11.675 10.4879 11.1802C10.3041 10.7309 10.1144 10.2689 10.0533 9.77229C9.99353 9.26592 10.2205 8.87498 10.4195 8.63448C10.8156 8.16048 11.4655 7.84071 12.1146 7.80228C13.0025 7.75178 13.6149 7.32933 13.9877 6.50974C14.5772 5.21138 15.7811 4.92908 16.1933 4.92908H16.2283H16.2604C16.6744 4.92908 17.8774 5.21138 18.4688 6.50974C18.8418 7.32933 19.453 7.75178 20.3407 7.80228C20.9915 7.84071 21.6409 8.16048 22.0353 8.63448C22.2359 8.87498 22.4621 9.26592 22.4017 9.77229C22.3434 10.2689 22.1523 10.7309 21.9677 11.1802C21.7662 11.675 21.925 12.1145 22.419 12.4173C22.644 12.5558 22.8872 12.6336 23.1232 12.7065C23.2187 12.7363 23.3125 12.7671 23.4042 12.8005C23.9435 12.9967 24.3656 13.3937 24.5602 13.8915C24.731 14.3189 24.7158 14.777 24.5171 15.178C24.4913 15.2298 24.4634 15.283 24.4385 15.3336C24.1961 15.8095 23.9218 16.3466 24.106 16.9757C24.2476 17.4507 24.5876 17.7851 24.9157 18.1081L24.9944 18.1857C25.4189 18.6052 25.6386 19.0801 25.6277 19.5595C25.6146 20.0699 25.3531 20.5712 24.8703 21.0089C24.5901 21.2579 24.2476 21.4341 23.8843 21.6171C23.718 21.7029 23.543 21.7916 23.3769 21.8868C23.0295 22.0895 22.6947 22.3227 22.6104 22.6596C22.5298 22.9803 22.6947 23.3108 22.8646 23.5941C23.3063 24.3128 23.3141 24.9088 22.8901 25.4703C22.5044 25.981 21.9603 26.389 21.4827 26.7296C19.9545 27.8226 18.3094 28.7887 17.0375 29.5101V30.7603C19.4939 30.7603 21.9513 30.7603 24.4079 30.7603C25.4937 30.766 26.7305 30.0279 27.1338 29.0484C29.1982 24.1266 30.7591 18.334 32.0707 13.2126C32.3346 12.1852 31.9982 10.7941 31.2445 10.0928C29.9999 8.92884 28.6002 7.76157 27.1333 6.6243" fill="#8F99BA"/>
</svg>
