<svg width="242" height="247" viewBox="0 0 242 247" fill="none" xmlns="http://www.w3.org/2000/svg">
<circle cx="90.5" cy="126.5" r="39.5" fill="white"/>
<circle cx="127.119" cy="161.021" r="41.0839" fill="white"/>
<circle cx="183.5" cy="87.5001" r="39.5" fill="white"/>
<ellipse cx="86" cy="37.5001" rx="32" ry="32.5" fill="white"/>
<ellipse cx="25" cy="101.5" rx="20" ry="19.5" fill="white"/>
<circle cx="108" cy="10.0001" r="10" fill="white"/>
<circle cx="152.5" cy="66.5001" r="20.5" fill="white"/>
<ellipse cx="52.5" cy="195" rx="52.5" ry="52" fill="white"/>
<ellipse cx="189.5" cy="195" rx="52.5" ry="52" fill="white"/>
<circle cx="31" cy="31" r="31" transform="matrix(1 0 0 -1 91 247)" fill="white"/>
<g clip-path="url(#clip0_1417_3941)">
<path d="M181.713 143.213L171.463 139.08C170.701 138.773 169.83 138.954 169.251 139.539L163.101 145.739C162.716 146.126 162.5 146.652 162.5 147.2V149.843L157.752 151.438C157.14 151.644 156.658 152.13 156.454 152.747L154.404 158.947C154.265 159.371 154.265 159.829 154.404 160.253L155.606 163.885C154.822 164.192 154.304 164.951 154.3 165.8V186.711L141.335 160.931C140.345 158.955 138.377 157.668 136.184 157.561C136.073 157.542 135.962 157.533 135.85 157.533H127.65V153.347C129.648 151.845 131.033 149.659 131.545 147.2H131.75C135.146 147.2 137.9 144.424 137.9 141V134.8C137.927 129.728 135.615 124.931 131.641 121.82C131.714 121.327 131.75 120.831 131.75 120.333C131.75 114.627 127.161 110 121.5 110C115.839 110 111.25 114.627 111.25 120.333C111.25 120.834 111.287 121.333 111.361 121.828C107.411 124.955 105.103 129.737 105.1 134.8V141C105.1 144.424 107.854 147.2 111.25 147.2H111.455C111.967 149.659 113.352 151.845 115.35 153.347V157.533H107.15C107.066 157.532 106.982 157.538 106.898 157.549C104.516 157.477 102.305 158.793 101.219 160.931L87.3387 188.533H80.5V184.4C80.5 182.117 78.6642 180.267 76.4 180.267H70.25C64.5915 180.274 60.007 184.895 60 190.6V194.733C60 195.875 60.9179 196.8 62.05 196.8H68.2V200.933H62.05C60.9179 200.933 60 201.859 60 203V211.267C60 212.408 60.9179 213.333 62.05 213.333H72.3V231.933C72.3 233.075 73.2179 234 74.35 234H82.55C83.6821 234 84.6 233.075 84.6 231.933V213.333H111.25V227.8C111.267 231.217 114.011 233.983 117.4 234C120.796 234 123.55 231.224 123.55 227.8V213.333H131.822L139.702 221.038C141.926 223.232 145.425 223.405 147.852 221.442C150.279 219.479 150.869 215.997 149.226 213.333H154.3V231.933C154.3 233.075 155.218 234 156.35 234H164.55C165.682 234 166.6 233.075 166.6 231.933V213.333H180.95C182.082 213.333 183 212.408 183 211.267V145.133C183.001 144.288 182.491 143.528 181.713 143.213ZM160.022 155.035L164.55 153.512L169.247 155.09L170.915 158.457L172.304 161.257L169.843 163.737H159.878L158.511 159.604L160.022 155.035ZM154.3 195.544V200.933H139.95V194.733C139.947 190.838 137.246 187.473 133.468 186.656L131.877 178.634L132.957 176.997C133.523 176.148 133.954 175.217 134.236 174.236L144.269 194.187C145.177 196.013 146.922 197.267 148.929 197.539C150.937 197.81 152.948 197.063 154.3 195.544ZM135.85 194.733V200.001L126.234 190.6H131.75C134.014 190.6 135.85 192.451 135.85 194.733ZM127.65 145.133C127.65 148.557 124.896 151.333 121.5 151.333C118.104 151.333 115.35 148.557 115.35 145.133V138.933H127.65V145.133ZM123.55 155.26V157.533H119.45V155.26C120.802 155.538 122.198 155.538 123.55 155.26ZM131.75 143.067V138.933C132.882 138.933 133.8 139.859 133.8 141C133.8 142.141 132.882 143.067 131.75 143.067ZM130.198 126.031C132.513 128.352 133.809 131.509 133.8 134.8V135.18C133.143 134.935 132.45 134.807 131.75 134.8H130.315L121.48 126.93L117.287 123.21C119.768 122.318 122.463 122.226 124.997 122.948C125.566 123.113 126.122 123.321 126.66 123.568C127.202 123.816 127.723 124.105 128.22 124.433C128.932 124.897 129.595 125.431 130.198 126.031ZM121.5 114.133C124.556 114.133 127.149 116.396 127.587 119.444C123.678 117.874 119.322 117.874 115.413 119.444C115.851 116.396 118.444 114.133 121.5 114.133ZM111.25 143.067C110.118 143.067 109.2 142.141 109.2 141C109.2 139.859 110.118 138.933 111.25 138.933V143.067ZM113.3 134.8H111.25C110.55 134.807 109.857 134.935 109.2 135.18V134.8C109.2 131.166 110.782 127.715 113.525 125.36L124.122 134.8H113.3ZM78.45 192.667H86.8142C86.8502 192.884 86.8972 193.1 86.9553 193.311C87.2936 194.339 87.8952 195.257 88.7 195.974V200.933H72.3V192.667H78.45ZM64.1 192.667V190.6C64.1 187.176 66.8537 184.4 70.25 184.4H76.4V188.533H70.25C69.1179 188.533 68.2 189.459 68.2 190.6V192.667H64.1ZM80.5 229.867H76.4V213.333H80.5V229.867ZM111.25 209.2H64.1V205.067H111.25V209.2ZM92.8 200.933V197.587C95.1163 197.58 97.2333 196.268 98.2854 194.187L108.624 173.631C108.885 174.83 109.363 175.969 110.037 176.991L111.123 178.644L109.532 186.667C105.758 187.483 103.058 190.841 103.05 194.733V200.933H92.8ZM111.25 200.933H107.15V194.733C107.15 192.451 108.986 190.6 111.25 190.6V200.933ZM109.225 165.8C108.452 165.8 107.746 166.238 107.396 166.932L94.6288 192.32C94.3065 192.995 93.6478 193.442 92.9061 193.487C92.1644 193.532 91.4567 193.17 91.0553 192.541C90.6539 191.91 90.6229 191.11 90.9732 190.449L104.877 162.799C105.222 162.108 105.927 161.674 106.695 161.679C106.773 161.679 106.85 161.683 106.927 161.692C107.121 161.712 107.318 161.704 107.51 161.667H135.578C135.668 161.679 135.759 161.686 135.85 161.685C136.62 161.678 137.327 162.109 137.679 162.799L151.583 190.449C152.096 191.467 151.692 192.711 150.682 193.228C149.672 193.744 148.439 193.338 147.927 192.32L135.161 166.932C134.812 166.238 134.105 165.8 133.333 165.8H109.225ZM115.102 184.855C114.745 184.986 114.406 185.161 114.092 185.374C114.043 185.401 113.996 185.43 113.95 185.463L115.309 178.614C115.416 178.076 115.307 177.518 115.006 177.062L113.445 174.686C112.521 173.289 112.235 171.558 112.658 169.933H130.342C130.476 170.425 130.545 170.932 130.547 171.442C130.543 172.601 130.198 173.734 129.559 174.697L128 177.053C127.699 177.51 127.59 178.068 127.697 178.605L129.256 186.459H122.004L121.75 186.208C121.654 186.111 121.545 186.043 121.437 185.954C121.259 185.781 121.072 185.619 120.874 185.469C120.821 185.431 120.766 185.396 120.708 185.365C120.394 185.152 120.055 184.978 119.698 184.846C119.333 184.686 118.95 184.571 118.556 184.503L118.484 184.493C117.77 184.358 117.038 184.358 116.324 184.493L116.244 184.505C115.85 184.573 115.467 184.688 115.102 184.848V184.855ZM119.45 227.8C119.45 228.941 118.532 229.867 117.4 229.867C116.847 229.869 116.319 229.64 115.941 229.234C115.558 228.858 115.345 228.339 115.35 227.8V197.232L119.45 201.239V227.8ZM123.55 209.2V205.248L127.593 209.2H123.55ZM145.499 218.116C145.111 218.507 144.584 218.725 144.034 218.721C143.484 218.717 142.96 218.49 142.579 218.093L115.951 192.053C115.37 191.473 115.192 190.599 115.497 189.835L115.522 189.774C115.618 189.558 115.749 189.36 115.912 189.188L115.965 189.153L116.023 189.099C116.193 188.935 116.39 188.801 116.606 188.705L116.654 188.687C116.869 188.603 117.098 188.558 117.328 188.551H117.49C117.719 188.558 117.945 188.603 118.159 188.687C118.189 188.705 118.218 188.713 118.249 188.73C118.456 188.827 118.646 188.957 118.812 189.117C118.845 189.149 118.869 189.168 118.908 189.205C119.023 189.321 119.12 189.454 119.198 189.598L119.278 189.551L145.499 215.193C146.299 216 146.299 217.308 145.499 218.116ZM162.5 229.867H158.4V213.333H162.5V229.867ZM178.9 209.2H145.259L141.03 205.067H178.9V209.2ZM178.9 200.933H158.4V192.667H178.9V200.933ZM178.9 188.533H158.4V180.267H178.9V188.533ZM178.9 176.133H158.4V167.867H178.9V176.133ZM178.9 163.733H175.649L176.249 163.128C176.873 162.499 177.029 161.539 176.635 160.743L175.501 158.457L178.9 156.744V163.733ZM178.9 152.122L173.666 154.76L172.545 152.477C172.301 151.987 171.874 151.615 171.358 151.443L166.6 149.843V148.056L171.194 143.424L178.9 146.532V152.122Z" fill="black"/>
<path d="M82.5498 176.133H86.6498V180.267H82.5498V176.133Z" fill="black"/>
<path d="M82.5498 167.867H86.6498V172H82.5498V167.867Z" fill="black"/>
<path d="M74.3501 172H78.4501V176.133H74.3501V172Z" fill="black"/>
<path d="M118.447 146.936C118.783 144.218 124.026 144.15 124.553 146.936" stroke="black" stroke-width="3" stroke-linecap="round" stroke-linejoin="round"/>
</g>
<path d="M134.7 82.0667C134.7 80.9254 133.782 80 132.65 80C131.518 80 130.6 80.9254 130.6 82.0667C130.587 83.3321 130.026 84.5279 129.067 85.3423C127.428 86.9104 126.5 89.0891 126.5 91.3667C126.5 93.6442 127.428 95.8229 129.067 97.3911C130.026 98.2054 130.587 99.4012 130.6 100.667C130.6 101.808 131.518 102.733 132.65 102.733C133.782 102.733 134.7 101.808 134.7 100.667C134.692 98.3901 133.766 96.2155 132.133 94.6423C131.163 93.836 130.6 92.6351 130.6 91.3667C130.6 90.0982 131.163 88.8974 132.133 88.0911C133.766 86.5179 134.692 84.3432 134.7 82.0667Z" fill="black"/>
<path d="M120.35 100.667C120.35 101.808 121.268 102.733 122.4 102.733C123.532 102.733 124.45 101.808 124.45 100.667C124.442 98.3901 123.516 96.2155 121.883 94.6423C120.913 93.836 120.35 92.6351 120.35 91.3667C120.35 90.0982 120.913 88.8974 121.883 88.0911C123.516 86.5179 124.442 84.3432 124.45 82.0667C124.45 80.9254 123.532 80 122.4 80C121.268 80 120.35 80.9254 120.35 82.0667C120.337 83.3321 119.776 84.5279 118.817 85.3423C117.178 86.9104 116.25 89.0891 116.25 91.3667C116.25 93.6442 117.178 95.8229 118.817 97.3911C119.776 98.2054 120.337 99.4012 120.35 100.667Z" fill="black"/>
<path d="M110.1 100.667C110.1 101.808 111.018 102.733 112.15 102.733C113.282 102.733 114.2 101.808 114.2 100.667C114.192 98.3901 113.266 96.2155 111.633 94.6423C110.663 93.836 110.1 92.6351 110.1 91.3667C110.1 90.0982 110.663 88.8974 111.633 88.0911C113.266 86.5179 114.192 84.3432 114.2 82.0667C114.2 80.9254 113.282 80 112.15 80C111.018 80 110.1 80.9254 110.1 82.0667C110.087 83.3321 109.526 84.5279 108.567 85.3423C106.928 86.9104 106 89.0891 106 91.3667C106 93.6442 106.928 95.8229 108.567 97.3911C109.526 98.2054 110.087 99.4012 110.1 100.667Z" fill="black"/>
<defs>
<clipPath id="clip0_1417_3941">
<rect width="123" height="124" fill="white" transform="translate(60 110)"/>
</clipPath>
</defs>
</svg>
