<svg width="27" height="23" viewBox="0 0 27 23" fill="none" xmlns="http://www.w3.org/2000/svg">
<path d="M5.803 8.14852C11.0959 8.14852 13.9033 3.73055 18.7628 3.73055C19.8965 3.73055 20.8886 3.98414 22.0586 4.65328C22.611 4.95984 23.1557 4.77023 23.4482 4.35539C23.7939 3.85758 23.7144 3.1404 23.0033 2.72204C21.6665 1.95399 20.2797 1.58228 18.7628 1.58228C13.3834 1.58228 10.5953 6.00235 5.803 6.00235C4.65972 6.00235 3.6676 5.74664 2.4976 5.07751C1.94307 4.76884 1.39628 4.96267 1.108 5.39134C0.783626 5.88914 0.853467 6.60211 1.55495 7.01086C2.88971 7.7768 4.27652 8.14852 5.803 8.14852ZM5.81471 14.4415C10.352 14.4415 13.1176 11.0763 16.9858 10.2825C17.4123 9.47508 17.8485 8.68898 18.2751 7.88368C13.1099 8.1804 10.49 12.2932 5.81471 12.2932C4.67143 12.2932 3.68143 12.0279 2.50931 11.3588C1.96439 11.0501 1.408 11.2439 1.13144 11.6726C0.797454 12.1704 0.865186 12.8834 1.56667 13.2921C2.90143 14.058 4.29783 14.4415 5.81471 14.4415ZM5.803 20.7227C9.29777 20.7227 11.7397 18.7233 14.4348 17.4523C14.3488 16.7995 14.4831 15.8168 14.7278 15.0199C11.6486 16.2907 9.25323 18.5745 5.803 18.5745C4.65972 18.5745 3.6676 18.3188 2.4976 17.64C1.94307 17.3313 1.39628 17.5252 1.108 17.9538C0.783626 18.4516 0.853467 19.1742 1.55495 19.5734C2.88971 20.3489 4.27652 20.7227 5.803 20.7227Z" fill="#8F99BA"/>
<path d="M21.1953 22.2975C24.0668 22.2975 26.3728 20.0479 26.3728 17.2371C26.3728 15.6862 25.6006 14.1747 24.956 12.9677L22.3428 8.10648C22.051 7.55805 21.7425 7.31641 21.1953 7.31641C20.6384 7.31641 20.3278 7.56226 20.0361 8.10648L17.4462 12.9677C16.7996 14.1747 16.0273 15.6862 16.0273 17.2371C16.0273 20.0479 18.3258 22.2975 21.1953 22.2975ZM21.1953 20.5143C19.31 20.5143 17.8104 19.0692 17.8104 17.2371C17.8104 16.1064 18.3933 15.0131 19.0282 13.806L21.0877 9.98241C21.1463 9.86522 21.256 9.86522 21.3242 9.98241L23.3527 13.806C23.9972 15.0131 24.5876 16.1064 24.5876 17.2371C24.5876 19.0692 23.0806 20.5143 21.1953 20.5143Z" fill="#8F99BA"/>
</svg>
