<svg width="32" height="21" viewBox="0 0 32 21" fill="none" xmlns="http://www.w3.org/2000/svg">
<path d="M1.95171 20.6162H2.67805C3.29468 20.6162 3.70789 20.2168 3.70789 19.5884V17.8963C3.83891 17.9335 4.24883 17.9591 4.54695 17.9591H27.4499C27.748 17.9591 28.1579 17.9335 28.2889 17.8963V19.5884C28.2889 20.2168 28.7021 20.6162 29.3188 20.6162H30.0451C30.6692 20.6162 31.0749 20.2168 31.0749 19.5884V11.3966C31.0749 9.07389 29.8098 7.82469 27.4787 7.82469H4.51812C2.18914 7.82469 0.921875 9.07389 0.921875 11.3966V19.5884C0.921875 20.2168 1.32758 20.6162 1.95171 20.6162ZM3.56304 15.9824C3.30007 15.9824 3.14351 15.8045 3.14351 15.5085V11.2325C3.14351 10.363 3.71678 9.80138 4.60132 9.80138H27.4051C28.28 9.80138 28.8533 10.363 28.8533 11.2325V15.5085C28.8533 15.8045 28.6967 15.9824 28.4338 15.9824H3.56304ZM3.95609 8.20787H7.10352V5.66725C7.10352 4.54155 7.72554 3.93125 8.87257 3.93125H13.0745C14.2119 3.93125 14.8339 4.54155 14.8339 5.66725V8.20787H17.1629V5.66725C17.1629 4.54155 17.7849 3.93125 18.9224 3.93125H23.1242C24.2713 3.93125 24.8933 4.54155 24.8933 5.66725V8.20787H28.0407V3.72921C28.0407 1.50851 26.8489 0.359375 24.6699 0.359375H7.32688C5.1575 0.359375 3.95609 1.50851 3.95609 3.72921V8.20787Z" fill="#8F99BA"/>
</svg>
