<svg width="33" height="22" viewBox="0 0 33 22" fill="none" xmlns="http://www.w3.org/2000/svg">
<path d="M15.3514 21.7669H29.1809C31.0901 21.7669 32.0122 21.1665 32.0122 19.8645C32.0122 16.8287 28.2151 12.7526 22.2672 12.7526C16.3082 12.7526 12.511 16.8287 12.511 19.8645C12.511 21.1665 13.4332 21.7669 15.3514 21.7669ZM14.9827 19.8506C14.7203 19.8506 14.6143 19.7709 14.6143 19.5639C14.6143 17.8646 17.3638 14.6691 22.2672 14.6691C27.1616 14.6691 29.9091 17.8646 29.9091 19.5639C29.9091 19.7709 29.8121 19.8506 29.5517 19.8506H14.9827ZM22.2672 11.3278C24.9489 11.3278 27.1188 8.96039 27.1188 6.05872C27.1188 3.20236 24.9481 0.921875 22.2672 0.921875C19.6045 0.921875 17.4117 3.23163 17.4136 6.07692C17.4247 8.96947 19.5945 11.3278 22.2672 11.3278ZM22.2672 9.4113C20.7316 9.4113 19.4231 7.94829 19.4231 6.07492C19.4211 4.25275 20.7195 2.83832 22.2672 2.83832C23.824 2.83832 25.1094 4.23256 25.1094 6.05872C25.1094 7.92615 23.823 9.4113 22.2672 9.4113ZM3.31038 21.7689H11.9296C11.3273 21.4176 10.9169 20.6243 10.9986 19.8878H3.18682C2.98095 19.8878 2.884 19.7991 2.884 19.6122C2.884 17.0552 5.87925 14.6137 9.40646 14.6137C10.6602 14.6137 11.9017 14.9244 12.8718 15.4668C13.2427 14.9353 13.6979 14.4772 14.2968 14.0834C12.8939 13.2085 11.1408 12.7365 9.40646 12.7365C4.72105 12.7365 0.921875 16.0904 0.921875 19.7819C0.921875 21.097 1.71605 21.7689 3.31038 21.7689ZM9.41555 11.5718C11.7424 11.5718 13.6389 9.49989 13.6389 6.94607C13.6389 4.45573 11.7506 2.43436 9.41555 2.43436C7.0967 2.43436 5.17914 4.48501 5.19023 6.96626C5.20332 9.51296 7.08871 11.5718 9.41555 11.5718ZM9.41555 9.68352C8.15419 9.68352 7.08049 8.4736 7.08049 6.96626C7.0785 5.50213 8.14908 4.32462 9.41555 4.32462C10.7073 4.32462 11.7597 5.48394 11.7597 6.94607C11.7597 8.4736 10.688 9.68352 9.41555 9.68352Z" fill="#8F99BA"/>
</svg>
