<svg width="28" height="26" viewBox="0 0 28 26" fill="none" xmlns="http://www.w3.org/2000/svg">
<path d="M0 12.1856C0 13.361 0.738748 14.1093 1.92796 14.1093H25.8516C27.0387 14.1093 27.7912 13.361 27.7912 12.1856V10.3071C27.7912 9.13175 27.0387 8.36745 25.8516 8.36745H1.92796C0.736638 8.36745 0 9.13175 0 10.3071V12.1856ZM2.46937 10.4922H25.3123C25.5427 10.4922 25.6802 10.6277 25.6802 10.8581V11.6208C25.6802 11.8512 25.5427 11.9983 25.3123 11.9983H2.46937C2.23897 11.9983 2.11101 11.8512 2.11101 11.6208V10.8581C2.11101 10.6277 2.23897 10.4922 2.46937 10.4922ZM7.64296 25.8558H20.1483C22.9882 25.8558 23.8476 24.1746 24.2076 22.4374L26.0836 13.4592L23.9948 13.0795L22.234 21.653C21.9176 23.1551 21.4889 23.7213 19.8033 23.7213H7.98796C6.30233 23.7213 5.87366 23.1551 5.55725 21.653L3.7964 13.0795L1.70766 13.4592L3.58359 22.4374C3.94359 24.1746 4.80094 25.8558 7.64296 25.8558ZM8.8971 22.5494C9.36444 22.4707 9.62202 22.129 9.55499 21.7223L8.59288 15.7474C8.51624 15.329 8.15859 15.0991 7.70718 15.1619C7.23984 15.2503 6.96843 15.5824 7.04507 15.9911L8.00929 21.964C8.08593 22.3823 8.42976 22.624 8.8971 22.5494ZM12.2604 22.4728C12.716 22.4494 13.0205 22.1407 12.9949 21.7223L12.6305 15.8144C12.5974 15.3844 12.2749 15.0895 11.8076 15.1289C11.3541 15.1619 11.0496 15.4706 11.073 15.9028L11.4375 21.7969C11.463 22.2269 11.8069 22.5079 12.2604 22.4728ZM15.5426 22.4728C15.9961 22.5079 16.3399 22.2269 16.3655 21.7969L16.7299 15.9028C16.7534 15.4706 16.4489 15.1619 15.9954 15.1289C15.528 15.0895 15.2055 15.3844 15.1725 15.8144L14.808 21.7223C14.7825 22.1407 15.0891 22.4494 15.5426 22.4728ZM18.8941 22.5494C19.3455 22.624 19.7053 22.3823 19.7819 21.964L20.7558 15.9911C20.8207 15.5824 20.5514 15.2503 20.0841 15.1619C19.6326 15.0991 19.2729 15.329 19.1984 15.7474L18.2362 21.7223C18.1692 22.129 18.4268 22.4707 18.8941 22.5494ZM3.79359 8.95128H6.46124L10.5185 1.88838C10.8708 1.26682 10.5982 0.690262 10.0908 0.420029C9.60562 0.161515 8.96507 0.217764 8.61492 0.808387L3.79359 8.95128ZM21.33 8.95128H23.9976L19.1763 0.808387C18.8379 0.231592 18.2016 0.173234 17.7026 0.415811C17.2027 0.690262 16.9205 1.26682 17.2727 1.88838L21.33 8.95128Z" fill="#8F99BA"/>
</svg>
