<svg width="25" height="27" viewBox="0 0 25 27" fill="none" xmlns="http://www.w3.org/2000/svg">
<path d="M0 17.7022C0 21.6899 2.57179 24.9913 5.84905 24.9913H9.59787C11.1241 25.7743 12.9457 26.2208 14.9529 26.2208H16.5443C18.018 26.2208 19.2769 26.1325 20.1002 25.9248C21.7697 25.517 22.8321 24.3238 22.8321 22.8418C22.8321 22.57 22.7894 22.329 22.7233 22.0881C23.5031 21.4684 23.9388 20.5813 23.9388 19.6101C23.9388 19.1572 23.8493 18.7086 23.6915 18.3475C24.2189 17.781 24.5097 16.9832 24.5097 16.1439C24.5097 15.606 24.3829 15.0477 24.1624 14.6249C24.4788 14.1383 24.6621 13.4748 24.6621 12.7698C24.6621 10.9621 23.2704 9.55656 21.4669 9.55656H17.2338C17.0055 9.55656 16.8562 9.44992 16.8647 9.24203C16.9237 8.07179 18.7697 5.2546 18.7697 2.94296C18.7697 1.23437 17.5669 0.00390625 15.9265 0.00390625C14.7267 0.00390625 13.9029 0.628748 13.1224 2.11726C11.7134 4.83624 9.99046 7.24984 7.45569 10.3621H5.42084C2.34914 10.3621 0 13.6305 0 17.7022ZM7.08279 17.612C7.08279 15.1923 7.62514 13.6506 9.15701 11.5872C10.8752 9.28632 13.2623 6.52116 14.9826 3.09765C15.3454 2.36452 15.5929 2.19811 15.9567 2.19811C16.3844 2.19811 16.6704 2.50421 16.6704 3.05686C16.6704 4.74789 14.7464 7.55781 14.7464 9.40655C14.7464 10.7821 15.8454 11.6558 17.3322 11.6558H21.4183C22.0711 11.6558 22.5628 12.1454 22.5628 12.8015C22.5628 13.2772 22.406 13.5812 22.0209 13.9823C21.7214 14.2689 21.6832 14.691 21.9454 14.9875C22.2687 15.4611 22.4062 15.7555 22.4062 16.1481C22.4062 16.6101 22.1855 17.0122 21.7268 17.3547C21.3464 17.6385 21.2102 18.0833 21.4228 18.5383C21.6799 19.0044 21.8037 19.2336 21.8037 19.5953C21.8037 20.136 21.4549 20.5529 20.7295 20.9305C20.3683 21.1419 20.2739 21.5216 20.4215 21.8732C20.6627 22.4751 20.6958 22.5742 20.6937 22.8313C20.6937 23.3134 20.3353 23.7048 19.574 23.8968C18.9082 24.0587 17.8312 24.1333 16.44 24.1312L15.0649 24.129C10.2747 24.1206 7.08279 21.4206 7.08279 17.612ZM2.06975 17.7022C2.06975 14.818 3.55358 12.5141 5.2521 12.4445C5.54554 12.4424 5.84109 12.4403 6.13453 12.4361C5.33414 14.0022 4.9814 15.6365 4.9814 17.6085C4.9814 19.6851 5.70187 21.5195 7.00945 22.9562C6.58781 22.9562 6.16312 22.9541 5.73304 22.952C3.75679 22.8803 2.06975 20.5424 2.06975 17.7022Z" fill="#8F99BA"/>
</svg>
