<svg width="26" height="26" viewBox="0 0 26 26" fill="none" xmlns="http://www.w3.org/2000/svg">
<path d="M12.6595 25.3128C13.1499 25.3128 13.5177 24.9565 13.6057 24.4501C14.7456 15.851 15.9551 14.5446 24.4347 13.5996C24.957 13.5433 25.3219 13.1567 25.3219 12.6503C25.3219 12.1628 24.9627 11.7791 24.4375 11.7143C15.9608 10.735 14.7856 9.46567 13.6057 0.853548C13.512 0.347191 13.1471 0.00390625 12.6595 0.00390625C12.1719 0.00390625 11.8041 0.347191 11.7291 0.853548C10.5864 9.46567 9.36675 10.7721 0.897312 11.7143C0.362042 11.7706 0 12.1571 0 12.6503C0 13.1539 0.35918 13.5376 0.894464 13.5996C9.34803 14.7279 10.4942 15.851 11.7291 24.4501C11.807 24.9565 12.1748 25.3128 12.6595 25.3128Z" fill="#8F99BA"/>
</svg>
