<svg width="14" height="24" viewBox="0 0 14 24" fill="none" xmlns="http://www.w3.org/2000/svg">
<path d="M3.73369 23.4452C4.58097 23.4452 5.1164 22.9718 5.09847 22.1554L4.90737 11.1353C4.90737 10.7633 5.03487 10.523 5.35499 10.3728C6.67087 9.79816 7.27495 9.18121 7.17044 7.38537L6.88955 1.4305C6.87162 0.971865 6.61371 0.69925 6.19751 0.69925C5.7928 0.69925 5.54455 0.993043 5.54455 1.45169L5.63113 7.25643C5.63113 7.59438 5.39591 7.82461 5.08238 7.82461C4.73605 7.82461 4.49761 7.59439 4.49761 7.27437L4.42574 1.2836C4.42574 0.834654 4.14169 0.570312 3.73369 0.570312C3.32066 0.570312 3.04806 0.834654 3.04806 1.2836L2.94676 7.27437C2.94676 7.59439 2.71978 7.82461 2.39151 7.82461C2.07473 7.82461 1.84271 7.59438 1.84271 7.25643L1.93251 1.45169C1.93251 0.993043 1.68109 0.69925 1.27632 0.69925C0.856819 0.69925 0.584219 0.978317 0.566259 1.4305L0.303359 7.38537C0.228302 9.18121 0.802954 9.79816 2.12717 10.3728C2.43892 10.523 2.56965 10.7633 2.56965 11.1353L2.37534 22.1554C2.35738 22.975 2.89613 23.4452 3.73369 23.4452ZM10.6148 15.0839L10.404 22.1112C10.3681 22.975 10.9247 23.4452 11.7508 23.4452C12.6243 23.4452 13.1386 23.0012 13.1386 22.2029V1.31808C13.1386 0.816693 12.7841 0.570312 12.43 0.570312C12.0414 0.570312 11.7933 0.782582 11.4797 1.23656C9.89077 3.44287 8.80996 7.70573 8.80996 11.575V12.2411C8.80996 12.9499 9.06005 13.4217 9.59195 13.7873L10.1134 14.1454C10.4694 14.3903 10.6213 14.6533 10.6148 15.0839Z" fill="#8F99BA"/>
</svg>
