<svg width="28" height="34" viewBox="0 0 28 34" fill="none" xmlns="http://www.w3.org/2000/svg">
<path d="M21.9745 28.3071C25.0296 25.2616 25.5279 21.4748 23.4522 17.1096L20.7902 11.4842C20.5901 11.07 20.3505 10.7304 20.0833 10.4632C19.1433 9.5231 17.7583 9.54045 16.8323 10.4782C16.2412 11.0576 16.0359 11.9405 16.3983 12.8695L17.0527 14.4249C17.0623 14.4675 17.074 14.5102 17.0409 14.5432C16.9962 14.588 16.9514 14.5763 16.9087 14.5336L10.5215 8.14638C9.47506 7.0999 8.13303 7.10834 7.11655 8.12482C6.7978 8.44146 6.61452 8.8317 6.57749 9.24326C5.57858 8.56404 4.48687 8.64021 3.62952 9.49755C2.80734 10.3198 2.73117 11.4445 3.36773 12.4221C2.9796 12.4432 2.61492 12.6265 2.33132 12.908C1.37976 13.8499 1.40226 15.1484 2.37539 16.1332L3.16195 16.9081C2.75344 16.9195 2.34914 17.1115 2.02171 17.4389C1.07976 18.3809 1.12031 19.7442 2.11992 20.7438L9.36937 27.9933C13.3685 31.9924 18.2871 31.9945 21.9745 28.3071ZM20.5378 26.9651C17.5648 29.9285 13.8651 29.8495 10.5476 26.5245L3.59061 19.5771C3.27701 19.2635 3.2578 18.8412 3.57139 18.5276C3.87749 18.2236 4.31694 18.2236 4.63265 18.5372L8.89475 22.8089C9.25546 23.16 9.78303 23.1194 10.1053 22.7972C10.4372 22.4653 10.4756 21.9302 10.1245 21.5791L3.731 15.176C3.4174 14.8624 3.39819 14.4401 3.70217 14.1361C4.00616 13.8321 4.44772 13.8321 4.77304 14.1457L10.7341 20.1089C11.0852 20.4579 11.6224 20.4269 11.9447 20.0972C12.2765 19.7653 12.315 19.2281 11.9639 18.877L4.95045 11.8636C4.63686 11.55 4.61764 11.1084 4.93123 10.8045C5.22561 10.5005 5.66717 10.5197 5.99038 10.8333L12.911 17.7539C13.2429 18.0837 13.7801 18.072 14.1119 17.7401C14.4534 17.4007 14.4726 16.8635 14.1312 16.522L8.26287 10.6441C7.94927 10.3306 7.93756 9.90067 8.24154 9.59668C8.55514 9.28309 8.97959 9.29059 9.3028 9.61379L17.554 17.865C18.0274 18.3384 18.5922 18.3068 18.986 17.9088C19.3085 17.5821 19.4606 17.1321 19.2136 16.5049L17.7403 12.6389C17.5601 12.1697 17.7274 11.7783 18.0933 11.614C18.4805 11.438 18.8334 11.6119 19.0713 12.1111L21.7816 17.9072C23.5812 21.7509 22.9308 24.5604 20.5378 26.9651ZM10.511 7.19247C10.1869 7.49528 10.0132 7.88669 9.96442 8.2856L11.6118 9.80879C11.2898 9.45207 11.276 8.98519 11.6022 8.66527C11.9189 8.35285 12.374 8.37207 12.7066 8.70465L16.5096 12.5056L17.6972 10.9974L13.9064 7.21403C12.8578 6.16755 11.538 6.18653 10.511 7.19247ZM25.2096 27.4371C28.2668 24.382 28.765 20.5952 26.6969 16.2279L24.0253 10.5949C23.5216 9.51301 22.6497 8.88536 21.6044 8.89169C20.8469 8.8938 19.447 9.40216 19.447 11.0618C19.447 11.1823 19.447 11.3006 19.4662 11.4307L20.9967 11.9651C20.9327 11.8233 20.8922 11.673 20.8922 11.497C20.8922 11.1516 21.1769 10.8166 21.6344 10.8166C21.9171 10.8166 22.2115 11.014 22.3683 11.3489L25.0263 17.0255C26.8237 20.8596 26.1851 23.6904 23.775 26.0737C22.7552 27.0914 21.6471 27.7474 20.5038 28.0226L18.3879 30.0023C20.782 30.3288 23.1851 29.4595 25.2096 27.4371Z" fill="#8F99BA"/>
<path d="M18.4146 8.29641C18.6232 8.29641 18.7882 8.15485 18.8041 7.92493C19.1334 5.22164 19.2539 5.145 22.0167 4.69102C22.27 4.66547 22.4095 4.53141 22.4095 4.31321C22.4095 4.11094 22.27 3.97688 22.0657 3.93961C19.271 3.39633 19.1334 3.4186 18.8041 0.711096C18.7882 0.485393 18.6232 0.343831 18.4146 0.343831C18.2219 0.343831 18.0665 0.485393 18.0506 0.699377C17.684 3.46219 17.6083 3.54211 14.7815 3.93961C14.5793 3.96516 14.4356 4.11094 14.4356 4.31321C14.4356 4.51969 14.5729 4.66125 14.7794 4.69102C17.6125 5.25563 17.6744 5.23547 18.0506 7.95047C18.0665 8.15485 18.224 8.29641 18.4146 8.29641ZM10.2942 5.15766C10.4315 5.15766 10.5412 5.0768 10.5764 4.91813C10.8759 3.19406 10.878 3.18445 12.6159 2.86688C12.7788 2.82961 12.881 2.73164 12.881 2.58469C12.881 2.42391 12.7788 2.32594 12.6222 2.29078C10.8717 1.94133 10.908 1.93594 10.5764 0.251249C10.5412 0.0904684 10.4411 0 10.2942 0C10.143 0 10.0333 0.100078 10.012 0.24914C9.66443 1.9507 9.71248 1.96242 7.95865 2.29078C7.79787 2.32383 7.69779 2.43352 7.69779 2.58469C7.69779 2.72203 7.79576 2.82961 7.95654 2.86688C9.71248 3.21422 9.69115 3.2025 10.012 4.92024C10.0333 5.06719 10.143 5.15766 10.2942 5.15766ZM3.41601 31.8035C3.60867 31.8035 3.7214 31.6833 3.74695 31.4981C4.15195 29.2033 4.14234 29.1649 6.53625 28.7184C6.73734 28.6694 6.84585 28.5705 6.84585 28.3779C6.84585 28.1852 6.73734 28.0863 6.54679 28.0469C4.14773 27.5665 4.19367 27.5322 3.74695 25.2597C3.7214 25.0725 3.60867 24.9522 3.41601 24.9522C3.23508 24.9522 3.13406 25.0725 3.08719 25.2576C2.63836 27.5512 2.71523 27.5939 0.301171 28.0469C0.120234 28.0842 0 28.1852 0 28.3779C0 28.5705 0.118124 28.6694 0.299061 28.7184C2.71523 29.1893 2.67047 29.216 3.08719 31.5044C3.13406 31.6833 3.23508 31.8035 3.41601 31.8035Z" fill="#8F99BA"/>
</svg>
