<svg width="29" height="18" viewBox="0 0 29 18" fill="none" xmlns="http://www.w3.org/2000/svg">
<path d="M0 8.90014C0 9.30429 0.166278 9.70195 0.478545 10.0052L7.92731 17.3334C8.2176 17.6236 8.6347 17.7899 9.01066 17.7899C9.88686 17.7899 10.4739 17.1837 10.4739 16.3342C10.4739 15.8892 10.313 15.5657 10.0419 15.2971L6.97386 12.3317L4.55941 10.2543L7.73226 10.3952H20.3106L23.4835 10.2543L21.069 12.3317L18.0126 15.2971C17.7414 15.5657 17.5805 15.8892 17.5805 16.3342C17.5805 17.1837 18.1676 17.7899 19.0438 17.7899C19.4197 17.7899 19.8369 17.6236 20.1271 17.3334L27.5759 10.0052C27.8881 9.70195 28.0544 9.30429 28.0544 8.90014C28.0544 8.48698 27.8881 8.08424 27.5759 7.78608L20.1271 0.460468C19.8369 0.170184 19.4197 0.00390625 19.0438 0.00390625C18.1676 0.00390625 17.5805 0.610118 17.5805 1.45955C17.5805 1.90456 17.7414 2.2281 18.0126 2.49667L21.069 5.47112L23.4835 7.5344L20.3106 7.39602H7.73226L4.55941 7.5344L6.97386 5.47112L10.0419 2.49667C10.313 2.2281 10.4739 1.90456 10.4739 1.45955C10.4739 0.610118 9.88686 0.00390625 9.01066 0.00390625C8.6347 0.00390625 8.2176 0.170184 7.92731 0.460468L0.478545 7.78608C0.166278 8.08424 0 8.48698 0 8.90014Z" fill="#8F99BA"/>
</svg>
