<svg width="23" height="22" viewBox="0 0 23 22" fill="none" xmlns="http://www.w3.org/2000/svg">
<path d="M4.81687 21.9988H19.0022C21.5412 21.9988 22.8464 20.6935 22.8464 18.193V3.93077C22.8464 1.42812 21.5412 0.125 19.0022 0.125H4.81687C2.2875 0.125 0.972656 1.41851 0.972656 3.93077V18.193C0.972656 20.7032 2.2875 21.9988 4.81687 21.9988ZM4.94999 19.7029C3.86038 19.7029 3.26858 19.1387 3.26858 18.0001V4.12155C3.26858 2.98295 3.86038 2.42092 4.94999 2.42092H18.8691C19.9491 2.42092 20.5505 2.98295 20.5505 4.12155V18.0001C20.5505 19.1387 19.9491 19.7029 18.8691 19.7029H4.94999Z" fill="#8F99BA"/>
<path d="M6.81383 7.8422C7.83875 7.85602 8.70172 6.99305 8.70172 5.93509C8.70172 4.89634 7.84086 4.05469 6.81383 4.05469C5.76336 4.05469 4.91211 4.89423 4.91211 5.93509C4.91211 6.99095 5.76336 7.82087 6.81383 7.8422ZM17.0263 7.8422C18.0533 7.85602 18.9066 6.99305 18.9066 5.93509C18.9066 4.89423 18.0575 4.05469 17.0263 4.05469C15.9779 4.05469 15.1191 4.89423 15.1191 5.93509C15.1191 6.99095 15.9779 7.82087 17.0263 7.8422ZM11.9173 12.9554C12.9444 12.9554 13.8052 12.102 13.8052 11.044C13.8052 10.0095 12.9423 9.16994 11.9173 9.16994C10.869 9.16994 10.0273 10.0074 10.0273 11.044C10.0273 12.1041 10.8669 12.9554 11.9173 12.9554ZM6.81172 18.0706C7.83875 18.0706 8.69961 17.2172 8.69961 16.1689C8.69961 15.1247 7.83664 14.281 6.81172 14.281C5.76336 14.281 4.92383 15.1226 4.92383 16.1689C4.92383 17.2193 5.76336 18.0706 6.81172 18.0706ZM17.0263 18.0706C18.0575 18.0706 18.9066 17.2172 18.9066 16.1689C18.9066 15.1226 18.0533 14.281 17.0263 14.281C15.98 14.281 15.1405 15.1226 15.1405 16.1689C15.1405 17.2172 15.98 18.0706 17.0263 18.0706Z" fill="#8F99BA"/>
</svg>
