<svg width="26" height="26" viewBox="0 0 26 26" fill="none" xmlns="http://www.w3.org/2000/svg">
<path d="M6.24436 24.1089L6.24202 24.1106C5.85591 24.3951 5.623 24.2939 5.58936 24.2715C5.56908 24.2581 5.5409 24.2327 5.5229 24.1631C5.50331 24.0874 5.4887 23.922 5.58326 23.6496L5.5833 23.6496L5.58644 23.6402L8.01356 16.4173L8.24922 15.716L7.64755 15.2855L1.32882 10.7643L1.32858 10.7642C1.13466 10.6255 1.05444 10.4961 1.02304 10.4158C0.99203 10.3365 0.997876 10.2815 1.00866 10.2474C1.01955 10.213 1.04615 10.1664 1.11335 10.1219C1.18095 10.0771 1.31181 10.0215 1.53253 10.0214C1.53272 10.0214 1.53291 10.0214 1.53309 10.0214L9.31499 10.032L10.0429 10.033L10.2675 9.34059L12.6066 2.13117L12.6066 2.13117L12.6079 2.12704C12.6728 1.92394 12.7639 1.81977 12.828 1.76938C12.8928 1.71846 12.9531 1.70312 13.0017 1.70312C13.0502 1.70312 13.1105 1.71846 13.1753 1.76937C13.2395 1.81977 13.3305 1.92394 13.3954 2.12704L13.3956 2.12766L15.7054 9.33709L15.9283 10.033L16.659 10.032L24.4464 10.0214C24.4466 10.0214 24.4467 10.0214 24.4469 10.0214C24.6722 10.0215 24.7997 10.0777 24.8613 10.1189C24.9218 10.1592 24.9447 10.2007 24.9545 10.233C24.9654 10.2692 25.0046 10.4943 24.6333 10.7692L18.3541 15.2814L17.757 15.7105L17.9885 16.4084L20.3864 23.6366L20.3863 23.6366L20.3905 23.6485C20.4872 23.9283 20.4723 24.0965 20.4527 24.1723C20.435 24.2412 20.4079 24.264 20.3905 24.2755C20.3605 24.2953 20.1337 24.3936 19.7627 24.1156L19.7627 24.1155L19.7537 24.1089L13.5899 19.596L12.9992 19.1635L12.4084 19.596L6.24436 24.1089Z" stroke="#8F99BA" stroke-width="2"/>
</svg>
