<svg width="28" height="24" viewBox="0 0 28 24" fill="none" xmlns="http://www.w3.org/2000/svg">
<path d="M1.65137 8.60391C3.50454 8.0235 5.42438 7.72391 7.25181 7.72391C9.60354 7.72391 11.3478 8.10072 13.5848 8.10072C15.9383 8.10072 17.4515 6.4913 17.4515 4.37791C17.4515 2.22695 15.8035 0.667969 13.7521 0.667969C12.2734 0.667969 10.9494 1.58992 10.3765 2.83798C10.1381 3.31826 10.2339 3.86288 10.7237 4.12696C11.1911 4.37688 11.7648 4.22271 12.0675 3.65697C12.3436 3.04233 13.0016 2.56694 13.7521 2.56694C14.7693 2.56694 15.5525 3.27167 15.5525 4.37791C15.5525 5.48647 14.7858 6.21229 13.5848 6.21229C11.4716 6.21229 9.69002 5.83317 7.25181 5.83317C5.15876 5.83317 3.01912 6.19942 1.0787 6.79734C0.484911 6.96566 0.237309 7.48687 0.382216 7.98927C0.529439 8.50456 1.01667 8.78743 1.65137 8.60391ZM21.8321 14.768C24.8816 14.768 27.0537 12.8147 27.0537 10.0929C27.0537 7.41428 24.9939 5.45404 22.4149 5.45404C20.1226 5.45404 18.3541 7.02692 17.9711 9.12023C17.8545 9.70475 18.1482 10.1989 18.6578 10.305C19.1896 10.4156 19.6847 10.1057 19.8295 9.45225C20.0668 8.19595 21.1446 7.34246 22.4149 7.34246C23.9363 7.34246 25.1547 8.47187 25.1547 10.0929C25.1547 11.742 23.8475 12.8796 21.8321 12.8796C17.9186 12.8796 13.6452 10.6403 8.48829 10.6403C5.82796 10.6403 3.38306 11.0627 1.07638 11.8583C0.493148 12.0652 0.237309 12.5712 0.382216 13.0713C0.531756 13.5889 1.03649 13.8823 1.65601 13.6685C3.77454 12.8821 5.96927 12.5417 8.48829 12.5417C13.5977 12.5417 17.4536 14.768 21.8321 14.768ZM13.5977 23.9636C15.6443 23.9636 17.2198 22.4387 17.2198 20.29C17.2198 17.1833 14.0465 15.4476 8.26308 15.4476C5.87403 15.4476 3.28268 15.9062 1.07638 16.6526C0.493148 16.8595 0.237309 17.3655 0.382216 17.8633C0.531756 18.3809 1.03649 18.6766 1.65601 18.4628C3.69527 17.7362 5.96283 17.3465 8.26308 17.3465C12.8512 17.3465 15.3313 18.4851 15.3313 20.29C15.3313 21.3962 14.5657 22.0752 13.5977 22.0752C12.6643 22.0752 12.0791 21.4534 11.8803 20.4534C11.7522 19.9286 11.3213 19.5458 10.7332 19.6378C10.1217 19.7297 9.88307 20.2881 10.0159 20.8667C10.3286 22.6069 11.6796 23.9636 13.5977 23.9636Z" fill="#8F99BA"/>
</svg>
