<svg width="22" height="22" viewBox="0 0 22 22" fill="none" xmlns="http://www.w3.org/2000/svg">
<path fill-rule="evenodd" clip-rule="evenodd" d="M0.169922 10.781C0.285189 4.9719 4.97191 0.284972 10.781 0.169922C10.7296 4.62524 10.4375 7.11864 8.77852 8.7783C7.11885 10.4373 4.62524 10.7296 0.169922 10.781ZM11.4279 0.175989C17.1393 0.398289 21.7159 5.03994 21.8303 10.7786C17.5056 10.7203 15.0642 10.4113 13.4306 8.7783C11.7716 7.11929 11.4793 4.62762 11.4279 0.175989ZM21.8242 11.4303C21.6039 17.071 17.0712 21.6037 11.4305 21.824C11.4892 17.5033 11.7976 15.0636 13.4306 13.4304C15.0636 11.7973 17.5033 11.4892 21.8242 11.4303ZM10.7786 21.8303C5.03994 21.715 0.397855 17.1393 0.176205 11.4279C4.62784 11.4793 7.11929 11.7713 8.77852 13.4304C10.4115 15.064 10.7203 17.5056 10.7786 21.8303Z" fill="#3E3E51"/>
</svg>
