<svg width="22" height="22" viewBox="0 0 22 22" fill="none" xmlns="http://www.w3.org/2000/svg">
<path fill-rule="evenodd" clip-rule="evenodd" d="M10.9998 0.166992C16.9829 0.166992 21.8332 5.01729 21.8332 11.0003C21.8332 15.6827 18.8618 19.6709 14.7025 21.1841V14.1264H16.9281L17.3389 11.3169H14.7025V9.66999C14.7025 9.22106 15.0701 8.85338 15.5193 8.85338H17.3389V6.00096H14.4782C12.7711 6.00096 11.3745 7.39759 11.3745 9.10449V11.3169H9.7319V14.1264H11.3745V21.8263C11.2499 21.8306 11.1253 21.8337 10.9998 21.8337C5.0168 21.8337 0.166504 16.9834 0.166504 11.0003C0.166504 5.01729 5.0168 0.166992 10.9998 0.166992Z" fill="#3E3E51"/>
</svg>
