<svg width="22" height="22" viewBox="0 0 22 22" fill="none" xmlns="http://www.w3.org/2000/svg">
<path fill-rule="evenodd" clip-rule="evenodd" d="M10.9998 0.166992C16.9829 0.166992 21.8332 5.01729 21.8332 11.0003C21.8332 16.9834 16.9829 21.8337 10.9998 21.8337C5.0168 21.8337 0.166504 16.9834 0.166504 11.0003C0.166504 5.01729 5.0168 0.166992 10.9998 0.166992ZM14.6424 4.34194H7.3555C5.69475 4.34194 4.3408 5.69503 4.3408 7.35838V14.6434C4.3408 16.3067 5.69475 17.6587 7.3555 17.6587H14.6424C16.3051 17.6587 17.6584 16.3067 17.6584 14.6434V7.35838C17.6584 5.69503 16.3051 4.34194 14.6424 4.34194ZM7.3555 16.3334C6.42449 16.3334 5.66615 15.5763 5.66615 14.6434V7.35838C5.66615 6.42628 6.42449 5.66794 7.3555 5.66794H14.6424C15.5745 5.66794 16.3318 6.42628 16.3318 7.35838V14.6434C16.3318 15.5763 15.5745 16.3334 14.6424 16.3334H7.3555ZM14.5725 6.75171C14.0902 6.75171 13.7002 7.14128 13.7002 7.62596C13.7002 8.10631 14.0902 8.49869 14.5725 8.49869C15.0558 8.49869 15.4478 8.10631 15.4478 7.62596C15.4478 7.14128 15.0558 6.75171 14.5725 6.75171ZM10.9998 7.59801C9.10249 7.59801 7.55852 9.14198 7.55852 11.04C7.55852 12.9373 9.10249 14.4813 10.9998 14.4813C12.8972 14.4813 14.4418 12.9373 14.4418 11.04C14.4418 9.14198 12.8972 7.59801 10.9998 7.59801ZM10.9998 13.1557C9.83244 13.1557 8.88344 12.208 8.88344 11.04C8.88344 9.87366 9.83244 8.92336 10.9998 8.92336C12.1675 8.92336 13.1165 9.87366 13.1165 11.04C13.1165 12.208 12.1675 13.1557 10.9998 13.1557Z" fill="#3E3E51"/>
</svg>
