<svg width="22" height="22" viewBox="0 0 22 22" fill="none" xmlns="http://www.w3.org/2000/svg">
<path fill-rule="evenodd" clip-rule="evenodd" d="M10.9998 0.166992C16.9829 0.166992 21.8332 5.01708 21.8332 11.0001C21.8332 16.9834 16.9829 21.8334 10.9998 21.8334C5.0168 21.8334 0.166504 16.9834 0.166504 11.0001C0.166504 5.01708 5.0168 0.166992 10.9998 0.166992ZM18.0972 6.48629C17.5757 6.72376 17.0141 6.88431 16.425 6.95603C17.0266 6.58704 17.4881 6.00183 17.7057 5.30481C17.1423 5.64649 16.5201 5.89501 15.8551 6.02848C15.3254 5.44824 14.5679 5.08598 13.7296 5.08598C12.1224 5.08598 10.8187 6.42303 10.8187 8.07208C10.8187 8.30608 10.8436 8.53336 10.8935 8.75219C8.47329 8.62739 6.32807 7.43984 4.8907 5.63111C4.64002 6.07376 4.4968 6.58704 4.4968 7.13391C4.4968 8.16936 5.01074 9.08348 5.79225 9.61908C5.3158 9.60478 4.86579 9.46893 4.47232 9.24684V9.28346C4.47232 10.7308 5.47635 11.9378 6.8095 12.2113C6.56532 12.2815 6.30792 12.3166 6.04207 12.3166C5.85465 12.3166 5.67135 12.2986 5.4939 12.2635C5.86462 13.4495 6.93929 14.3132 8.21415 14.3363C7.21749 15.1378 5.96125 15.6151 4.59734 15.6151C4.36247 15.6151 4.12999 15.6015 3.90249 15.5739C5.19144 16.4198 6.72284 16.9147 8.36647 16.9147C13.7238 16.9147 16.6522 12.3651 16.6522 8.41874C16.6522 8.28896 16.6496 8.15918 16.6447 8.03178C17.2141 7.61058 17.7081 7.08516 18.0972 6.48629Z" fill="#3E3E51"/>
</svg>
