<svg width="22" height="22" viewBox="0 0 22 22" fill="none" xmlns="http://www.w3.org/2000/svg">
<path fill-rule="evenodd" clip-rule="evenodd" d="M10.9996 0.166992C16.9827 0.166992 21.833 5.01729 21.833 11.0003C21.833 16.9834 16.9827 21.8337 10.9996 21.8337C5.01659 21.8337 0.166504 16.9834 0.166504 11.0003C0.166504 5.01729 5.01659 0.166992 10.9996 0.166992ZM17.9496 7.50333C17.7286 7.31656 15.2179 7.30963 14.9016 7.43399C14.8459 7.45588 14.7631 7.58523 14.6587 7.78239C14.1805 8.68351 13.7818 9.70206 13.1193 10.4892C12.9056 10.7427 12.7061 10.9013 12.546 10.8989C12.0583 10.8913 12.1709 9.37663 12.2 8.26534C12.2595 5.92101 8.81714 6.97358 8.59722 7.64199C9.00087 7.69464 9.69789 7.56594 9.42857 10.414C9.41557 10.5523 9.10422 11.7259 8.11254 10.1373C7.86727 9.74431 6.91589 7.37398 6.58829 7.36466C5.48827 7.33433 4.40992 7.28926 4.0249 7.50333C3.37772 7.86278 6.47497 12.4899 7.21359 13.2942C8.03714 14.191 9.00694 14.8342 10.3293 15.057C10.7186 15.096 11.745 15.143 12.0613 14.9883C12.2816 14.88 12.0136 13.3304 12.754 13.1863C12.9956 13.139 13.7268 14.007 14.2943 14.5608C14.704 14.961 14.7861 15.0219 15.3423 15.0927C16.257 15.2099 17.9371 15.213 18.019 14.711C18.1936 13.6419 15.8722 12.2527 15.8023 11.5916C15.7505 11.1035 17.7295 8.95391 18.0081 8.03199C18.079 7.79691 18.0744 7.60841 17.9496 7.50333Z" fill="#3E3E51"/>
</svg>
