<svg width="22" height="22" viewBox="0 0 22 22" fill="none" xmlns="http://www.w3.org/2000/svg">
<path fill-rule="evenodd" clip-rule="evenodd" d="M10.9998 0.166992C16.9829 0.166992 21.8332 5.01708 21.8332 11.0001C21.8332 16.9834 16.9829 21.8334 10.9998 21.8334C5.0168 21.8334 0.166504 16.9834 0.166504 11.0001C0.166504 5.01708 5.0168 0.166992 10.9998 0.166992ZM13.7805 10.8523L9.11245 13.3743L9.1118 9.49103V8.31041L11.2172 9.45636L13.7805 10.8523ZM17.8842 8.07034C17.8842 8.07034 17.7475 7.06003 17.3265 6.61543C16.7922 6.03238 16.1929 6.02869 15.9195 5.99533C13.9515 5.84799 11.0029 5.84799 11.0029 5.84799H10.9968C10.9968 5.84799 8.0458 5.84799 6.0802 5.99576C5.80547 6.02869 5.20747 6.03238 4.67187 6.61543C4.25154 7.06068 4.11417 8.07078 4.11417 8.07078C4.11417 8.07078 3.97377 9.25572 3.97377 10.4418V11.553C3.97377 12.7397 4.11417 13.9251 4.11417 13.9251C4.11417 13.9251 4.25154 14.9354 4.67187 15.3794C5.20747 15.9631 5.91012 15.9438 6.22212 16.0045C7.34619 16.1171 10.9992 16.1524 10.9992 16.1524C10.9992 16.1524 13.9515 16.147 15.9195 16.0001C16.1929 15.9655 16.7922 15.9631 17.3265 15.3787C17.7475 14.9341 17.8842 13.9245 17.8842 13.9245C17.8842 13.9245 18.0255 12.7397 18.0255 11.553V10.4418C18.0255 9.25572 17.8842 8.07034 17.8842 8.07034Z" fill="#3E3E51"/>
</svg>
