<svg width="22" height="22" viewBox="0 0 22 22" fill="none" xmlns="http://www.w3.org/2000/svg">
<path d="M0 14.998C0 18.2071 1.99152 20.8477 4.65259 20.8477H6.45069C4.57779 19.4234 3.75365 17.305 3.76295 14.8909C3.77515 12.2928 4.71046 10.4061 5.68462 9.11908H4.26098C1.85265 9.11908 0 11.6919 0 14.998ZM5.2707 14.9116C5.26139 18.8541 8.36801 21.8479 13.3122 21.8534L14.7528 21.8553C16.1006 21.8571 17.1372 21.7624 17.7305 21.6055C18.6294 21.3887 19.4174 20.8221 19.4174 19.8099C19.4174 19.4106 19.3177 19.1138 19.1975 18.8894C19.1223 18.7644 19.1429 18.6741 19.2521 18.6262C19.9298 18.3129 20.4438 17.6857 20.4438 16.8564C20.4438 16.3858 20.3132 15.9613 20.0859 15.6601C19.9871 15.5218 19.9993 15.392 20.1677 15.3017C20.6409 15.0033 20.9753 14.395 20.9753 13.6972C20.9753 13.1874 20.8184 12.67 20.5479 12.3997C20.405 12.2699 20.4322 12.1759 20.5771 12.0414C20.9085 11.7523 21.1115 11.2538 21.1115 10.6556C21.1115 9.58551 20.2752 8.71713 19.1853 8.71713H15.4552C14.5523 8.71713 13.9668 8.25856 13.9668 7.52742C13.9668 6.14016 15.7408 3.53136 15.7408 1.64214C15.7408 0.621686 15.0744 0.000488281 14.1921 0.000488281C13.4165 0.000488281 13.014 0.50679 12.5767 1.36171C11.0018 4.41295 8.91315 6.89217 7.31016 9.01451C5.92247 10.8566 5.27813 12.4369 5.2707 14.9116Z" fill="#32BD1B"/>
</svg>
