<svg width="22" height="22" viewBox="0 0 22 22" fill="none" xmlns="http://www.w3.org/2000/svg">
<path d="M21.1113 6.85848C21.1113 3.64936 19.1198 1.00878 16.4587 1.00878H14.6606C16.5335 2.43303 17.3577 4.55145 17.3484 6.96552C17.3362 9.5636 16.4009 11.4503 15.4267 12.7374H16.8503C19.2587 12.7374 21.1113 10.1645 21.1113 6.85848ZM15.8406 6.94489C15.8499 3.00236 12.7433 0.00855637 7.79918 0.00300217L6.35853 0.00115013C5.01073 -0.000701904 3.97418 0.0940838 3.38087 0.250942C2.48195 0.467758 1.69395 1.03435 1.69395 2.04657C1.69395 2.44581 1.79359 2.7426 1.91386 2.967C1.98907 3.09203 1.96844 3.18232 1.85928 3.23028C1.1815 3.54356 0.667543 4.17073 0.667543 5.00007C0.667543 5.47065 0.798124 5.89511 1.02543 6.19639C1.12427 6.33465 1.11202 6.46444 0.943609 6.55473C0.470388 6.8531 0.13604 7.46149 0.13604 8.1592C0.13604 8.66901 0.292898 9.18649 0.56341 9.45674C0.706337 9.58653 0.679092 9.68052 0.534225 9.81507C0.202785 10.1042 -0.00018692 10.6026 -0.00018692 11.2009C-0.00018692 12.2709 0.836128 13.1393 1.92602 13.1393H5.65615C6.55903 13.1393 7.1445 13.5979 7.1445 14.329C7.1445 15.7163 5.37056 18.3251 5.37056 20.2143C5.37056 21.2348 6.03697 21.856 6.91922 21.856C7.69478 21.856 8.09737 21.3497 8.53462 20.4947C10.1096 17.4435 12.1982 14.9643 13.8012 12.8419C15.1889 10.9998 15.8332 9.41953 15.8406 6.94489Z" fill="#8F99BA"/>
</svg>
