<svg width="65" height="68" viewBox="0 0 65 68" fill="none" xmlns="http://www.w3.org/2000/svg">
<path d="M11.6397 22.9178L20.4136 17.5431C20.4426 17.5431 20.4717 17.5141 20.5007 17.5141C23.406 15.7128 26.6598 14.5798 30.1461 14.144C33.6324 13.6791 37.3511 13.9116 41.186 14.8412C41.9704 15.0446 42.4353 15.829 42.261 16.6134C42.2319 16.6715 42.2029 16.7587 42.1738 16.8458C40.8664 19.9835 39.9368 21.6685 39.0943 22.8306C42.1738 22.5982 45.6891 22.8016 49.1464 23.8475C52.8941 25.0096 56.5838 27.1594 59.5471 30.8781C60.012 31.4592 59.9539 32.3308 59.3728 32.8537C57.8621 34.2773 55.8575 35.6427 53.7657 36.6886C52.7779 37.1535 51.7901 37.5893 50.8314 37.9088C55.6251 41.889 59.489 47.1475 62.3943 51.1277C63.1206 52.1154 63.7888 53.0451 64.3698 53.7714C64.8347 54.4106 64.7185 55.3112 64.1084 55.8051C64.0212 55.8632 63.9341 55.9213 63.8178 55.9794C58.7046 58.3908 53.911 59.4367 49.6984 59.6691C45.2534 59.9015 41.4475 59.2333 38.4551 58.3327C38.5713 59.088 38.6585 59.9015 38.6875 60.715C38.7747 62.6905 38.6294 64.7242 38.1646 66.0606C37.9322 66.816 37.0896 67.2227 36.3343 66.9612C34.504 66.3511 30.8143 64.9857 27.3571 62.952C24.8586 61.4703 22.5344 59.611 21.0818 57.403C20.2393 59.3495 19.0481 61.6156 17.5374 62.4872C16.9563 62.8067 16.23 62.6905 15.7942 62.2257V62.2547C13.2957 59.7272 11.9012 56.9381 11.1749 54.3234C10.4776 51.7378 10.4195 49.3555 10.5358 47.5252C10.2452 47.6414 9.92565 47.7285 9.60608 47.8447C7.97914 48.3096 6.09074 48.6873 4.84148 48.7744C4.02802 48.8035 3.33076 48.1934 3.30171 47.409V47.3799C3.21455 46.1307 3.09834 42.2667 4.02802 37.6474C4.98674 32.9409 7.04947 27.479 11.3783 23.1212C11.4654 23.034 11.5526 22.9759 11.6397 22.9178ZM16.9854 27.9439C16.5786 27.2466 16.8111 26.346 17.5083 25.9392C18.2056 25.5616 19.0772 25.794 19.4839 26.4912C19.9197 27.2176 20.3555 27.9439 20.8493 28.6411C23.3769 26.4331 26.2531 25.3582 29.1293 25.5035C32.0636 25.6487 34.9398 27.0432 37.4673 29.7161C37.6126 29.8613 37.7578 30.0356 37.9031 30.239C40.1982 32.8537 41.3603 36.0204 42.5515 39.1871C43.8007 42.5863 45.05 45.9854 47.6357 48.3967C48.2167 48.9487 48.2458 49.8494 47.7228 50.4595C47.4904 50.6919 47.1999 50.8371 46.8803 50.8952C42.1448 51.6797 37.7869 51.7668 33.9229 51.302C29.6522 50.779 25.9626 49.6169 23.0864 47.99C21.4885 47.0894 20.123 46.0144 19.019 44.8523C17.4212 43.1383 16.4043 41.2208 16.0848 39.1581C15.7652 37.0663 16.1719 34.9164 17.3921 32.7666C17.7698 32.0984 18.2346 31.4011 18.7576 30.7619C18.1475 29.8323 17.5374 28.9026 16.9854 27.9439ZM22.5344 30.9944C23.3479 32.0402 24.1904 33.028 25.0619 33.9868C27.3861 36.5143 29.8265 38.6061 32.0926 40.1749C32.7318 40.6107 32.9061 41.5113 32.4703 42.1795C32.0055 42.8477 31.1048 42.993 30.4366 42.5572C28.0253 40.8722 25.4106 38.6061 22.9411 35.9623C22.1277 35.0617 21.3142 34.132 20.5588 33.1733C20.3264 33.4929 20.094 33.8415 19.9197 34.1901C19.0481 35.7299 18.7576 37.2697 18.9609 38.7223C19.1934 40.1749 19.9197 41.5985 21.1399 42.8768C22.0114 43.8355 23.1445 44.7071 24.51 45.4624C27.0666 46.9151 30.3785 47.961 34.2425 48.4258C37.1477 48.7744 40.3435 48.7744 43.7717 48.3967C41.9414 45.8982 40.8664 43.0511 39.8206 40.204C38.7456 37.2406 37.6416 34.3354 35.7242 32.1274C35.637 32.0112 35.4918 31.8659 35.3465 31.7207C33.3709 29.5998 31.1629 28.4959 29.0131 28.4087C26.8341 28.2925 24.6552 29.135 22.6797 30.8491L22.5344 30.9944ZM9.78039 1.94197C9.48987 1.18661 9.8966 0.373139 10.652 0.0826153C11.3783 -0.178856 12.2208 0.198825 12.5113 0.954187L16.5205 11.8779C17.1306 11.6745 17.8279 11.936 18.1765 12.517C18.6123 13.1852 18.3799 14.0859 17.7117 14.4926L10.4776 18.8795C9.80944 19.2862 8.90882 19.0829 8.50208 18.4147C8.1244 17.8336 8.24061 17.0783 8.70545 16.6134L0.454572 8.85644C-0.126476 8.33349 -0.155528 7.40382 0.396467 6.82277C0.91941 6.24172 1.84909 6.21267 2.43013 6.76467L11.233 15.0446L11.4073 14.9284L5.16106 4.70195C4.72527 4.03374 4.95769 3.13312 5.6259 2.72638C6.32315 2.2906 7.22378 2.52302 7.63051 3.19122L13.8768 13.4177L13.993 13.3596L9.78039 1.94197ZM12.2498 21.6685C11.5816 22.0753 10.681 21.8719 10.2743 21.1747C9.83849 20.5064 10.0709 19.6058 10.7391 19.1991L17.9732 14.8122C18.6414 14.3764 19.542 14.6088 19.9487 15.277C20.3845 15.9743 20.1521 16.8458 19.4839 17.2816L12.2498 21.6685ZM21.9243 20.0416L13.3248 25.3001C9.54797 29.135 7.74672 34.0158 6.87515 38.2284C6.26505 41.2789 6.14884 43.9808 6.14884 45.6949C6.99136 45.5206 7.92104 45.3172 8.79261 45.0557C10.0419 44.678 11.0877 44.3004 11.3783 44.0679C11.7269 43.7193 12.2208 43.574 12.7147 43.6903C13.4991 43.8936 13.9639 44.678 13.7896 45.4334C13.4991 46.5955 12.9471 49.8494 13.9639 53.539C14.4869 55.3984 15.3875 57.3158 16.8982 59.1461C17.7117 58.0131 18.4961 56.0956 19.019 54.7883C19.6582 53.2194 20.123 52.0864 21.3723 52.3769C21.9533 52.4931 22.4182 52.9289 22.5344 53.539C23.0864 56.299 25.8173 58.6522 28.8388 60.4535C31.2501 61.8771 33.8358 62.981 35.7242 63.6783C35.8113 62.8358 35.8404 61.848 35.7823 60.8602C35.6951 59.1171 35.4337 57.4901 35.056 56.7348V56.7057C34.8817 56.3571 34.8526 55.9504 35.0269 55.5436C35.3174 54.7883 36.16 54.4396 36.8863 54.7302C39.8206 55.9213 44.1784 57.0544 49.5241 56.7638C52.9813 56.5895 56.8453 55.8051 60.9707 54.062C60.6802 53.6843 60.3606 53.2775 60.0701 52.8418C56.7872 48.3677 52.3131 42.2667 46.7931 38.4899C46.3864 38.2575 46.1249 37.8798 46.0668 37.3859C45.9797 36.6015 46.5317 35.8752 47.3451 35.788C48.8849 35.5846 50.7152 34.9745 52.4584 34.0739C53.8529 33.3767 55.2183 32.5341 56.3804 31.6045C53.9981 29.0478 51.18 27.5081 48.3039 26.6365C43.8007 25.271 39.1814 25.5035 35.8404 26.2007C35.4337 26.2879 34.9979 26.2007 34.6492 25.9392C34.0101 25.4163 33.9229 24.5157 34.4168 23.8765C34.8236 23.3826 35.1722 23.005 35.4918 22.6563C36.4505 21.5814 37.3511 20.6227 38.8328 17.3107C35.9275 16.7587 33.1385 16.6715 30.4947 16.9911C27.4152 17.3978 24.5681 18.3856 22.0405 19.9545C22.0114 19.9835 21.9824 20.0126 21.9243 20.0416Z" fill="#3E3E51"/>
</svg>
