<svg width="66" height="72" viewBox="0 0 66 72" fill="none" xmlns="http://www.w3.org/2000/svg">
<path fill-rule="evenodd" clip-rule="evenodd" d="M37.4028 22.6543C38.2451 22.6543 38.9423 21.9572 38.9423 21.0858C38.9423 20.2434 38.2451 19.5463 37.4028 19.5463C36.5314 19.5463 35.8343 20.2434 35.8343 21.0858C35.8343 21.9572 36.5314 22.6543 37.4028 22.6543ZM12.539 37.7004L11.4352 42.0283C11.261 42.493 11.1157 42.8416 10.9124 43.1902C10.2734 44.2939 8.67582 45.601 7.36873 46.0658C5.9745 46.5305 4.37694 46.0948 3.27318 45.1653L0.136155 40.8374C-0.00907703 40.4888 -0.0381235 40.1112 0.0490159 39.7627C0.165202 39.2689 0.542806 38.9203 1.00755 38.717L0.688039 38.078C0.281388 37.1775 1.06564 36.3061 1.61753 36.219C0.833271 35.0571 2.34369 33.5467 3.67983 34.0405C3.82506 34.0986 3.9122 34.1857 3.99934 34.2729C4.23171 33.6048 5.30643 33.2563 6.00355 33.9534L6.75875 34.9119C7.1654 35.4638 6.23592 36.219 5.80022 35.6381L5.33548 35.0281C5.1031 34.7086 4.58027 35.0281 4.89978 35.5219L7.31064 39.0656C7.42682 39.2689 7.39778 39.5303 7.25254 39.7046C7.02017 39.995 6.49734 40.0822 6.26496 39.7336L3.27318 35.3186C2.98271 34.9119 2.54701 35.3476 2.72129 35.609L5.59689 39.9079C5.85831 40.3146 5.39357 40.8664 4.92883 40.8083C4.84169 40.8083 4.7255 40.7503 4.63836 40.605L2.45987 37.497C2.16941 37.0613 1.64657 37.4389 1.93704 37.8746L4.14457 41.1569C4.26076 41.3312 4.31885 41.5345 4.26076 41.6797C4.17362 41.9992 3.88315 42.2026 3.53459 42.1735C3.41841 42.1735 3.24413 42.0283 3.0989 41.825L1.79181 39.9079C1.58848 39.6174 1.00755 39.9079 1.29801 40.3146L4.11552 44.1777C4.66741 44.9329 5.62594 45.1944 6.70066 44.991C7.94966 44.7587 9.83768 43.2773 10.1862 41.854L11.3191 37.468C11.4643 36.9161 10.6219 36.7418 10.4767 37.3228L9.86673 39.5303L10.3024 40.2565C10.5058 40.6341 9.75054 41.3893 9.25675 40.6631L6.61352 36.8871C5.85831 35.7833 7.19445 35.3766 7.57206 36.0447C8.06585 36.7418 8.50154 37.468 8.96629 38.1361C9.08247 37.7875 9.31485 37.0613 9.40198 36.829C10.1281 34.5053 13.0328 35.7543 12.539 37.7004ZM53.146 37.7004L54.2788 42.0283C54.424 42.493 54.5693 42.8416 54.7726 43.1902C55.4407 44.2939 57.0092 45.601 58.3163 46.0658C59.7395 46.5305 61.3371 46.0948 62.4409 45.1363L65.5488 40.8374C65.7231 40.4888 65.7522 40.1112 65.665 39.7627C65.5198 39.2689 65.1712 38.9203 64.7065 38.717L65.026 38.078C65.4036 37.1775 64.6484 36.3061 64.0965 36.219C64.8517 35.0571 63.3413 33.5467 62.0342 34.0405C61.889 34.0986 61.7728 34.1857 61.6857 34.2729C61.4823 33.6048 60.3786 33.2563 59.6814 33.9534L58.9553 34.9119C58.5196 35.4638 59.4491 36.219 59.8848 35.6381L60.3495 35.0281C60.5819 34.7086 61.1047 35.0281 60.7852 35.5219L58.3744 39.0656C58.2872 39.2689 58.3163 39.5303 58.4615 39.7046C58.6939 39.995 59.2167 40.0822 59.4491 39.7336L62.4409 35.3186C62.7023 34.9119 63.167 35.3476 62.9927 35.609L60.0881 39.9079C59.8267 40.3146 60.2914 40.8664 60.7852 40.8083C60.8433 40.8083 60.9595 40.7503 61.0466 40.605L63.2251 37.497C63.5446 37.0613 64.0675 37.4389 63.748 37.8746L61.5404 41.1569C61.4242 41.3312 61.3952 41.5345 61.4242 41.6797C61.5114 41.9992 61.8018 42.2026 62.1504 42.1735C62.2956 42.1735 62.4699 42.0283 62.6151 41.825L63.8932 39.9079C64.0965 39.6174 64.7065 39.9079 64.416 40.3146L61.5695 44.1777C61.0176 44.9329 60.0591 45.1944 59.0134 44.991C57.7353 44.7587 55.8764 43.2773 55.4988 41.854L54.3659 37.468C54.2207 36.9161 55.0631 36.7418 55.2083 37.3228L55.8183 39.5303L55.4116 40.2565C55.2083 40.6341 55.9635 41.3893 56.4573 40.6631L59.1005 36.8871C59.8557 35.7833 58.5196 35.3766 58.1129 36.0447C57.6482 36.7418 57.2125 37.468 56.7187 38.1361C56.6316 37.7875 56.3992 37.0613 56.3121 36.829C55.5859 34.5053 52.6522 35.7543 53.146 37.7004ZM36.1828 36.2771V36.248V36.219H36.2119V36.19V36.1609H36.2409V36.1319L36.27 36.1028V36.0738H36.299V36.0447L36.3281 36.0157L36.3571 35.9866V35.9576H36.3862L36.4152 35.9285V35.8995H36.4443V35.8704H36.4733L36.5024 35.8414H36.5314V35.8123H36.5604L36.5895 35.7833H36.6185L36.6476 35.7543L36.6766 35.7252H36.7057H36.7347V35.6962H36.7638H36.7928L36.8219 35.6671H36.8509H36.88H36.909L36.9381 35.6381H36.9671H36.9961H37.0252H37.0542H37.0833H37.1123L37.1414 35.609H37.1704H37.1995L37.2285 35.6381H37.2576H37.2866H37.3157H37.3447H37.3737H37.4028L37.4318 35.6671H37.4609H37.4899L45.3906 38.1651C45.7972 38.3103 46.0877 38.6299 46.1458 39.0365L48.8181 49.987L52.6522 44.4101C53.0008 43.9163 53.6688 43.8001 54.1626 44.1487L54.2207 44.1777L58.4615 47.4019C58.9262 47.7505 59.0134 48.4476 58.6648 48.9123L58.6358 48.9414L49.5442 61.9251C49.1957 62.4189 48.4986 62.5351 48.0338 62.1866C47.9757 62.1575 47.9176 62.1285 47.8886 62.0704L42.1374 56.4354C42.1083 56.4934 42.1083 56.5225 42.0793 56.5806C41.1498 59.34 42.4569 61.228 43.9092 63.2903C45.1873 65.1203 46.5524 67.0954 46.9591 69.942V70.0001V70.0291C47.0462 70.61 46.6105 71.1619 46.0296 71.2491C45.4196 71.3072 44.8677 70.9005 44.8097 70.3196V70.2905L44.7806 70.2324C44.4611 67.9087 43.2411 66.1659 42.1083 64.5393C40.4527 62.1575 38.9713 60.0081 39.8137 56.6387C39.3199 56.7549 38.797 56.842 38.2451 56.842C37.1123 56.842 36.0086 56.4934 35.05 55.9125C34.1205 55.3606 33.3653 54.5473 32.8425 53.5597C32.3487 54.5473 31.5645 55.3606 30.664 55.9125C29.7055 56.4934 28.6017 56.842 27.4399 56.842C26.888 56.842 26.307 56.7549 25.7842 56.6096C26.7718 60.1243 25.2614 62.3318 23.5476 64.7426C22.4439 66.3402 21.253 68.083 20.9044 70.3196C20.8173 70.9296 20.2654 71.3362 19.6554 71.2491C19.0745 71.1329 18.6678 70.581 18.755 70.0001C19.1906 67.2406 20.5268 65.2945 21.7758 63.5227C23.2281 61.4313 24.5062 59.5724 23.5767 56.7839C23.5476 56.6968 23.5186 56.5806 23.5186 56.4934L17.8255 62.0704C17.7674 62.1285 17.7383 62.1575 17.6802 62.1866C17.1864 62.5351 16.5184 62.4189 16.1698 61.9251L7.04922 48.9414V48.9123C6.67161 48.4476 6.75875 47.7505 7.25254 47.4019L11.4933 44.1777L11.5224 44.1487C12.0162 43.8001 12.6842 43.9163 13.0328 44.4101L16.8669 49.987L19.5392 39.0365C19.6263 38.6299 19.8878 38.3103 20.2944 38.1651L28.1951 35.6671H28.2241H28.2532H28.2822L28.3112 35.6381H28.3403H28.3693H28.3984H28.4274H28.4565H28.4855L28.5146 35.609H28.5436H28.5727V35.6381H28.6017H28.6308H28.6598H28.6889H28.7179H28.7469H28.776L28.805 35.6671H28.8341H28.8631H28.8922V35.6962H28.9212H28.9503L28.9793 35.7252H29.0084L29.0374 35.7543H29.0665L29.0955 35.7833H29.1245V35.8123H29.1536L29.1826 35.8414H29.2117V35.8704H29.2407L29.2698 35.8995V35.9285H29.2988L29.3279 35.9576L29.3569 35.9866V36.0157H29.386V36.0447H29.415V36.0738L29.4441 36.1028V36.1319H29.4731V36.1609L29.5022 36.19V36.219V36.248L29.5312 36.2771L32.8425 43.6549L36.1828 36.2771ZM38.2742 45.2525C37.6642 45.2525 37.1704 44.7587 37.1704 44.1777C37.1704 43.5678 37.6642 43.074 38.2742 43.074H41.1788C41.7888 43.074 42.2826 43.5678 42.2826 44.1777C42.2826 44.7587 41.7888 45.2525 41.1788 45.2525H38.2742ZM32.8425 52.3979C32.9587 52.2236 33.1039 52.0784 33.2782 51.9912C33.8301 51.7298 34.4691 51.9622 34.7596 52.485C35.0791 53.1531 35.5729 53.705 36.1828 54.0826C36.7928 54.4311 37.519 54.6635 38.2451 54.6635C39.3489 54.6635 40.3074 54.2278 41.0336 53.5017C41.7307 52.8045 42.1664 51.817 42.1664 50.7422C42.1664 50.2194 42.0793 49.7256 41.876 49.2609C41.7017 48.7961 41.4112 48.3604 41.0627 47.9828C40.656 47.5762 40.656 46.8791 41.0917 46.4724C41.5274 46.0367 42.1955 46.0658 42.6312 46.4724C43.183 47.0533 43.6187 47.7214 43.9092 48.4476C44.1997 49.1737 44.3449 49.9289 44.3449 50.7422C44.3449 52.1655 43.8511 53.5017 43.0088 54.5473C43.2121 54.5764 43.4445 54.6926 43.6187 54.8668L48.4986 59.6305L56.3121 48.5057L53.8141 46.5886L49.2538 53.2112C49.0795 53.4436 48.8762 53.5888 48.6147 53.6469C48.0338 53.7921 47.4238 53.4436 47.2786 52.8626L44.1706 40.0531L37.7514 38.0489L37.0833 39.5303L33.8301 46.7338C33.772 46.8791 33.7139 46.9662 33.6268 47.0824H33.5977C33.5687 47.1114 33.5687 47.1405 33.5396 47.1405H33.5106V47.1695L33.4815 47.1986H33.4525L33.4234 47.2276H33.3944V47.2567H33.3653H33.3363V47.2857H33.3072H33.2782V47.3148H33.2491H33.2201L33.1911 47.3438H33.162H33.133H33.1039L33.0749 47.3728H33.0458H33.0168H32.9877H32.9587H32.9296H32.9006H32.8715H32.8425H32.8134H32.7844H32.7554H32.7263H32.6973H32.6682H32.6392H32.6101L32.5811 47.3438H32.552H32.523H32.4939V47.3148H32.4649H32.4358L32.4068 47.2857H32.3778L32.3487 47.2567H32.3197L32.2906 47.2276H32.2616V47.1986H32.2325L32.1744 47.1695V47.1405C32.1454 47.1405 32.1163 47.1114 32.1163 47.0824H32.0873C32.0001 46.9662 31.913 46.8791 31.8549 46.7338L28.6017 39.5303L27.9336 38.0489L21.5434 40.0531L18.4064 52.8626C18.2612 53.4436 17.6802 53.7921 17.0993 53.6469C16.8379 53.5888 16.6055 53.4436 16.4603 53.2112L11.9 46.5886L9.40198 48.5057L17.2155 59.6305L22.0953 54.8668C22.2696 54.6926 22.4729 54.5764 22.7053 54.5473C21.8629 53.5017 21.3401 52.1655 21.3401 50.7422C21.3401 49.9289 21.5144 49.1737 21.8048 48.4476C22.0953 47.7214 22.531 47.0533 23.0829 46.4724C23.4895 46.0658 24.1866 46.0367 24.6223 46.4724C25.058 46.8791 25.058 47.5762 24.6514 47.9828C24.2738 48.3604 24.0124 48.7961 23.809 49.2609C23.6348 49.7256 23.5186 50.2194 23.5186 50.7422C23.5186 51.7879 23.9543 52.7464 24.6223 53.4436L24.6804 53.5017C25.3776 54.1988 26.3651 54.6635 27.4399 54.6635C28.1951 54.6635 28.9212 54.4311 29.5022 54.0826C30.1121 53.705 30.635 53.1531 30.9545 52.485C31.2159 51.9622 31.884 51.7298 32.4068 51.9912C32.6101 52.0784 32.7554 52.2236 32.8425 52.3979ZM41.8179 16.5836C41.8179 23.7 41.8179 25.5589 41.8179 31.5135L46.2039 28.2603C46.7848 25.6461 47.1334 22.7414 47.1334 19.8368C47.1334 15.8865 46.4653 11.9942 44.7806 8.88625C43.125 5.83637 40.4527 3.51265 36.4152 2.61221C34.0334 2.06033 31.0997 2.03128 28.6889 2.52507C24.4771 3.39647 21.7177 5.86542 20.062 9.06053C18.3193 12.3718 17.6802 16.4964 17.6802 20.4758C17.6802 23.2352 17.9997 25.9075 18.4354 28.2603L22.6762 31.4844C22.6762 25.7332 22.6762 23.3514 22.6762 16.5836C22.6762 16.0026 23.141 15.5089 23.7509 15.5089H32.8134L36.8219 11.1809C37.2285 10.7452 37.8966 10.7162 38.3613 11.1519C38.5647 11.3262 38.6808 11.5876 38.6808 11.849L39.1456 15.5089H40.7431C41.3241 15.5089 41.8179 16.0026 41.8179 16.5836ZM39.6394 33.692V31.8911C38.8551 32.5301 38.0128 33.0529 37.1414 33.4305C33.4525 35.1152 29.1536 34.7086 25.7842 32.472C25.4647 32.2687 25.1452 32.0073 24.8547 31.7749V33.692H24.8257C24.8257 33.9243 24.7676 34.1567 24.6223 34.331C24.2447 34.8248 23.5767 34.9119 23.0829 34.5343L16.8088 29.7416V29.7126C16.6055 29.5674 16.4603 29.335 16.4022 29.0736C15.8794 26.5175 15.5017 23.5257 15.5017 20.4758C15.5017 16.1769 16.2279 11.7328 18.1159 8.07295C20.0911 4.29691 23.2862 1.42131 28.2532 0.404678C31.0126 -0.176252 34.1786 -0.118159 36.88 0.491817C41.6145 1.53749 44.7516 4.26786 46.6686 7.84058C48.5566 11.3262 49.3119 15.5669 49.3119 19.8368C49.3119 23.0319 48.9052 26.227 48.2371 29.1026C48.179 29.364 48.0629 29.5964 47.8305 29.7416L41.4403 34.5053C41.266 34.6795 41.0046 34.7667 40.7431 34.7667C40.1332 34.7667 39.6394 34.2729 39.6394 33.692ZM39.6394 28.9283V17.6873H38.2161C37.6642 17.6873 37.1995 17.2807 37.1414 16.7288L36.8219 14.376L34.1205 17.2807C33.9172 17.5131 33.6268 17.6873 33.2782 17.6873H24.8547V28.754C25.4937 29.5093 26.2199 30.1483 27.0042 30.6711C29.7345 32.501 33.2491 32.8206 36.2409 31.4554C37.4609 30.9035 38.5937 30.0611 39.6103 28.9574L39.6394 28.9283ZM35.0791 27.476C35.0791 26.7208 34.4401 26.0818 33.6848 26.0818H30.9835C30.1993 26.0818 29.5893 26.7208 29.5893 27.476C29.5893 28.9864 30.8092 30.2354 32.3197 30.2354C33.8301 30.2354 35.0791 28.9864 35.0791 27.476ZM27.2656 19.5463C26.3942 19.5463 25.6971 20.2434 25.6971 21.0858C25.6971 21.9572 26.3942 22.6543 27.2656 22.6543C28.1079 22.6543 28.805 21.9572 28.805 21.0858C28.805 20.2434 28.1079 19.5463 27.2656 19.5463Z" fill="#3E3E51"/>
</svg>
