<svg width="65" height="67" viewBox="0 0 65 67" fill="none" xmlns="http://www.w3.org/2000/svg">
<path fill-rule="evenodd" clip-rule="evenodd" d="M56.891 59.7292C58.9537 62.4311 56.2228 64.9877 53.8405 63.3899L45.7349 55.3714L49.1631 52.0013C49.5117 52.3499 56.7458 59.4097 56.891 59.7292ZM18.1932 6.94106V2.00215C18.1932 1.85689 18.077 1.71163 17.9027 1.71163H12.6442C12.4699 1.71163 12.3247 1.85689 12.3247 2.00215V9.67198L1.25569 14.8143C0.180754 15.3081 -0.313137 16.6155 0.209806 17.6904C0.703697 18.7944 2.01105 19.2593 3.08599 18.7654L33.6201 4.58781L61.6266 18.7363C62.7015 19.2593 64.0089 18.8525 64.5608 17.7776C65.1128 16.7027 64.6771 15.3953 63.6021 14.8433L34.695 0.259006C34.1139 -0.0605704 33.3876 -0.0896228 32.7485 0.200901L18.1932 6.94106ZM12.2375 35.0928H15.4623C15.9562 32.5072 17.0311 30.0377 18.629 27.9459H12.4409C13.2834 28.8756 13.7773 30.0958 13.7773 31.4032C13.7773 32.8267 13.1962 34.105 12.2665 35.0347L12.2375 35.0928ZM6.1946 26.9291C6.16555 26.7838 6.13649 26.6386 6.13649 26.4933C6.13649 26.4643 6.13649 26.4352 6.13649 26.4062C5.72976 26.1737 5.35208 25.8832 5.0325 25.5636C5.00345 25.5346 4.9744 25.5055 4.94535 25.4765C4.07377 24.5468 3.52178 23.2976 3.52178 21.9321C3.52178 20.5085 4.10283 19.2302 5.0325 18.3005C5.06155 18.2715 5.09061 18.2424 5.11966 18.2134C6.04934 17.3418 7.26954 16.7898 8.66405 16.7898C10.0586 16.7898 11.3369 17.3709 12.2665 18.3005C13.1962 19.2302 13.7773 20.5085 13.7773 21.9321C13.7773 23.0942 13.3705 24.1982 12.7023 25.0407H18.3385C18.4838 25.0407 18.629 25.0697 18.7452 25.0988C18.8614 25.0697 19.0067 25.0407 19.152 25.0407H21.4471C24.3814 22.6584 28.1582 21.2058 32.2546 21.2058C36.351 21.2058 40.0987 22.6584 43.033 25.0407H52.0683C51.4001 24.1982 51.0224 23.0942 51.0224 21.9321C51.0224 20.5085 51.6035 19.2302 52.5332 18.3005C52.5622 18.2715 52.5913 18.2424 52.6203 18.2134C53.5209 17.3418 54.7702 16.7898 56.1357 16.7898C57.5592 16.7898 58.8375 17.3709 59.7672 18.3005C60.6969 19.2302 61.2779 20.5085 61.2779 21.9321C61.2779 23.3557 60.6969 24.634 59.7672 25.5636C59.3024 26.0285 58.7213 26.4062 58.1112 26.6676C58.7213 26.9291 59.3024 27.3068 59.7672 27.8007C60.6969 28.7304 61.2779 30.0087 61.2779 31.4032C61.2779 32.8267 60.6969 34.105 59.7672 35.0347C59.3024 35.5286 58.7213 35.9063 58.1112 36.1678C58.7213 36.4292 59.3024 36.8069 59.7672 37.2718C60.6969 38.2014 61.2779 39.4797 61.2779 40.9033C61.2779 42.2978 60.6969 43.5761 59.7672 44.5058V44.5349C58.8375 45.4645 57.5592 46.0165 56.1357 46.0165C56.0775 46.0165 55.9904 46.0165 55.9323 46.0165H47.449C47.1585 46.5685 46.8679 47.0915 46.5484 47.5854L48.3787 49.3575L49.1631 48.6022L58.9828 58.3057C60.4645 60.2231 60.5807 62.896 58.6051 64.8715C56.5424 66.9052 53.7824 66.4694 52.0683 65.2202L42.3648 55.4004L43.1202 54.6451L41.2899 52.7276C39.8373 53.6283 38.2394 54.3546 36.5253 54.7903H36.4962C35.799 54.9937 35.0727 55.1099 34.3464 55.1971C33.6491 55.2842 32.9518 55.3133 32.2546 55.3133C31.1506 55.3133 30.0757 55.2261 29.0588 55.0228C23.8584 54.0931 19.3553 50.8973 16.944 46.0165H9.12889C9.09984 46.0165 9.04173 46.0165 9.01268 46.0165C8.89647 46.0165 8.78026 46.0165 8.66405 46.0165C7.24048 46.0165 5.96218 45.4645 5.0325 44.5349C4.10283 43.6052 3.52178 42.3269 3.52178 40.9033C3.52178 39.4797 4.10283 38.2014 5.0325 37.2718C5.06155 37.2427 5.09061 37.2136 5.11966 37.1846C5.5845 36.7488 6.10744 36.4002 6.68849 36.1678C6.07839 35.9063 5.49734 35.5286 5.0325 35.0347C4.10283 34.105 3.52178 32.8267 3.52178 31.4032C3.52178 30.0087 4.10283 28.7304 5.0325 27.8007C5.06155 27.7716 5.09061 27.7426 5.11966 27.7135C5.43924 27.3939 5.78786 27.1325 6.1946 26.9291ZM15.1718 37.9981H12.8766C13.4577 38.8115 13.7773 39.8284 13.7773 40.9033C13.7773 41.6877 13.603 42.4431 13.2543 43.1403H15.84C15.4333 41.6877 15.2008 40.206 15.1718 38.7534C15.1427 38.492 15.1427 38.2595 15.1718 37.9981ZM48.6111 43.1403H51.5163C51.1967 42.4431 51.0224 41.6877 51.0224 40.9033C51.0224 39.8284 51.342 38.8115 51.9231 37.9981H49.3083V38.2595C49.3083 39.9446 49.0469 41.6006 48.6111 43.1403ZM49.0178 35.0928H52.5622L52.5332 35.0347C51.6035 34.105 51.0224 32.8267 51.0224 31.4032C51.0224 30.0958 51.5163 28.8756 52.3588 27.9459H45.8511C47.3909 30.0087 48.5239 32.4491 49.0178 35.0928ZM44.9795 11.4442C45.5896 11.4442 46.0545 11.9381 46.0545 12.5191C46.0545 13.1292 45.5896 13.6231 44.9795 13.6231H20.3141C19.733 13.6231 19.2391 13.1292 19.2391 12.5191C19.2391 11.9381 19.733 11.4442 20.3141 11.4442H44.9795ZM49.3955 18.3877C50.0056 18.3877 50.4704 18.8816 50.4704 19.4917C50.4704 20.0727 50.0056 20.5666 49.3955 20.5666H15.8981C15.317 20.5666 14.8232 20.0727 14.8232 19.4917C14.8232 18.8816 15.317 18.3877 15.8981 18.3877H49.3955ZM57.7045 39.3345C57.3268 38.9277 56.7458 38.6663 56.1357 38.6663C55.5546 38.6663 55.0317 38.8987 54.6249 39.2764L54.5668 39.3345C54.1601 39.7412 53.9277 40.2932 53.9277 40.9033C53.9277 41.5134 54.1601 42.0654 54.5668 42.4721C54.9736 42.8789 55.5256 43.1113 56.1357 43.1113C56.7458 43.1113 57.3268 42.8789 57.7045 42.4721H57.7335C58.1112 42.0654 58.3727 41.5134 58.3727 40.9033C58.3727 40.2932 58.1112 39.7412 57.7045 39.3345ZM57.7045 29.8343C57.3268 29.4276 56.7458 29.1952 56.1357 29.1952C55.5546 29.1952 55.0317 29.4276 54.6249 29.7762L54.5668 29.8343C54.1601 30.2411 53.9277 30.7931 53.9277 31.4032C53.9277 32.0423 54.1601 32.5943 54.5668 32.972V33.0011C54.9736 33.3787 55.5256 33.6402 56.1357 33.6402C56.7458 33.6402 57.3268 33.3787 57.7045 32.972L57.7335 33.0011C58.1112 32.5943 58.3727 32.0423 58.3727 31.4032C58.3727 30.7931 58.1112 30.2411 57.7045 29.8343ZM57.7045 20.3633C57.3268 19.9565 56.7458 19.6951 56.1357 19.6951C55.5546 19.6951 55.0317 19.9275 54.6249 20.3052L54.5668 20.3633C54.1601 20.77 53.9277 21.322 53.9277 21.9321C53.9277 22.5422 54.1601 23.0942 54.5668 23.5009C54.9736 23.9077 55.5256 24.1401 56.1357 24.1401C56.7458 24.1401 57.3268 23.9077 57.7045 23.5009H57.7335C58.1112 23.0942 58.3727 22.5422 58.3727 21.9321C58.3727 21.322 58.1112 20.77 57.7045 20.3633ZM10.2329 20.3633C9.82615 19.9565 9.27415 19.6951 8.66405 19.6951C8.05395 19.6951 7.53101 19.9275 7.12427 20.3052L7.06617 20.3633C6.68849 20.77 6.42702 21.322 6.42702 21.9321C6.42702 22.5131 6.65944 23.0361 7.00806 23.4428L7.06617 23.5009C7.4729 23.9077 8.0249 24.1401 8.66405 24.1401C9.27415 24.1401 9.82615 23.9077 10.2329 23.5009C10.6396 23.0942 10.872 22.5422 10.872 21.9321C10.872 21.322 10.6396 20.77 10.2329 20.3633ZM10.2329 29.8343C9.82615 29.4276 9.27415 29.1952 8.66405 29.1952C8.05395 29.1952 7.53101 29.4276 7.12427 29.7762L7.06617 29.8343C6.68849 30.2411 6.42702 30.7931 6.42702 31.4032C6.42702 32.0423 6.68849 32.5943 7.06617 32.972C7.4729 33.3787 8.0249 33.6402 8.66405 33.6402C9.27415 33.6402 9.82615 33.3787 10.2329 32.972V33.0011C10.6396 32.5943 10.872 32.0423 10.872 31.4032C10.872 30.7931 10.6396 30.2411 10.2329 29.8343ZM10.2329 39.3345C9.82615 38.9277 9.27415 38.6663 8.66405 38.6663C8.05395 38.6663 7.53101 38.8987 7.12427 39.2764L7.06617 39.3345C6.68849 39.7412 6.42702 40.2932 6.42702 40.9033C6.42702 41.5134 6.68849 42.0654 7.06617 42.4721C7.4729 42.8789 8.0249 43.1113 8.66405 43.1113C9.27415 43.1113 9.82615 42.8789 10.2329 42.4721C10.6396 42.0654 10.872 41.5134 10.872 40.9033C10.872 40.2932 10.6396 39.7412 10.2329 39.3345ZM44.9795 49.619C44.7762 49.8514 44.5438 50.0839 44.3113 50.3163C44.0208 50.6359 43.7012 50.8973 43.3817 51.1879L45.0086 52.7857L46.5484 51.246L44.9795 49.619ZM42.2486 28.2655C39.692 25.7089 36.1476 24.111 32.2546 24.111C28.3325 24.111 24.7881 25.7089 22.2315 28.2655C19.6749 30.8221 18.077 34.3665 18.077 38.2595C18.077 42.1816 19.6749 45.726 22.2315 48.2826C24.7881 50.8392 28.3325 52.4081 32.2546 52.4081C36.1476 52.4081 39.692 50.8392 42.2486 48.2826C44.8052 45.726 46.4031 42.1816 46.4031 38.2595C46.4031 34.3665 44.8052 30.8221 42.2486 28.2655ZM22.6964 38.1143C22.6964 38.9277 22.0282 39.5669 21.2437 39.5669C20.4303 39.5378 19.7911 38.8987 19.7911 38.0852C19.8492 34.6861 21.2728 31.6065 23.5098 29.3986C25.7469 27.1906 28.8555 25.8251 32.2546 25.8251C33.039 25.8251 33.7072 26.4643 33.7072 27.2777C33.7072 28.0621 33.039 28.7304 32.2546 28.7304C29.6399 28.7304 27.2576 29.7762 25.5435 31.4613C23.8294 33.1754 22.7254 35.5286 22.6964 38.1143Z" fill="#3E3E51"/>
</svg>
