<svg width="69" height="66" viewBox="0 0 69 66" fill="none" xmlns="http://www.w3.org/2000/svg">
<path d="M37.2537 50.5603C37.2827 50.6184 37.3118 50.7056 37.3409 50.7637C37.4571 51.0833 37.6604 51.3738 37.8929 51.6062C38.0962 51.8386 38.3286 52.013 38.5901 52.1001C39.1131 52.3325 39.7522 52.3035 40.5366 51.9549C40.5947 51.9258 40.8562 51.8386 41.0886 51.7224C42.3088 51.1704 43.5581 50.5894 45.2141 50.5022C45.1269 50.4441 45.0397 50.4151 44.9526 50.357C44.5749 50.0955 44.2263 49.9212 43.9067 49.805C43.6162 49.6888 43.3256 49.6307 43.0932 49.6016C42.5703 49.5726 41.9602 49.834 41.321 50.0664C40.0137 50.6184 38.7063 51.1704 37.2537 50.5603ZM10.1478 46.4639L15.4063 46.3187C18.3406 46.3768 26.3009 18.5155 27.6664 12.4436C28.015 10.8167 27.3468 9.94509 26.0395 9.4512C24.6159 8.89921 23.2795 10.2356 22.1755 9.85794C20.781 9.36405 20.9553 7.99858 19.1831 7.70806C17.8758 7.91143 17.1204 8.69584 15.9002 8.37627C15.0286 8.1729 14.7672 7.21417 13.6922 7.0108C12.2105 6.51691 10.6708 8.08574 9.88635 7.85332C8.60804 7.50469 8.027 6.69123 6.60343 7.18512C4.94744 7.73711 6.02238 8.43437 4.4245 9.53836C3.29146 10.2937 -0.194829 8.34721 0.00853786 11.9788C0.792952 26.4759 8.37563 43.4716 10.1478 46.4639ZM18.7764 11.7463C20.81 18.1088 15.2901 20.7816 14.7962 21.1303C12.9369 19.0094 14.2442 12.9084 18.7764 11.7463ZM8.14321 23.9483C13.9246 27.3184 11.6004 33.0127 11.4552 33.6228C8.6371 33.2451 5.52849 27.8414 8.14321 23.9483ZM16.3941 34.3491C19.2993 40.392 14.2152 43.7911 13.7503 44.2269C11.6295 42.3676 12.0362 36.1504 16.3941 34.3491ZM9.97351 49.5145C9.65393 49.3111 9.47962 48.9915 9.47962 48.5848C9.47962 48.0037 9.94445 47.5098 10.5546 47.5098H15.2901C15.8711 47.5098 16.365 47.9747 16.365 48.5848C16.365 48.9915 16.1617 49.3401 15.8421 49.5145C16.1326 49.7178 16.336 50.0374 16.336 50.4441C16.336 50.8509 16.1036 51.1995 15.7549 51.3738L17.0042 57.562C17.0913 58.143 16.7137 58.7241 16.1326 58.8403C15.5516 58.9565 14.9705 58.5788 14.8543 57.9687L14.0118 53.727V57.9687C14.0118 58.5497 13.5179 59.0436 12.9369 59.0436C12.3268 59.0436 11.8329 58.5497 11.8329 57.9687V52.8845L10.4674 57.8525C10.3221 58.4335 9.71204 58.7822 9.13099 58.6078C8.54994 58.4626 8.23036 57.8525 8.37563 57.2714L10.0026 51.4029C9.65393 51.1995 9.42151 50.8509 9.42151 50.4441C9.42151 50.0374 9.65393 49.6888 9.97351 49.5145ZM44.3134 6.80744C44.2844 5.7325 44.4877 4.71566 44.8945 3.75694C45.5046 2.44958 46.4924 1.28748 47.8869 0.270648C48.526 -0.19419 49.4266 -0.0489278 49.8915 0.619277C50.3854 1.25843 50.2401 2.15905 49.5719 2.62389C48.6132 3.3502 47.9159 4.10556 47.5382 4.94808C47.2768 5.55818 47.1606 6.25544 47.2187 6.98175C51.2279 7.12701 54.3074 7.88237 56.5735 9.18973C59.3335 10.8167 60.8442 13.1699 61.1929 16.2495V16.3076C61.5124 21.1593 63.9819 25.0523 65.725 27.8123C66.8581 29.6136 67.7587 31.0081 67.7297 32.2573C67.7297 33.6228 66.9743 34.843 65.8122 35.8598C65.9284 35.9179 66.0156 36.0051 66.1318 36.0922C67.1196 36.9929 67.933 38.7651 68.3688 40.8278C68.7755 42.7743 68.8918 45.0404 68.6012 47.1322C68.1654 50.5894 66.5966 53.6108 63.459 54.3081C63.0232 55.0925 62.5874 55.8188 62.1225 56.5161C61.4834 57.4458 60.8152 58.2883 60.1179 59.0727C58.1714 61.1935 55.9634 62.7914 53.6102 63.8663C47.7707 66.5101 40.9434 65.9 35.6268 62.3266C32.8668 60.4672 30.3973 57.7944 28.538 54.3081C25.3713 53.6108 23.8315 50.5894 23.3667 47.1322C23.1052 45.0404 23.2214 42.7743 23.6281 40.8278C24.0639 38.7651 24.8483 36.9929 25.8652 36.0922C25.9523 36.0051 26.0685 35.9179 26.1847 35.8308C25.0226 34.872 24.2673 33.6809 24.2382 32.2573C24.2382 31.0081 25.1098 29.6136 26.2719 27.8123C27.986 25.0814 30.4554 21.1593 30.775 16.3366C30.775 16.3076 30.775 16.2785 30.775 16.2495C31.1236 13.1699 32.6344 10.8167 35.3943 9.18973C37.428 8.02764 40.1299 7.30133 43.5581 7.03986C43.7905 6.9527 44.052 6.89459 44.3134 6.80744ZM55.9344 25.6043C55.9634 26.4178 55.3533 27.086 54.5689 27.1151C53.7555 27.1732 53.0872 26.5631 53.0291 25.7496C53.0291 25.6334 53.0291 25.4591 53.0001 25.2848V25.2557C52.971 24.9071 52.971 24.7618 53.0001 24.0646C53.0582 23.2511 53.7264 22.641 54.5399 22.6991C55.3243 22.7281 55.9344 23.4254 55.9053 24.2098C55.8763 24.7037 55.8763 24.8199 55.9053 25.0523V25.0814C55.9053 25.1685 55.9053 25.2848 55.9344 25.6043ZM56.0506 20.7526C55.9634 21.566 55.2371 22.118 54.4237 22.0309C53.6392 21.9147 53.0872 21.1884 53.1744 20.404C53.2325 20.0263 53.2616 19.7067 53.3197 19.4452C53.3778 19.1256 53.4359 18.8351 53.494 18.5155C53.8136 16.5109 53.4359 14.7387 52.1866 13.2861C51.0536 11.9497 49.2233 10.7876 46.6086 9.85794C46.4052 9.85794 46.2018 9.85794 45.9985 9.85794C45.3593 9.85794 44.7492 9.88699 44.1682 9.91604C41.6406 10.8457 39.8684 11.9788 38.7354 13.2861C37.5152 14.7387 37.1375 16.5109 37.4571 18.5155C38.7063 24.3551 37.3409 29.3521 36.3531 32.8674C35.9173 34.5525 35.5687 35.8308 35.6849 36.3247C35.8882 36.9638 36.4983 37.4868 37.5442 37.9225C37.98 38.0969 38.4739 38.2712 39.0259 38.3874C40.8852 38.7651 42.977 38.9103 44.604 38.9394H45.9985C47.4801 38.9103 49.3395 38.8232 51.0536 38.5617C51.9833 38.4164 52.7386 38.184 53.4068 37.9225C54.4527 37.4868 55.0628 36.9638 55.2662 36.3247C55.3824 35.8308 55.0338 34.5525 54.5689 32.8674L54.4818 32.5479C54.2784 31.7925 54.7432 30.979 55.4986 30.7757C56.283 30.5723 57.0674 31.0081 57.2708 31.7925L57.387 32.1121C57.8518 33.8262 58.2295 35.2207 58.1714 36.3537C59.595 36.0051 61.1929 35.395 62.5583 34.6106C63.8657 33.8552 64.8244 33.0127 64.8535 32.2573C64.8535 31.8506 64.1562 30.7757 63.2556 29.3521C61.3672 26.3597 58.6944 22.118 58.3167 16.54C58.0843 14.4482 57.0384 12.8213 55.1209 11.7173C54.8594 11.543 54.598 11.3977 54.2784 11.2815L54.3946 11.4268C56.2249 13.5766 56.835 16.1042 56.3702 18.9804C56.3411 19.0385 56.3411 19.0966 56.3411 19.1256C56.283 19.4162 56.2249 19.6776 56.1668 19.9391C56.1087 20.2877 56.0796 20.5492 56.0506 20.7526ZM51.5184 41.4379C50.4435 41.6413 49.2523 41.7575 47.945 41.8446C47.8578 41.8446 47.7997 41.8446 47.7416 41.8446H43.2094H43.1223C41.6406 41.7575 40.3042 41.6122 39.1421 41.3798C39.1712 41.525 39.1712 41.6703 39.1712 41.7865C39.1712 43.4716 37.8057 44.808 36.1497 44.808C34.4937 44.808 33.1573 43.4716 33.1573 41.7865C33.1573 40.944 33.5059 40.1596 34.116 39.6076C33.9708 39.4914 33.8255 39.3752 33.7093 39.288C32.5472 38.9684 31.0946 38.5036 29.671 37.8935C29.4677 38.184 29.1481 38.3583 28.7413 38.4164C28.3927 38.4745 28.0441 38.3874 27.7536 38.2131C27.7536 38.2131 27.8117 38.2421 27.7826 38.2712C27.2597 38.736 26.7658 39.9272 26.4753 41.4379C26.1266 43.0648 26.0104 44.9823 26.2428 46.7545C26.5624 49.2239 27.5793 51.3448 29.6129 51.5191C30.1649 51.5772 30.6298 51.9258 30.8331 52.4197C32.4891 55.7317 34.7261 58.2302 37.2537 59.9152C41.7278 62.9367 47.4801 63.4596 52.419 61.2226C54.3946 60.3219 56.3121 58.9565 57.9681 57.1262C58.5782 56.458 59.1592 55.7026 59.7112 54.8891C60.2632 54.0757 60.7571 53.2332 61.1929 52.3325C61.4253 51.8677 61.8901 51.5772 62.384 51.5191C64.3886 51.3448 65.4055 49.2239 65.7541 46.7545C65.9865 44.9823 65.8703 43.0648 65.5217 41.4379C65.2021 39.9272 64.7373 38.736 64.1853 38.2712C64.1853 38.2421 64.2724 38.184 64.2143 38.2131C63.6042 38.5908 62.8198 38.4745 62.355 37.9516C60.7861 38.6489 59.072 39.1427 57.6485 39.4042C58.3748 39.9562 58.8396 40.8278 58.8396 41.7865C58.8396 43.4716 57.4742 44.808 55.8182 44.808C54.1622 44.808 52.8258 43.4716 52.7967 41.7865C52.7967 41.5831 52.8258 41.4088 52.8839 41.2055C52.419 41.2926 51.9833 41.3798 51.5184 41.4379ZM32.7796 35.976C32.8087 34.9011 33.1573 33.6518 33.564 32.1121C34.4647 28.8873 35.743 24.2679 34.6099 19.1256V19.0675C34.2032 16.6271 34.5518 14.4192 35.743 12.5017C34.5518 13.5185 33.8546 14.884 33.6803 16.54C33.3026 22.118 30.6007 26.3597 28.7123 29.3521C27.8117 30.7757 27.1435 31.8506 27.1435 32.2573C27.1435 33.0708 28.2475 33.9133 29.6129 34.6396C30.6007 35.1626 31.7337 35.5984 32.7796 35.976ZM49.2523 56.8647C49.2523 56.1093 48.526 55.4992 47.5963 55.4992H44.3715C43.4709 55.4992 42.7155 56.1093 42.7155 56.8647C42.7155 58.3173 44.1972 59.5085 45.9985 59.5085C47.7997 59.5085 49.2523 58.3173 49.2523 56.8647ZM34.668 51.9258C34.0289 50.4441 33.9417 48.6429 34.5518 47.074C34.668 46.8126 34.8133 46.5802 35.0457 46.4058C35.6849 45.912 36.5855 46.0282 37.0794 46.6673C38.2705 48.2071 39.2293 47.8004 40.217 47.3936C41.1758 47.0159 42.1345 46.6092 43.3547 46.7254C43.8195 46.7835 44.3425 46.8707 44.8945 47.074C45.185 47.1903 45.4465 47.3065 45.737 47.4517C46.0566 47.2484 46.3761 47.074 46.6957 46.9288C47.3639 46.6673 48.0321 46.5511 48.6713 46.6383C49.4848 46.7254 50.2692 46.9578 51.0826 47.1903C52.6805 47.626 54.3365 48.1199 54.9175 46.9288C55.0628 46.4639 55.4695 46.1153 55.9925 46.0282C56.7769 45.8538 57.5323 46.3768 57.6775 47.1612C57.9681 48.6719 57.8518 50.2117 57.358 51.49C57.0384 52.3616 56.5445 53.1169 55.9053 53.727C55.2371 54.3371 54.4237 54.7729 53.4649 54.9763C52.4481 55.1506 51.286 55.0635 50.0367 54.5986C49.9205 54.5405 49.601 54.4243 49.2814 54.279C48.1483 53.8433 46.9572 53.3784 45.766 53.3784C44.4877 53.3784 43.3547 53.8723 42.2798 54.3662C42.1636 54.4243 42.0183 54.4824 41.6987 54.6277C40.1299 55.2959 38.7063 55.2668 37.4861 54.802V54.7729C36.847 54.5115 36.2659 54.1047 35.772 53.6108C35.3072 53.1169 34.9586 52.565 34.668 51.9258ZM46.3471 50.5022C47.8288 50.5894 49.1071 51.1123 50.3563 51.6062C50.5016 51.6643 50.6759 51.7224 51.0536 51.8677C51.7799 52.1582 52.419 52.2163 52.9129 52.1292C53.3197 52.042 53.6683 51.8677 53.9298 51.6062C54.2203 51.3448 54.4237 50.9961 54.598 50.6184C53.2906 50.8218 51.7799 50.386 50.2982 49.9793C49.5719 49.7759 48.8747 49.5726 48.2936 49.4854C48.1774 49.4854 48.0321 49.5145 47.7997 49.6016C47.4801 49.7469 47.0734 49.9793 46.6376 50.3279C46.5505 50.386 46.4343 50.4441 46.3471 50.5022Z" fill="#3E3E51"/>
</svg>
