<svg width="66" height="65" viewBox="0 0 66 65" fill="none" xmlns="http://www.w3.org/2000/svg">
<path d="M46.2482 9.8907C45.9286 9.39681 46.0448 8.7286 46.5678 8.37997C47.0617 8.0604 47.7299 8.17661 48.0495 8.6705C53.2789 16.4565 55.022 25.608 54.441 34.7014C53.7437 45.4508 49.8217 56.084 44.6213 64.0734C44.2726 64.5673 43.6044 64.7126 43.1106 64.393C42.6167 64.0734 42.4714 63.4052 42.791 62.8823C47.817 55.1834 51.5938 44.9279 52.2621 34.5562C52.814 25.9276 51.1871 17.2119 46.2482 9.8907ZM19.6943 17.3572C19.8977 16.8052 20.5368 16.5146 21.0888 16.718C21.6408 16.9504 21.9314 17.5605 21.728 18.1125L18.939 25.579C19.3457 25.579 19.7234 25.5499 20.1011 25.5209C20.3044 25.1432 20.5078 24.6493 20.7402 24.0973C21.6699 22.0636 22.9772 19.1584 24.9819 15.7593C24.1103 15.9045 23.1516 15.9626 22.2509 15.9336C19.491 16.1951 17.8931 15.6721 16.4695 15.2073C15.627 14.9168 14.8426 14.6843 13.971 14.7134C12.7508 14.7715 11.763 15.1201 10.8915 15.4107C9.84557 15.7883 8.88684 16.1079 7.75379 16.0789C8.21863 17.0666 8.82873 18.2868 9.46789 19.5361C10.6009 21.8603 11.8502 24.2426 12.5184 25.4628L13.39 25.4918L11.8502 21.4245C11.6468 20.8725 11.9373 20.2333 12.4893 20.03C13.0413 19.8266 13.6805 20.1171 13.8838 20.6691L15.7432 25.6371C16.0047 25.6371 16.2661 25.6371 16.5276 25.6371H16.6148L19.6943 17.3572ZM29.6593 59.8608C30.037 59.7155 30.3856 59.1926 30.7052 58.4082C31.5768 56.3164 31.9254 52.743 31.6349 48.7047C31.3443 44.6083 30.3856 40.1052 28.5553 36.2122C26.7831 32.4354 24.1974 29.2396 20.6531 27.6708C20.3044 27.6998 19.9267 27.7579 19.5781 27.7579C20.2173 28.6004 20.7983 29.5011 21.3503 30.4017C22.309 31.9705 23.1225 33.6265 23.7617 35.4277C23.965 36.0088 23.6745 36.6189 23.0935 36.8223C22.5415 37.0256 21.9023 36.7351 21.6989 36.1541C21.1179 34.4981 20.3625 32.9583 19.491 31.5347C18.7065 30.2274 17.835 28.9781 16.8472 27.816C16.6438 27.816 16.4405 27.816 16.2371 27.816H16.208C16.0047 27.816 15.8013 27.816 15.5979 27.816C15.1622 28.5133 14.7845 29.7916 14.4939 31.2733C14.0001 33.6846 13.7676 36.4446 13.7676 38.1587C13.7676 38.7688 13.3028 39.2627 12.6927 39.2627C12.1117 39.2627 11.6178 38.7978 11.6178 38.1877C11.5887 36.3574 11.8502 33.3941 12.3441 30.8375C12.6055 29.6754 12.8961 28.6004 13.2447 27.6998C12.867 27.6708 12.4893 27.6417 12.0826 27.6127C9.61315 28.9491 7.63758 31.3895 6.12686 34.3819C3.97698 38.5945 2.75678 43.8239 2.35005 48.5013C1.91426 53.1497 2.26289 57.188 3.22162 59.1054C3.42499 59.5122 3.62836 59.7737 3.80267 59.8608C5.51676 60.7324 7.57948 61.2553 9.78746 61.5749C12.0826 61.9235 14.523 62.0397 16.9343 62.1269C19.2295 62.185 21.5827 62.0688 23.8779 61.6621C25.8825 61.2844 27.858 60.7324 29.6593 59.8608ZM32.7098 59.2507C32.1869 60.529 31.4605 61.4296 30.589 61.8364C28.5844 62.766 26.4345 63.4052 24.2265 63.8119C21.8151 64.2187 19.3166 64.3639 16.8762 64.2768C14.3777 64.1896 11.8502 64.0734 9.49694 63.7248C7.05654 63.3761 4.7614 62.7951 2.81489 61.8073C2.20479 61.4877 1.68184 60.9067 1.27511 60.0642C0.142068 57.7981 -0.264665 53.324 0.171121 48.327C0.635959 43.3881 1.91426 37.8391 4.18035 33.3941C5.74918 30.2855 7.8119 27.6998 10.3976 26.0729C9.67125 24.7655 8.56726 22.6156 7.52137 20.5239C6.33023 18.1416 5.22624 15.8755 4.87761 14.9458C4.7614 14.6843 4.7614 14.3938 4.87761 14.1033C5.11003 13.5513 5.74918 13.2898 6.30117 13.5222C7.87 14.1614 8.94494 13.8128 10.1942 13.377C11.211 12.9993 12.315 12.6216 13.8548 12.5345C15.1622 12.4764 16.0918 12.7959 17.1668 13.1446C18.387 13.5513 19.7815 14.0161 22.1057 13.7837C22.1638 13.7837 22.1928 13.7837 22.2509 13.7837C23.1516 13.8128 24.1393 13.6966 24.9819 13.5513C25.7953 13.406 26.4635 13.2027 26.725 13.0574C27.0736 12.7669 27.5675 12.7378 27.9743 12.9993C28.4681 13.3189 28.6134 13.9871 28.2938 14.51C25.5339 18.7807 23.8488 22.5575 22.7448 24.9979C22.5705 25.3756 22.4252 25.7242 22.28 26.0438C25.9696 27.9322 28.6715 31.3314 30.5309 35.2825C32.4774 39.437 33.4942 44.2306 33.8138 48.5594C34.1334 52.9173 33.6976 56.8684 32.7098 59.2507ZM57.9563 8.99007C59.1475 8.99007 60.1062 9.9488 60.1062 11.14C60.1062 12.3602 59.1475 13.3189 57.9563 13.3189C56.7652 13.3189 55.7774 12.3602 55.7774 11.14C55.7774 9.9488 56.7652 8.99007 57.9563 8.99007ZM57.6949 14.6262C58.886 14.6262 59.8447 15.585 59.8447 16.7761C59.8447 17.9963 58.886 18.955 57.6949 18.955C56.5037 18.955 55.5159 17.9963 55.5159 16.7761C55.5159 15.585 56.5037 14.6262 57.6949 14.6262ZM65.1613 44.463C59.1765 42.6618 55.1382 44.0563 53.1917 48.85C57.7239 51.087 61.7041 49.5472 65.1613 44.463ZM40.2344 18.8969C44.6503 16.3694 48.1076 16.718 50.5189 20.1462C47.3522 22.7609 43.924 22.267 40.2344 18.8969ZM33.6104 31.7671C43.4592 31.4766 49.0372 35.2244 49.996 43.3009C42.239 44.8698 36.8352 40.8896 33.6104 31.7671ZM63.4182 22.7319C58.4212 23.6615 56.0098 26.16 56.4165 30.3436C60.5129 30.2855 62.8081 27.6708 63.4182 22.7319ZM63.6506 34.5562C59.99 35.1663 57.7239 34.0332 56.9685 31.0989C59.7866 30.1112 61.9946 31.3314 63.6506 34.5562ZM47.1779 24.8817C48.369 24.8817 49.3568 25.8405 49.3568 27.0607C49.3568 28.2518 48.369 29.2105 47.1779 29.2105C45.9867 29.2105 45.028 28.2518 45.028 27.0607C45.028 25.8405 45.9867 24.8817 47.1779 24.8817ZM53.4823 11.7501C54.6734 11.7501 55.6321 12.7088 55.6321 13.8999C55.6321 15.1201 54.6734 16.0789 53.4823 16.0789C52.2621 16.0789 51.3033 15.1201 51.3033 13.8999C51.3033 12.7088 52.2621 11.7501 53.4823 11.7501ZM44.3889 7.39219C45.4928 7.88608 45.9867 9.16439 45.5219 10.2393C45.0571 11.3433 43.7788 11.8372 42.6748 11.3724C41.5708 10.9075 41.0769 9.62923 41.5417 8.52524C42.0356 7.42125 43.3139 6.92735 44.3889 7.39219ZM43.1977 0.187201C44.3017 0.652039 44.7956 1.93034 44.3308 3.03433C43.8659 4.10927 42.5876 4.63222 41.4836 4.13833C40.3796 3.67349 39.8857 2.39518 40.3506 1.29119C40.8445 0.216253 42.1228 -0.30669 43.1977 0.187201ZM48.2528 2.71476C49.5892 3.29581 50.1993 4.83558 49.6183 6.14294C49.0372 7.47935 47.4975 8.08945 46.1611 7.5084C44.8246 6.92735 44.2145 5.38758 44.7956 4.05117C45.3766 2.74381 46.9164 2.13371 48.2528 2.71476Z" fill="#3E3E51"/>
</svg>
