<svg width="27" height="24" viewBox="0 0 27 24" fill="none" xmlns="http://www.w3.org/2000/svg">
<path d="M18.6664 11.8767L18.6677 11.8768C19.4785 11.9504 20.3153 11.5936 21.1002 10.8654C21.862 10.1587 22.564 9.1113 23.127 7.8067C22.5434 7.42185 22.1519 6.76558 22.1519 6.01324C22.1519 4.82448 23.1185 3.85792 24.3072 3.85792C25.496 3.85792 26.4625 4.82448 26.4625 6.01324C26.4625 7.0813 25.6789 7.96035 24.6589 8.13011L22.5529 19.0879C22.6823 19.1756 22.792 19.311 22.8839 19.4596C23.0033 19.6526 23.1057 19.8892 23.1891 20.1332C23.3551 20.619 23.4545 21.1604 23.4545 21.4929C23.4545 22.4049 22.7126 23.1469 21.8006 23.1469H5.75805C4.84601 23.1469 4.10406 22.4049 4.10406 21.4929C4.10406 21.1604 4.20355 20.619 4.36956 20.1332C4.45294 19.8892 4.55531 19.6526 4.6747 19.4596C4.76664 19.311 4.87633 19.1756 5.00573 19.0879L2.89972 8.13007C1.87966 7.96035 1.09609 7.08129 1.09609 6.01324C1.09609 4.82449 2.06265 3.85792 3.25131 3.85797L18.6664 11.8767ZM18.6664 11.8767C17.7863 11.8049 16.9684 11.2477 16.259 10.2288M18.6664 11.8767L16.259 10.2288M4.76529 10.932L6.29605 18.8978H21.2626L22.7944 10.9267C21.6574 12.3531 20.2885 13.1869 18.8619 13.1879H18.8618C18.7613 13.1879 18.6609 13.1837 18.5605 13.1753M4.76529 10.932L13.8581 7.81266C13.8323 7.8931 13.806 7.97275 13.7793 8.05161M4.76529 10.932C5.98117 12.458 7.46314 13.3065 8.99818 13.1753M4.76529 10.932L8.99818 13.1753M18.5605 13.1753L18.573 13.0258L18.5608 13.1753C18.5607 13.1753 18.5606 13.1753 18.5605 13.1753ZM18.5605 13.1753C16.4901 13.0057 14.8221 11.1337 13.7793 8.05161M13.7793 8.05161C12.7365 11.1336 11.0685 13.0057 8.99818 13.1753M13.7793 8.05161L8.99818 13.1753M16.259 10.2288C15.5675 9.23548 14.99 7.81734 14.5712 6.03342M16.259 10.2288L14.5712 6.03342M14.5712 6.03342C15.6483 5.69617 16.4359 4.69544 16.4359 3.50664C16.4359 2.04109 15.2437 0.85 13.7793 0.85C12.3148 0.85 11.1226 2.04109 11.1226 3.50664C11.1226 4.69548 11.9102 5.69622 12.9873 6.03343C12.5685 7.81737 11.991 9.23551 11.2995 10.2288C10.5902 11.2477 9.77237 11.8048 8.89234 11.8767C8.0846 11.9414 7.24738 11.5835 6.46151 10.8572C5.69891 10.1524 4.9951 9.10934 4.43159 7.80582C5.01521 7.42172 5.40662 6.76546 5.40662 6.01328C5.40662 4.82453 4.44006 3.85797 3.25132 3.85797L14.5712 6.03342ZM3.25141 6.86589C2.78171 6.86589 2.39875 6.48376 2.39875 6.01324C2.39875 5.54271 2.78171 5.16058 3.25141 5.16058C3.72111 5.16058 4.10406 5.54271 4.10406 6.01324C4.10406 6.48377 3.72115 6.86589 3.25141 6.86589ZM12.4253 3.50659C12.4253 2.76024 13.0329 2.15261 13.7793 2.15261C14.5257 2.15261 15.1333 2.76024 15.1333 3.50659C15.1333 4.25295 14.5257 4.86058 13.7793 4.86058C13.0329 4.86058 12.4253 4.25295 12.4253 3.50659ZM5.75805 21.8442C5.56437 21.8442 5.40672 21.686 5.40672 21.4929C5.40672 21.3746 5.45896 21.0289 5.54813 20.7085C5.5924 20.5493 5.64303 20.4068 5.69565 20.307C5.72218 20.2567 5.74534 20.2249 5.76283 20.2075C5.76601 20.2043 5.76857 20.202 5.77052 20.2004H5.79473H5.83134H5.86789H5.90438H5.94081H5.97718H6.01348H6.04973H6.08591H6.12203H6.15809H6.19409H6.23003H6.26591H6.30173H6.3375H6.3732H6.40884H6.44443H6.47996H6.51543H6.55084H6.58619H6.62149H6.65673H6.69191H6.72704H6.7621H6.79712H6.83208H6.86698H6.90182H6.93662H6.97135H7.00603H7.04066H7.07523H7.10975H7.14422H7.17863H7.21299H7.2473H7.28155H7.31575H7.3499H7.384H7.41805H7.45204H7.48598H7.51987H7.55372H7.58751H7.62125H7.65494H7.68858H7.72217H7.75571H7.78921H7.82265H7.85605H7.88939H7.92269H7.95595H7.98915H8.02231H8.05542H8.08848H8.1215H8.15447H8.1874H8.22027H8.25311H8.2859H8.31864H8.35134H8.38399H8.4166H8.44917H8.48169H8.51417H8.5466H8.57899H8.61134H8.64365H8.67591H8.70814H8.74032H8.77245H8.80455H8.83661H8.86862H8.9006H8.93253H8.96443H8.99628H9.0281H9.05987H9.09161H9.1233H9.15496H9.18658H9.21817H9.24971H9.28122H9.31269H9.34412H9.37551H9.40687H9.43819H9.46948H9.50073H9.53194H9.56312H9.59427H9.62537H9.65645H9.68749H9.71849H9.74946H9.7804H9.81131H9.84218H9.87302H9.90382H9.93459H9.96533H9.99604H10.0267H10.0574H10.088H10.1186H10.1491H10.1796H10.2101H10.2406H10.271H10.3014H10.3318H10.3621H10.3925H10.4227H10.453H10.4832H10.5134H10.5436H10.5738H10.6039H10.634H10.664H10.6941H10.7241H10.7541H10.784H10.814H10.8439H10.8738H10.9036H10.9335H10.9633H10.9931H11.0229H11.0526H11.0823H11.112H11.1417H11.1713H11.201H11.2306H11.2602H11.2897H11.3193H11.3488H11.3783H11.4078H11.4373H11.4667H11.4961H11.5255H11.5549H11.5843H11.6136H11.6429H11.6723H11.7016H11.7308H11.7601H11.7893H11.8185H11.8477H11.8769H11.9061H11.9353H11.9644H11.9935H12.0226H12.0517H12.0808H12.1099H12.1389H12.168H12.197H12.226H12.255H12.284H12.313H12.3419H12.3709H12.3998H12.4287H12.4576H12.4865H12.5154H12.5443H12.5732H12.602H12.6309H12.6597H12.6885H12.7174H12.7462H12.775H12.8038H12.8325H12.8613H12.8901H12.9188H12.9476H12.9763H13.0051H13.0338H13.0625H13.0913H13.12H13.1487H13.1774H13.2061H13.2348H13.2635H13.2921H13.3208H13.3495H13.3782H13.4068H13.4355H13.4642H13.4928H13.5215H13.5501H13.5788H13.6074H13.6361H13.6647H13.6934H13.722H13.7507H13.7793H13.8079H13.8366H13.8652H13.8939H13.9225H13.9512H13.9798H14.0085H14.0371H14.0658H14.0945H14.1231H14.1518H14.1804H14.2091H14.2378H14.2665H14.2952H14.3238H14.3525H14.3812H14.4099H14.4386H14.4674H14.4961H14.5248H14.5535H14.5823H14.611H14.6398H14.6685H14.6973H14.7261H14.7548H14.7836H14.8124H14.8412H14.8701H14.8989H14.9277H14.9566H14.9854H15.0143H15.0432H15.0721H15.101H15.1299H15.1588H15.1877H15.2167H15.2456H15.2746H15.3036H15.3326H15.3616H15.3906H15.4197H15.4487H15.4778H15.5069H15.536H15.5651H15.5942H15.6233H15.6525H15.6817H15.7109H15.7401H15.7693H15.7985H15.8278H15.8571H15.8864H15.9157H15.945H15.9743H16.0037H16.0331H16.0625H16.0919H16.1214H16.1508H16.1803H16.2098H16.2393H16.2689H16.2984H16.328H16.3576H16.3873H16.4169H16.4466H16.4763H16.506H16.5358H16.5655H16.5953H16.6251H16.655H16.6848H16.7147H16.7446H16.7746H16.8045H16.8345H16.8645H16.8946H16.9246H16.9547H16.9849H17.015H17.0452H17.0754H17.1056H17.1359H17.1662H17.1965H17.2268H17.2572H17.2876H17.318H17.3485H17.379H17.4095H17.44H17.4706H17.5012H17.5319H17.5626H17.5933H17.624H17.6548H17.6856H17.7164H17.7473H17.7782H17.8091H17.8401H17.8711H17.9022H17.9332H17.9643H17.9955H18.0267H18.0579H18.0891H18.1204H18.1517H18.1831H18.2145H18.2459H18.2774H18.3089H18.3404H18.372H18.4036H18.4353H18.467H18.4987H18.5305H18.5623H18.5942H18.6261H18.658H18.69H18.722H18.7541H18.7862H18.8183H18.8505H18.8827H18.915H18.9473H18.9796H19.012H19.0444H19.0769H19.1094H19.142H19.1746H19.2073H19.24H19.2727H19.3055H19.3383H19.3712H19.4041H19.4371H19.4701H19.5032H19.5363H19.5695H19.6027H19.6359H19.6692H19.7026H19.736H19.7694H19.8029H19.8364H19.87H19.9037H19.9374H19.9711H20.0049H20.0387H20.0726H20.1066H20.1406H20.1746H20.2087H20.2429H20.2771H20.3113H20.3456H20.38H20.4144H20.4489H20.4834H20.5179H20.5526H20.5873H20.622H20.6568H20.6916H20.7265H20.7615H20.7965H20.8316H20.8667H20.9019H20.9371H20.9724H21.0078H21.0432H21.0787H21.1142H21.1498H21.1854H21.2211H21.2569H21.2927H21.3286H21.3645H21.4005H21.4366H21.4727H21.5089H21.5451H21.5814H21.6178H21.6542H21.6907H21.7273H21.7639H21.7881C21.79 20.202 21.7926 20.2043 21.7958 20.2075C21.8133 20.2249 21.8364 20.2567 21.863 20.307C21.9156 20.4068 21.9662 20.5493 22.0105 20.7085C22.0996 21.0289 22.1519 21.3746 22.1519 21.4929C22.1519 21.686 21.9942 21.8442 21.8006 21.8442H5.75805ZM24.3072 6.86589C23.8375 6.86589 23.4545 6.48376 23.4545 6.01324C23.4545 5.54271 23.8375 5.16058 24.3072 5.16058C24.7769 5.16058 25.1599 5.5427 25.1599 6.01324C25.1599 6.48376 24.7769 6.86589 24.3072 6.86589Z" fill="#FABA17" stroke="#FABA17" stroke-width="0.3"/>
</svg>
