<svg width="28" height="19" viewBox="0 0 28 19" fill="none" xmlns="http://www.w3.org/2000/svg">
<path d="M7.87093 14.9639H20.4338C22.0282 14.9639 23.4897 14.6317 24.5576 13.9333C25.6323 13.2305 26.3023 12.1595 26.3023 10.7123V4.67482C26.3023 4.49943 26.2233 4.33563 26.0901 4.21802C25.9576 4.10094 25.7813 4.03781 25.6009 4.03781H2.7038C2.52336 4.03781 2.34714 4.10094 2.21457 4.21802C2.0814 4.33563 2.00234 4.49943 2.00234 4.67482V10.7123C2.00234 12.1595 2.67241 13.2305 3.74706 13.9333C4.81498 14.6317 6.27649 14.9639 7.87093 14.9639ZM3.40525 10.7123V5.31184H24.8994V10.7123C24.8994 11.7799 24.4125 12.5139 23.6189 12.989C22.8159 13.4697 21.6929 13.6874 20.4338 13.6874H7.87093C6.61175 13.6874 5.48875 13.4697 4.68577 12.989C3.89218 12.5139 3.40525 11.7799 3.40525 10.7123Z" fill="#3E3E51" stroke="#3E3E51" stroke-width="0.3"/>
<path d="M25.9221 5.79555H25.9223C26.3743 5.79506 26.8057 5.60394 27.1224 5.26742C27.4388 4.9312 27.6153 4.47717 27.6158 4.00537V4.00523V2.64033V2.64018C27.6153 2.16838 27.4388 1.71436 27.1224 1.37814C26.8057 1.04161 26.3743 0.850497 25.9223 0.85H25.9221L2.38548 0.85L2.38531 0.85C1.93327 0.850497 1.50186 1.04161 1.18516 1.37814C0.868756 1.71436 0.692256 2.16838 0.691797 2.64018V2.64033L0.691797 4.00523L0.691797 4.00537C0.692256 4.47717 0.868756 4.9312 1.18516 5.26742C1.50186 5.60394 1.93327 5.79506 2.38531 5.79555H2.38548H25.9221ZM2.12743 2.35285C2.19755 2.27834 2.29059 2.23826 2.38559 2.23811C2.38562 2.23811 2.38565 2.23811 2.38567 2.23811H25.9219C25.922 2.23811 25.922 2.23811 25.922 2.23811C26.017 2.23826 26.11 2.27834 26.1802 2.35285C26.2506 2.42768 26.2917 2.53098 26.2918 2.6405V4.00505C26.2917 4.11457 26.2506 4.21787 26.1802 4.29271C26.1101 4.36719 26.017 4.40728 25.9221 4.40744C25.922 4.40744 25.922 4.40744 25.9219 4.40744H2.38567C2.38562 4.40744 2.38557 4.40744 2.38552 4.40744C2.29055 4.40728 2.19753 4.36719 2.12743 4.29271C2.05702 4.21789 2.01595 4.11463 2.0158 4.00515C2.0158 4.00512 2.0158 4.00508 2.0158 4.00505V2.6405C2.0158 2.64047 2.0158 2.64044 2.0158 2.64041C2.01595 2.53092 2.05702 2.42766 2.12743 2.35285Z" fill="#3E3E51" stroke="#3E3E51" stroke-width="0.3"/>
<path d="M18.2505 17.7204L18.2505 17.7204C18.3029 17.8388 18.3865 17.9402 18.4927 18.0118C18.5991 18.0836 18.7234 18.1222 18.851 18.1222C18.851 18.1222 18.851 18.1222 18.851 18.1222H20.419C20.5973 18.1222 20.7663 18.047 20.8896 17.9164C21.0126 17.7861 21.0805 17.6111 21.081 17.4303V17.4298V15.001C21.081 14.8197 21.0134 14.6442 20.8903 14.5135L20.7822 14.6152L20.8903 14.5135C20.7669 14.3824 20.5976 14.3069 20.419 14.3069H17.7758V14.3069L17.7753 14.3069C17.6625 14.3073 17.5521 14.3379 17.4544 14.3952C17.3568 14.4525 17.2753 14.5343 17.2167 14.6323C17.1581 14.7303 17.124 14.8417 17.117 14.9563C17.11 15.0709 17.1301 15.1859 17.176 15.2907L17.176 15.2907L17.1762 15.2912L18.2505 17.7204ZM19.757 15.695V16.7341H19.2728L18.8127 15.695H19.757Z" fill="#3E3E51" stroke="#3E3E51" stroke-width="0.3"/>
<path d="M9.45871 18.1222C9.58623 18.1226 9.71051 18.0844 9.817 18.0131C9.92347 17.9419 10.0074 17.8407 10.0602 17.7226L10.0604 17.7221L11.1347 15.2929L11.1347 15.2928C11.1811 15.1878 11.2016 15.0725 11.1947 14.9575C11.1878 14.8425 11.1537 14.7307 11.095 14.6323C11.0362 14.534 10.9543 14.4519 10.8563 14.3947C10.7582 14.3373 10.6473 14.3069 10.5341 14.3069H10.5341H7.89091C7.71229 14.3069 7.54298 14.3824 7.41963 14.5135C7.29657 14.6442 7.22891 14.8197 7.22891 15.001V17.4281C7.22891 17.6094 7.29657 17.7849 7.41963 17.9156C7.54298 18.0467 7.71229 18.1222 7.89091 18.1222H9.45871ZM9.45871 18.1222C9.45859 18.1222 9.45847 18.1222 9.45836 18.1222L9.45891 17.9722V18.1222H9.45871ZM9.49627 15.695L9.03616 16.7341H8.5528L8.55205 15.695H9.49627Z" fill="#3E3E51" stroke="#3E3E51" stroke-width="0.3"/>
</svg>
