<svg width="43" height="37" viewBox="0 0 43 37" fill="none" xmlns="http://www.w3.org/2000/svg">
<path d="M15.0411 27.7174H36.4787C37.3393 27.7174 38.1013 27.0486 38.1013 26.091C38.1013 25.1368 37.3393 24.4746 36.4787 24.4746H15.4503C14.5531 24.4746 14.0014 23.8374 13.8622 22.8797L10.9117 2.64221C10.701 1.05851 10.0562 0.257446 8.01539 0.257446H1.7008C0.785216 0.257446 0 1.05114 0 1.97668C0 2.91401 0.785216 3.71101 1.7008 3.71101H7.50418L10.3578 23.2547C10.7644 26.0155 12.2384 27.7174 15.0411 27.7174ZM11.8185 20.9727H36.6149C39.4262 20.9727 40.9068 19.2623 41.31 16.4765L42.7004 7.21543C42.7372 6.9661 42.7807 6.65819 42.7807 6.45268C42.7807 5.40303 42.0348 4.66606 40.78 4.66606H10.17L10.1851 7.92735H39.0038L37.8222 16.1449C37.6948 17.1209 37.1798 17.7264 36.2525 17.7264H11.7883L11.8185 20.9727ZM16.5424 36.9223C18.3158 36.9223 19.7312 35.5187 19.7312 33.7303C19.7312 31.9635 18.3158 30.5416 16.5424 30.5416C14.7605 30.5416 13.3352 31.9635 13.3352 33.7303C13.3352 35.5187 14.7605 36.9223 16.5424 36.9223ZM33.5717 36.9223C35.3568 36.9223 36.7755 35.5187 36.7755 33.7303C36.7755 31.9635 35.3568 30.5416 33.5717 30.5416C31.8049 30.5416 30.3677 31.9635 30.3677 33.7303C30.3677 35.5187 31.8049 36.9223 33.5717 36.9223Z" fill="#32BD1B"/>
</svg>
