<svg width="37" height="45" viewBox="0 0 37 45" fill="none" xmlns="http://www.w3.org/2000/svg">
<path d="M17.8791 43.17C24.9624 43.17 29.5557 39.2017 32.6094 31.8767L36.5846 22.2744C37.5953 19.836 36.4838 17.8403 34.8015 17.0074C33.2028 16.2235 31.0858 16.5276 29.8463 18.5945L28.3188 21.3235C28.2645 21.3969 28.2295 21.4478 28.1594 21.4478C28.0666 21.4478 27.9966 21.3777 28.0281 21.2725L30.4581 7.41633C30.9197 4.85233 29.6549 3.02144 27.3693 2.58441C24.9415 2.1474 23.0629 3.32063 22.5193 5.98281L22.025 8.82523L22.4569 8.94652V4.19389C22.4569 1.71422 20.7917 0 18.4166 0C15.9524 0 14.3344 1.7685 14.3344 4.32173V6.69939L15.0063 6.49916L14.7614 5.05254C14.1581 2.82737 12.3072 1.87747 10.3273 2.23248C7.92768 2.64871 6.70863 4.64786 7.07518 7.09404L7.45136 10.0158L8.49983 9.75087C7.80021 7.64545 6.15684 6.93003 4.33866 7.23652C1.82394 7.65468 0.626457 9.48364 0.993789 12.1012L3.47116 29.2049C4.70832 37.8529 9.31267 43.17 17.8791 43.17ZM17.7724 39.938C10.8775 39.938 7.64696 35.9451 6.55844 28.8726L3.8485 11.7053C3.74337 10.9957 4.14459 10.4262 4.82959 10.3053C5.46375 10.2037 6.01938 10.6103 6.18226 11.2637L8.95303 21.8181C9.17327 22.678 9.87906 23.0048 10.566 22.8617C11.2899 22.7342 11.8054 22.0943 11.6972 21.301L9.86135 6.61005C9.77548 5.84957 10.119 5.29935 10.8251 5.17845C11.5313 5.061 12.0938 5.49572 12.2024 6.18958L14.371 20.8012C14.4827 21.5628 15.1623 22.0018 15.9158 21.8986C16.7887 21.7605 17.1918 21.2078 17.1918 20.3969V4.27706C17.1918 3.55163 17.6913 3.03991 18.4166 3.03991C19.1105 3.03991 19.61 3.55163 19.61 4.27706V20.553C19.61 21.3253 20.2375 21.9229 20.9975 21.9229C21.7562 21.9229 22.3256 21.4542 22.4654 20.6992L25.2719 6.58656C25.428 5.76295 26.0097 5.41601 26.6754 5.54039C27.3501 5.64896 27.7444 6.21498 27.6235 6.97199L24.7372 25.2346C24.4764 26.8885 25.416 27.5507 26.3181 27.6026C27.1152 27.6511 27.7732 27.2803 28.3505 26.2489L31.7149 20.127C32.0845 19.4192 32.7504 19.2352 33.2848 19.4613C33.87 19.6716 34.1888 20.2954 33.8647 21.068L29.7477 30.8652C27.0362 37.248 23.3379 39.938 17.7724 39.938Z" fill="#32BD1B"/>
</svg>
