<svg width="45" height="39" viewBox="0 0 45 39" fill="none" xmlns="http://www.w3.org/2000/svg">
<path d="M2.70075 13.2712C5.71415 12.3274 8.83595 11.8402 11.8075 11.8402C15.6316 11.8402 18.4679 12.453 22.1054 12.453C25.9324 12.453 28.3929 9.83592 28.3929 6.3994C28.3929 2.90178 25.7131 0.36676 22.3774 0.36676C19.9729 0.36676 17.82 1.86592 16.8884 3.89537C16.5009 4.67633 16.6565 5.56192 17.453 5.99133C18.213 6.39772 19.1459 6.14703 19.6381 5.2271C20.0872 4.22765 21.157 3.45463 22.3774 3.45463C24.0315 3.45463 25.305 4.60056 25.305 6.3994C25.305 8.20199 24.0583 9.38224 22.1054 9.38224C18.6691 9.38224 15.7722 8.76576 11.8075 8.76576C8.40402 8.76576 4.92481 9.36131 1.76954 10.3336C0.804003 10.6073 0.401384 11.4548 0.637013 12.2717C0.876409 13.1096 1.66868 13.5696 2.70075 13.2712ZM35.5161 23.2945C40.4749 23.2945 44.0068 20.1182 44.0068 15.6924C44.0068 11.3368 40.6574 8.14926 36.4638 8.14926C32.7363 8.14926 29.8606 10.7069 29.2379 14.1108C29.0483 15.0612 29.5258 15.8648 30.3545 16.0372C31.2191 16.2172 32.0243 15.7133 32.2597 14.6507C32.6456 12.6078 34.3983 11.22 36.4638 11.22C38.9377 11.22 40.919 13.0565 40.919 15.6924C40.919 18.3739 38.7933 20.2237 35.5161 20.2237C29.1525 20.2237 22.2036 16.5826 13.8181 16.5826C9.4922 16.5826 5.51661 17.2694 1.76577 18.563C0.817396 18.8995 0.401384 19.7223 0.637013 20.5355C0.880177 21.3771 1.7009 21.8543 2.70829 21.5066C6.15318 20.2278 9.72197 19.6743 13.8181 19.6743C22.1263 19.6743 28.3963 23.2945 35.5161 23.2945ZM22.1263 38.2471C25.4543 38.2471 28.0161 35.7675 28.0161 32.2736C28.0161 27.222 22.8561 24.3995 13.4519 24.3995C9.56711 24.3995 5.35338 25.1452 1.76577 26.3589C0.817396 26.6953 0.401384 27.5182 0.637013 28.3277C0.880177 29.1693 1.7009 29.6502 2.70829 29.3025C6.02429 28.1209 9.7115 27.4873 13.4519 27.4873C20.9125 27.4873 24.9454 29.3387 24.9454 32.2736C24.9454 34.0723 23.7004 35.1764 22.1263 35.1764C20.6086 35.1764 19.657 34.1654 19.3338 32.5393C19.1254 31.6859 18.4248 31.0636 17.4685 31.213C16.4741 31.3625 16.0861 32.2705 16.302 33.2114C16.8106 36.0411 19.0074 38.2471 22.1263 38.2471Z" fill="#32BD1B"/>
</svg>
