<svg width="20" height="22" viewBox="0 0 20 22" fill="none" xmlns="http://www.w3.org/2000/svg">
<path d="M0.700339 16.7564C0.298454 16.3941 0.298454 15.8067 0.700339 15.4444C1.10222 15.082 1.75381 15.082 2.15569 15.4444L4.96584 17.9778L4.96584 8.52613C4.96584 7.95214 5.41467 7.48683 5.96833 7.48683C6.52199 7.48683 6.97082 7.95214 6.97082 8.52613L6.97082 17.9778L9.78093 15.4443C10.1828 15.082 10.8344 15.082 11.2363 15.4443C11.6382 15.8067 11.6382 16.3941 11.2363 16.7564L6.70501 20.8415C6.50327 21.0234 6.23862 21.114 5.97421 21.1133C5.97225 21.1133 5.97029 21.1133 5.96833 21.1133L5.96391 21.1133C5.69901 21.1143 5.43374 21.0238 5.23162 20.8415L0.700339 16.7564Z" fill="#17A300"/>
<path d="M19.346 5.29046C19.7479 5.65278 19.7479 6.24021 19.346 6.60252C18.9442 6.96484 18.2926 6.96484 17.8907 6.60252L15.0805 4.06906L15.0805 13.5207C15.0805 14.0947 14.6317 14.56 14.0781 14.56C13.5244 14.56 13.0756 14.0947 13.0756 13.5207L13.0756 4.06911L10.2655 6.60254C9.86357 6.96485 9.21198 6.96485 8.8101 6.60254C8.40821 6.24022 8.40821 5.65279 8.8101 5.29048L13.3414 1.20534C13.5431 1.02347 13.8078 0.932894 14.0722 0.933611C14.0741 0.9336 14.0761 0.933594 14.0781 0.933594L14.0825 0.933604C14.3474 0.93254 14.6127 1.02312 14.8148 1.20533L19.346 5.29046Z" fill="#17A300"/>
</svg>
