<svg width="136" height="136" viewBox="0 0 136 136" fill="none" xmlns="http://www.w3.org/2000/svg">
<path d="M21.4837 116.669V110.334H61.6042V106.111H10.9256C10.3656 106.111 9.82851 105.889 9.43251 105.493C9.03651 105.097 8.81403 104.559 8.81403 103.999V25.87H105.948V61.7673H110.171V36.428H118.618V57.5441H122.841V23.7584C122.841 22.0783 122.173 20.467 120.985 19.279C119.797 18.091 118.186 17.4235 116.506 17.4235H110.171V11.0887C110.171 9.40863 109.504 7.79734 108.316 6.60933C107.128 5.42132 105.516 4.75391 103.836 4.75391H10.9256C9.24554 4.75391 7.63426 5.42132 6.44625 6.60933C5.25824 7.79734 4.59082 9.40863 4.59082 11.0887V103.999C4.59082 105.68 5.25824 107.291 6.44625 108.479C7.63426 109.667 9.24554 110.334 10.9256 110.334H17.2605V116.669C17.2605 118.349 17.9279 119.96 19.1159 121.148C20.3039 122.336 21.9152 123.004 23.5953 123.004H76.3855V118.781H23.5953C23.0353 118.781 22.4982 118.558 22.1022 118.162C21.7062 117.766 21.4837 117.229 21.4837 116.669ZM116.506 21.6468C117.066 21.6468 117.603 21.8692 117.999 22.2652C118.395 22.6612 118.618 23.1983 118.618 23.7584V32.2048H110.171V21.6468H116.506ZM10.9256 8.97712H103.836C104.396 8.97712 104.933 9.19959 105.329 9.5956C105.725 9.9916 105.948 10.5287 105.948 11.0887V21.6468H8.81403V11.0887C8.81403 10.5287 9.03651 9.9916 9.43251 9.5956C9.82851 9.19959 10.3656 8.97712 10.9256 8.97712ZM118.618 116.669C118.618 117.229 118.395 117.766 117.999 118.162C117.603 118.558 117.066 118.781 116.506 118.781H103.836V123.004H116.506C118.186 123.004 119.797 122.336 120.985 121.148C122.173 119.96 122.841 118.349 122.841 116.669V108.223H118.618V116.669Z" fill="#CCD2E6"/>
<path d="M17.2607 13.2004H21.484V17.4237H17.2607V13.2004ZM25.7072 13.2004H29.9304V17.4237H25.7072V13.2004ZM34.1536 13.2004H38.3768V17.4237H34.1536V13.2004ZM44.7116 59.6558C45.2717 59.6558 45.8088 59.4333 46.2048 59.0373C46.6008 58.6413 46.8232 58.1042 46.8232 57.5442V36.4281C46.8232 35.8681 46.6008 35.331 46.2048 34.935C45.8088 34.539 45.2717 34.3165 44.7116 34.3165H19.3723C18.8123 34.3165 18.2752 34.539 17.8792 34.935C17.4832 35.331 17.2607 35.8681 17.2607 36.4281V57.5442C17.2607 58.1042 17.4832 58.6413 17.8792 59.0373C18.2752 59.4333 18.8123 59.6558 19.3723 59.6558H44.7116ZM21.484 38.5397H42.6V55.4326H21.484V38.5397ZM55.2697 34.3165H59.4929V38.5397H55.2697V34.3165ZM63.7161 34.3165H67.9393V38.5397H63.7161V34.3165ZM72.1625 34.3165H89.0554V38.5397H72.1625V34.3165ZM55.2697 42.7629H89.0554V46.9861H55.2697V42.7629ZM55.2697 51.2094H89.0554V55.4326H55.2697V51.2094ZM55.2697 59.6558H89.0554V63.879H55.2697V59.6558ZM17.2607 68.1022H55.2697V72.3254H17.2607V68.1022ZM17.2607 76.5486H55.2697V80.7719H17.2607V76.5486ZM17.2607 84.9951H55.2697V89.2183H17.2607V84.9951ZM17.2607 93.4415H55.2697V97.6647H17.2607V93.4415ZM92.8668 107.093L108.841 104.791C109.816 105.817 111.108 106.485 112.508 106.686C113.909 106.888 115.336 106.613 116.561 105.904C118.016 105.063 119.077 103.679 119.513 102.056C119.948 100.433 119.722 98.7031 118.884 97.2466L113.605 88.1034C115.061 87.2633 116.124 85.8792 116.559 84.2556C116.995 82.632 116.768 80.9019 115.928 79.4458C115.088 77.9897 113.704 76.9269 112.08 76.4913C110.456 76.0557 108.726 76.283 107.27 77.123L101.991 67.9797C101.208 66.6583 99.9716 65.6663 98.5118 65.1885C97.0519 64.7107 95.4682 64.7795 94.0554 65.3823C92.6426 65.985 91.4968 67.0806 90.8315 68.465C90.1661 69.8495 90.0265 71.4285 90.4385 72.9082L77.3761 89.5055L66.7547 95.6291C65.3 96.4705 64.2385 97.8546 63.8031 99.4776C63.3676 101.101 63.5938 102.83 64.4319 104.287L68.6551 111.601C69.0708 112.323 69.6245 112.955 70.2846 113.462C70.9448 113.969 71.6984 114.341 72.5025 114.557C73.3066 114.773 74.1453 114.828 74.9706 114.719C75.796 114.611 76.5919 114.34 77.3127 113.924L84.7034 126.725C85.119 127.446 85.6727 128.078 86.3328 128.585C86.993 129.093 87.7467 129.465 88.5507 129.68C89.3548 129.896 90.1935 129.951 91.0188 129.843C91.8442 129.734 92.6401 129.464 93.361 129.047L97.0182 126.936C97.7396 126.52 98.3719 125.966 98.8791 125.306C99.3863 124.646 99.7584 123.893 99.9741 123.088C100.19 122.284 100.245 121.446 100.136 120.62C100.028 119.795 99.7574 118.999 99.341 118.278L92.8668 107.093ZM112.262 81.5637C112.542 82.0484 112.618 82.6246 112.474 83.1655C112.329 83.7064 111.976 84.1678 111.491 84.4482L109.38 80.7909C109.864 80.5115 110.44 80.436 110.981 80.5809C111.521 80.7258 111.982 81.0793 112.262 81.5637ZM95.4451 69.3312C95.9298 69.051 96.506 68.9748 97.0469 69.1193C97.5878 69.2639 98.0492 69.6173 98.3296 70.1019L115.222 99.3624C115.371 99.6028 115.47 99.8706 115.513 100.15C115.557 100.429 115.543 100.714 115.474 100.989C115.406 101.263 115.282 101.52 115.112 101.746C114.942 101.971 114.728 102.16 114.483 102.302C114.238 102.443 113.968 102.534 113.687 102.569C113.407 102.604 113.122 102.582 112.85 102.505C112.578 102.428 112.324 102.297 112.104 102.119C111.884 101.942 111.701 101.723 111.567 101.474L94.6744 72.2135C94.3949 71.729 94.319 71.1533 94.4635 70.6129C94.608 70.0725 94.9611 69.6115 95.4451 69.3312ZM92.5754 77.0259L106.349 100.887L88.3395 103.48L81.3227 91.3299L92.5754 77.0259ZM78.0053 94.0285L84.3402 105.009L80.6829 107.12L74.348 96.1401L78.0053 94.0285ZM72.304 109.507L68.0808 102.192C67.8008 101.707 67.7249 101.131 67.8698 100.59C68.0148 100.049 68.3687 99.5876 68.8536 99.3075L70.6823 98.2517L77.0171 109.232L75.1885 110.288C74.7034 110.564 74.1288 110.637 73.5903 110.49C73.0518 110.344 72.5931 109.99 72.3146 109.507H72.304ZM94.8982 123.287L91.2409 125.399C90.7559 125.679 90.1796 125.754 89.6386 125.61C89.0977 125.465 88.6365 125.111 88.3564 124.626L80.9658 111.825L87.9341 107.813L88.3564 107.752L95.6647 120.411C95.9428 120.894 96.0184 121.468 95.8752 122.006C95.732 122.545 95.3816 123.006 94.9003 123.287H94.8982ZM118.519 75.514L125.833 71.2907L127.945 74.948L120.63 79.1713L118.519 75.514ZM111.51 70.5411L113.831 61.8835L117.91 62.9795L115.588 71.6349L111.51 70.5411ZM121.456 87.7592L122.55 83.6795L131.205 86.0002L130.111 90.0798L121.456 87.7592Z" fill="#CCD2E6"/>
</svg>
