<svg width="12" height="20" viewBox="0 0 12 20" fill="none" xmlns="http://www.w3.org/2000/svg">
<path d="M11.3822 19.198C10.7044 19.8998 9.6055 19.8998 8.92769 19.198L1.28537 11.2862C0.607567 10.5845 0.607565 9.44681 1.28537 8.7451C1.96318 8.04339 3.06212 8.04339 3.73993 8.7451L11.3822 16.6569C12.0601 17.3586 12.0601 18.4963 11.3822 19.198Z" fill="#8F99BA"/>
<path d="M11.3823 0.801794C12.0601 1.5035 12.0601 2.6412 11.3823 3.34291L3.73995 11.2547C3.06215 11.9564 1.9632 11.9564 1.2854 11.2547C0.60759 10.553 0.60759 9.41533 1.2854 8.71362L8.92771 0.801796C9.60552 0.100086 10.7045 0.100085 11.3823 0.801794Z" fill="#8F99BA"/>
</svg>
