<svg width="26" height="28" viewBox="0 0 26 28" fill="none" xmlns="http://www.w3.org/2000/svg">
<path d="M3.38695 23.3989H22.1306C24.3526 23.3989 25.5195 22.2489 25.5195 20.0459V9.21154C25.5195 7.00845 24.3526 5.86694 22.1306 5.86694H19.3004C18.4903 5.86694 18.2277 5.72032 17.7315 5.1985L16.9148 4.31387C16.3762 3.74972 15.8367 3.46228 14.7843 3.46228H10.674C9.62357 3.46228 9.08216 3.74972 8.54546 4.31387L7.7269 5.1985C7.23069 5.71186 6.96142 5.86694 6.15795 5.86694H3.38695C1.15844 5.86694 0 7.00845 0 9.21154V20.0459C0 22.2489 1.15844 23.3989 3.38695 23.3989ZM3.50424 21.3761C2.56117 21.3761 2.02283 20.8791 2.02283 19.8759V9.38995C2.02283 8.3868 2.56117 7.88977 3.50424 7.88977H6.74377C7.673 7.88977 8.15662 7.72353 8.67658 7.15277L9.46145 6.28322C10.0388 5.64659 10.3598 5.48511 11.2591 5.48511H14.1993C15.1005 5.48511 15.4195 5.64845 15.9894 6.27764L16.7836 7.15277C17.3036 7.72168 17.7872 7.88977 18.7146 7.88977H22.0049C22.9583 7.88977 23.4966 8.3868 23.4966 9.38995V19.8759C23.4966 20.8791 22.9583 21.3761 22.0049 21.3761H3.50424ZM12.7588 20.0008C15.8472 20.0008 18.3301 17.5264 18.3301 14.4107C18.3301 11.3055 15.8556 8.83101 12.7588 8.83101C9.66568 8.83101 7.18092 11.3055 7.18092 14.4107C7.18092 17.5264 9.66568 20.0008 12.7588 20.0008ZM12.7588 18.1564C10.7023 18.1564 9.01687 16.4945 9.01687 14.4107C9.01687 12.3336 10.6939 10.667 12.7588 10.667C14.8275 10.667 16.4941 12.3336 16.4941 14.4107C16.4941 16.4945 14.8275 18.1564 12.7588 18.1564ZM18.6865 10.7041C18.6865 11.4529 19.2955 12.0431 20.0358 12.0431C20.7488 12.0431 21.3662 11.4444 21.3662 10.7041C21.3662 9.99295 20.747 9.37365 20.0358 9.37365C19.2974 9.37365 18.6865 9.99295 18.6865 10.7041Z" fill="#8F99BA"/>
</svg>
