<svg width="29" height="26" viewBox="0 0 29 26" fill="none" xmlns="http://www.w3.org/2000/svg">
<path d="M5.45517 8.7125C5.70782 7.54273 6.23564 5.98507 6.58861 5.356C6.92611 4.74194 7.31025 4.48108 8.02743 4.3864C8.86743 4.27554 10.8702 4.20194 14.4554 4.20194C18.0503 4.20194 20.0551 4.25421 20.8876 4.3864C21.6006 4.49069 21.9751 4.74194 22.3243 5.356C22.6848 5.97546 23.188 7.54273 23.4674 8.7125C23.5876 9.21148 23.3706 9.43671 22.8515 9.41538C21.039 9.30546 18.7567 9.19038 14.4554 9.19038C10.168 9.19038 7.88564 9.30546 6.0711 9.41538C5.54235 9.43671 5.33282 9.21148 5.45517 8.7125ZM5.88385 17.6553C4.77525 17.6553 3.9233 16.8055 3.9233 15.6969C3.9233 14.5787 4.77525 13.7363 5.88385 13.7363C6.99244 13.7363 7.84228 14.5787 7.84228 15.6969C7.84228 16.8055 6.99244 17.6553 5.88385 17.6553ZM11.2984 17.1612C10.4603 17.1612 9.88205 16.583 9.88205 15.7449C9.88205 14.9143 10.4603 14.3361 11.2984 14.3361H17.6221C18.4527 14.3361 19.0309 14.9143 19.0309 15.7449C19.0309 16.583 18.4527 17.1612 17.6221 17.1612H11.2984ZM23.0291 17.6553C21.9205 17.6553 21.0782 16.8055 21.0782 15.6969C21.0782 14.5787 21.9205 13.7363 23.0291 13.7363C24.1473 13.7363 24.9896 14.5787 24.9896 15.6969C24.9896 16.8055 24.1473 17.6553 23.0291 17.6553ZM14.4554 20.9164C18.4583 20.9164 23.7093 20.7172 25.9304 20.4594C27.6254 20.2667 28.5824 19.3076 28.5824 17.7043V15.7156C28.5824 13.655 28.2008 12.5155 27.1079 11.0923L26.0696 9.78968C25.6435 7.68031 24.8605 5.46757 24.4578 4.59828C23.8039 3.21922 22.5484 2.39398 20.9307 2.17672C20.0907 2.06281 17.5729 2 14.4554 2C11.3497 2 8.83181 2.07242 7.99181 2.17672C6.37205 2.37476 5.109 3.21922 4.46471 4.59828C4.05244 5.46757 3.27901 7.68031 2.84119 9.78968L1.81252 11.0923C0.712129 12.5155 0.330566 13.655 0.330566 15.7156V17.7043C0.330566 19.3076 1.29713 20.2688 2.98252 20.4594C5.2133 20.7151 10.4547 20.9164 14.4554 20.9164ZM1.91869 24.2276H3.32143C4.2151 24.2276 4.90955 23.5353 4.90955 22.6491V19.6721L0.330566 17.4022V22.6491C0.330566 23.5353 1.02502 24.2276 1.91869 24.2276ZM25.5915 24.2276H27.0039C27.8975 24.2276 28.5824 23.5353 28.5824 22.6491V17.4022L24.013 19.6721V22.6491C24.013 23.5353 24.6978 24.2276 25.5915 24.2276Z" fill="white"/>
</svg>
