<svg width="14" height="14" viewBox="0 0 14 14" fill="none" xmlns="http://www.w3.org/2000/svg">
<path d="M3.57382 7.84035H6.99385C7.29591 7.84035 7.53402 7.60661 7.53402 7.30012V2.86076C7.53402 2.55866 7.29591 2.32608 6.99385 2.32608C6.693 2.32608 6.45922 2.55866 6.45922 2.86076V6.76545H3.57382C3.26741 6.76545 3.03363 6.99925 3.03363 7.30012C3.03363 7.60661 3.26741 7.84035 3.57382 7.84035Z" fill="#3E3E51"/>
<path d="M6.99939 14C10.8341 14 14 10.8295 14 7C14 3.16496 10.8286 0 6.99384 0C3.16591 0 0 3.16496 0 7C0 10.8295 3.17146 14 6.99939 14ZM6.99939 12.6211C3.88037 12.6211 1.38434 10.1193 1.38434 7C1.38434 3.88071 3.87481 1.3789 6.99384 1.3789C10.1128 1.3789 12.6212 3.88071 12.6212 7C12.6212 10.1193 10.1184 12.6211 6.99939 12.6211Z" fill="#3E3E51"/>
</svg>
