<svg width="32" height="30" viewBox="0 0 32 30" fill="none" xmlns="http://www.w3.org/2000/svg">
<path d="M0.571289 10.7476C0.571289 17.1852 5.97189 23.5416 14.3964 28.9658C14.8457 29.2511 15.4035 29.5434 15.7904 29.5434C16.1746 29.5434 16.7352 29.2511 17.1967 28.9658C25.6089 23.5416 31.0095 17.1852 31.0095 10.7476C31.0095 5.20513 27.1829 1.35974 22.255 1.35974C19.3917 1.35974 17.1453 2.6775 15.7904 4.66272C14.4603 2.68986 12.1864 1.35974 9.32579 1.35974C4.39799 1.35974 0.571289 5.20513 0.571289 10.7476ZM3.60455 10.7341C3.60455 6.91069 6.11742 4.34419 9.48821 4.34419C12.2096 4.34419 13.7446 5.99312 14.69 7.43201C15.1049 8.04011 15.3935 8.23568 15.7904 8.23568C16.1873 8.23568 16.4432 8.02505 16.8855 7.43201C17.9061 6.01511 19.3836 4.34419 22.0926 4.34419C25.4634 4.34419 27.9736 6.91069 27.9736 10.7341C27.9736 16.0679 22.4157 21.9579 16.0797 26.1736C15.9453 26.2682 15.8507 26.3353 15.7904 26.3353C15.7301 26.3353 15.6355 26.2682 15.5135 26.1736C9.16246 21.9579 3.60455 16.0679 3.60455 10.7341Z" fill="#8F99BA"/>
</svg>
