<svg width="28" height="28" viewBox="0 0 28 28" fill="none" xmlns="http://www.w3.org/2000/svg">
<path d="M2 11.0166C2 16.0235 6.20047 20.9674 12.7529 25.1862C13.1023 25.4081 13.5362 25.6355 13.8371 25.6355C14.1359 25.6355 14.5719 25.4081 14.9309 25.1862C21.4737 20.9674 25.6742 16.0235 25.6742 11.0166C25.6742 6.7057 22.6979 3.71484 18.8651 3.71484C16.6381 3.71484 14.8909 4.73977 13.8371 6.28383C12.8026 4.74938 11.034 3.71484 8.80906 3.71484C4.97632 3.71484 2 6.7057 2 11.0166ZM4.3592 11.006C4.3592 8.03225 6.31366 6.03608 8.93538 6.03608C11.052 6.03608 12.2459 7.31858 12.9812 8.43772C13.3039 8.91069 13.5284 9.0628 13.8371 9.0628C14.1458 9.0628 14.3448 8.89897 14.6888 8.43772C15.4826 7.33569 16.6318 6.03608 18.7388 6.03608C21.3605 6.03608 23.3129 8.03225 23.3129 11.006C23.3129 15.1545 18.9901 19.7356 14.0621 23.0145C13.9576 23.0881 13.884 23.1403 13.8371 23.1403C13.7902 23.1403 13.7166 23.0881 13.6217 23.0145C8.68202 19.7356 4.3592 15.1545 4.3592 11.006Z" fill="white"/>
</svg>
