<svg width="19" height="20" viewBox="0 0 19 20" fill="none" xmlns="http://www.w3.org/2000/svg">
<g clip-path="url(#clip0_3731_13659)">
<path d="M14.6325 7.31773C14.7172 4.89277 18.1993 4.89217 18.2844 7.31769C18.2844 7.80372 18.092 8.26985 17.7496 8.61352C17.58 8.7837 17.3787 8.91868 17.1572 9.01078C16.9357 9.10288 16.6982 9.15028 16.4584 9.15029C15.9742 9.15029 15.5097 8.95722 15.1673 8.61355C14.8248 8.26988 14.6325 7.80376 14.6325 7.31773ZM15.0737 15.3588L14.0257 14.3187C13.9711 14.2647 13.9368 14.1933 13.9289 14.1168C13.9209 14.0402 13.9398 13.9633 13.9822 13.8992C14.4257 13.2275 15.07 12.2601 15.5179 11.5859C15.9653 10.9891 15.988 10.2736 15.2479 9.58432C14.7671 9.33573 13.9611 8.71426 13.4045 8.7482L10.6322 8.70448C10.2535 8.69963 9.88747 8.84156 9.61037 9.10072L7.76121 10.84C7.65397 10.9406 7.56809 11.0618 7.50872 11.1965C7.44936 11.3312 7.41773 11.4765 7.41575 11.6238C7.41638 11.8405 7.48046 12.0522 7.60001 12.2327C7.71957 12.4132 7.88934 12.5544 8.08822 12.6388C8.28709 12.7233 8.50631 12.7472 8.71861 12.7076C8.93092 12.668 9.12695 12.5667 9.28235 12.4162L10.4232 11.2712C10.4771 11.2173 10.5415 11.1752 10.6125 11.1476C10.6835 11.12 10.7594 11.1076 10.8354 11.111L11.6424 11.1518C10.4205 12.8854 9.36163 14.0138 11.4886 15.7085C11.7779 15.9713 12.3886 16.5126 12.6817 16.7806C12.7603 16.8509 12.8231 16.9371 12.8661 17.0335C12.9092 17.1299 12.9314 17.2343 12.9313 17.34V20.099C12.9345 20.4277 13.0671 20.7417 13.3002 20.9725C13.5332 21.2033 13.8478 21.3322 14.1753 21.3311C14.5027 21.3299 14.8164 21.1988 15.0478 20.9663C15.2792 20.7338 15.4096 20.4189 15.4104 20.0902L15.3814 16.0901C15.3807 15.9539 15.3532 15.8191 15.3004 15.6936C15.2476 15.5681 15.1705 15.4543 15.0737 15.3588ZM9.88033 14.7179L8.9456 15.8745C8.91244 15.9151 8.87082 15.9478 8.82367 15.9705C8.77652 15.9931 8.72499 16.0051 8.67272 16.0056H6.42294C6.10712 16.0077 5.80496 16.1351 5.58238 16.36C5.35981 16.5849 5.23489 16.889 5.23489 17.206C5.2349 17.523 5.35982 17.8271 5.5824 18.0519C5.80497 18.2768 6.10714 18.4042 6.42296 18.4063H9.69165C9.83558 18.4064 9.97757 18.3731 10.1065 18.3089C10.2354 18.2447 10.3478 18.1514 10.4348 18.0363C10.6723 17.7216 11.5582 16.5534 11.5582 16.5534C11.5119 16.5084 11.1573 16.1981 11.1228 16.163C10.6095 15.777 10.1857 15.284 9.88033 14.7179ZM18.6734 12.3463H17.2654C17.169 12.3465 17.0762 12.3089 17.0071 12.2414C16.8194 12.0586 16.4417 11.6863 16.2552 11.5014C16.2228 11.5852 15.1424 13.2055 14.9286 13.5234L15.3118 13.9079C15.6222 14.1787 16.0168 14.6974 16.4816 14.6567L18.6734 14.6567C18.9765 14.6534 19.2661 14.5303 19.4793 14.314C19.6926 14.0977 19.8122 13.8057 19.8122 13.5015C19.8122 13.1972 19.6926 12.9053 19.4793 12.689C19.2661 12.4727 18.9765 12.3495 18.6734 12.3463ZM4.56501 6.21777H4.94317C4.98137 6.21789 5.01922 6.21044 5.05455 6.19586C5.08988 6.18127 5.12199 6.15983 5.14904 6.13276C5.1761 6.10569 5.19756 6.07354 5.21221 6.03813C5.22686 6.00272 5.2344 5.96476 5.2344 5.92642C5.2344 5.88808 5.22686 5.85011 5.21221 5.81471C5.19756 5.7793 5.1761 5.74714 5.14904 5.72007C5.12199 5.693 5.08988 5.67156 5.05455 5.65698C5.01922 5.64239 4.98137 5.63494 4.94317 5.63507H4.56501C4.48891 5.63643 4.41639 5.66772 4.36306 5.72221C4.30972 5.7767 4.27984 5.85003 4.27984 5.92642C4.27984 6.0028 4.30972 6.07613 4.36306 6.13062C4.41639 6.18511 4.48891 6.21641 4.56501 6.21777ZM6.3561 6.28235H8.5391C8.61537 6.28125 8.68815 6.25007 8.7417 6.19555C8.79524 6.14104 8.82526 6.06756 8.82526 5.991C8.82526 5.91445 8.79523 5.84097 8.74168 5.78645C8.68813 5.73194 8.61535 5.70076 8.53908 5.69967H6.3561C6.27983 5.70077 6.20705 5.73194 6.1535 5.78646C6.09995 5.84098 6.06993 5.91446 6.06993 5.99101C6.06993 6.06756 6.09995 6.14104 6.1535 6.19556C6.20705 6.25008 6.27983 6.28125 6.3561 6.28235ZM7.06949 7.37434C6.99339 7.3757 6.92087 7.40699 6.86754 7.46148C6.8142 7.51597 6.78432 7.5893 6.78432 7.66569C6.78432 7.74207 6.8142 7.8154 6.86754 7.86989C6.92087 7.92438 6.99339 7.95568 7.06949 7.95704H7.44752C7.48572 7.95716 7.52357 7.94971 7.5589 7.93513C7.59423 7.92054 7.62634 7.8991 7.65339 7.87203C7.68045 7.84497 7.70192 7.81281 7.71656 7.7774C7.73121 7.74199 7.73875 7.70403 7.73875 7.66569C7.73875 7.62735 7.73121 7.58939 7.71656 7.55398C7.70192 7.51857 7.68045 7.48641 7.65339 7.45934C7.62634 7.43228 7.59423 7.41083 7.5589 7.39625C7.52357 7.38166 7.48572 7.37422 7.44752 7.37434H7.06949ZM3.47357 8.0216H5.65644C5.73269 8.02048 5.80544 7.98929 5.85897 7.93477C5.9125 7.88025 5.9425 7.80679 5.9425 7.73025C5.94249 7.65371 5.91249 7.58025 5.85896 7.52574C5.80543 7.47122 5.73267 7.44004 5.65642 7.43892H3.47357C3.39731 7.44004 3.32456 7.47123 3.27103 7.52574C3.21751 7.58026 3.1875 7.65372 3.1875 7.73026C3.1875 7.8068 3.21751 7.88026 3.27103 7.93478C3.32456 7.98929 3.39731 8.02048 3.47357 8.0216ZM3.85174 20.6075H3.47357C3.39866 20.6106 3.32787 20.6427 3.27597 20.697C3.22407 20.7513 3.1951 20.8236 3.1951 20.8989C3.1951 20.9741 3.22407 21.0464 3.27597 21.1007C3.32787 21.155 3.39866 21.1871 3.47357 21.1902H3.85174C3.928 21.1891 4.00075 21.1579 4.05427 21.1034C4.1078 21.0489 4.13781 20.9754 4.13781 20.8989C4.13781 20.8223 4.1078 20.7489 4.05427 20.6943C4.00075 20.6398 3.928 20.6086 3.85174 20.6075ZM7.44753 20.5429H5.26467C5.18857 20.5443 5.11605 20.5756 5.06271 20.6301C5.00938 20.6846 4.97949 20.7579 4.97949 20.8343C4.97949 20.9107 5.00938 20.984 5.06271 21.0385C5.11605 21.093 5.18857 21.1243 5.26467 21.1256H7.44754C7.52362 21.1242 7.59612 21.0929 7.64944 21.0384C7.70276 20.984 7.73263 20.9106 7.73263 20.8343C7.73263 20.7579 7.70275 20.6846 7.64943 20.6301C7.59611 20.5756 7.52361 20.5443 7.44753 20.5429V20.5429ZM8.5391 18.8683H8.16094C8.08565 18.8708 8.01428 18.9026 7.96191 18.957C7.90954 19.0113 7.88027 19.084 7.88027 19.1596C7.88027 19.2352 7.90954 19.3079 7.96191 19.3622C8.01428 19.4166 8.08565 19.4484 8.16094 19.4509H8.5391C8.61534 19.4498 8.68806 19.4186 8.74157 19.3641C8.79507 19.3096 8.82507 19.2361 8.82507 19.1596C8.82507 19.0831 8.79507 19.0096 8.74157 18.9551C8.68806 18.9006 8.61534 18.8694 8.5391 18.8683V18.8683ZM7.03831 19.095C7.03832 19.0567 7.03082 19.0188 7.01623 18.9835C7.00165 18.9481 6.98027 18.916 6.95331 18.889C6.92635 18.8619 6.89434 18.8404 6.85912 18.8258C6.82389 18.8112 6.78614 18.8036 6.74801 18.8037H4.56501C4.48802 18.8037 4.41418 18.8343 4.35974 18.889C4.3053 18.9436 4.27472 19.0177 4.27472 19.095C4.27472 19.1723 4.3053 19.2464 4.35974 19.301C4.41418 19.3557 4.48802 19.3864 4.56501 19.3864H6.74801C6.78614 19.3864 6.82389 19.3788 6.85911 19.3642C6.89434 19.3496 6.92634 19.3281 6.9533 19.301C6.98026 19.274 7.00164 19.2419 7.01623 19.2065C7.03081 19.1712 7.03832 19.1333 7.03831 19.095V19.095Z" fill="#8F99BA"/>
</g>
<defs>
<clipPath id="clip0_3731_13659">
<rect width="19" height="18.7458" fill="white" transform="translate(0 0.686157)"/>
</clipPath>
</defs>
</svg>
