<svg width="14" height="15" viewBox="0 0 14 15" fill="none" xmlns="http://www.w3.org/2000/svg">
<path d="M7 13.367C3.4856 13.367 0.636364 10.5173 0.636364 7.00167C0.636364 3.48606 3.4856 0.636364 7 0.636364C10.5144 0.636364 13.3636 3.48606 13.3636 7.00167C13.3636 10.5173 10.5144 13.367 7 13.367Z" stroke="#32BD1B" stroke-width="1.27273"/>
<path d="M7.65093 5.41302V10.6363H6.38838V5.41302H7.65093ZM7.82402 3.89084C7.82402 3.99944 7.80196 4.10126 7.75784 4.19629C7.71371 4.29132 7.65432 4.37447 7.57965 4.44575C7.50838 4.51702 7.42353 4.57472 7.32511 4.61884C7.22668 4.65956 7.12147 4.67993 7.00947 4.67993C6.90087 4.67993 6.79735 4.65956 6.69893 4.61884C6.6039 4.57472 6.52074 4.51702 6.44947 4.44575C6.3782 4.37447 6.3205 4.29132 6.27638 4.19629C6.23565 4.10126 6.21529 3.99944 6.21529 3.89084C6.21529 3.77884 6.23565 3.67362 6.27638 3.5752C6.3205 3.47678 6.3782 3.39193 6.44947 3.32065C6.52074 3.24938 6.6039 3.19338 6.69893 3.15265C6.79735 3.10853 6.90087 3.08647 7.00947 3.08647C7.12147 3.08647 7.22668 3.10853 7.32511 3.15265C7.42353 3.19338 7.50838 3.24938 7.57965 3.32065C7.65432 3.39193 7.71371 3.47678 7.75784 3.5752C7.80196 3.67362 7.82402 3.77884 7.82402 3.89084Z" fill="#32BD1B"/>
</svg>
