<svg width="27" height="26" viewBox="0 0 27 26" fill="none" xmlns="http://www.w3.org/2000/svg">
<path d="M22.3604 5.53144V1.7177C22.3604 1.42112 22.121 1.17777 21.8294 1.17777H19.41C19.1183 1.17777 18.879 1.42112 18.879 1.7177V2.98008C17.4617 2.01048 16.0333 1.10933 14.6759 0.322248C13.9317 -0.107416 12.7613 -0.107416 12.0209 0.322248C8.30765 2.47437 4.06342 5.4744 0.941007 8.42881C0.316525 9.01437 0.0398087 10.1779 0.256695 11.0334C1.34112 15.311 2.63122 20.1476 4.33639 24.2579C4.6692 25.0754 5.6938 25.6914 6.59126 25.6876C8.62176 25.6876 10.6523 25.6876 12.6828 25.6876V24.6419C11.6282 24.0374 10.2708 23.2313 9.00692 22.3187C8.61054 22.0335 8.16555 21.6951 7.84396 21.2655C7.4962 20.7978 7.49993 20.2997 7.86266 19.6989C8.00476 19.4632 8.14311 19.1856 8.0758 18.9194C8.00476 18.6381 7.72804 18.4441 7.44384 18.273C7.30549 18.1932 7.16339 18.121 7.02503 18.0487C6.72214 17.8966 6.44168 17.7483 6.21358 17.5392C5.81346 17.1742 5.59657 16.7559 5.58536 16.3301C5.57414 15.9308 5.75737 15.5354 6.10887 15.1818L6.17618 15.1133C6.44542 14.8471 6.72588 14.5658 6.84554 14.1703C6.99885 13.6456 6.77075 13.1969 6.57256 12.8015C6.55012 12.7559 6.52769 12.714 6.50899 12.6684C6.34446 12.3338 6.3295 11.9498 6.4716 11.5924C6.63239 11.1779 6.9839 10.8471 7.42889 10.6836C7.50367 10.657 7.5822 10.6304 7.66073 10.6037C7.85518 10.5429 8.05711 10.4783 8.24408 10.3604C8.65167 10.1094 8.78255 9.74062 8.61428 9.32616C8.46096 8.94973 8.30391 8.5657 8.2553 8.15125C8.20668 7.72919 8.39365 7.40219 8.55819 7.20066C8.88726 6.80522 9.42199 6.53906 9.96047 6.50484C10.6934 6.46301 11.202 6.10939 11.5086 5.42497C11.9947 4.34131 12.9894 4.10557 13.3297 4.10557H13.3596H13.3858C13.7261 4.10557 14.7207 4.34131 15.2106 5.42497C15.5172 6.10939 16.0258 6.46301 16.7587 6.50484C17.2972 6.53526 17.8357 6.80522 18.161 7.20066C18.3255 7.40219 18.5125 7.72919 18.4639 8.15125C18.4153 8.5657 18.2582 8.95354 18.1049 9.32616C17.9366 9.74062 18.0713 10.1056 18.4788 10.3604C18.6658 10.4783 18.864 10.5391 19.0622 10.6037C19.1407 10.6304 19.2193 10.6532 19.294 10.6836C19.739 10.8471 20.0905 11.1779 20.2476 11.5962C20.3897 11.9536 20.3747 12.3376 20.2139 12.6722C20.1915 12.714 20.1691 12.7597 20.1504 12.8015C19.9484 13.1969 19.7241 13.6494 19.8736 14.1741C19.9896 14.5696 20.27 14.8509 20.543 15.1209L20.6066 15.1856C20.9581 15.5354 21.1376 15.9308 21.1301 16.3339C21.1189 16.7597 20.902 17.178 20.5056 17.543C20.2738 17.7521 19.9896 17.8966 19.6904 18.0525C19.5521 18.1248 19.41 18.197 19.2716 18.2768C18.9837 18.448 18.707 18.6419 18.6396 18.9232C18.5723 19.1894 18.7107 19.467 18.849 19.7027C19.2155 20.3035 19.2193 20.8016 18.8715 21.2693C18.5536 21.6951 18.1049 22.0374 17.7085 22.3225C16.4446 23.2351 15.0872 24.0412 14.0327 24.6457V25.6914C16.0632 25.6914 18.0937 25.6914 20.1242 25.6914C21.0216 25.6952 22.0425 25.0792 22.3753 24.2617C24.0655 20.1476 25.3556 15.311 26.4401 11.0334C26.6569 10.1741 26.3802 9.01437 25.7557 8.42881C24.7311 7.45542 23.5719 6.48202 22.3604 5.53144Z" fill="white"/>
</svg>
