<svg width="15" height="12" viewBox="0 0 15 12" fill="none" xmlns="http://www.w3.org/2000/svg">
<path d="M11.2244 7.91173C7.61229 7.91173 5.36679 6.02766 5.36679 2.99619C5.36679 2.13675 5.52951 1.36649 5.77996 0.947093C5.89668 0.756919 5.92933 0.642486 5.92933 0.502214C5.92933 0.253408 5.68786 0 5.34095 0C5.25715 0 5.10465 0.0240665 4.8946 0.0953229C2.33986 0.993935 0.566406 3.29975 0.566406 5.79103C0.566406 9.38214 3.57839 12 7.7195 12C10.6686 12 13.1029 10.6339 14.2158 8.41287C14.3109 8.23508 14.3331 8.08196 14.3331 7.99055C14.3331 7.69986 14.0718 7.50814 13.7997 7.50814C13.6602 7.50814 13.5358 7.52465 13.3382 7.59793C12.8167 7.7883 12.0125 7.91173 11.2244 7.91173ZM1.87431 5.75715C1.87431 4.07872 2.84893 2.45586 4.42948 1.53259C4.24609 2.01534 4.14882 2.54541 4.14882 3.12974C4.14882 6.76337 6.72328 8.94814 11.003 8.94814C11.5947 8.94814 12.0959 8.889 12.5748 8.74665C11.5824 10.0722 9.74736 10.8696 7.75299 10.8696C4.35491 10.8696 1.87431 8.71846 1.87431 5.75715Z" fill="#3E3E51"/>
</svg>
