<svg width="31" height="28" viewBox="0 0 31 28" fill="none" xmlns="http://www.w3.org/2000/svg">
<path d="M13.7377 26.3587L13.7429 26.3619C13.9652 26.4974 14.2331 26.6464 14.5091 26.7645C14.7628 26.8731 15.1229 27 15.5 27C15.876 27 16.2363 26.8728 16.4889 26.7656C16.7644 26.6486 17.0337 26.501 17.2578 26.3681L17.2658 26.3633L17.2738 26.3584C21.0639 24.0123 24.2244 21.4357 26.4473 18.7063C28.6702 15.977 30 13.0371 30 9.99433C30 4.73145 26.167 1 21.2343 1C18.8807 1 16.9046 1.86441 15.502 3.26636C14.1042 1.86795 12.1119 1 9.76561 1C4.83303 1 1 4.73145 1 9.99433C1 13.0371 2.32988 15.9771 4.55421 18.7065C6.77859 21.436 9.94202 24.0126 13.7377 26.3587Z" stroke="#8F99BA" stroke-width="2"/>
<path d="M9 7C9.64551 15 21.3714 14.9999 22 7" stroke="#8F99BA" stroke-width="2" stroke-linecap="round" stroke-linejoin="round"/>
</svg>
