<svg width="26" height="18" viewBox="0 0 26 18" fill="none" xmlns="http://www.w3.org/2000/svg">
<path d="M18.8229 8.42658C21.337 8.42658 23.0655 6.7501 23.0655 4.30065C23.0655 1.8587 21.337 0.172607 18.8229 0.172607C16.3706 0.172607 14.6922 1.86081 14.6922 4.30065C14.6922 6.7501 16.3823 8.42658 18.8229 8.42658ZM18.8229 6.60222C17.6397 6.60222 16.8337 5.66823 16.8337 4.29643C16.8337 2.92252 17.6376 2.00026 18.8229 2.00026C20.0838 2.00026 20.9144 2.92041 20.9144 4.29643C20.9144 5.67245 20.07 6.60222 18.8229 6.60222ZM1.24499 17.3767C2.036 17.3767 2.49748 16.8917 2.49748 16.0902V4.79749H2.45693L10.4198 16.4523C10.9038 17.1331 11.2919 17.3767 11.8835 17.3767C12.7108 17.3767 13.1852 16.8683 13.1852 15.9751V1.52846C13.1852 0.7194 12.7237 0.220654 11.9327 0.220654C11.1609 0.220654 10.6877 0.717291 10.6877 1.52846V12.7841H10.7241L2.77381 1.14081C2.27717 0.437684 1.93569 0.220654 1.30593 0.220654C0.506247 0.220654 0 0.772603 0 1.6201V16.0902C0 16.8875 0.482809 17.3767 1.24499 17.3767ZM16.0305 11.6157H21.7369C22.4111 11.6157 22.8848 11.2135 22.8848 10.5338C22.8848 9.85205 22.4111 9.43065 21.7369 9.43065H16.0305C15.3562 9.43065 14.9018 9.85205 14.9018 10.5338C14.9018 11.2135 15.3562 11.6157 16.0305 11.6157Z" fill="#8F99BA"/>
</svg>
