<svg width="24" height="24" viewBox="0 0 24 24" fill="none" xmlns="http://www.w3.org/2000/svg">
<path d="M7.0214 17.3703C10.4798 20.833 14.6669 23.4926 18.0872 23.4926C19.6221 23.4926 20.9695 22.959 22.0507 21.766C22.6823 21.064 23.0606 20.2555 23.0606 19.4501C23.0606 18.8283 22.8211 18.23 22.2344 17.8041L18.6283 15.2431C18.0607 14.8512 17.5931 14.6637 17.1649 14.6637C16.6228 14.6637 16.136 14.9748 15.5885 15.5105L14.7438 16.3477C14.6149 16.4766 14.4466 16.5352 14.2943 16.5352C14.1143 16.5352 13.9322 16.4649 13.8129 16.4C13.0758 16.0006 11.8125 14.9152 10.6397 13.752C9.47648 12.5888 8.39109 11.3255 8.00132 10.5884C7.9364 10.4595 7.86609 10.287 7.86609 10.1091C7.86609 9.95464 7.91507 9.79597 8.04398 9.66706L8.89077 8.80316C9.41695 8.25566 9.73757 7.77847 9.73757 7.22675C9.73757 6.79855 9.54046 6.33097 9.13898 5.76332L6.60679 2.19566C6.17554 1.59941 5.56336 1.34277 4.90312 1.34277C4.11281 1.34277 3.31383 1.69012 2.61609 2.36019C1.45195 3.46269 0.9375 4.82933 0.9375 6.34293C0.9375 9.76316 3.55875 13.9215 7.0214 17.3703Z" fill="white"/>
</svg>
