<svg width="18" height="25" viewBox="0 0 18 25" fill="none" xmlns="http://www.w3.org/2000/svg">
<path d="M15.6095 8.1517H13.0079C12.4332 8.1517 11.9673 8.57594 11.9673 9.09926C11.9673 9.62258 12.4332 10.0468 13.0079 10.0468H15.3493C15.493 10.0468 15.6095 10.1529 15.6095 10.2837V22.1281C15.6095 22.2589 15.493 22.365 15.3493 22.365H2.34142C2.19774 22.365 2.08126 22.2589 2.08126 22.1281V10.2827C2.08126 10.1519 2.19774 10.0459 2.34142 10.0459H4.68284C5.25756 10.0459 5.72347 9.62163 5.72347 9.09831C5.72347 8.57499 5.25756 8.15076 4.68284 8.15076H2.08126C0.931813 8.15076 0 8.99922 0 10.0459V22.364C0 23.4107 0.931813 24.2591 2.08126 24.2591H15.6095C16.7589 24.2591 17.6907 23.4107 17.6907 22.364V10.0468C17.6907 9.00017 16.7589 8.1517 15.6095 8.1517Z" fill="white"/>
<path d="M9.36865 0.285187C9.07879 -0.0950673 8.60892 -0.0950673 8.31906 0.285187L4.76053 3.69438C4.54884 3.97304 4.4857 4.39148 4.60049 4.75498C4.71529 5.11848 4.98547 5.35564 5.28532 5.35612H7.54486C7.64735 5.35612 7.73043 5.46515 7.73043 5.59964V16.1781C7.73043 16.9851 8.22893 17.4437 8.84386 17.4437C9.45878 17.4437 9.95728 16.9851 9.95728 16.1781V5.59964C9.95728 5.46515 10.0404 5.35612 10.1428 5.35612H12.4024C12.7026 5.35604 12.9732 5.11872 13.088 4.75479C13.2029 4.39087 13.1394 3.97198 12.9272 3.69341L9.36865 0.285187Z" fill="white"/>
</svg>
