<svg width="41" height="41" viewBox="0 0 41 41" fill="none" xmlns="http://www.w3.org/2000/svg">
<path d="M9.6404 27.363C9.19278 26.9594 9.19278 26.3052 9.6404 25.9016C10.088 25.4981 10.8138 25.4981 11.2614 25.9016L14.3913 28.7234L14.3913 18.1961C14.3913 17.5567 14.8913 17.0385 15.5079 17.0385C16.1246 17.0385 16.6245 17.5567 16.6245 18.1961L16.6245 28.7233L19.7544 25.9016C20.202 25.498 20.9278 25.498 21.3754 25.9016C21.823 26.3051 21.823 26.9594 21.3754 27.363L16.3284 31.913C16.1037 32.1156 15.809 32.2165 15.5145 32.2157C15.5123 32.2157 15.5101 32.2157 15.5079 32.2157L15.503 32.2157C15.208 32.2169 14.9125 32.116 14.6874 31.913L9.6404 27.363Z" fill="#8F99BA"/>
<path d="M30.4074 14.5924C30.8551 14.9959 30.8551 15.6502 30.4074 16.0538C29.9598 16.4573 29.2341 16.4573 28.7865 16.0538L25.6565 13.232L25.6565 23.7593C25.6565 24.3986 25.1566 24.9169 24.5399 24.9169C23.9233 24.9169 23.4233 24.3986 23.4233 23.7593L23.4233 13.232L20.2934 16.0538C19.8458 16.4573 19.1201 16.4573 18.6724 16.0538C18.2248 15.6502 18.2248 14.996 18.6724 14.5924L23.7194 10.0424C23.9441 9.83979 24.2389 9.73891 24.5334 9.7397C24.5356 9.73969 24.5377 9.73969 24.5399 9.73969L24.5448 9.7397C24.8399 9.73851 25.1354 9.8394 25.3605 10.0423L30.4074 14.5924Z" fill="#8F99BA"/>
</svg>
