<svg width="14" height="13" viewBox="0 0 14 13" fill="none" xmlns="http://www.w3.org/2000/svg">
<path d="M7.29217 0.620451C7.33029 0.55194 7.42883 0.55194 7.46694 0.620451L9.4706 4.22191C9.48572 4.24908 9.51261 4.26768 9.54338 4.27222L13.8698 4.91103C13.9529 4.9233 13.9848 5.02638 13.9231 5.0834L10.8415 7.93087C10.8167 7.95381 10.8051 7.98774 10.8108 8.02106L11.4866 11.9994C11.5001 12.0789 11.4188 12.1409 11.3457 12.1068L7.42184 10.2757C7.39504 10.2632 7.36407 10.2632 7.33727 10.2757L3.41338 12.1068C3.34031 12.1409 3.259 12.0789 3.27251 11.9994L3.9483 8.02106C3.95396 7.98774 3.94241 7.95381 3.91758 7.93087L0.836038 5.0834C0.774334 5.02638 0.806184 4.9233 0.889297 4.91103L5.21574 4.27222C5.2465 4.26768 5.2734 4.24908 5.28852 4.22191L7.29217 0.620451Z" fill="#DADEEC"/>
</svg>
