<svg width="21" height="20" viewBox="0 0 21 20" fill="none" xmlns="http://www.w3.org/2000/svg">
<path d="M10.4062 0C4.88425 0 0.40625 4.478 0.40625 9.99C0.40625 15.511 4.88425 20 10.4062 20C15.9282 20 20.4062 15.512 20.4062 9.99C20.4062 4.477 15.9282 0 10.4062 0ZM15.3312 6.28C15.2672 7.207 13.5513 14.137 13.5513 14.137C13.5513 14.137 13.4442 14.542 13.0712 14.552C12.9807 14.5563 12.8902 14.5414 12.8057 14.5083C12.7213 14.4752 12.6448 14.4247 12.5813 14.36C12.1863 14.03 11.2913 13.39 10.4493 12.804C10.4161 12.8387 10.3803 12.8708 10.3422 12.9C10.1502 13.07 9.86225 13.316 9.55325 13.614C9.43625 13.721 9.30825 13.838 9.18025 13.966L9.17025 13.976C9.1093 14.0367 9.04486 14.0938 8.97725 14.147C8.56225 14.488 8.51925 14.2 8.51925 14.051L8.74325 11.61V11.589L8.75325 11.567C8.76425 11.535 8.78625 11.524 8.78625 11.524C8.78625 11.524 13.1463 7.644 13.2633 7.228C13.2733 7.207 13.2422 7.185 13.1892 7.207C12.9013 7.303 7.87925 10.48 7.32525 10.832C7.29325 10.852 7.19725 10.842 7.19725 10.842L4.75625 10.042C4.75625 10.042 4.46825 9.925 4.56425 9.659C4.58525 9.605 4.61725 9.552 4.73425 9.478C5.27825 9.094 14.7342 5.693 14.7342 5.693C14.7342 5.693 15.0012 5.608 15.1612 5.661C15.2352 5.693 15.2783 5.725 15.3213 5.831C15.3313 5.874 15.3423 5.959 15.3423 6.055C15.3423 6.109 15.3323 6.173 15.3323 6.279L15.3312 6.28Z" fill="#8F99BA"/>
</svg>
