<svg width="14" height="14" viewBox="0 0 14 14" fill="none" xmlns="http://www.w3.org/2000/svg">
<path d="M3.32833 7.7404C3.04296 7.7404 2.82525 7.52352 2.82525 7.23913C2.82525 6.95996 3.04296 6.74302 3.32833 6.74302H6.01553V3.11994C6.01553 2.83963 6.23324 2.62383 6.51343 2.62383C6.79474 2.62383 7.0165 2.83963 7.0165 3.11994V7.23913C7.0165 7.52352 6.79474 7.7404 6.51343 7.7404H3.32833ZM6.5186 13.4558C10.0899 13.4558 13.0383 10.5139 13.0383 6.9606C13.0383 3.40215 10.0847 0.465454 6.51343 0.465454C2.94844 0.465454 0 3.40215 0 6.9606C0 10.5139 2.95361 13.4558 6.5186 13.4558Z" fill="#FD404D"/>
</svg>
