<svg width="21" height="18" viewBox="0 0 21 18" fill="none" xmlns="http://www.w3.org/2000/svg">
<path d="M6.69325 17.5C14.2382 17.5 18.3682 10.965 18.3682 5.302C18.3682 5.121 18.3682 4.94 18.3582 4.747C19.1677 4.13491 19.8613 3.38309 20.4062 2.527C19.6568 2.86997 18.8604 3.09916 18.0432 3.207C18.9103 2.65446 19.552 1.811 19.8533 0.828C19.0623 1.327 18.1832 1.678 17.2412 1.87C16.8696 1.44085 16.4102 1.09647 15.894 0.860126C15.3778 0.623779 14.817 0.500971 14.2493 0.5C11.9833 0.5 10.1403 2.425 10.1403 4.792C10.1403 5.132 10.1843 5.449 10.2493 5.766C6.84525 5.596 3.82125 3.876 1.79425 1.281C1.42853 1.94343 1.23817 2.68833 1.24125 3.445C1.24125 4.928 1.96725 6.242 3.06125 7.012C2.40933 6.98912 1.77302 6.80643 1.20825 6.48V6.537C1.20825 8.609 2.62825 10.353 4.49325 10.738C4.14093 10.8393 3.77583 10.8891 3.40925 10.886C3.14925 10.886 2.88925 10.863 2.63925 10.806C3.15925 12.516 4.67725 13.751 6.47625 13.786C5.04322 14.9712 3.24187 15.6197 1.38225 15.62C1.05625 15.62 0.72025 15.609 0.40625 15.563C2.26031 16.8244 4.45077 17.4993 6.69325 17.5Z" fill="#8F99BA"/>
</svg>
